<svg height="496pt" viewBox="0 0 496 496" width="496pt" xmlns="http://www.w3.org/2000/svg"><g fill="#f0bc5e"><path d="m120 64c-30.871094 0-56 25.128906-56 56s25.128906 56 56 56 56-25.128906 56-56-25.128906-56-56-56zm0 72c-8.839844 0-16-7.160156-16-16s7.160156-16 16-16 16 7.160156 16 16-7.160156 16-16 16zm0 0"/><path d="m352 272c-44.113281 0-80 35.886719-80 80s35.886719 80 80 80 80-35.886719 80-80-35.886719-80-80-80zm0 120c-22.089844 0-40-17.910156-40-40s17.910156-40 40-40 40 17.910156 40 40-17.910156 40-40 40zm0 0"/><path d="m192 378.265625-92.992188-106.265625h-16.777343l-6.542969 19.648438-18.519531-9.265626-30.785157 30.785157 9.265626 18.519531-19.648438 6.542969v43.53125l19.648438 6.542969-9.265626 18.519531 30.785157 30.785156 18.519531-9.265625 6.542969 19.65625h43.53125l6.542969-19.648438 18.519531 9.265626 30.785156-30.785157-9.265625-18.519531 19.65625-6.542969zm-88 13.734375c-17.671875 0-32-14.328125-32-32s14.328125-32 32-32 32 14.328125 32 32-14.328125 32-32 32zm0 0"/><path d="m448 82.230469-19.648438-6.542969 9.265626-18.519531-30.785157-30.785157-18.519531 9.265626-6.542969-19.648438h-43.53125l-6.542969 19.648438-18.519531-9.265626-30.785156 30.785157 9.265625 18.519531-19.65625 6.542969v16.730469l106.382812 93.039062h3.378907l6.542969-19.648438 18.519531 9.265626 30.785156-30.785157-9.265625-18.519531 19.65625-6.542969zm-88 53.769531c-17.671875 0-32-14.328125-32-32s14.328125-32 32-32 32 14.328125 32 32-14.328125 32-32 32zm0 0"/></g><path d="m120 208v-16c-39.703125 0-72-32.296875-72-72h-16c0 48.519531 39.480469 88 88 88zm0 0"/><path d="m120 144c13.230469 0 24-10.769531 24-24s-10.769531-24-24-24-24 10.769531-24 24 10.769531 24 24 24zm0-32c4.414062 0 8 3.585938 8 8s-3.585938 8-8 8-8-3.585938-8-8 3.585938-8 8-8zm0 0"/><path d="m496 381.679688v-59.359376l-21.648438-7.550781c-2.429687-7.984375-5.609374-15.679687-9.503906-22.976562l9.96875-20.625-7.726562-7.726563c-3.578125-4.699218-9.449219-10.898437-13.890625-15.386718-5.527344-5.589844-11.902344-11.65625-16.230469-15.445313l-230.816406-201.855469c-22.664063-19.832031-51.726563-30.753906-81.847656-30.753906v.214844c-1.441407-.046875-2.847657-.214844-4.304688-.214844-66.167969 0-120 53.832031-120 120 0 1.457031.167969 2.863281.214844 4.304688h-.214844c0 30.121093 10.921875 59.175781 30.753906 81.839843l201.832032 230.640625c3.636718 4.152344 9.09375 9.933594 14.230468 15.109375 4.863282 4.890625 11.558594 11.335938 16.582032 15.167969l7.753906 7.753906 20.625-9.96875c7.292968 3.886719 14.992187 7.074219 22.976562 9.503906l7.566406 21.648438h59.359376l7.550781-21.648438c7.984375-2.429687 15.679687-5.609374 22.976562-9.503906l20.625 9.96875 41.984375-41.984375-9.96875-20.625c3.886719-7.296875 7.074219-14.992187 9.503906-22.976562zm-256.847656-89.886719c-3.886719 7.296875-7.074219 14.992187-9.503906 22.976562l-21.648438 7.550781v59.359376l21.648438 7.550781c2.429687 7.984375 5.609374 15.679687 9.503906 22.976562l-2.425782 5.015625-163.335937-186.648437c14.335937 6.066406 30.089844 9.425781 46.609375 9.425781 66.167969 0 120-53.832031 120-120 0-16.535156-3.359375-32.296875-9.433594-46.640625l186.761719 163.320313-5.113281 2.472656c-7.292969-3.886719-14.992188-7.074219-22.976563-9.503906l-7.558593-21.648438h-59.359376l-7.550781 21.648438c-7.984375 2.429687-15.679687 5.609374-22.976562 9.503906l-20.625-9.96875-41.984375 41.984375zm-119.152344-275.792969c57.34375 0 104 46.65625 104 104s-46.65625 104-104 104-104-46.65625-104-104 46.65625-104 104-104zm341.167969 360.886719-1.097657 4.089843c-2.542968 9.503907-6.292968 18.574219-11.148437 26.96875l-2.128906 3.671876 8.664062 17.933593-25.90625 25.90625-17.933593-8.664062-3.671876 2.128906c-8.394531 4.847656-17.472656 8.597656-26.96875 11.148437l-4.089843 1.097657-6.566407 18.832031h-36.640624l-6.566407-18.832031-4.089843-1.097657c-9.503907-2.542968-18.574219-6.292968-26.96875-11.148437l-3.671876-2.128906-17.933593 8.664062-25.90625-25.90625 8.664062-17.933593-2.128906-3.671876c-4.847656-8.394531-8.597656-17.472656-11.148437-26.96875l-1.097657-4.089843-18.832031-6.566407v-36.640624l18.832031-6.566407 1.097657-4.089843c2.542968-9.503907 6.292968-18.574219 11.148437-26.96875l2.128906-3.671876-8.664062-17.933593 25.90625-25.90625 17.933593 8.664062 3.671876-2.128906c8.394531-4.847656 17.472656-8.597656 26.96875-11.148437l4.089843-1.097657 6.566407-18.832031h36.640624l6.566407 18.832031 4.089843 1.097657c9.503907 2.542968 18.574219 6.292968 26.96875 11.148437l3.671876 2.128906 17.933593-8.664062 25.90625 25.90625-8.664062 17.933593 2.128906 3.671876c4.847656 8.394531 8.597656 17.472656 11.148437 26.96875l1.097657 4.089843 18.832031 6.566407v36.640624zm0 0"/><path d="m352 304c-26.472656 0-48 21.527344-48 48s21.527344 48 48 48 48-21.527344 48-48-21.527344-48-48-48zm0 80c-17.648438 0-32-14.351562-32-32s14.351562-32 32-32 32 14.351562 32 32-14.351562 32-32 32zm0 0"/><path d="m360 144c22.054688 0 40-17.945312 40-40s-17.945312-40-40-40-40 17.945312-40 40 17.945312 40 40 40zm0-64c13.230469 0 24 10.769531 24 24s-10.769531 24-24 24-24-10.769531-24-24 10.769531-24 24-24zm0 0"/><path d="m104 320c-22.054688 0-40 17.945312-40 40s17.945312 40 40 40 40-17.945312 40-40-17.945312-40-40-40zm0 64c-13.230469 0-24-10.769531-24-24s10.769531-24 24-24 24 10.769531 24 24-10.769531 24-24 24zm0 0"/></svg>