<?xml version="1.0" encoding="utf-8" standalone="no"?>
<!DOCTYPE svg PUBLIC "-//W3C//DTD SVG 1.1//EN"
  "http://www.w3.org/Graphics/SVG/1.1/DTD/svg11.dtd">
<!-- Created with matplotlib (https://matplotlib.org/) -->
<svg height="720pt" version="1.1" viewBox="0 0 720 720" width="720pt" xmlns="http://www.w3.org/2000/svg" xmlns:xlink="http://www.w3.org/1999/xlink">
 <defs>
  <style type="text/css">
*{stroke-linecap:butt;stroke-linejoin:round;}
  </style>
 </defs>
 <g id="figure_1">
  <g id="patch_1">
   <path d="M 0 720 
L 720 720 
L 720 0 
L 0 0 
z
" style="fill:#ffffff;"/>
  </g>
  <g id="axes_1">
   <g id="patch_2">
    <path d="M 47.675 451.8 
L 709.2 451.8 
L 709.2 26.8 
L 47.675 26.8 
z
" style="fill:#ffffff;"/>
   </g>
   <g id="PolyCollection_1">
    <defs>
     <path d="M 77.744318 -445.829081 
L 77.744318 -287.518182 
L 83.818928 -287.518182 
L 89.893538 -287.518182 
L 95.968147 -287.518182 
L 102.042757 -287.518182 
L 108.117367 -287.518182 
L 114.191977 -287.518182 
L 120.266586 -287.518182 
L 126.341196 -287.518182 
L 132.415806 -287.518182 
L 138.490416 -287.518182 
L 144.565025 -287.518182 
L 150.639635 -287.518182 
L 156.714245 -287.518182 
L 162.788854 -287.518182 
L 168.863464 -287.518182 
L 174.938074 -287.518182 
L 181.012684 -287.518182 
L 187.087293 -287.518182 
L 193.161903 -287.518182 
L 199.236513 -287.518182 
L 205.311123 -287.518182 
L 211.385732 -287.518182 
L 217.460342 -287.518182 
L 223.534952 -288.103504 
L 229.609562 -300.283313 
L 235.684171 -307.722301 
L 241.758781 -310.224006 
L 247.833391 -309.267215 
L 253.908 -306.654271 
L 259.98261 -317.110812 
L 266.05722 -322.253815 
L 272.13183 -321.464515 
L 278.206439 -315.54188 
L 284.281049 -308.265134 
L 290.355659 -307.815284 
L 296.430269 -313.965303 
L 302.504878 -326.945554 
L 308.579488 -337.982473 
L 314.654098 -345.59867 
L 320.728708 -349.388873 
L 326.803317 -349.481511 
L 332.877927 -347.102835 
L 338.952537 -341.550299 
L 345.027146 -341.486835 
L 351.101756 -345.119425 
L 357.176366 -352.236685 
L 363.250976 -362.591263 
L 369.325585 -369.73586 
L 375.400195 -372.866296 
L 381.474805 -372.465431 
L 387.549415 -374.706249 
L 393.624024 -387.663702 
L 399.698634 -400.458989 
L 405.773244 -411.966679 
L 411.847854 -422.097332 
L 417.922463 -430.12227 
L 423.997073 -436.410699 
L 430.071683 -438.359881 
L 436.146292 -437.923666 
L 442.220902 -435.461445 
L 448.295512 -431.383014 
L 454.370122 -426.06187 
L 460.444731 -423.755968 
L 466.519341 -424.032348 
L 472.593951 -425.292975 
L 478.668561 -428.008575 
L 484.74317 -440.03904 
L 490.81778 -460.125578 
L 496.89239 -465.589626 
L 502.967 -459.562223 
L 509.041609 -454.20458 
L 515.116219 -462.531086 
L 521.190829 -468.718627 
L 527.265438 -473.54152 
L 533.340048 -477.981527 
L 539.414658 -483.562468 
L 545.489268 -492.129792 
L 551.563877 -499.758421 
L 557.638487 -506.242443 
L 563.713097 -511.17456 
L 569.787707 -514.500984 
L 575.862316 -516.972799 
L 581.936926 -519.721329 
L 588.011536 -520.688776 
L 594.086146 -521.969184 
L 600.160755 -524.851447 
L 606.235365 -529.067837 
L 612.309975 -532.271127 
L 618.384584 -534.482492 
L 624.459194 -535.750779 
L 630.533804 -536.145941 
L 636.608414 -535.750856 
L 642.683023 -534.653468 
L 648.757633 -532.940503 
L 654.832243 -530.693222 
L 660.906853 -528.840485 
L 666.981462 -527.056639 
L 673.056072 -525.154576 
L 679.130682 -523.001995 
L 679.130682 -673.881818 
L 679.130682 -673.881818 
L 673.056072 -673.881818 
L 666.981462 -673.881818 
L 660.906853 -673.881818 
L 654.832243 -673.881818 
L 648.757633 -673.881818 
L 642.683023 -673.881818 
L 636.608414 -673.881818 
L 630.533804 -673.881818 
L 624.459194 -673.881818 
L 618.384584 -673.881818 
L 612.309975 -673.881818 
L 606.235365 -673.881818 
L 600.160755 -673.881818 
L 594.086146 -673.881818 
L 588.011536 -673.881818 
L 581.936926 -673.881818 
L 575.862316 -673.881818 
L 569.787707 -673.881818 
L 563.713097 -673.881818 
L 557.638487 -673.881818 
L 551.563877 -673.881818 
L 545.489268 -673.881818 
L 539.414658 -673.881818 
L 533.340048 -673.881818 
L 527.265438 -673.881818 
L 521.190829 -673.881818 
L 515.116219 -673.881818 
L 509.041609 -673.881818 
L 502.967 -661.84696 
L 496.89239 -648.01423 
L 490.81778 -645.672953 
L 484.74317 -657.954165 
L 478.668561 -662.179304 
L 472.593951 -657.089578 
L 466.519341 -650.544878 
L 460.444731 -643.015933 
L 454.370122 -632.904704 
L 448.295512 -619.778235 
L 442.220902 -607.894478 
L 436.146292 -597.62693 
L 430.071683 -589.38539 
L 423.997073 -583.529246 
L 417.922463 -582.012349 
L 411.847854 -582.231961 
L 405.773244 -584.557288 
L 399.698634 -588.259652 
L 393.624024 -593.249613 
L 387.549415 -598.40174 
L 381.474805 -592.837232 
L 375.400195 -584.631041 
L 369.325585 -579.956151 
L 363.250976 -579.295422 
L 357.176366 -581.844674 
L 351.101756 -581.156609 
L 345.027146 -576.983872 
L 338.952537 -569.115082 
L 332.877927 -555.75722 
L 326.803317 -545.573218 
L 320.728708 -537.86053 
L 314.654098 -533.845407 
L 308.579488 -533.656278 
L 302.504878 -536.887871 
L 296.430269 -542.062797 
L 290.355659 -540.407489 
L 284.281049 -532.152313 
L 278.206439 -517.070242 
L 272.13183 -503.34228 
L 266.05722 -494.747654 
L 259.98261 -492.085331 
L 253.908 -494.736546 
L 247.833391 -484.318276 
L 241.758781 -475.556159 
L 235.684171 -470.252538 
L 229.609562 -469.8862 
L 223.534952 -474.260684 
L 217.460342 -479.616614 
L 211.385732 -484.424109 
L 205.311123 -489.330698 
L 199.236513 -492.13836 
L 193.161903 -497.496684 
L 187.087293 -504.269232 
L 181.012684 -502.535916 
L 174.938074 -498.817208 
L 168.863464 -493.361657 
L 162.788854 -485.747315 
L 156.714245 -473.802272 
L 150.639635 -462.749557 
L 144.565025 -452.941303 
L 138.490416 -444.564473 
L 132.415806 -437.78605 
L 126.341196 -432.727078 
L 120.266586 -429.439613 
L 114.191977 -427.895705 
L 108.117367 -427.9934 
L 102.042757 -429.791001 
L 95.968147 -432.941062 
L 89.893538 -437.510647 
L 83.818928 -442.865312 
L 77.744318 -445.829081 
z
" id="m9fbf678d42" style="stroke:#003f5c;stroke-opacity:0.2;"/>
    </defs>
    <g clip-path="url(#p187641bdff)">
     <use style="fill:#003f5c;fill-opacity:0.2;stroke:#003f5c;stroke-opacity:0.2;" x="0" xlink:href="#m9fbf678d42" y="720"/>
    </g>
   </g>
   <g id="PolyCollection_2">
    <defs>
     <path d="M 77.744318 -405.554222 
L 77.744318 -287.518182 
L 83.818928 -287.518182 
L 89.893538 -287.518182 
L 95.968147 -287.518182 
L 102.042757 -287.518182 
L 108.117367 -287.518182 
L 114.191977 -287.518182 
L 120.266586 -287.518182 
L 126.341196 -287.518182 
L 132.415806 -287.518182 
L 138.490416 -287.518182 
L 144.565025 -287.518182 
L 150.639635 -287.518182 
L 156.714245 -287.518182 
L 162.788854 -287.518182 
L 168.863464 -287.518182 
L 174.938074 -287.518182 
L 181.012684 -287.518182 
L 187.087293 -287.518182 
L 193.161903 -287.518182 
L 199.236513 -287.518182 
L 205.311123 -287.518182 
L 211.385732 -287.518182 
L 217.460342 -287.518182 
L 223.534952 -287.518182 
L 229.609562 -287.518182 
L 235.684171 -287.518182 
L 241.758781 -290.625558 
L 247.833391 -292.786065 
L 253.908 -293.466409 
L 259.98261 -295.585808 
L 266.05722 -297.056104 
L 272.13183 -296.995169 
L 278.206439 -299.108435 
L 284.281049 -303.36259 
L 290.355659 -314.944567 
L 296.430269 -329.044432 
L 302.504878 -343.528727 
L 308.579488 -358.201087 
L 314.654098 -373.657607 
L 320.728708 -392.426113 
L 326.803317 -401.590167 
L 332.877927 -400.670219 
L 338.952537 -396.32624 
L 345.027146 -385.627517 
L 351.101756 -394.617066 
L 357.176366 -401.927174 
L 363.250976 -402.723089 
L 369.325585 -397.21803 
L 375.400195 -390.815711 
L 381.474805 -378.862644 
L 387.549415 -381.869131 
L 393.624024 -393.229477 
L 399.698634 -402.827556 
L 405.773244 -412.759991 
L 411.847854 -426.342469 
L 417.922463 -434.567457 
L 423.997073 -435.569362 
L 430.071683 -430.095141 
L 436.146292 -421.600061 
L 442.220902 -411.002017 
L 448.295512 -398.143195 
L 454.370122 -393.508046 
L 460.444731 -396.4395 
L 466.519341 -402.71184 
L 472.593951 -413.656479 
L 478.668561 -422.045824 
L 484.74317 -427.596228 
L 490.81778 -430.193273 
L 496.89239 -429.928101 
L 502.967 -427.068243 
L 509.041609 -423.460982 
L 515.116219 -430.651808 
L 521.190829 -437.465006 
L 527.265438 -443.746689 
L 533.340048 -455.381399 
L 539.414658 -470.277729 
L 545.489268 -484.85126 
L 551.563877 -499.021939 
L 557.638487 -512.640456 
L 563.713097 -525.489713 
L 569.787707 -537.25792 
L 575.862316 -548.269515 
L 581.936926 -557.787588 
L 588.011536 -566.756471 
L 594.086146 -577.137048 
L 600.160755 -586.637361 
L 606.235365 -593.847902 
L 612.309975 -596.96335 
L 618.384584 -598.049061 
L 624.459194 -596.977385 
L 630.533804 -594.411028 
L 636.608414 -590.868403 
L 642.683023 -586.690516 
L 648.757633 -582.090114 
L 654.832243 -577.446145 
L 660.906853 -572.729875 
L 666.981462 -567.894151 
L 673.056072 -562.968233 
L 679.130682 -557.972727 
L 679.130682 -673.881818 
L 679.130682 -673.881818 
L 673.056072 -673.881818 
L 666.981462 -673.881818 
L 660.906853 -673.881818 
L 654.832243 -673.881818 
L 648.757633 -673.881818 
L 642.683023 -673.881818 
L 636.608414 -673.881818 
L 630.533804 -673.881818 
L 624.459194 -673.881818 
L 618.384584 -671.661316 
L 612.309975 -664.941701 
L 606.235365 -660.251823 
L 600.160755 -659.657037 
L 594.086146 -661.352025 
L 588.011536 -663.927275 
L 581.936926 -665.090833 
L 575.862316 -666.80358 
L 569.787707 -670.009849 
L 563.713097 -673.881818 
L 557.638487 -673.881818 
L 551.563877 -673.881818 
L 545.489268 -673.881818 
L 539.414658 -673.881818 
L 533.340048 -673.881818 
L 527.265438 -673.881818 
L 521.190829 -673.881818 
L 515.116219 -673.881818 
L 509.041609 -673.881818 
L 502.967 -673.881818 
L 496.89239 -673.881818 
L 490.81778 -673.881818 
L 484.74317 -670.396977 
L 478.668561 -668.142055 
L 472.593951 -668.726073 
L 466.519341 -671.865387 
L 460.444731 -670.332401 
L 454.370122 -665.458529 
L 448.295512 -653.018054 
L 442.220902 -632.353905 
L 436.146292 -613.950536 
L 430.071683 -597.65013 
L 423.997073 -584.370583 
L 417.922463 -577.567162 
L 411.847854 -577.986824 
L 405.773244 -583.763976 
L 399.698634 -585.891085 
L 393.624024 -587.683838 
L 387.549415 -591.238858 
L 381.474805 -586.440019 
L 375.400195 -566.681626 
L 369.325585 -552.473981 
L 363.250976 -539.163596 
L 357.176366 -532.154185 
L 351.101756 -531.658968 
L 345.027146 -532.84319 
L 338.952537 -514.339141 
L 332.877927 -502.189836 
L 326.803317 -493.464563 
L 320.728708 -494.82329 
L 314.654098 -505.78647 
L 308.579488 -513.437664 
L 302.504878 -520.304698 
L 296.430269 -526.983667 
L 290.355659 -533.278206 
L 284.281049 -537.054857 
L 278.206439 -533.503687 
L 272.13183 -527.811627 
L 266.05722 -519.945366 
L 259.98261 -513.610335 
L 253.908 -507.924408 
L 247.833391 -500.799427 
L 241.758781 -495.154608 
L 235.684171 -491.39296 
L 229.609562 -489.679396 
L 223.534952 -488.977165 
L 217.460342 -486.195883 
L 211.385732 -480.0104 
L 205.311123 -482.627262 
L 199.236513 -490.105318 
L 193.161903 -490.819199 
L 187.087293 -485.140301 
L 181.012684 -481.100501 
L 174.938074 -478.705037 
L 168.863464 -476.966479 
L 162.788854 -476.596258 
L 156.714245 -477.424358 
L 150.639635 -474.963571 
L 144.565025 -463.689029 
L 138.490416 -453.139922 
L 132.415806 -443.436058 
L 126.341196 -434.704356 
L 120.266586 -427.070373 
L 114.191977 -420.646168 
L 108.117367 -415.516131 
L 102.042757 -411.724151 
L 95.968147 -409.266192 
L 89.893538 -408.404235 
L 83.818928 -407.281566 
L 77.744318 -405.554222 
z
" id="mf2d1690cad" style="stroke:#58508d;stroke-opacity:0.2;"/>
    </defs>
    <g clip-path="url(#p187641bdff)">
     <use style="fill:#58508d;fill-opacity:0.2;stroke:#58508d;stroke-opacity:0.2;" x="0" xlink:href="#mf2d1690cad" y="720"/>
    </g>
   </g>
   <g id="PolyCollection_3">
    <defs>
     <path d="M 77.744318 -403.427273 
L 77.744318 -287.518182 
L 83.818928 -287.518182 
L 89.893538 -287.518182 
L 95.968147 -287.518182 
L 102.042757 -287.518182 
L 108.117367 -287.518182 
L 114.191977 -287.518182 
L 120.266586 -287.518182 
L 126.341196 -287.518182 
L 132.415806 -287.518182 
L 138.490416 -293.070601 
L 144.565025 -298.881885 
L 150.639635 -301.584638 
L 156.714245 -302.717416 
L 162.788854 -303.885356 
L 168.863464 -309.963966 
L 174.938074 -315.817434 
L 181.012684 -320.987476 
L 187.087293 -325.393724 
L 193.161903 -329.000836 
L 199.236513 -331.829805 
L 205.311123 -333.951121 
L 211.385732 -335.464401 
L 217.460342 -336.476323 
L 223.534952 -337.085378 
L 229.609562 -337.374925 
L 235.684171 -337.412072 
L 241.758781 -337.313031 
L 247.833391 -342.190112 
L 253.908 -349.928094 
L 259.98261 -353.442076 
L 266.05722 -352.820447 
L 272.13183 -348.94163 
L 278.206439 -344.275228 
L 284.281049 -340.913699 
L 290.355659 -337.887445 
L 296.430269 -336.560004 
L 302.504878 -333.033301 
L 308.579488 -330.67038 
L 314.654098 -330.04124 
L 320.728708 -330.841073 
L 326.803317 -328.874818 
L 332.877927 -325.268925 
L 338.952537 -321.764105 
L 345.027146 -319.291307 
L 351.101756 -326.893065 
L 357.176366 -336.387397 
L 363.250976 -347.137234 
L 369.325585 -359.085985 
L 375.400195 -366.933753 
L 381.474805 -373.227241 
L 387.549415 -376.338873 
L 393.624024 -381.659249 
L 399.698634 -389.764525 
L 405.773244 -399.016374 
L 411.847854 -408.12513 
L 417.922463 -420.290037 
L 423.997073 -436.234763 
L 430.071683 -450.431096 
L 436.146292 -460.369577 
L 442.220902 -466.031959 
L 448.295512 -473.602747 
L 454.370122 -481.3488 
L 460.444731 -488.572551 
L 466.519341 -493.307568 
L 472.593951 -497.806138 
L 478.668561 -502.836084 
L 484.74317 -507.825458 
L 490.81778 -512.971029 
L 496.89239 -517.763807 
L 502.967 -522.17933 
L 509.041609 -526.202482 
L 515.116219 -530.112063 
L 521.190829 -532.216542 
L 527.265438 -529.770959 
L 533.340048 -525.343935 
L 539.414658 -519.726569 
L 545.489268 -513.372886 
L 551.563877 -506.547835 
L 557.638487 -499.40862 
L 563.713097 -492.051846 
L 569.787707 -484.539201 
L 575.862316 -490.269938 
L 581.936926 -499.762088 
L 588.011536 -508.961026 
L 594.086146 -518.330307 
L 600.160755 -530.211461 
L 606.235365 -541.829943 
L 612.309975 -553.107608 
L 618.384584 -564.136401 
L 624.459194 -574.759681 
L 630.533804 -584.508955 
L 636.608414 -593.09673 
L 642.683023 -600.197191 
L 648.757633 -605.517379 
L 654.832243 -608.903702 
L 660.906853 -611.454354 
L 666.981462 -612.979737 
L 673.056072 -613.966948 
L 679.130682 -614.863798 
L 679.130682 -673.881818 
L 679.130682 -673.881818 
L 673.056072 -673.881818 
L 666.981462 -673.881818 
L 660.906853 -673.881818 
L 654.832243 -673.881818 
L 648.757633 -673.881818 
L 642.683023 -673.881818 
L 636.608414 -673.881818 
L 630.533804 -673.881818 
L 624.459194 -673.881818 
L 618.384584 -673.881818 
L 612.309975 -673.881818 
L 606.235365 -673.881818 
L 600.160755 -673.881818 
L 594.086146 -673.881818 
L 588.011536 -673.881818 
L 581.936926 -673.881818 
L 575.862316 -673.881818 
L 569.787707 -673.881818 
L 563.713097 -673.881818 
L 557.638487 -673.881818 
L 551.563877 -673.881818 
L 545.489268 -662.673578 
L 539.414658 -648.51457 
L 533.340048 -635.091878 
L 527.265438 -622.859527 
L 521.190829 -612.608619 
L 515.116219 -606.907772 
L 509.041609 -603.012027 
L 502.967 -599.229852 
L 496.89239 -595.84005 
L 490.81778 -592.827501 
L 484.74317 -590.167746 
L 478.668561 -587.351795 
L 472.593951 -584.576415 
L 466.519341 -581.269659 
L 460.444731 -578.199349 
L 454.370122 -577.617775 
L 448.295512 -577.558502 
L 442.220902 -577.323964 
L 436.146292 -575.18102 
L 430.071683 -577.314175 
L 423.997073 -583.705182 
L 417.922463 -591.844582 
L 411.847854 -596.204162 
L 405.773244 -597.507593 
L 399.698634 -598.954116 
L 393.624024 -599.254066 
L 387.549415 -596.769116 
L 381.474805 -592.075422 
L 375.400195 -590.563584 
L 369.325585 -590.606026 
L 363.250976 -594.749451 
L 357.176366 -597.693962 
L 351.101756 -599.382968 
L 345.027146 -599.1794 
L 338.952537 -588.901276 
L 332.877927 -577.59113 
L 326.803317 -566.179911 
L 320.728708 -556.40833 
L 314.654098 -549.402837 
L 308.579488 -540.968371 
L 302.504878 -530.800124 
L 296.430269 -519.468095 
L 290.355659 -510.335328 
L 284.281049 -499.503748 
L 278.206439 -488.336893 
L 272.13183 -475.865165 
L 266.05722 -464.181022 
L 259.98261 -455.754067 
L 253.908 -451.462724 
L 247.833391 -451.395379 
L 241.758781 -448.467134 
L 235.684171 -440.562767 
L 229.609562 -432.794588 
L 223.534952 -425.27881 
L 217.460342 -418.082538 
L 211.385732 -411.289135 
L 205.311123 -404.997089 
L 199.236513 -399.313078 
L 193.161903 -394.336721 
L 187.087293 -390.138508 
L 181.012684 -386.739429 
L 174.938074 -384.104145 
L 168.863464 -382.152288 
L 162.788854 -380.425572 
L 156.714245 -373.788186 
L 150.639635 -367.115637 
L 144.565025 -362.013064 
L 138.490416 -360.019022 
L 132.415806 -360.668284 
L 126.341196 -363.155462 
L 120.266586 -366.806995 
L 114.191977 -371.186517 
L 108.117367 -376.032381 
L 102.042757 -381.187949 
L 95.968147 -386.556902 
L 89.893538 -392.077917 
L 83.818928 -397.710556 
L 77.744318 -403.427273 
z
" id="m41fff465fb" style="stroke:#bc5090;stroke-opacity:0.2;"/>
    </defs>
    <g clip-path="url(#p187641bdff)">
     <use style="fill:#bc5090;fill-opacity:0.2;stroke:#bc5090;stroke-opacity:0.2;" x="0" xlink:href="#m41fff465fb" y="720"/>
    </g>
   </g>
   <g id="matplotlib.axis_1">
    <g id="xtick_1">
     <g id="line2d_1">
      <defs>
       <path d="M 0 0 
L 0 3.5 
" id="m2ca6a123a9" style="stroke:#000000;stroke-width:0.8;"/>
      </defs>
      <g>
       <use style="stroke:#000000;stroke-width:0.8;" x="77.744318" xlink:href="#m2ca6a123a9" y="451.8"/>
      </g>
     </g>
     <g id="text_1">
      <!-- 0.0 -->
      <defs>
       <path d="M 31.78125 66.40625 
Q 24.171875 66.40625 20.328125 58.90625 
Q 16.5 51.421875 16.5 36.375 
Q 16.5 21.390625 20.328125 13.890625 
Q 24.171875 6.390625 31.78125 6.390625 
Q 39.453125 6.390625 43.28125 13.890625 
Q 47.125 21.390625 47.125 36.375 
Q 47.125 51.421875 43.28125 58.90625 
Q 39.453125 66.40625 31.78125 66.40625 
z
M 31.78125 74.21875 
Q 44.046875 74.21875 50.515625 64.515625 
Q 56.984375 54.828125 56.984375 36.375 
Q 56.984375 17.96875 50.515625 8.265625 
Q 44.046875 -1.421875 31.78125 -1.421875 
Q 19.53125 -1.421875 13.0625 8.265625 
Q 6.59375 17.96875 6.59375 36.375 
Q 6.59375 54.828125 13.0625 64.515625 
Q 19.53125 74.21875 31.78125 74.21875 
z
" id="DejaVuSans-48"/>
       <path d="M 10.6875 12.40625 
L 21 12.40625 
L 21 0 
L 10.6875 0 
z
" id="DejaVuSans-46"/>
      </defs>
      <g transform="translate(69.792756 466.398437)scale(0.1 -0.1)">
       <use xlink:href="#DejaVuSans-48"/>
       <use x="63.623047" xlink:href="#DejaVuSans-46"/>
       <use x="95.410156" xlink:href="#DejaVuSans-48"/>
      </g>
     </g>
    </g>
    <g id="xtick_2">
     <g id="line2d_2">
      <g>
       <use style="stroke:#000000;stroke-width:0.8;" x="198.021591" xlink:href="#m2ca6a123a9" y="451.8"/>
      </g>
     </g>
     <g id="text_2">
      <!-- 0.2 -->
      <defs>
       <path d="M 19.1875 8.296875 
L 53.609375 8.296875 
L 53.609375 0 
L 7.328125 0 
L 7.328125 8.296875 
Q 12.9375 14.109375 22.625 23.890625 
Q 32.328125 33.6875 34.8125 36.53125 
Q 39.546875 41.84375 41.421875 45.53125 
Q 43.3125 49.21875 43.3125 52.78125 
Q 43.3125 58.59375 39.234375 62.25 
Q 35.15625 65.921875 28.609375 65.921875 
Q 23.96875 65.921875 18.8125 64.3125 
Q 13.671875 62.703125 7.8125 59.421875 
L 7.8125 69.390625 
Q 13.765625 71.78125 18.9375 73 
Q 24.125 74.21875 28.421875 74.21875 
Q 39.75 74.21875 46.484375 68.546875 
Q 53.21875 62.890625 53.21875 53.421875 
Q 53.21875 48.921875 51.53125 44.890625 
Q 49.859375 40.875 45.40625 35.40625 
Q 44.1875 33.984375 37.640625 27.21875 
Q 31.109375 20.453125 19.1875 8.296875 
z
" id="DejaVuSans-50"/>
      </defs>
      <g transform="translate(190.070028 466.398437)scale(0.1 -0.1)">
       <use xlink:href="#DejaVuSans-48"/>
       <use x="63.623047" xlink:href="#DejaVuSans-46"/>
       <use x="95.410156" xlink:href="#DejaVuSans-50"/>
      </g>
     </g>
    </g>
    <g id="xtick_3">
     <g id="line2d_3">
      <g>
       <use style="stroke:#000000;stroke-width:0.8;" x="318.298864" xlink:href="#m2ca6a123a9" y="451.8"/>
      </g>
     </g>
     <g id="text_3">
      <!-- 0.4 -->
      <defs>
       <path d="M 37.796875 64.3125 
L 12.890625 25.390625 
L 37.796875 25.390625 
z
M 35.203125 72.90625 
L 47.609375 72.90625 
L 47.609375 25.390625 
L 58.015625 25.390625 
L 58.015625 17.1875 
L 47.609375 17.1875 
L 47.609375 0 
L 37.796875 0 
L 37.796875 17.1875 
L 4.890625 17.1875 
L 4.890625 26.703125 
z
" id="DejaVuSans-52"/>
      </defs>
      <g transform="translate(310.347301 466.398437)scale(0.1 -0.1)">
       <use xlink:href="#DejaVuSans-48"/>
       <use x="63.623047" xlink:href="#DejaVuSans-46"/>
       <use x="95.410156" xlink:href="#DejaVuSans-52"/>
      </g>
     </g>
    </g>
    <g id="xtick_4">
     <g id="line2d_4">
      <g>
       <use style="stroke:#000000;stroke-width:0.8;" x="438.576136" xlink:href="#m2ca6a123a9" y="451.8"/>
      </g>
     </g>
     <g id="text_4">
      <!-- 0.6 -->
      <defs>
       <path d="M 33.015625 40.375 
Q 26.375 40.375 22.484375 35.828125 
Q 18.609375 31.296875 18.609375 23.390625 
Q 18.609375 15.53125 22.484375 10.953125 
Q 26.375 6.390625 33.015625 6.390625 
Q 39.65625 6.390625 43.53125 10.953125 
Q 47.40625 15.53125 47.40625 23.390625 
Q 47.40625 31.296875 43.53125 35.828125 
Q 39.65625 40.375 33.015625 40.375 
z
M 52.59375 71.296875 
L 52.59375 62.3125 
Q 48.875 64.0625 45.09375 64.984375 
Q 41.3125 65.921875 37.59375 65.921875 
Q 27.828125 65.921875 22.671875 59.328125 
Q 17.53125 52.734375 16.796875 39.40625 
Q 19.671875 43.65625 24.015625 45.921875 
Q 28.375 48.1875 33.59375 48.1875 
Q 44.578125 48.1875 50.953125 41.515625 
Q 57.328125 34.859375 57.328125 23.390625 
Q 57.328125 12.15625 50.6875 5.359375 
Q 44.046875 -1.421875 33.015625 -1.421875 
Q 20.359375 -1.421875 13.671875 8.265625 
Q 6.984375 17.96875 6.984375 36.375 
Q 6.984375 53.65625 15.1875 63.9375 
Q 23.390625 74.21875 37.203125 74.21875 
Q 40.921875 74.21875 44.703125 73.484375 
Q 48.484375 72.75 52.59375 71.296875 
z
" id="DejaVuSans-54"/>
      </defs>
      <g transform="translate(430.624574 466.398437)scale(0.1 -0.1)">
       <use xlink:href="#DejaVuSans-48"/>
       <use x="63.623047" xlink:href="#DejaVuSans-46"/>
       <use x="95.410156" xlink:href="#DejaVuSans-54"/>
      </g>
     </g>
    </g>
    <g id="xtick_5">
     <g id="line2d_5">
      <g>
       <use style="stroke:#000000;stroke-width:0.8;" x="558.853409" xlink:href="#m2ca6a123a9" y="451.8"/>
      </g>
     </g>
     <g id="text_5">
      <!-- 0.8 -->
      <defs>
       <path d="M 31.78125 34.625 
Q 24.75 34.625 20.71875 30.859375 
Q 16.703125 27.09375 16.703125 20.515625 
Q 16.703125 13.921875 20.71875 10.15625 
Q 24.75 6.390625 31.78125 6.390625 
Q 38.8125 6.390625 42.859375 10.171875 
Q 46.921875 13.96875 46.921875 20.515625 
Q 46.921875 27.09375 42.890625 30.859375 
Q 38.875 34.625 31.78125 34.625 
z
M 21.921875 38.8125 
Q 15.578125 40.375 12.03125 44.71875 
Q 8.5 49.078125 8.5 55.328125 
Q 8.5 64.0625 14.71875 69.140625 
Q 20.953125 74.21875 31.78125 74.21875 
Q 42.671875 74.21875 48.875 69.140625 
Q 55.078125 64.0625 55.078125 55.328125 
Q 55.078125 49.078125 51.53125 44.71875 
Q 48 40.375 41.703125 38.8125 
Q 48.828125 37.15625 52.796875 32.3125 
Q 56.78125 27.484375 56.78125 20.515625 
Q 56.78125 9.90625 50.3125 4.234375 
Q 43.84375 -1.421875 31.78125 -1.421875 
Q 19.734375 -1.421875 13.25 4.234375 
Q 6.78125 9.90625 6.78125 20.515625 
Q 6.78125 27.484375 10.78125 32.3125 
Q 14.796875 37.15625 21.921875 38.8125 
z
M 18.3125 54.390625 
Q 18.3125 48.734375 21.84375 45.5625 
Q 25.390625 42.390625 31.78125 42.390625 
Q 38.140625 42.390625 41.71875 45.5625 
Q 45.3125 48.734375 45.3125 54.390625 
Q 45.3125 60.0625 41.71875 63.234375 
Q 38.140625 66.40625 31.78125 66.40625 
Q 25.390625 66.40625 21.84375 63.234375 
Q 18.3125 60.0625 18.3125 54.390625 
z
" id="DejaVuSans-56"/>
      </defs>
      <g transform="translate(550.901847 466.398437)scale(0.1 -0.1)">
       <use xlink:href="#DejaVuSans-48"/>
       <use x="63.623047" xlink:href="#DejaVuSans-46"/>
       <use x="95.410156" xlink:href="#DejaVuSans-56"/>
      </g>
     </g>
    </g>
    <g id="xtick_6">
     <g id="line2d_6">
      <g>
       <use style="stroke:#000000;stroke-width:0.8;" x="679.130682" xlink:href="#m2ca6a123a9" y="451.8"/>
      </g>
     </g>
     <g id="text_6">
      <!-- 1.0 -->
      <defs>
       <path d="M 12.40625 8.296875 
L 28.515625 8.296875 
L 28.515625 63.921875 
L 10.984375 60.40625 
L 10.984375 69.390625 
L 28.421875 72.90625 
L 38.28125 72.90625 
L 38.28125 8.296875 
L 54.390625 8.296875 
L 54.390625 0 
L 12.40625 0 
z
" id="DejaVuSans-49"/>
      </defs>
      <g transform="translate(671.179119 466.398437)scale(0.1 -0.1)">
       <use xlink:href="#DejaVuSans-49"/>
       <use x="63.623047" xlink:href="#DejaVuSans-46"/>
       <use x="95.410156" xlink:href="#DejaVuSans-48"/>
      </g>
     </g>
    </g>
   </g>
   <g id="matplotlib.axis_2">
    <g id="ytick_1">
     <g id="line2d_7">
      <defs>
       <path d="M 0 0 
L -3.5 0 
" id="m5227aee659" style="stroke:#000000;stroke-width:0.8;"/>
      </defs>
      <g>
       <use style="stroke:#000000;stroke-width:0.8;" x="47.675" xlink:href="#m5227aee659" y="432.481818"/>
      </g>
     </g>
     <g id="text_7">
      <!-- 0.0 -->
      <g transform="translate(24.771875 436.281037)scale(0.1 -0.1)">
       <use xlink:href="#DejaVuSans-48"/>
       <use x="63.623047" xlink:href="#DejaVuSans-46"/>
       <use x="95.410156" xlink:href="#DejaVuSans-48"/>
      </g>
     </g>
    </g>
    <g id="ytick_2">
     <g id="line2d_8">
      <g>
       <use style="stroke:#000000;stroke-width:0.8;" x="47.675" xlink:href="#m5227aee659" y="355.209091"/>
      </g>
     </g>
     <g id="text_8">
      <!-- 0.2 -->
      <g transform="translate(24.771875 359.00831)scale(0.1 -0.1)">
       <use xlink:href="#DejaVuSans-48"/>
       <use x="63.623047" xlink:href="#DejaVuSans-46"/>
       <use x="95.410156" xlink:href="#DejaVuSans-50"/>
      </g>
     </g>
    </g>
    <g id="ytick_3">
     <g id="line2d_9">
      <g>
       <use style="stroke:#000000;stroke-width:0.8;" x="47.675" xlink:href="#m5227aee659" y="277.936364"/>
      </g>
     </g>
     <g id="text_9">
      <!-- 0.4 -->
      <g transform="translate(24.771875 281.735582)scale(0.1 -0.1)">
       <use xlink:href="#DejaVuSans-48"/>
       <use x="63.623047" xlink:href="#DejaVuSans-46"/>
       <use x="95.410156" xlink:href="#DejaVuSans-52"/>
      </g>
     </g>
    </g>
    <g id="ytick_4">
     <g id="line2d_10">
      <g>
       <use style="stroke:#000000;stroke-width:0.8;" x="47.675" xlink:href="#m5227aee659" y="200.663636"/>
      </g>
     </g>
     <g id="text_10">
      <!-- 0.6 -->
      <g transform="translate(24.771875 204.462855)scale(0.1 -0.1)">
       <use xlink:href="#DejaVuSans-48"/>
       <use x="63.623047" xlink:href="#DejaVuSans-46"/>
       <use x="95.410156" xlink:href="#DejaVuSans-54"/>
      </g>
     </g>
    </g>
    <g id="ytick_5">
     <g id="line2d_11">
      <g>
       <use style="stroke:#000000;stroke-width:0.8;" x="47.675" xlink:href="#m5227aee659" y="123.390909"/>
      </g>
     </g>
     <g id="text_11">
      <!-- 0.8 -->
      <g transform="translate(24.771875 127.190128)scale(0.1 -0.1)">
       <use xlink:href="#DejaVuSans-48"/>
       <use x="63.623047" xlink:href="#DejaVuSans-46"/>
       <use x="95.410156" xlink:href="#DejaVuSans-56"/>
      </g>
     </g>
    </g>
    <g id="ytick_6">
     <g id="line2d_12">
      <g>
       <use style="stroke:#000000;stroke-width:0.8;" x="47.675" xlink:href="#m5227aee659" y="46.118182"/>
      </g>
     </g>
     <g id="text_12">
      <!-- 1.0 -->
      <g transform="translate(24.771875 49.917401)scale(0.1 -0.1)">
       <use xlink:href="#DejaVuSans-49"/>
       <use x="63.623047" xlink:href="#DejaVuSans-46"/>
       <use x="95.410156" xlink:href="#DejaVuSans-48"/>
      </g>
     </g>
    </g>
    <g id="text_13">
     <!-- Fraction of positives -->
     <defs>
      <path d="M 9.8125 72.90625 
L 51.703125 72.90625 
L 51.703125 64.59375 
L 19.671875 64.59375 
L 19.671875 43.109375 
L 48.578125 43.109375 
L 48.578125 34.8125 
L 19.671875 34.8125 
L 19.671875 0 
L 9.8125 0 
z
" id="DejaVuSans-70"/>
      <path d="M 41.109375 46.296875 
Q 39.59375 47.171875 37.8125 47.578125 
Q 36.03125 48 33.890625 48 
Q 26.265625 48 22.1875 43.046875 
Q 18.109375 38.09375 18.109375 28.8125 
L 18.109375 0 
L 9.078125 0 
L 9.078125 54.6875 
L 18.109375 54.6875 
L 18.109375 46.1875 
Q 20.953125 51.171875 25.484375 53.578125 
Q 30.03125 56 36.53125 56 
Q 37.453125 56 38.578125 55.875 
Q 39.703125 55.765625 41.0625 55.515625 
z
" id="DejaVuSans-114"/>
      <path d="M 34.28125 27.484375 
Q 23.390625 27.484375 19.1875 25 
Q 14.984375 22.515625 14.984375 16.5 
Q 14.984375 11.71875 18.140625 8.90625 
Q 21.296875 6.109375 26.703125 6.109375 
Q 34.1875 6.109375 38.703125 11.40625 
Q 43.21875 16.703125 43.21875 25.484375 
L 43.21875 27.484375 
z
M 52.203125 31.203125 
L 52.203125 0 
L 43.21875 0 
L 43.21875 8.296875 
Q 40.140625 3.328125 35.546875 0.953125 
Q 30.953125 -1.421875 24.3125 -1.421875 
Q 15.921875 -1.421875 10.953125 3.296875 
Q 6 8.015625 6 15.921875 
Q 6 25.140625 12.171875 29.828125 
Q 18.359375 34.515625 30.609375 34.515625 
L 43.21875 34.515625 
L 43.21875 35.40625 
Q 43.21875 41.609375 39.140625 45 
Q 35.0625 48.390625 27.6875 48.390625 
Q 23 48.390625 18.546875 47.265625 
Q 14.109375 46.140625 10.015625 43.890625 
L 10.015625 52.203125 
Q 14.9375 54.109375 19.578125 55.046875 
Q 24.21875 56 28.609375 56 
Q 40.484375 56 46.34375 49.84375 
Q 52.203125 43.703125 52.203125 31.203125 
z
" id="DejaVuSans-97"/>
      <path d="M 48.78125 52.59375 
L 48.78125 44.1875 
Q 44.96875 46.296875 41.140625 47.34375 
Q 37.3125 48.390625 33.40625 48.390625 
Q 24.65625 48.390625 19.8125 42.84375 
Q 14.984375 37.3125 14.984375 27.296875 
Q 14.984375 17.28125 19.8125 11.734375 
Q 24.65625 6.203125 33.40625 6.203125 
Q 37.3125 6.203125 41.140625 7.25 
Q 44.96875 8.296875 48.78125 10.40625 
L 48.78125 2.09375 
Q 45.015625 0.34375 40.984375 -0.53125 
Q 36.96875 -1.421875 32.421875 -1.421875 
Q 20.0625 -1.421875 12.78125 6.34375 
Q 5.515625 14.109375 5.515625 27.296875 
Q 5.515625 40.671875 12.859375 48.328125 
Q 20.21875 56 33.015625 56 
Q 37.15625 56 41.109375 55.140625 
Q 45.0625 54.296875 48.78125 52.59375 
z
" id="DejaVuSans-99"/>
      <path d="M 18.3125 70.21875 
L 18.3125 54.6875 
L 36.8125 54.6875 
L 36.8125 47.703125 
L 18.3125 47.703125 
L 18.3125 18.015625 
Q 18.3125 11.328125 20.140625 9.421875 
Q 21.96875 7.515625 27.59375 7.515625 
L 36.8125 7.515625 
L 36.8125 0 
L 27.59375 0 
Q 17.1875 0 13.234375 3.875 
Q 9.28125 7.765625 9.28125 18.015625 
L 9.28125 47.703125 
L 2.6875 47.703125 
L 2.6875 54.6875 
L 9.28125 54.6875 
L 9.28125 70.21875 
z
" id="DejaVuSans-116"/>
      <path d="M 9.421875 54.6875 
L 18.40625 54.6875 
L 18.40625 0 
L 9.421875 0 
z
M 9.421875 75.984375 
L 18.40625 75.984375 
L 18.40625 64.59375 
L 9.421875 64.59375 
z
" id="DejaVuSans-105"/>
      <path d="M 30.609375 48.390625 
Q 23.390625 48.390625 19.1875 42.75 
Q 14.984375 37.109375 14.984375 27.296875 
Q 14.984375 17.484375 19.15625 11.84375 
Q 23.34375 6.203125 30.609375 6.203125 
Q 37.796875 6.203125 41.984375 11.859375 
Q 46.1875 17.53125 46.1875 27.296875 
Q 46.1875 37.015625 41.984375 42.703125 
Q 37.796875 48.390625 30.609375 48.390625 
z
M 30.609375 56 
Q 42.328125 56 49.015625 48.375 
Q 55.71875 40.765625 55.71875 27.296875 
Q 55.71875 13.875 49.015625 6.21875 
Q 42.328125 -1.421875 30.609375 -1.421875 
Q 18.84375 -1.421875 12.171875 6.21875 
Q 5.515625 13.875 5.515625 27.296875 
Q 5.515625 40.765625 12.171875 48.375 
Q 18.84375 56 30.609375 56 
z
" id="DejaVuSans-111"/>
      <path d="M 54.890625 33.015625 
L 54.890625 0 
L 45.90625 0 
L 45.90625 32.71875 
Q 45.90625 40.484375 42.875 44.328125 
Q 39.84375 48.1875 33.796875 48.1875 
Q 26.515625 48.1875 22.3125 43.546875 
Q 18.109375 38.921875 18.109375 30.90625 
L 18.109375 0 
L 9.078125 0 
L 9.078125 54.6875 
L 18.109375 54.6875 
L 18.109375 46.1875 
Q 21.34375 51.125 25.703125 53.5625 
Q 30.078125 56 35.796875 56 
Q 45.21875 56 50.046875 50.171875 
Q 54.890625 44.34375 54.890625 33.015625 
z
" id="DejaVuSans-110"/>
      <path id="DejaVuSans-32"/>
      <path d="M 37.109375 75.984375 
L 37.109375 68.5 
L 28.515625 68.5 
Q 23.6875 68.5 21.796875 66.546875 
Q 19.921875 64.59375 19.921875 59.515625 
L 19.921875 54.6875 
L 34.71875 54.6875 
L 34.71875 47.703125 
L 19.921875 47.703125 
L 19.921875 0 
L 10.890625 0 
L 10.890625 47.703125 
L 2.296875 47.703125 
L 2.296875 54.6875 
L 10.890625 54.6875 
L 10.890625 58.5 
Q 10.890625 67.625 15.140625 71.796875 
Q 19.390625 75.984375 28.609375 75.984375 
z
" id="DejaVuSans-102"/>
      <path d="M 18.109375 8.203125 
L 18.109375 -20.796875 
L 9.078125 -20.796875 
L 9.078125 54.6875 
L 18.109375 54.6875 
L 18.109375 46.390625 
Q 20.953125 51.265625 25.265625 53.625 
Q 29.59375 56 35.59375 56 
Q 45.5625 56 51.78125 48.09375 
Q 58.015625 40.1875 58.015625 27.296875 
Q 58.015625 14.40625 51.78125 6.484375 
Q 45.5625 -1.421875 35.59375 -1.421875 
Q 29.59375 -1.421875 25.265625 0.953125 
Q 20.953125 3.328125 18.109375 8.203125 
z
M 48.6875 27.296875 
Q 48.6875 37.203125 44.609375 42.84375 
Q 40.53125 48.484375 33.40625 48.484375 
Q 26.265625 48.484375 22.1875 42.84375 
Q 18.109375 37.203125 18.109375 27.296875 
Q 18.109375 17.390625 22.1875 11.75 
Q 26.265625 6.109375 33.40625 6.109375 
Q 40.53125 6.109375 44.609375 11.75 
Q 48.6875 17.390625 48.6875 27.296875 
z
" id="DejaVuSans-112"/>
      <path d="M 44.28125 53.078125 
L 44.28125 44.578125 
Q 40.484375 46.53125 36.375 47.5 
Q 32.28125 48.484375 27.875 48.484375 
Q 21.1875 48.484375 17.84375 46.4375 
Q 14.5 44.390625 14.5 40.28125 
Q 14.5 37.15625 16.890625 35.375 
Q 19.28125 33.59375 26.515625 31.984375 
L 29.59375 31.296875 
Q 39.15625 29.25 43.1875 25.515625 
Q 47.21875 21.78125 47.21875 15.09375 
Q 47.21875 7.46875 41.1875 3.015625 
Q 35.15625 -1.421875 24.609375 -1.421875 
Q 20.21875 -1.421875 15.453125 -0.5625 
Q 10.6875 0.296875 5.421875 2 
L 5.421875 11.28125 
Q 10.40625 8.6875 15.234375 7.390625 
Q 20.0625 6.109375 24.8125 6.109375 
Q 31.15625 6.109375 34.5625 8.28125 
Q 37.984375 10.453125 37.984375 14.40625 
Q 37.984375 18.0625 35.515625 20.015625 
Q 33.0625 21.96875 24.703125 23.78125 
L 21.578125 24.515625 
Q 13.234375 26.265625 9.515625 29.90625 
Q 5.8125 33.546875 5.8125 39.890625 
Q 5.8125 47.609375 11.28125 51.796875 
Q 16.75 56 26.8125 56 
Q 31.78125 56 36.171875 55.265625 
Q 40.578125 54.546875 44.28125 53.078125 
z
" id="DejaVuSans-115"/>
      <path d="M 2.984375 54.6875 
L 12.5 54.6875 
L 29.59375 8.796875 
L 46.6875 54.6875 
L 56.203125 54.6875 
L 35.6875 0 
L 23.484375 0 
z
" id="DejaVuSans-118"/>
      <path d="M 56.203125 29.59375 
L 56.203125 25.203125 
L 14.890625 25.203125 
Q 15.484375 15.921875 20.484375 11.0625 
Q 25.484375 6.203125 34.421875 6.203125 
Q 39.59375 6.203125 44.453125 7.46875 
Q 49.3125 8.734375 54.109375 11.28125 
L 54.109375 2.78125 
Q 49.265625 0.734375 44.1875 -0.34375 
Q 39.109375 -1.421875 33.890625 -1.421875 
Q 20.796875 -1.421875 13.15625 6.1875 
Q 5.515625 13.8125 5.515625 26.8125 
Q 5.515625 40.234375 12.765625 48.109375 
Q 20.015625 56 32.328125 56 
Q 43.359375 56 49.78125 48.890625 
Q 56.203125 41.796875 56.203125 29.59375 
z
M 47.21875 32.234375 
Q 47.125 39.59375 43.09375 43.984375 
Q 39.0625 48.390625 32.421875 48.390625 
Q 24.90625 48.390625 20.390625 44.140625 
Q 15.875 39.890625 15.1875 32.171875 
z
" id="DejaVuSans-101"/>
     </defs>
     <g transform="translate(18.692187 289.83125)rotate(-90)scale(0.1 -0.1)">
      <use xlink:href="#DejaVuSans-70"/>
      <use x="57.410156" xlink:href="#DejaVuSans-114"/>
      <use x="98.523438" xlink:href="#DejaVuSans-97"/>
      <use x="159.802734" xlink:href="#DejaVuSans-99"/>
      <use x="214.783203" xlink:href="#DejaVuSans-116"/>
      <use x="253.992188" xlink:href="#DejaVuSans-105"/>
      <use x="281.775391" xlink:href="#DejaVuSans-111"/>
      <use x="342.957031" xlink:href="#DejaVuSans-110"/>
      <use x="406.335938" xlink:href="#DejaVuSans-32"/>
      <use x="438.123047" xlink:href="#DejaVuSans-111"/>
      <use x="499.304688" xlink:href="#DejaVuSans-102"/>
      <use x="534.509766" xlink:href="#DejaVuSans-32"/>
      <use x="566.296875" xlink:href="#DejaVuSans-112"/>
      <use x="629.773438" xlink:href="#DejaVuSans-111"/>
      <use x="690.955078" xlink:href="#DejaVuSans-115"/>
      <use x="743.054688" xlink:href="#DejaVuSans-105"/>
      <use x="770.837891" xlink:href="#DejaVuSans-116"/>
      <use x="810.046875" xlink:href="#DejaVuSans-105"/>
      <use x="837.830078" xlink:href="#DejaVuSans-118"/>
      <use x="897.009766" xlink:href="#DejaVuSans-101"/>
      <use x="958.533203" xlink:href="#DejaVuSans-115"/>
     </g>
    </g>
   </g>
   <g id="line2d_13">
    <path clip-path="url(#p187641bdff)" d="M 77.744318 432.481818 
L 679.130682 46.118182 
" style="fill:none;stroke:#000000;stroke-dasharray:1.5,2.475;stroke-dashoffset:0;stroke-width:1.5;"/>
   </g>
   <g id="line2d_14">
    <path clip-path="url(#p187641bdff)" d="M 77.744318 234.792424 
L 83.818928 238.771665 
L 89.893538 240.421439 
L 95.968147 242.060126 
L 102.042757 243.108928 
L 108.117367 244.427047 
L 114.191977 245.380594 
L 120.266586 246.334142 
L 126.341196 247.28769 
L 132.415806 248.241237 
L 138.490416 249.194785 
L 144.565025 250.148332 
L 150.639635 251.10188 
L 156.714245 252.055428 
L 162.788854 252.875819 
L 168.863464 249.505896 
L 174.938074 240.790736 
L 181.012684 233.642737 
L 187.087293 227.249522 
L 193.161903 213.193628 
L 199.236513 199.706237 
L 205.311123 186.251314 
L 211.385732 176.732908 
L 217.460342 168.384753 
L 223.534952 162.062964 
L 229.609562 157.816034 
L 235.684171 155.225988 
L 241.758781 155.714158 
L 247.833391 156.284261 
L 253.908 156.561704 
L 259.98261 167.628955 
L 266.05722 179.020652 
L 272.13183 190.412349 
L 278.206439 202.275321 
L 284.281049 213.319387 
L 290.355659 218.46454 
L 296.430269 220.233222 
L 302.504878 219.172479 
L 308.579488 215.491097 
L 314.654098 211.809716 
L 320.728708 208.128334 
L 326.803317 204.518528 
L 332.877927 201.790149 
L 338.952537 199.522717 
L 345.027146 200.320196 
L 351.101756 202.316067 
L 357.176366 198.898847 
L 363.250976 198.877607 
L 369.325585 199.032042 
L 375.400195 200.311434 
L 381.474805 201.590826 
L 387.549415 200.74799 
L 393.624024 198.728482 
L 399.698634 193.676343 
L 405.773244 187.339811 
L 411.847854 182.519279 
L 417.922463 177.959344 
L 423.997073 173.35611 
L 430.071683 170.796072 
L 436.146292 168.236034 
L 442.220902 165.675997 
L 448.295512 163.115959 
L 454.370122 160.555921 
L 460.444731 161.671821 
L 466.519341 162.452803 
L 472.593951 160.760104 
L 478.668561 160.236949 
L 484.74317 163.011693 
L 490.81778 158.091423 
L 496.89239 154.067337 
L 502.967 155.194203 
L 509.041609 152.49904 
L 515.116219 153.671348 
L 521.190829 152.693013 
L 527.265438 150.400294 
L 533.340048 148.217718 
L 539.414658 141.660504 
L 545.489268 138.265392 
L 551.563877 135.262105 
L 557.638487 132.558514 
L 563.713097 129.854924 
L 569.787707 127.151333 
L 575.862316 124.977344 
L 581.936926 125.093594 
L 588.011536 125.506955 
L 594.086146 128.169427 
L 600.160755 133.551355 
L 606.235365 137.969643 
L 612.309975 142.387932 
L 618.384584 146.806221 
L 624.459194 151.224509 
L 630.533804 155.642798 
L 636.608414 160.061087 
L 642.683023 164.479375 
L 648.757633 168.897664 
L 654.832243 173.315952 
L 660.906853 176.111087 
L 666.981462 178.095607 
L 673.056072 179.720531 
L 679.130682 181.345455 
" style="fill:none;stroke:#003f5c;stroke-linecap:square;stroke-width:1.5;"/>
   </g>
   <g id="line2d_15">
    <path clip-path="url(#p187641bdff)" d="M 77.744318 380.966667 
L 83.818928 379.515613 
L 89.893538 376.00102 
L 95.968147 369.381153 
L 102.042757 362.256211 
L 108.117367 355.131269 
L 114.191977 348.006327 
L 120.266586 340.881385 
L 126.341196 333.756443 
L 132.415806 326.631501 
L 138.490416 319.506559 
L 144.565025 312.381617 
L 150.639635 305.256675 
L 156.714245 303.651577 
L 162.788854 304.027511 
L 168.863464 304.155445 
L 174.938074 304.473964 
L 181.012684 304.040674 
L 187.087293 303.607384 
L 193.161903 303.174095 
L 199.236513 302.146473 
L 205.311123 304.866633 
L 211.385732 307.586793 
L 217.460342 302.856938 
L 223.534952 294.136287 
L 229.609562 286.885979 
L 235.684171 279.36777 
L 241.758781 271.844613 
L 247.833391 264.892616 
L 253.908 257.94062 
L 259.98261 248.381122 
L 266.05722 238.153342 
L 272.13183 227.925562 
L 278.206439 215.39926 
L 284.281049 203.175568 
L 290.355659 197.481728 
L 296.430269 191.636862 
L 302.504878 184.916429 
L 308.579488 182.86424 
L 314.654098 183.143222 
L 320.728708 187.804214 
L 326.803317 192.465206 
L 332.877927 195.593486 
L 338.952537 194.096223 
L 345.027146 191.52006 
L 351.101756 188.166385 
L 357.176366 186.914918 
L 363.250976 182.353688 
L 369.325585 173.428442 
L 375.400195 169.784208 
L 381.474805 167.634606 
L 387.549415 163.564795 
L 393.624024 157.378703 
L 399.698634 150.715771 
L 405.773244 145.440434 
L 411.847854 143.303457 
L 417.922463 143.39876 
L 423.997073 143.494063 
L 430.071683 143.589366 
L 436.146292 145.240957 
L 442.220902 148.103349 
L 448.295512 150.96574 
L 454.370122 148.936012 
L 460.444731 144.657531 
L 466.519341 142.06643 
L 472.593951 144.38937 
L 478.668561 146.71231 
L 484.74317 149.035249 
L 490.81778 151.358189 
L 496.89239 153.681128 
L 502.967 156.004068 
L 509.041609 157.565913 
L 515.116219 152.750034 
L 521.190829 146.52321 
L 527.265438 140.365464 
L 533.340048 135.861572 
L 539.414658 130.199123 
L 545.489268 124.299894 
L 551.563877 118.400666 
L 557.638487 112.501438 
L 563.713097 106.60221 
L 569.787707 100.702981 
L 575.862316 95.643987 
L 581.936926 90.594283 
L 588.011536 84.253667 
L 594.086146 76.666775 
L 600.160755 70.722159 
L 606.235365 68.359851 
L 612.309975 67.578022 
L 618.384584 68.780246 
L 624.459194 69.98247 
L 630.533804 71.184694 
L 636.608414 72.386918 
L 642.683023 73.589142 
L 648.757633 74.791366 
L 654.832243 76.594055 
L 660.906853 78.634177 
L 666.981462 80.6743 
L 673.056072 82.714423 
L 679.130682 84.754545 
" style="fill:none;stroke:#58508d;stroke-linecap:square;stroke-width:1.5;"/>
   </g>
   <g id="line2d_16">
    <path clip-path="url(#p187641bdff)" d="M 77.744318 393.845455 
L 83.818928 396.046027 
L 89.893538 398.246599 
L 95.968147 400.447171 
L 102.042757 402.647743 
L 108.117367 404.848315 
L 114.191977 407.048887 
L 120.266586 409.249459 
L 126.341196 411.450031 
L 132.415806 413.650603 
L 138.490416 415.851175 
L 144.565025 418.051747 
L 150.639635 420.252319 
L 156.714245 419.811467 
L 162.788854 417.625911 
L 168.863464 417.235945 
L 174.938074 416.965769 
L 181.012684 416.695593 
L 187.087293 416.425417 
L 193.161903 416.155241 
L 199.236513 415.885065 
L 205.311123 415.61489 
L 211.385732 415.344714 
L 217.460342 415.074538 
L 223.534952 414.804362 
L 229.609562 414.534186 
L 235.684171 414.26401 
L 241.758781 413.798764 
L 247.833391 406.914407 
L 253.908 401.277884 
L 259.98261 395.641361 
L 266.05722 390.004838 
L 272.13183 384.368315 
L 278.206439 379.440075 
L 284.281049 375.85534 
L 290.355659 372.65051 
L 296.430269 365.044659 
L 302.504878 355.194284 
L 308.579488 341.903584 
L 314.654098 325.470313 
L 320.728708 304.714145 
L 326.803317 283.957977 
L 332.877927 265.4878 
L 338.952537 250.211579 
L 345.027146 234.257903 
L 351.101756 220.71246 
L 357.176366 210.417163 
L 363.250976 201.704148 
L 369.325585 196.441531 
L 375.400195 191.178913 
L 381.474805 184.541593 
L 387.549415 177.162001 
L 393.624024 167.068174 
L 399.698634 159.383633 
L 405.773244 151.103241 
L 411.847854 144.212411 
L 417.922463 136.306467 
L 423.997073 125.452297 
L 430.071683 112.596167 
L 436.146292 99.740037 
L 442.220902 88.428422 
L 448.295512 84.140089 
L 454.370122 80.733718 
L 460.444731 77.327348 
L 466.519341 74.743577 
L 472.593951 71.694496 
L 478.668561 67.825914 
L 484.74317 65.380204 
L 490.81778 64.078284 
L 496.89239 62.776363 
L 502.967 61.474442 
L 509.041609 60.172522 
L 515.116219 60.349156 
L 521.190829 64.39142 
L 527.265438 68.962855 
L 533.340048 73.550051 
L 539.414658 78.137247 
L 545.489268 82.724442 
L 551.563877 87.311638 
L 557.638487 91.898833 
L 563.713097 96.486029 
L 569.787707 101.073225 
L 575.862316 101.447106 
L 581.936926 100.934172 
L 588.011536 100.421239 
L 594.086146 99.536292 
L 600.160755 96.610804 
L 606.235365 93.685316 
L 612.309975 90.759827 
L 618.384584 88.184278 
L 624.459194 86.016624 
L 630.533804 83.84897 
L 636.608414 81.681316 
L 642.683023 79.513663 
L 648.757633 77.346009 
L 654.832243 75.178355 
L 660.906853 74.524358 
L 666.981462 74.224327 
L 673.056072 73.193239 
L 679.130682 71.875758 
" style="fill:none;stroke:#bc5090;stroke-linecap:square;stroke-width:1.5;"/>
   </g>
   <g id="patch_3">
    <path d="M 47.675 451.8 
L 47.675 26.8 
" style="fill:none;stroke:#000000;stroke-linecap:square;stroke-linejoin:miter;stroke-width:0.8;"/>
   </g>
   <g id="patch_4">
    <path d="M 709.2 451.8 
L 709.2 26.8 
" style="fill:none;stroke:#000000;stroke-linecap:square;stroke-linejoin:miter;stroke-width:0.8;"/>
   </g>
   <g id="patch_5">
    <path d="M 47.675 451.8 
L 709.2 451.8 
" style="fill:none;stroke:#000000;stroke-linecap:square;stroke-linejoin:miter;stroke-width:0.8;"/>
   </g>
   <g id="patch_6">
    <path d="M 47.675 26.8 
L 709.2 26.8 
" style="fill:none;stroke:#000000;stroke-linecap:square;stroke-linejoin:miter;stroke-width:0.8;"/>
   </g>
   <g id="text_14">
    <!-- Calibration plots  (reliability curve) -->
    <defs>
     <path d="M 64.40625 67.28125 
L 64.40625 56.890625 
Q 59.421875 61.53125 53.78125 63.8125 
Q 48.140625 66.109375 41.796875 66.109375 
Q 29.296875 66.109375 22.65625 58.46875 
Q 16.015625 50.828125 16.015625 36.375 
Q 16.015625 21.96875 22.65625 14.328125 
Q 29.296875 6.6875 41.796875 6.6875 
Q 48.140625 6.6875 53.78125 8.984375 
Q 59.421875 11.28125 64.40625 15.921875 
L 64.40625 5.609375 
Q 59.234375 2.09375 53.4375 0.328125 
Q 47.65625 -1.421875 41.21875 -1.421875 
Q 24.65625 -1.421875 15.125 8.703125 
Q 5.609375 18.84375 5.609375 36.375 
Q 5.609375 53.953125 15.125 64.078125 
Q 24.65625 74.21875 41.21875 74.21875 
Q 47.75 74.21875 53.53125 72.484375 
Q 59.328125 70.75 64.40625 67.28125 
z
" id="DejaVuSans-67"/>
     <path d="M 9.421875 75.984375 
L 18.40625 75.984375 
L 18.40625 0 
L 9.421875 0 
z
" id="DejaVuSans-108"/>
     <path d="M 48.6875 27.296875 
Q 48.6875 37.203125 44.609375 42.84375 
Q 40.53125 48.484375 33.40625 48.484375 
Q 26.265625 48.484375 22.1875 42.84375 
Q 18.109375 37.203125 18.109375 27.296875 
Q 18.109375 17.390625 22.1875 11.75 
Q 26.265625 6.109375 33.40625 6.109375 
Q 40.53125 6.109375 44.609375 11.75 
Q 48.6875 17.390625 48.6875 27.296875 
z
M 18.109375 46.390625 
Q 20.953125 51.265625 25.265625 53.625 
Q 29.59375 56 35.59375 56 
Q 45.5625 56 51.78125 48.09375 
Q 58.015625 40.1875 58.015625 27.296875 
Q 58.015625 14.40625 51.78125 6.484375 
Q 45.5625 -1.421875 35.59375 -1.421875 
Q 29.59375 -1.421875 25.265625 0.953125 
Q 20.953125 3.328125 18.109375 8.203125 
L 18.109375 0 
L 9.078125 0 
L 9.078125 75.984375 
L 18.109375 75.984375 
z
" id="DejaVuSans-98"/>
     <path d="M 31 75.875 
Q 24.46875 64.65625 21.28125 53.65625 
Q 18.109375 42.671875 18.109375 31.390625 
Q 18.109375 20.125 21.3125 9.0625 
Q 24.515625 -2 31 -13.1875 
L 23.1875 -13.1875 
Q 15.875 -1.703125 12.234375 9.375 
Q 8.59375 20.453125 8.59375 31.390625 
Q 8.59375 42.28125 12.203125 53.3125 
Q 15.828125 64.359375 23.1875 75.875 
z
" id="DejaVuSans-40"/>
     <path d="M 32.171875 -5.078125 
Q 28.375 -14.84375 24.75 -17.8125 
Q 21.140625 -20.796875 15.09375 -20.796875 
L 7.90625 -20.796875 
L 7.90625 -13.28125 
L 13.1875 -13.28125 
Q 16.890625 -13.28125 18.9375 -11.515625 
Q 21 -9.765625 23.484375 -3.21875 
L 25.09375 0.875 
L 2.984375 54.6875 
L 12.5 54.6875 
L 29.59375 11.921875 
L 46.6875 54.6875 
L 56.203125 54.6875 
z
" id="DejaVuSans-121"/>
     <path d="M 8.5 21.578125 
L 8.5 54.6875 
L 17.484375 54.6875 
L 17.484375 21.921875 
Q 17.484375 14.15625 20.5 10.265625 
Q 23.53125 6.390625 29.59375 6.390625 
Q 36.859375 6.390625 41.078125 11.03125 
Q 45.3125 15.671875 45.3125 23.6875 
L 45.3125 54.6875 
L 54.296875 54.6875 
L 54.296875 0 
L 45.3125 0 
L 45.3125 8.40625 
Q 42.046875 3.421875 37.71875 1 
Q 33.40625 -1.421875 27.6875 -1.421875 
Q 18.265625 -1.421875 13.375 4.4375 
Q 8.5 10.296875 8.5 21.578125 
z
M 31.109375 56 
z
" id="DejaVuSans-117"/>
     <path d="M 8.015625 75.875 
L 15.828125 75.875 
Q 23.140625 64.359375 26.78125 53.3125 
Q 30.421875 42.28125 30.421875 31.390625 
Q 30.421875 20.453125 26.78125 9.375 
Q 23.140625 -1.703125 15.828125 -13.1875 
L 8.015625 -13.1875 
Q 14.5 -2 17.703125 9.0625 
Q 20.90625 20.125 20.90625 31.390625 
Q 20.90625 42.671875 17.703125 53.65625 
Q 14.5 64.65625 8.015625 75.875 
z
" id="DejaVuSans-41"/>
    </defs>
    <g transform="translate(274.165938 20.8)scale(0.12 -0.12)">
     <use xlink:href="#DejaVuSans-67"/>
     <use x="69.824219" xlink:href="#DejaVuSans-97"/>
     <use x="131.103516" xlink:href="#DejaVuSans-108"/>
     <use x="158.886719" xlink:href="#DejaVuSans-105"/>
     <use x="186.669922" xlink:href="#DejaVuSans-98"/>
     <use x="250.146484" xlink:href="#DejaVuSans-114"/>
     <use x="291.259766" xlink:href="#DejaVuSans-97"/>
     <use x="352.539062" xlink:href="#DejaVuSans-116"/>
     <use x="391.748047" xlink:href="#DejaVuSans-105"/>
     <use x="419.53125" xlink:href="#DejaVuSans-111"/>
     <use x="480.712891" xlink:href="#DejaVuSans-110"/>
     <use x="544.091797" xlink:href="#DejaVuSans-32"/>
     <use x="575.878906" xlink:href="#DejaVuSans-112"/>
     <use x="639.355469" xlink:href="#DejaVuSans-108"/>
     <use x="667.138672" xlink:href="#DejaVuSans-111"/>
     <use x="728.320312" xlink:href="#DejaVuSans-116"/>
     <use x="767.529297" xlink:href="#DejaVuSans-115"/>
     <use x="819.628906" xlink:href="#DejaVuSans-32"/>
     <use x="851.416016" xlink:href="#DejaVuSans-32"/>
     <use x="883.203125" xlink:href="#DejaVuSans-40"/>
     <use x="922.216797" xlink:href="#DejaVuSans-114"/>
     <use x="963.298828" xlink:href="#DejaVuSans-101"/>
     <use x="1024.822266" xlink:href="#DejaVuSans-108"/>
     <use x="1052.605469" xlink:href="#DejaVuSans-105"/>
     <use x="1080.388672" xlink:href="#DejaVuSans-97"/>
     <use x="1141.667969" xlink:href="#DejaVuSans-98"/>
     <use x="1205.144531" xlink:href="#DejaVuSans-105"/>
     <use x="1232.927734" xlink:href="#DejaVuSans-108"/>
     <use x="1260.710938" xlink:href="#DejaVuSans-105"/>
     <use x="1288.494141" xlink:href="#DejaVuSans-116"/>
     <use x="1327.703125" xlink:href="#DejaVuSans-121"/>
     <use x="1386.882812" xlink:href="#DejaVuSans-32"/>
     <use x="1418.669922" xlink:href="#DejaVuSans-99"/>
     <use x="1473.650391" xlink:href="#DejaVuSans-117"/>
     <use x="1537.029297" xlink:href="#DejaVuSans-114"/>
     <use x="1578.142578" xlink:href="#DejaVuSans-118"/>
     <use x="1637.322266" xlink:href="#DejaVuSans-101"/>
     <use x="1698.845703" xlink:href="#DejaVuSans-41"/>
    </g>
   </g>
   <g id="legend_1">
    <g id="patch_7">
     <path d="M 520.41875 446.8 
L 702.2 446.8 
Q 704.2 446.8 704.2 444.8 
L 704.2 387.0875 
Q 704.2 385.0875 702.2 385.0875 
L 520.41875 385.0875 
Q 518.41875 385.0875 518.41875 387.0875 
L 518.41875 444.8 
Q 518.41875 446.8 520.41875 446.8 
z
" style="fill:#ffffff;opacity:0.8;stroke:#cccccc;stroke-linejoin:miter;"/>
    </g>
    <g id="line2d_17">
     <path d="M 522.41875 393.185937 
L 542.41875 393.185937 
" style="fill:none;stroke:#000000;stroke-dasharray:1.5,2.475;stroke-dashoffset:0;stroke-width:1.5;"/>
    </g>
    <g id="line2d_18"/>
    <g id="text_15">
     <!-- Calibration parfaite -->
     <g transform="translate(550.41875 396.685937)scale(0.1 -0.1)">
      <use xlink:href="#DejaVuSans-67"/>
      <use x="69.824219" xlink:href="#DejaVuSans-97"/>
      <use x="131.103516" xlink:href="#DejaVuSans-108"/>
      <use x="158.886719" xlink:href="#DejaVuSans-105"/>
      <use x="186.669922" xlink:href="#DejaVuSans-98"/>
      <use x="250.146484" xlink:href="#DejaVuSans-114"/>
      <use x="291.259766" xlink:href="#DejaVuSans-97"/>
      <use x="352.539062" xlink:href="#DejaVuSans-116"/>
      <use x="391.748047" xlink:href="#DejaVuSans-105"/>
      <use x="419.53125" xlink:href="#DejaVuSans-111"/>
      <use x="480.712891" xlink:href="#DejaVuSans-110"/>
      <use x="544.091797" xlink:href="#DejaVuSans-32"/>
      <use x="575.878906" xlink:href="#DejaVuSans-112"/>
      <use x="639.355469" xlink:href="#DejaVuSans-97"/>
      <use x="700.634766" xlink:href="#DejaVuSans-114"/>
      <use x="741.748047" xlink:href="#DejaVuSans-102"/>
      <use x="776.953125" xlink:href="#DejaVuSans-97"/>
      <use x="838.232422" xlink:href="#DejaVuSans-105"/>
      <use x="866.015625" xlink:href="#DejaVuSans-116"/>
      <use x="905.224609" xlink:href="#DejaVuSans-101"/>
     </g>
    </g>
    <g id="line2d_19">
     <path d="M 522.41875 407.864062 
L 542.41875 407.864062 
" style="fill:none;stroke:#003f5c;stroke-linecap:square;stroke-width:1.5;"/>
    </g>
    <g id="line2d_20"/>
    <g id="text_16">
     <!-- PPrediction (Brier 0.270.06) -->
     <defs>
      <path d="M 19.671875 64.796875 
L 19.671875 37.40625 
L 32.078125 37.40625 
Q 38.96875 37.40625 42.71875 40.96875 
Q 46.484375 44.53125 46.484375 51.125 
Q 46.484375 57.671875 42.71875 61.234375 
Q 38.96875 64.796875 32.078125 64.796875 
z
M 9.8125 72.90625 
L 32.078125 72.90625 
Q 44.34375 72.90625 50.609375 67.359375 
Q 56.890625 61.8125 56.890625 51.125 
Q 56.890625 40.328125 50.609375 34.8125 
Q 44.34375 29.296875 32.078125 29.296875 
L 19.671875 29.296875 
L 19.671875 0 
L 9.8125 0 
z
" id="DejaVuSans-80"/>
      <path d="M 45.40625 46.390625 
L 45.40625 75.984375 
L 54.390625 75.984375 
L 54.390625 0 
L 45.40625 0 
L 45.40625 8.203125 
Q 42.578125 3.328125 38.25 0.953125 
Q 33.9375 -1.421875 27.875 -1.421875 
Q 17.96875 -1.421875 11.734375 6.484375 
Q 5.515625 14.40625 5.515625 27.296875 
Q 5.515625 40.1875 11.734375 48.09375 
Q 17.96875 56 27.875 56 
Q 33.9375 56 38.25 53.625 
Q 42.578125 51.265625 45.40625 46.390625 
z
M 14.796875 27.296875 
Q 14.796875 17.390625 18.875 11.75 
Q 22.953125 6.109375 30.078125 6.109375 
Q 37.203125 6.109375 41.296875 11.75 
Q 45.40625 17.390625 45.40625 27.296875 
Q 45.40625 37.203125 41.296875 42.84375 
Q 37.203125 48.484375 30.078125 48.484375 
Q 22.953125 48.484375 18.875 42.84375 
Q 14.796875 37.203125 14.796875 27.296875 
z
" id="DejaVuSans-100"/>
      <path d="M 19.671875 34.8125 
L 19.671875 8.109375 
L 35.5 8.109375 
Q 43.453125 8.109375 47.28125 11.40625 
Q 51.125 14.703125 51.125 21.484375 
Q 51.125 28.328125 47.28125 31.5625 
Q 43.453125 34.8125 35.5 34.8125 
z
M 19.671875 64.796875 
L 19.671875 42.828125 
L 34.28125 42.828125 
Q 41.5 42.828125 45.03125 45.53125 
Q 48.578125 48.25 48.578125 53.8125 
Q 48.578125 59.328125 45.03125 62.0625 
Q 41.5 64.796875 34.28125 64.796875 
z
M 9.8125 72.90625 
L 35.015625 72.90625 
Q 46.296875 72.90625 52.390625 68.21875 
Q 58.5 63.53125 58.5 54.890625 
Q 58.5 48.1875 55.375 44.234375 
Q 52.25 40.28125 46.1875 39.3125 
Q 53.46875 37.75 57.5 32.78125 
Q 61.53125 27.828125 61.53125 20.40625 
Q 61.53125 10.640625 54.890625 5.3125 
Q 48.25 0 35.984375 0 
L 9.8125 0 
z
" id="DejaVuSans-66"/>
      <path d="M 8.203125 72.90625 
L 55.078125 72.90625 
L 55.078125 68.703125 
L 28.609375 0 
L 18.3125 0 
L 43.21875 64.59375 
L 8.203125 64.59375 
z
" id="DejaVuSans-55"/>
      <path d="M 46 62.703125 
L 46 43.796875 
L 73.1875 43.796875 
L 73.1875 35.5 
L 46 35.5 
L 46 16.609375 
L 37.796875 16.609375 
L 37.796875 35.5 
L 10.59375 35.5 
L 10.59375 43.796875 
L 37.796875 43.796875 
L 37.796875 62.703125 
z
M 10.59375 8.296875 
L 73.1875 8.296875 
L 73.1875 0 
L 10.59375 0 
z
" id="DejaVuSans-177"/>
     </defs>
     <g transform="translate(550.41875 411.364062)scale(0.1 -0.1)">
      <use xlink:href="#DejaVuSans-80"/>
      <use x="60.302734" xlink:href="#DejaVuSans-80"/>
      <use x="120.589844" xlink:href="#DejaVuSans-114"/>
      <use x="161.671875" xlink:href="#DejaVuSans-101"/>
      <use x="223.195312" xlink:href="#DejaVuSans-100"/>
      <use x="286.671875" xlink:href="#DejaVuSans-105"/>
      <use x="314.455078" xlink:href="#DejaVuSans-99"/>
      <use x="369.435547" xlink:href="#DejaVuSans-116"/>
      <use x="408.644531" xlink:href="#DejaVuSans-105"/>
      <use x="436.427734" xlink:href="#DejaVuSans-111"/>
      <use x="497.609375" xlink:href="#DejaVuSans-110"/>
      <use x="560.988281" xlink:href="#DejaVuSans-32"/>
      <use x="592.775391" xlink:href="#DejaVuSans-40"/>
      <use x="631.789062" xlink:href="#DejaVuSans-66"/>
      <use x="700.392578" xlink:href="#DejaVuSans-114"/>
      <use x="741.505859" xlink:href="#DejaVuSans-105"/>
      <use x="769.289062" xlink:href="#DejaVuSans-101"/>
      <use x="830.8125" xlink:href="#DejaVuSans-114"/>
      <use x="871.925781" xlink:href="#DejaVuSans-32"/>
      <use x="903.712891" xlink:href="#DejaVuSans-48"/>
      <use x="967.335938" xlink:href="#DejaVuSans-46"/>
      <use x="999.123047" xlink:href="#DejaVuSans-50"/>
      <use x="1062.746094" xlink:href="#DejaVuSans-55"/>
      <use x="1126.369141" xlink:href="#DejaVuSans-177"/>
      <use x="1210.158203" xlink:href="#DejaVuSans-48"/>
      <use x="1273.78125" xlink:href="#DejaVuSans-46"/>
      <use x="1305.568359" xlink:href="#DejaVuSans-48"/>
      <use x="1369.191406" xlink:href="#DejaVuSans-54"/>
      <use x="1432.814453" xlink:href="#DejaVuSans-41"/>
     </g>
    </g>
    <g id="line2d_21">
     <path d="M 522.41875 422.542187 
L 542.41875 422.542187 
" style="fill:none;stroke:#58508d;stroke-linecap:square;stroke-width:1.5;"/>
    </g>
    <g id="line2d_22"/>
    <g id="text_17">
     <!-- DPrediction (Brier 0.210.05) -->
     <defs>
      <path d="M 19.671875 64.796875 
L 19.671875 8.109375 
L 31.59375 8.109375 
Q 46.6875 8.109375 53.6875 14.9375 
Q 60.6875 21.78125 60.6875 36.53125 
Q 60.6875 51.171875 53.6875 57.984375 
Q 46.6875 64.796875 31.59375 64.796875 
z
M 9.8125 72.90625 
L 30.078125 72.90625 
Q 51.265625 72.90625 61.171875 64.09375 
Q 71.09375 55.28125 71.09375 36.53125 
Q 71.09375 17.671875 61.125 8.828125 
Q 51.171875 0 30.078125 0 
L 9.8125 0 
z
" id="DejaVuSans-68"/>
      <path d="M 10.796875 72.90625 
L 49.515625 72.90625 
L 49.515625 64.59375 
L 19.828125 64.59375 
L 19.828125 46.734375 
Q 21.96875 47.46875 24.109375 47.828125 
Q 26.265625 48.1875 28.421875 48.1875 
Q 40.625 48.1875 47.75 41.5 
Q 54.890625 34.8125 54.890625 23.390625 
Q 54.890625 11.625 47.5625 5.09375 
Q 40.234375 -1.421875 26.90625 -1.421875 
Q 22.3125 -1.421875 17.546875 -0.640625 
Q 12.796875 0.140625 7.71875 1.703125 
L 7.71875 11.625 
Q 12.109375 9.234375 16.796875 8.0625 
Q 21.484375 6.890625 26.703125 6.890625 
Q 35.15625 6.890625 40.078125 11.328125 
Q 45.015625 15.765625 45.015625 23.390625 
Q 45.015625 31 40.078125 35.4375 
Q 35.15625 39.890625 26.703125 39.890625 
Q 22.75 39.890625 18.8125 39.015625 
Q 14.890625 38.140625 10.796875 36.28125 
z
" id="DejaVuSans-53"/>
     </defs>
     <g transform="translate(550.41875 426.042187)scale(0.1 -0.1)">
      <use xlink:href="#DejaVuSans-68"/>
      <use x="77.001953" xlink:href="#DejaVuSans-80"/>
      <use x="137.289062" xlink:href="#DejaVuSans-114"/>
      <use x="178.371094" xlink:href="#DejaVuSans-101"/>
      <use x="239.894531" xlink:href="#DejaVuSans-100"/>
      <use x="303.371094" xlink:href="#DejaVuSans-105"/>
      <use x="331.154297" xlink:href="#DejaVuSans-99"/>
      <use x="386.134766" xlink:href="#DejaVuSans-116"/>
      <use x="425.34375" xlink:href="#DejaVuSans-105"/>
      <use x="453.126953" xlink:href="#DejaVuSans-111"/>
      <use x="514.308594" xlink:href="#DejaVuSans-110"/>
      <use x="577.6875" xlink:href="#DejaVuSans-32"/>
      <use x="609.474609" xlink:href="#DejaVuSans-40"/>
      <use x="648.488281" xlink:href="#DejaVuSans-66"/>
      <use x="717.091797" xlink:href="#DejaVuSans-114"/>
      <use x="758.205078" xlink:href="#DejaVuSans-105"/>
      <use x="785.988281" xlink:href="#DejaVuSans-101"/>
      <use x="847.511719" xlink:href="#DejaVuSans-114"/>
      <use x="888.625" xlink:href="#DejaVuSans-32"/>
      <use x="920.412109" xlink:href="#DejaVuSans-48"/>
      <use x="984.035156" xlink:href="#DejaVuSans-46"/>
      <use x="1015.822266" xlink:href="#DejaVuSans-50"/>
      <use x="1079.445312" xlink:href="#DejaVuSans-49"/>
      <use x="1143.068359" xlink:href="#DejaVuSans-177"/>
      <use x="1226.857422" xlink:href="#DejaVuSans-48"/>
      <use x="1290.480469" xlink:href="#DejaVuSans-46"/>
      <use x="1322.267578" xlink:href="#DejaVuSans-48"/>
      <use x="1385.890625" xlink:href="#DejaVuSans-53"/>
      <use x="1449.513672" xlink:href="#DejaVuSans-41"/>
     </g>
    </g>
    <g id="line2d_23">
     <path d="M 522.41875 437.220312 
L 542.41875 437.220312 
" style="fill:none;stroke:#bc5090;stroke-linecap:square;stroke-width:1.5;"/>
    </g>
    <g id="line2d_24"/>
    <g id="text_18">
     <!-- MPrediction (Brier 0.150.04) -->
     <defs>
      <path d="M 9.8125 72.90625 
L 24.515625 72.90625 
L 43.109375 23.296875 
L 61.8125 72.90625 
L 76.515625 72.90625 
L 76.515625 0 
L 66.890625 0 
L 66.890625 64.015625 
L 48.09375 14.015625 
L 38.1875 14.015625 
L 19.390625 64.015625 
L 19.390625 0 
L 9.8125 0 
z
" id="DejaVuSans-77"/>
     </defs>
     <g transform="translate(550.41875 440.720312)scale(0.1 -0.1)">
      <use xlink:href="#DejaVuSans-77"/>
      <use x="86.279297" xlink:href="#DejaVuSans-80"/>
      <use x="146.566406" xlink:href="#DejaVuSans-114"/>
      <use x="187.648438" xlink:href="#DejaVuSans-101"/>
      <use x="249.171875" xlink:href="#DejaVuSans-100"/>
      <use x="312.648438" xlink:href="#DejaVuSans-105"/>
      <use x="340.431641" xlink:href="#DejaVuSans-99"/>
      <use x="395.412109" xlink:href="#DejaVuSans-116"/>
      <use x="434.621094" xlink:href="#DejaVuSans-105"/>
      <use x="462.404297" xlink:href="#DejaVuSans-111"/>
      <use x="523.585938" xlink:href="#DejaVuSans-110"/>
      <use x="586.964844" xlink:href="#DejaVuSans-32"/>
      <use x="618.751953" xlink:href="#DejaVuSans-40"/>
      <use x="657.765625" xlink:href="#DejaVuSans-66"/>
      <use x="726.369141" xlink:href="#DejaVuSans-114"/>
      <use x="767.482422" xlink:href="#DejaVuSans-105"/>
      <use x="795.265625" xlink:href="#DejaVuSans-101"/>
      <use x="856.789062" xlink:href="#DejaVuSans-114"/>
      <use x="897.902344" xlink:href="#DejaVuSans-32"/>
      <use x="929.689453" xlink:href="#DejaVuSans-48"/>
      <use x="993.3125" xlink:href="#DejaVuSans-46"/>
      <use x="1025.099609" xlink:href="#DejaVuSans-49"/>
      <use x="1088.722656" xlink:href="#DejaVuSans-53"/>
      <use x="1152.345703" xlink:href="#DejaVuSans-177"/>
      <use x="1236.134766" xlink:href="#DejaVuSans-48"/>
      <use x="1299.757812" xlink:href="#DejaVuSans-46"/>
      <use x="1331.544922" xlink:href="#DejaVuSans-48"/>
      <use x="1395.167969" xlink:href="#DejaVuSans-52"/>
      <use x="1458.791016" xlink:href="#DejaVuSans-41"/>
     </g>
    </g>
   </g>
  </g>
  <g id="axes_2">
   <g id="patch_8">
    <path d="M 47.675 678.2 
L 709.2 678.2 
L 709.2 479.6 
L 47.675 479.6 
z
" style="fill:#ffffff;"/>
   </g>
   <g id="patch_9">
    <path clip-path="url(#p97d8f607e0)" d="M 77.744318 678.2 
L 77.744318 597.138776 
L 137.882955 597.138776 
L 137.882955 678.2 
L 198.021591 678.2 
L 198.021591 624.159184 
L 258.160227 624.159184 
L 258.160227 597.138776 
L 318.298864 597.138776 
L 318.298864 516.077551 
L 378.4375 516.077551 
L 378.4375 597.138776 
L 438.576136 597.138776 
L 438.576136 651.179592 
L 498.714773 651.179592 
L 498.714773 624.159184 
L 558.853409 624.159184 
L 558.853409 678.2 
L 618.992045 678.2 
L 618.992045 624.159184 
L 679.130682 624.159184 
L 679.130682 678.2 
" style="fill:none;stroke:#003f5c;stroke-linejoin:miter;stroke-width:2;"/>
   </g>
   <g id="patch_10">
    <path clip-path="url(#p97d8f607e0)" d="M 77.744318 678.2 
L 77.744318 651.179592 
L 137.882955 651.179592 
L 137.882955 678.2 
L 198.021591 678.2 
L 198.021591 651.179592 
L 258.160227 651.179592 
L 258.160227 597.138776 
L 318.298864 597.138776 
L 318.298864 570.118367 
L 378.4375 570.118367 
L 378.4375 516.077551 
L 438.576136 516.077551 
L 438.576136 597.138776 
L 498.714773 597.138776 
L 498.714773 624.159184 
L 558.853409 624.159184 
L 558.853409 651.179592 
L 618.992045 651.179592 
L 618.992045 651.179592 
L 679.130682 651.179592 
L 679.130682 678.2 
" style="fill:none;stroke:#58508d;stroke-linejoin:miter;stroke-width:2;"/>
   </g>
   <g id="patch_11">
    <path clip-path="url(#p97d8f607e0)" d="M 77.744318 678.2 
L 77.744318 651.179592 
L 137.882955 651.179592 
L 137.882955 651.179592 
L 198.021591 651.179592 
L 198.021591 678.2 
L 258.160227 678.2 
L 258.160227 651.179592 
L 318.298864 651.179592 
L 318.298864 624.159184 
L 378.4375 624.159184 
L 378.4375 489.057143 
L 438.576136 489.057143 
L 438.576136 570.118367 
L 498.714773 570.118367 
L 498.714773 624.159184 
L 558.853409 624.159184 
L 558.853409 624.159184 
L 618.992045 624.159184 
L 618.992045 624.159184 
L 679.130682 624.159184 
L 679.130682 678.2 
" style="fill:none;stroke:#bc5090;stroke-linejoin:miter;stroke-width:2;"/>
   </g>
   <g id="matplotlib.axis_3">
    <g id="xtick_7">
     <g id="line2d_25">
      <g>
       <use style="stroke:#000000;stroke-width:0.8;" x="77.744318" xlink:href="#m2ca6a123a9" y="678.2"/>
      </g>
     </g>
     <g id="text_19">
      <!-- 0.0 -->
      <g transform="translate(69.792756 692.798437)scale(0.1 -0.1)">
       <use xlink:href="#DejaVuSans-48"/>
       <use x="63.623047" xlink:href="#DejaVuSans-46"/>
       <use x="95.410156" xlink:href="#DejaVuSans-48"/>
      </g>
     </g>
    </g>
    <g id="xtick_8">
     <g id="line2d_26">
      <g>
       <use style="stroke:#000000;stroke-width:0.8;" x="198.021591" xlink:href="#m2ca6a123a9" y="678.2"/>
      </g>
     </g>
     <g id="text_20">
      <!-- 0.2 -->
      <g transform="translate(190.070028 692.798437)scale(0.1 -0.1)">
       <use xlink:href="#DejaVuSans-48"/>
       <use x="63.623047" xlink:href="#DejaVuSans-46"/>
       <use x="95.410156" xlink:href="#DejaVuSans-50"/>
      </g>
     </g>
    </g>
    <g id="xtick_9">
     <g id="line2d_27">
      <g>
       <use style="stroke:#000000;stroke-width:0.8;" x="318.298864" xlink:href="#m2ca6a123a9" y="678.2"/>
      </g>
     </g>
     <g id="text_21">
      <!-- 0.4 -->
      <g transform="translate(310.347301 692.798437)scale(0.1 -0.1)">
       <use xlink:href="#DejaVuSans-48"/>
       <use x="63.623047" xlink:href="#DejaVuSans-46"/>
       <use x="95.410156" xlink:href="#DejaVuSans-52"/>
      </g>
     </g>
    </g>
    <g id="xtick_10">
     <g id="line2d_28">
      <g>
       <use style="stroke:#000000;stroke-width:0.8;" x="438.576136" xlink:href="#m2ca6a123a9" y="678.2"/>
      </g>
     </g>
     <g id="text_22">
      <!-- 0.6 -->
      <g transform="translate(430.624574 692.798437)scale(0.1 -0.1)">
       <use xlink:href="#DejaVuSans-48"/>
       <use x="63.623047" xlink:href="#DejaVuSans-46"/>
       <use x="95.410156" xlink:href="#DejaVuSans-54"/>
      </g>
     </g>
    </g>
    <g id="xtick_11">
     <g id="line2d_29">
      <g>
       <use style="stroke:#000000;stroke-width:0.8;" x="558.853409" xlink:href="#m2ca6a123a9" y="678.2"/>
      </g>
     </g>
     <g id="text_23">
      <!-- 0.8 -->
      <g transform="translate(550.901847 692.798437)scale(0.1 -0.1)">
       <use xlink:href="#DejaVuSans-48"/>
       <use x="63.623047" xlink:href="#DejaVuSans-46"/>
       <use x="95.410156" xlink:href="#DejaVuSans-56"/>
      </g>
     </g>
    </g>
    <g id="xtick_12">
     <g id="line2d_30">
      <g>
       <use style="stroke:#000000;stroke-width:0.8;" x="679.130682" xlink:href="#m2ca6a123a9" y="678.2"/>
      </g>
     </g>
     <g id="text_24">
      <!-- 1.0 -->
      <g transform="translate(671.179119 692.798437)scale(0.1 -0.1)">
       <use xlink:href="#DejaVuSans-49"/>
       <use x="63.623047" xlink:href="#DejaVuSans-46"/>
       <use x="95.410156" xlink:href="#DejaVuSans-48"/>
      </g>
     </g>
    </g>
    <g id="text_25">
     <!-- Mean predicted value -->
     <g transform="translate(324.15 706.476562)scale(0.1 -0.1)">
      <use xlink:href="#DejaVuSans-77"/>
      <use x="86.279297" xlink:href="#DejaVuSans-101"/>
      <use x="147.802734" xlink:href="#DejaVuSans-97"/>
      <use x="209.082031" xlink:href="#DejaVuSans-110"/>
      <use x="272.460938" xlink:href="#DejaVuSans-32"/>
      <use x="304.248047" xlink:href="#DejaVuSans-112"/>
      <use x="367.724609" xlink:href="#DejaVuSans-114"/>
      <use x="408.806641" xlink:href="#DejaVuSans-101"/>
      <use x="470.330078" xlink:href="#DejaVuSans-100"/>
      <use x="533.806641" xlink:href="#DejaVuSans-105"/>
      <use x="561.589844" xlink:href="#DejaVuSans-99"/>
      <use x="616.570312" xlink:href="#DejaVuSans-116"/>
      <use x="655.779297" xlink:href="#DejaVuSans-101"/>
      <use x="717.302734" xlink:href="#DejaVuSans-100"/>
      <use x="780.779297" xlink:href="#DejaVuSans-32"/>
      <use x="812.566406" xlink:href="#DejaVuSans-118"/>
      <use x="871.746094" xlink:href="#DejaVuSans-97"/>
      <use x="933.025391" xlink:href="#DejaVuSans-108"/>
      <use x="960.808594" xlink:href="#DejaVuSans-117"/>
      <use x="1024.1875" xlink:href="#DejaVuSans-101"/>
     </g>
    </g>
   </g>
   <g id="matplotlib.axis_4">
    <g id="ytick_7">
     <g id="line2d_31">
      <g>
       <use style="stroke:#000000;stroke-width:0.8;" x="47.675" xlink:href="#m5227aee659" y="678.2"/>
      </g>
     </g>
     <g id="text_26">
      <!-- 0 -->
      <g transform="translate(34.3125 681.999219)scale(0.1 -0.1)">
       <use xlink:href="#DejaVuSans-48"/>
      </g>
     </g>
    </g>
    <g id="ytick_8">
     <g id="line2d_32">
      <g>
       <use style="stroke:#000000;stroke-width:0.8;" x="47.675" xlink:href="#m5227aee659" y="651.179592"/>
      </g>
     </g>
     <g id="text_27">
      <!-- 1 -->
      <g transform="translate(34.3125 654.978811)scale(0.1 -0.1)">
       <use xlink:href="#DejaVuSans-49"/>
      </g>
     </g>
    </g>
    <g id="ytick_9">
     <g id="line2d_33">
      <g>
       <use style="stroke:#000000;stroke-width:0.8;" x="47.675" xlink:href="#m5227aee659" y="624.159184"/>
      </g>
     </g>
     <g id="text_28">
      <!-- 2 -->
      <g transform="translate(34.3125 627.958402)scale(0.1 -0.1)">
       <use xlink:href="#DejaVuSans-50"/>
      </g>
     </g>
    </g>
    <g id="ytick_10">
     <g id="line2d_34">
      <g>
       <use style="stroke:#000000;stroke-width:0.8;" x="47.675" xlink:href="#m5227aee659" y="597.138776"/>
      </g>
     </g>
     <g id="text_29">
      <!-- 3 -->
      <defs>
       <path d="M 40.578125 39.3125 
Q 47.65625 37.796875 51.625 33 
Q 55.609375 28.21875 55.609375 21.1875 
Q 55.609375 10.40625 48.1875 4.484375 
Q 40.765625 -1.421875 27.09375 -1.421875 
Q 22.515625 -1.421875 17.65625 -0.515625 
Q 12.796875 0.390625 7.625 2.203125 
L 7.625 11.71875 
Q 11.71875 9.328125 16.59375 8.109375 
Q 21.484375 6.890625 26.8125 6.890625 
Q 36.078125 6.890625 40.9375 10.546875 
Q 45.796875 14.203125 45.796875 21.1875 
Q 45.796875 27.640625 41.28125 31.265625 
Q 36.765625 34.90625 28.71875 34.90625 
L 20.21875 34.90625 
L 20.21875 43.015625 
L 29.109375 43.015625 
Q 36.375 43.015625 40.234375 45.921875 
Q 44.09375 48.828125 44.09375 54.296875 
Q 44.09375 59.90625 40.109375 62.90625 
Q 36.140625 65.921875 28.71875 65.921875 
Q 24.65625 65.921875 20.015625 65.03125 
Q 15.375 64.15625 9.8125 62.3125 
L 9.8125 71.09375 
Q 15.4375 72.65625 20.34375 73.4375 
Q 25.25 74.21875 29.59375 74.21875 
Q 40.828125 74.21875 47.359375 69.109375 
Q 53.90625 64.015625 53.90625 55.328125 
Q 53.90625 49.265625 50.4375 45.09375 
Q 46.96875 40.921875 40.578125 39.3125 
z
" id="DejaVuSans-51"/>
      </defs>
      <g transform="translate(34.3125 600.937994)scale(0.1 -0.1)">
       <use xlink:href="#DejaVuSans-51"/>
      </g>
     </g>
    </g>
    <g id="ytick_11">
     <g id="line2d_35">
      <g>
       <use style="stroke:#000000;stroke-width:0.8;" x="47.675" xlink:href="#m5227aee659" y="570.118367"/>
      </g>
     </g>
     <g id="text_30">
      <!-- 4 -->
      <g transform="translate(34.3125 573.917586)scale(0.1 -0.1)">
       <use xlink:href="#DejaVuSans-52"/>
      </g>
     </g>
    </g>
    <g id="ytick_12">
     <g id="line2d_36">
      <g>
       <use style="stroke:#000000;stroke-width:0.8;" x="47.675" xlink:href="#m5227aee659" y="543.097959"/>
      </g>
     </g>
     <g id="text_31">
      <!-- 5 -->
      <g transform="translate(34.3125 546.897178)scale(0.1 -0.1)">
       <use xlink:href="#DejaVuSans-53"/>
      </g>
     </g>
    </g>
    <g id="ytick_13">
     <g id="line2d_37">
      <g>
       <use style="stroke:#000000;stroke-width:0.8;" x="47.675" xlink:href="#m5227aee659" y="516.077551"/>
      </g>
     </g>
     <g id="text_32">
      <!-- 6 -->
      <g transform="translate(34.3125 519.87677)scale(0.1 -0.1)">
       <use xlink:href="#DejaVuSans-54"/>
      </g>
     </g>
    </g>
    <g id="ytick_14">
     <g id="line2d_38">
      <g>
       <use style="stroke:#000000;stroke-width:0.8;" x="47.675" xlink:href="#m5227aee659" y="489.057143"/>
      </g>
     </g>
     <g id="text_33">
      <!-- 7 -->
      <g transform="translate(34.3125 492.856362)scale(0.1 -0.1)">
       <use xlink:href="#DejaVuSans-55"/>
      </g>
     </g>
    </g>
    <g id="text_34">
     <!-- Count -->
     <g transform="translate(28.232812 593.748437)rotate(-90)scale(0.1 -0.1)">
      <use xlink:href="#DejaVuSans-67"/>
      <use x="69.824219" xlink:href="#DejaVuSans-111"/>
      <use x="131.005859" xlink:href="#DejaVuSans-117"/>
      <use x="194.384766" xlink:href="#DejaVuSans-110"/>
      <use x="257.763672" xlink:href="#DejaVuSans-116"/>
     </g>
    </g>
   </g>
   <g id="patch_12">
    <path d="M 47.675 678.2 
L 47.675 479.6 
" style="fill:none;stroke:#000000;stroke-linecap:square;stroke-linejoin:miter;stroke-width:0.8;"/>
   </g>
   <g id="patch_13">
    <path d="M 709.2 678.2 
L 709.2 479.6 
" style="fill:none;stroke:#000000;stroke-linecap:square;stroke-linejoin:miter;stroke-width:0.8;"/>
   </g>
   <g id="patch_14">
    <path d="M 47.675 678.2 
L 709.2 678.2 
" style="fill:none;stroke:#000000;stroke-linecap:square;stroke-linejoin:miter;stroke-width:0.8;"/>
   </g>
   <g id="patch_15">
    <path d="M 47.675 479.6 
L 709.2 479.6 
" style="fill:none;stroke:#000000;stroke-linecap:square;stroke-linejoin:miter;stroke-width:0.8;"/>
   </g>
   <g id="legend_2">
    <g id="patch_16">
     <path d="M 280.204688 516.95625 
L 476.670313 516.95625 
Q 478.670313 516.95625 478.670313 514.95625 
L 478.670313 486.6 
Q 478.670313 484.6 476.670313 484.6 
L 280.204688 484.6 
Q 278.204688 484.6 278.204688 486.6 
L 278.204688 514.95625 
Q 278.204688 516.95625 280.204688 516.95625 
z
" style="fill:#ffffff;opacity:0.8;stroke:#cccccc;stroke-linejoin:miter;"/>
    </g>
    <g id="patch_17">
     <path d="M 282.204688 496.198437 
L 302.204688 496.198437 
L 302.204688 489.198437 
L 282.204688 489.198437 
z
" style="fill:none;stroke:#003f5c;stroke-linejoin:miter;stroke-width:2;"/>
    </g>
    <g id="text_35">
     <!-- PPrediction -->
     <g transform="translate(310.204688 496.198437)scale(0.1 -0.1)">
      <use xlink:href="#DejaVuSans-80"/>
      <use x="60.302734" xlink:href="#DejaVuSans-80"/>
      <use x="120.589844" xlink:href="#DejaVuSans-114"/>
      <use x="161.671875" xlink:href="#DejaVuSans-101"/>
      <use x="223.195312" xlink:href="#DejaVuSans-100"/>
      <use x="286.671875" xlink:href="#DejaVuSans-105"/>
      <use x="314.455078" xlink:href="#DejaVuSans-99"/>
      <use x="369.435547" xlink:href="#DejaVuSans-116"/>
      <use x="408.644531" xlink:href="#DejaVuSans-105"/>
      <use x="436.427734" xlink:href="#DejaVuSans-111"/>
      <use x="497.609375" xlink:href="#DejaVuSans-110"/>
     </g>
    </g>
    <g id="patch_18">
     <path d="M 282.204688 510.876562 
L 302.204688 510.876562 
L 302.204688 503.876562 
L 282.204688 503.876562 
z
" style="fill:none;stroke:#58508d;stroke-linejoin:miter;stroke-width:2;"/>
    </g>
    <g id="text_36">
     <!-- DPrediction -->
     <g transform="translate(310.204688 510.876562)scale(0.1 -0.1)">
      <use xlink:href="#DejaVuSans-68"/>
      <use x="77.001953" xlink:href="#DejaVuSans-80"/>
      <use x="137.289062" xlink:href="#DejaVuSans-114"/>
      <use x="178.371094" xlink:href="#DejaVuSans-101"/>
      <use x="239.894531" xlink:href="#DejaVuSans-100"/>
      <use x="303.371094" xlink:href="#DejaVuSans-105"/>
      <use x="331.154297" xlink:href="#DejaVuSans-99"/>
      <use x="386.134766" xlink:href="#DejaVuSans-116"/>
      <use x="425.34375" xlink:href="#DejaVuSans-105"/>
      <use x="453.126953" xlink:href="#DejaVuSans-111"/>
      <use x="514.308594" xlink:href="#DejaVuSans-110"/>
     </g>
    </g>
    <g id="patch_19">
     <path d="M 387.973438 496.198437 
L 407.973438 496.198437 
L 407.973438 489.198437 
L 387.973438 489.198437 
z
" style="fill:none;stroke:#bc5090;stroke-linejoin:miter;stroke-width:2;"/>
    </g>
    <g id="text_37">
     <!-- MPrediction -->
     <g transform="translate(415.973438 496.198437)scale(0.1 -0.1)">
      <use xlink:href="#DejaVuSans-77"/>
      <use x="86.279297" xlink:href="#DejaVuSans-80"/>
      <use x="146.566406" xlink:href="#DejaVuSans-114"/>
      <use x="187.648438" xlink:href="#DejaVuSans-101"/>
      <use x="249.171875" xlink:href="#DejaVuSans-100"/>
      <use x="312.648438" xlink:href="#DejaVuSans-105"/>
      <use x="340.431641" xlink:href="#DejaVuSans-99"/>
      <use x="395.412109" xlink:href="#DejaVuSans-116"/>
      <use x="434.621094" xlink:href="#DejaVuSans-105"/>
      <use x="462.404297" xlink:href="#DejaVuSans-111"/>
      <use x="523.585938" xlink:href="#DejaVuSans-110"/>
     </g>
    </g>
   </g>
  </g>
 </g>
 <defs>
  <clipPath id="p187641bdff">
   <rect height="425" width="661.525" x="47.675" y="26.8"/>
  </clipPath>
  <clipPath id="p97d8f607e0">
   <rect height="198.6" width="661.525" x="47.675" y="479.6"/>
  </clipPath>
 </defs>
</svg>
