<?xml version="1.0" encoding="utf-8" standalone="no"?>
<!DOCTYPE svg PUBLIC "-//W3C//DTD SVG 1.1//EN"
  "http://www.w3.org/Graphics/SVG/1.1/DTD/svg11.dtd">
<!-- Created with matplotlib (https://matplotlib.org/) -->
<svg height="720pt" version="1.1" viewBox="0 0 720 720" width="720pt" xmlns="http://www.w3.org/2000/svg" xmlns:xlink="http://www.w3.org/1999/xlink">
 <defs>
  <style type="text/css">
*{stroke-linecap:butt;stroke-linejoin:round;}
  </style>
 </defs>
 <g id="figure_1">
  <g id="patch_1">
   <path d="M 0 720 
L 720 720 
L 720 0 
L 0 0 
z
" style="fill:#ffffff;"/>
  </g>
  <g id="axes_1">
   <g id="patch_2">
    <path d="M 54.175 451.8 
L 709.2 451.8 
L 709.2 26.8 
L 54.175 26.8 
z
" style="fill:#ffffff;"/>
   </g>
   <g id="PolyCollection_1">
    <defs>
     <path d="M 83.948864 -420.080333 
L 83.948864 -287.518182 
L 89.963786 -287.518182 
L 95.978708 -287.518182 
L 101.993629 -287.518182 
L 108.008551 -287.518182 
L 114.023473 -287.518182 
L 120.038395 -287.518182 
L 126.053317 -287.518182 
L 132.068239 -287.518182 
L 138.083161 -287.518182 
L 144.098083 -287.518182 
L 150.113005 -287.518182 
L 156.127927 -287.518182 
L 162.142849 -287.518182 
L 168.157771 -287.518182 
L 174.172693 -287.518182 
L 180.187615 -287.518182 
L 186.202537 -287.518182 
L 192.217459 -287.518182 
L 198.232381 -287.518182 
L 204.247303 -287.518182 
L 210.262225 -287.518182 
L 216.277146 -287.518182 
L 222.292068 -287.518182 
L 228.30699 -287.518182 
L 234.321912 -287.518182 
L 240.336834 -287.518182 
L 246.351756 -287.518182 
L 252.366678 -287.518182 
L 258.3816 -287.518182 
L 264.396522 -287.518182 
L 270.411444 -287.518182 
L 276.426366 -287.518182 
L 282.441288 -289.710287 
L 288.45621 -293.439242 
L 294.471132 -299.755766 
L 300.486054 -307.769652 
L 306.500976 -315.602455 
L 312.515898 -323.235209 
L 318.53082 -330.647388 
L 324.545742 -337.817042 
L 330.560663 -344.88459 
L 336.575585 -353.001923 
L 342.590507 -360.878469 
L 348.605429 -368.434487 
L 354.620351 -375.583878 
L 360.635273 -382.285005 
L 366.650195 -389.217181 
L 372.665117 -397.96461 
L 378.680039 -408.22353 
L 384.694961 -415.067935 
L 390.709883 -419.339137 
L 396.724805 -422.870217 
L 402.739727 -424.389616 
L 408.754649 -422.693886 
L 414.769571 -419.62157 
L 420.784493 -428.840201 
L 426.799415 -439.591712 
L 432.814337 -449.58161 
L 438.829258 -457.185616 
L 444.84418 -461.14868 
L 450.859102 -461.460512 
L 456.874024 -458.852435 
L 462.888946 -455.40073 
L 468.903868 -451.693823 
L 474.91879 -454.921955 
L 480.933712 -459.253009 
L 486.948634 -460.049684 
L 492.963556 -459.324497 
L 498.978478 -457.404598 
L 504.9934 -454.373881 
L 511.008322 -459.306311 
L 517.023244 -467.926244 
L 523.038166 -477.667388 
L 529.053088 -487.371785 
L 535.06801 -496.648647 
L 541.082932 -506.169011 
L 547.097854 -514.468626 
L 553.112775 -521.571058 
L 559.127697 -527.760255 
L 565.142619 -532.312022 
L 571.157541 -535.179765 
L 577.172463 -536.436982 
L 583.187385 -536.253483 
L 589.202307 -534.84838 
L 595.217229 -534.879765 
L 601.232151 -538.7655 
L 607.247073 -543.492498 
L 613.261995 -548.089003 
L 619.276917 -552.551714 
L 625.291839 -556.877884 
L 631.306761 -561.065389 
L 637.321683 -565.112772 
L 643.336605 -569.019289 
L 649.351527 -572.784917 
L 655.366449 -576.410366 
L 661.381371 -579.897051 
L 667.396292 -583.247064 
L 673.411214 -586.463117 
L 679.426136 -589.548483 
L 679.426136 -673.881818 
L 679.426136 -673.881818 
L 673.411214 -673.881818 
L 667.396292 -673.881818 
L 661.381371 -673.881818 
L 655.366449 -673.881818 
L 649.351527 -673.881818 
L 643.336605 -673.881818 
L 637.321683 -673.881818 
L 631.306761 -673.881818 
L 625.291839 -673.881818 
L 619.276917 -673.881818 
L 613.261995 -673.881818 
L 607.247073 -673.881818 
L 601.232151 -673.881818 
L 595.217229 -673.881818 
L 589.202307 -673.881818 
L 583.187385 -673.881818 
L 577.172463 -673.881818 
L 571.157541 -672.088004 
L 565.142619 -667.15042 
L 559.127697 -663.896862 
L 553.112775 -662.280733 
L 547.097854 -661.577839 
L 541.082932 -662.072127 
L 535.06801 -663.787165 
L 529.053088 -665.258702 
L 523.038166 -667.157773 
L 517.023244 -669.09359 
L 511.008322 -669.908198 
L 504.9934 -667.035301 
L 498.978478 -656.199259 
L 492.963556 -646.474033 
L 486.948634 -637.943521 
L 480.933712 -630.934869 
L 474.91879 -627.460598 
L 468.903868 -622.883403 
L 462.888946 -611.371171 
L 456.874024 -600.11414 
L 450.859102 -589.700737 
L 444.84418 -582.207243 
L 438.829258 -578.364981 
L 432.814337 -578.163661 
L 426.799415 -580.348233 
L 420.784493 -583.294418 
L 414.769571 -584.707723 
L 408.754649 -573.830081 
L 402.739727 -564.329025 
L 396.724805 -558.043098 
L 390.709883 -553.768852 
L 384.694961 -550.234728 
L 378.680039 -549.273807 
L 372.665117 -551.727401 
L 366.650195 -552.669504 
L 360.635273 -551.796354 
L 354.620351 -550.692156 
L 348.605429 -550.03622 
L 342.590507 -549.786912 
L 336.575585 -549.858132 
L 330.560663 -550.170139 
L 324.545742 -549.432361 
L 318.53082 -548.796689 
L 312.515898 -548.403542 
L 306.500976 -548.23097 
L 300.486054 -548.258447 
L 294.471132 -548.467007 
L 288.45621 -546.978205 
L 282.441288 -542.901834 
L 276.426366 -537.764037 
L 270.411444 -533.52349 
L 264.396522 -530.187432 
L 258.3816 -527.671568 
L 252.366678 -524.401822 
L 246.351756 -520.974516 
L 240.336834 -518.239608 
L 234.321912 -515.502483 
L 228.30699 -512.152184 
L 222.292068 -508.812078 
L 216.277146 -505.482032 
L 210.262225 -502.036256 
L 204.247303 -498.133593 
L 198.232381 -494.23093 
L 192.217459 -490.328267 
L 186.202537 -486.425604 
L 180.187615 -482.522941 
L 174.172693 -478.620278 
L 168.157771 -474.717615 
L 162.142849 -470.814952 
L 156.127927 -466.912289 
L 150.113005 -463.009626 
L 144.098083 -459.106963 
L 138.083161 -455.2043 
L 132.068239 -451.301637 
L 126.053317 -447.398974 
L 120.038395 -443.496311 
L 114.023473 -439.593648 
L 108.008551 -435.690985 
L 101.993629 -431.788322 
L 95.978708 -427.885659 
L 89.963786 -423.982996 
L 83.948864 -420.080333 
z
" id="mf76034a831" style="stroke:#003f5c;stroke-opacity:0.2;"/>
    </defs>
    <g clip-path="url(#p9ddbd129cb)">
     <use style="fill:#003f5c;fill-opacity:0.2;stroke:#003f5c;stroke-opacity:0.2;" x="0" xlink:href="#mf76034a831" y="720"/>
    </g>
   </g>
   <g id="PolyCollection_2">
    <defs>
     <path d="M 83.948864 -422.278559 
L 83.948864 -287.518182 
L 89.963786 -287.518182 
L 95.978708 -287.518182 
L 101.993629 -287.518182 
L 108.008551 -287.518182 
L 114.023473 -287.518182 
L 120.038395 -287.518182 
L 126.053317 -287.518182 
L 132.068239 -287.518182 
L 138.083161 -287.518182 
L 144.098083 -287.518182 
L 150.113005 -287.518182 
L 156.127927 -287.518182 
L 162.142849 -287.518182 
L 168.157771 -287.518182 
L 174.172693 -287.518182 
L 180.187615 -287.518182 
L 186.202537 -287.518182 
L 192.217459 -287.518182 
L 198.232381 -287.518182 
L 204.247303 -287.518182 
L 210.262225 -287.518182 
L 216.277146 -287.518182 
L 222.292068 -287.518182 
L 228.30699 -287.518182 
L 234.321912 -287.518182 
L 240.336834 -287.518182 
L 246.351756 -287.518182 
L 252.366678 -287.518182 
L 258.3816 -288.043692 
L 264.396522 -293.925437 
L 270.411444 -299.736931 
L 276.426366 -304.837069 
L 282.441288 -308.870148 
L 288.45621 -317.728685 
L 294.471132 -326.481802 
L 300.486054 -334.698021 
L 306.500976 -342.299781 
L 312.515898 -349.62239 
L 318.53082 -356.8497 
L 324.545742 -361.798489 
L 330.560663 -365.16387 
L 336.575585 -366.976057 
L 342.590507 -367.345689 
L 348.605429 -366.437383 
L 354.620351 -364.940747 
L 360.635273 -364.545076 
L 366.650195 -363.270821 
L 372.665117 -361.238025 
L 378.680039 -359.810786 
L 384.694961 -375.670385 
L 390.709883 -386.166365 
L 396.724805 -375.422049 
L 402.739727 -384.386847 
L 408.754649 -393.599659 
L 414.769571 -402.040218 
L 420.784493 -410.421657 
L 426.799415 -421.790914 
L 432.814337 -432.488158 
L 438.829258 -442.336817 
L 444.84418 -450.088493 
L 450.859102 -455.397322 
L 456.874024 -458.118758 
L 462.888946 -458.374934 
L 468.903868 -459.606771 
L 474.91879 -463.586522 
L 480.933712 -467.247083 
L 486.948634 -469.86277 
L 492.963556 -471.295985 
L 498.978478 -472.111324 
L 504.9934 -473.563303 
L 511.008322 -474.560894 
L 517.023244 -479.15663 
L 523.038166 -485.142406 
L 529.053088 -490.868068 
L 535.06801 -496.820391 
L 541.082932 -508.833475 
L 547.097854 -519.098811 
L 553.112775 -526.536126 
L 559.127697 -532.495315 
L 565.142619 -533.404608 
L 571.157541 -529.876297 
L 577.172463 -523.800953 
L 583.187385 -517.248909 
L 589.202307 -509.192992 
L 595.217229 -501.932457 
L 601.232151 -505.013367 
L 607.247073 -505.928679 
L 613.261995 -510.827998 
L 619.276917 -516.592877 
L 625.291839 -521.749229 
L 631.306761 -526.277387 
L 637.321683 -530.260106 
L 643.336605 -534.839878 
L 649.351527 -539.173447 
L 655.366449 -543.596235 
L 661.381371 -547.785144 
L 667.396292 -551.387616 
L 673.411214 -554.408222 
L 679.426136 -556.860117 
L 679.426136 -673.881818 
L 679.426136 -673.881818 
L 673.411214 -673.881818 
L 667.396292 -673.881818 
L 661.381371 -673.881818 
L 655.366449 -673.881818 
L 649.351527 -673.881818 
L 643.336605 -673.881818 
L 637.321683 -673.881818 
L 631.306761 -673.881818 
L 625.291839 -673.881818 
L 619.276917 -673.881818 
L 613.261995 -673.881818 
L 607.247073 -673.881818 
L 601.232151 -673.881818 
L 595.217229 -673.881818 
L 589.202307 -673.881818 
L 583.187385 -673.881818 
L 577.172463 -673.881818 
L 571.157541 -673.881818 
L 565.142619 -666.057835 
L 559.127697 -659.161802 
L 553.112775 -657.315665 
L 547.097854 -656.947654 
L 541.082932 -659.407664 
L 535.06801 -663.615422 
L 529.053088 -661.762419 
L 523.038166 -659.682755 
L 517.023244 -657.863205 
L 511.008322 -654.653614 
L 504.9934 -647.84588 
L 498.978478 -641.492533 
L 492.963556 -634.502545 
L 486.948634 -628.130435 
L 480.933712 -622.940796 
L 474.91879 -618.796031 
L 468.903868 -614.970456 
L 462.888946 -608.396967 
L 456.874024 -600.847817 
L 450.859102 -595.763926 
L 444.84418 -593.26743 
L 438.829258 -593.213779 
L 432.814337 -595.257113 
L 426.799415 -598.14903 
L 420.784493 -601.712962 
L 414.769571 -602.289075 
L 408.754649 -602.924308 
L 402.739727 -604.331794 
L 396.724805 -605.491265 
L 390.709883 -586.941624 
L 384.694961 -589.632278 
L 378.680039 -597.686551 
L 372.665117 -588.453986 
L 366.650195 -578.615864 
L 360.635273 -569.536283 
L 354.620351 -561.335286 
L 348.605429 -552.033324 
L 342.590507 -543.319692 
L 336.575585 -535.883998 
L 330.560663 -529.890859 
L 324.545742 -525.450914 
L 318.53082 -522.594377 
L 312.515898 -522.016361 
L 306.500976 -521.533645 
L 300.486054 -521.330078 
L 294.471132 -521.740971 
L 288.45621 -522.688762 
L 282.441288 -523.741974 
L 276.426366 -519.969726 
L 270.411444 -517.264539 
L 264.396522 -515.270707 
L 258.3816 -513.347126 
L 252.366678 -512.288425 
L 246.351756 -512.032685 
L 240.336834 -512.462254 
L 234.321912 -513.464173 
L 228.30699 -507.720843 
L 222.292068 -499.192621 
L 216.277146 -490.424137 
L 210.262225 -482.500685 
L 204.247303 -475.515018 
L 198.232381 -469.527463 
L 192.217459 -464.115117 
L 186.202537 -459.822098 
L 180.187615 -456.66069 
L 174.172693 -454.607715 
L 168.157771 -452.543419 
L 162.142849 -446.456668 
L 156.127927 -441.087945 
L 150.113005 -436.467041 
L 144.098083 -432.609147 
L 138.083161 -429.513306 
L 132.068239 -427.162507 
L 126.053317 -425.525418 
L 120.038395 -424.559353 
L 114.023473 -424.213878 
L 108.008551 -424.434408 
L 101.993629 -425.165364 
L 95.978708 -426.352607 
L 89.963786 -426.181222 
L 83.948864 -422.278559 
z
" id="m3e92989f27" style="stroke:#58508d;stroke-opacity:0.2;"/>
    </defs>
    <g clip-path="url(#p9ddbd129cb)">
     <use style="fill:#58508d;fill-opacity:0.2;stroke:#58508d;stroke-opacity:0.2;" x="0" xlink:href="#m3e92989f27" y="720"/>
    </g>
   </g>
   <g id="PolyCollection_3">
    <defs>
     <path d="M 83.948864 -364.790909 
L 83.948864 -287.518182 
L 89.963786 -287.518182 
L 95.978708 -287.518182 
L 101.993629 -287.518182 
L 108.008551 -287.518182 
L 114.023473 -287.518182 
L 120.038395 -287.518182 
L 126.053317 -287.518182 
L 132.068239 -287.518182 
L 138.083161 -287.518182 
L 144.098083 -287.518182 
L 150.113005 -287.518182 
L 156.127927 -287.518182 
L 162.142849 -287.518182 
L 168.157771 -287.518182 
L 174.172693 -287.518182 
L 180.187615 -287.518182 
L 186.202537 -287.518182 
L 192.217459 -287.518182 
L 198.232381 -287.518182 
L 204.247303 -287.518182 
L 210.262225 -287.518182 
L 216.277146 -287.518182 
L 222.292068 -287.518182 
L 228.30699 -287.518182 
L 234.321912 -287.518182 
L 240.336834 -290.094582 
L 246.351756 -293.368734 
L 252.366678 -296.414504 
L 258.3816 -298.89661 
L 264.396522 -300.838203 
L 270.411444 -302.26921 
L 276.426366 -304.604543 
L 282.441288 -309.867736 
L 288.45621 -314.335366 
L 294.471132 -317.994727 
L 300.486054 -320.851323 
L 306.500976 -323.628061 
L 312.515898 -329.848885 
L 318.53082 -338.883054 
L 324.545742 -345.30223 
L 330.560663 -348.771884 
L 336.575585 -349.77936 
L 342.590507 -353.583862 
L 348.605429 -354.355595 
L 354.620351 -356.330546 
L 360.635273 -361.47095 
L 366.650195 -365.265172 
L 372.665117 -367.717299 
L 378.680039 -369.408896 
L 384.694961 -373.012727 
L 390.709883 -380.347348 
L 396.724805 -385.678605 
L 402.739727 -389.162532 
L 408.754649 -394.922897 
L 414.769571 -400.239456 
L 420.784493 -407.242408 
L 426.799415 -415.400391 
L 432.814337 -423.585162 
L 438.829258 -431.175434 
L 444.84418 -438.092487 
L 450.859102 -444.261419 
L 456.874024 -449.618519 
L 462.888946 -453.74314 
L 468.903868 -456.470722 
L 474.91879 -462.145913 
L 480.933712 -476.53901 
L 486.948634 -489.399726 
L 492.963556 -497.85182 
L 498.978478 -501.813056 
L 504.9934 -501.270155 
L 511.008322 -499.874306 
L 517.023244 -500.292716 
L 523.038166 -499.541543 
L 529.053088 -501.116146 
L 535.06801 -507.264921 
L 541.082932 -522.611211 
L 547.097854 -536.283216 
L 553.112775 -547.876099 
L 559.127697 -553.43036 
L 565.142619 -553.331267 
L 571.157541 -552.146456 
L 577.172463 -551.617655 
L 583.187385 -552.021228 
L 589.202307 -552.173985 
L 595.217229 -555.794084 
L 601.232151 -560.146469 
L 607.247073 -564.597293 
L 613.261995 -570.397315 
L 619.276917 -576.226279 
L 625.291839 -581.721393 
L 631.306761 -586.854071 
L 637.321683 -591.599975 
L 643.336605 -595.980588 
L 649.351527 -599.986872 
L 655.366449 -603.656636 
L 661.381371 -607.127843 
L 667.396292 -610.722956 
L 673.411214 -614.569564 
L 679.426136 -618.374952 
L 679.426136 -673.881818 
L 679.426136 -673.881818 
L 673.411214 -673.881818 
L 667.396292 -673.881818 
L 661.381371 -673.881818 
L 655.366449 -673.881818 
L 649.351527 -673.881818 
L 643.336605 -673.881818 
L 637.321683 -673.881818 
L 631.306761 -673.881818 
L 625.291839 -673.881818 
L 619.276917 -673.881818 
L 613.261995 -673.881818 
L 607.247073 -673.881818 
L 601.232151 -673.881818 
L 595.217229 -673.881818 
L 589.202307 -673.881818 
L 583.187385 -670.857193 
L 577.172463 -663.45544 
L 571.157541 -655.121312 
L 565.142619 -646.131175 
L 559.127697 -638.226756 
L 553.112775 -635.975692 
L 547.097854 -639.763249 
L 541.082932 -645.629927 
L 535.06801 -653.170891 
L 529.053088 -651.514341 
L 523.038166 -645.283618 
L 517.023244 -636.727119 
L 511.008322 -629.340202 
L 504.9934 -620.139027 
L 498.978478 -611.790801 
L 492.963556 -607.946711 
L 486.948634 -608.593479 
L 480.933712 -613.648869 
L 474.91879 -620.23664 
L 468.903868 -618.106505 
L 462.888946 -613.028761 
L 456.874024 -609.348056 
L 450.859102 -606.89983 
L 444.84418 -605.263436 
L 438.829258 -604.375163 
L 432.814337 -604.160109 
L 426.799415 -604.539553 
L 420.784493 -604.892211 
L 414.769571 -604.089837 
L 408.754649 -601.60107 
L 402.739727 -599.556109 
L 396.724805 -595.23471 
L 390.709883 -592.760641 
L 384.694961 -592.289936 
L 378.680039 -588.088441 
L 372.665117 -581.974712 
L 366.650195 -576.621513 
L 360.635273 -572.610409 
L 354.620351 -569.945487 
L 348.605429 -564.115112 
L 342.590507 -557.081519 
L 336.575585 -553.080695 
L 330.560663 -546.282845 
L 324.545742 -541.947173 
L 318.53082 -540.561023 
L 312.515898 -541.789866 
L 306.500976 -540.205364 
L 300.486054 -535.176776 
L 294.471132 -530.228046 
L 288.45621 -526.082081 
L 282.441288 -522.744385 
L 276.426366 -520.202252 
L 270.411444 -514.732259 
L 264.396522 -508.357941 
L 258.3816 -502.494207 
L 252.366678 -497.170988 
L 246.351756 -492.411432 
L 240.336834 -487.880257 
L 234.321912 -483.480231 
L 228.30699 -478.440143 
L 222.292068 -472.265101 
L 216.277146 -464.819191 
L 210.262225 -457.781666 
L 204.247303 -451.197391 
L 198.232381 -445.110077 
L 192.217459 -439.132697 
L 186.202537 -433.293855 
L 180.187615 -428.768243 
L 174.172693 -424.268641 
L 168.157771 -419.859397 
L 162.142849 -415.521416 
L 156.127927 -411.255908 
L 150.113005 -407.063902 
L 144.098083 -402.946235 
L 138.083161 -398.903535 
L 132.068239 -394.936214 
L 126.053317 -391.044466 
L 120.038395 -387.228257 
L 114.023473 -383.487331 
L 108.008551 -379.821212 
L 101.993629 -376.169125 
L 95.978708 -372.355668 
L 89.963786 -368.562959 
L 83.948864 -364.790909 
z
" id="m7f38bb35ee" style="stroke:#bc5090;stroke-opacity:0.2;"/>
    </defs>
    <g clip-path="url(#p9ddbd129cb)">
     <use style="fill:#bc5090;fill-opacity:0.2;stroke:#bc5090;stroke-opacity:0.2;" x="0" xlink:href="#m7f38bb35ee" y="720"/>
    </g>
   </g>
   <g id="matplotlib.axis_1">
    <g id="xtick_1">
     <g id="line2d_1">
      <defs>
       <path d="M 0 0 
L 0 3.5 
" id="m2f01697721" style="stroke:#000000;stroke-width:0.8;"/>
      </defs>
      <g>
       <use style="stroke:#000000;stroke-width:0.8;" x="83.948864" xlink:href="#m2f01697721" y="451.8"/>
      </g>
     </g>
     <g id="text_1">
      <!-- 0.0 -->
      <defs>
       <path d="M 31.78125 66.40625 
Q 24.171875 66.40625 20.328125 58.90625 
Q 16.5 51.421875 16.5 36.375 
Q 16.5 21.390625 20.328125 13.890625 
Q 24.171875 6.390625 31.78125 6.390625 
Q 39.453125 6.390625 43.28125 13.890625 
Q 47.125 21.390625 47.125 36.375 
Q 47.125 51.421875 43.28125 58.90625 
Q 39.453125 66.40625 31.78125 66.40625 
z
M 31.78125 74.21875 
Q 44.046875 74.21875 50.515625 64.515625 
Q 56.984375 54.828125 56.984375 36.375 
Q 56.984375 17.96875 50.515625 8.265625 
Q 44.046875 -1.421875 31.78125 -1.421875 
Q 19.53125 -1.421875 13.0625 8.265625 
Q 6.59375 17.96875 6.59375 36.375 
Q 6.59375 54.828125 13.0625 64.515625 
Q 19.53125 74.21875 31.78125 74.21875 
z
" id="DejaVuSans-48"/>
       <path d="M 10.6875 12.40625 
L 21 12.40625 
L 21 0 
L 10.6875 0 
z
" id="DejaVuSans-46"/>
      </defs>
      <g transform="translate(75.997301 466.398437)scale(0.1 -0.1)">
       <use xlink:href="#DejaVuSans-48"/>
       <use x="63.623047" xlink:href="#DejaVuSans-46"/>
       <use x="95.410156" xlink:href="#DejaVuSans-48"/>
      </g>
     </g>
    </g>
    <g id="xtick_2">
     <g id="line2d_2">
      <g>
       <use style="stroke:#000000;stroke-width:0.8;" x="203.044318" xlink:href="#m2f01697721" y="451.8"/>
      </g>
     </g>
     <g id="text_2">
      <!-- 0.2 -->
      <defs>
       <path d="M 19.1875 8.296875 
L 53.609375 8.296875 
L 53.609375 0 
L 7.328125 0 
L 7.328125 8.296875 
Q 12.9375 14.109375 22.625 23.890625 
Q 32.328125 33.6875 34.8125 36.53125 
Q 39.546875 41.84375 41.421875 45.53125 
Q 43.3125 49.21875 43.3125 52.78125 
Q 43.3125 58.59375 39.234375 62.25 
Q 35.15625 65.921875 28.609375 65.921875 
Q 23.96875 65.921875 18.8125 64.3125 
Q 13.671875 62.703125 7.8125 59.421875 
L 7.8125 69.390625 
Q 13.765625 71.78125 18.9375 73 
Q 24.125 74.21875 28.421875 74.21875 
Q 39.75 74.21875 46.484375 68.546875 
Q 53.21875 62.890625 53.21875 53.421875 
Q 53.21875 48.921875 51.53125 44.890625 
Q 49.859375 40.875 45.40625 35.40625 
Q 44.1875 33.984375 37.640625 27.21875 
Q 31.109375 20.453125 19.1875 8.296875 
z
" id="DejaVuSans-50"/>
      </defs>
      <g transform="translate(195.092756 466.398437)scale(0.1 -0.1)">
       <use xlink:href="#DejaVuSans-48"/>
       <use x="63.623047" xlink:href="#DejaVuSans-46"/>
       <use x="95.410156" xlink:href="#DejaVuSans-50"/>
      </g>
     </g>
    </g>
    <g id="xtick_3">
     <g id="line2d_3">
      <g>
       <use style="stroke:#000000;stroke-width:0.8;" x="322.139773" xlink:href="#m2f01697721" y="451.8"/>
      </g>
     </g>
     <g id="text_3">
      <!-- 0.4 -->
      <defs>
       <path d="M 37.796875 64.3125 
L 12.890625 25.390625 
L 37.796875 25.390625 
z
M 35.203125 72.90625 
L 47.609375 72.90625 
L 47.609375 25.390625 
L 58.015625 25.390625 
L 58.015625 17.1875 
L 47.609375 17.1875 
L 47.609375 0 
L 37.796875 0 
L 37.796875 17.1875 
L 4.890625 17.1875 
L 4.890625 26.703125 
z
" id="DejaVuSans-52"/>
      </defs>
      <g transform="translate(314.18821 466.398437)scale(0.1 -0.1)">
       <use xlink:href="#DejaVuSans-48"/>
       <use x="63.623047" xlink:href="#DejaVuSans-46"/>
       <use x="95.410156" xlink:href="#DejaVuSans-52"/>
      </g>
     </g>
    </g>
    <g id="xtick_4">
     <g id="line2d_4">
      <g>
       <use style="stroke:#000000;stroke-width:0.8;" x="441.235227" xlink:href="#m2f01697721" y="451.8"/>
      </g>
     </g>
     <g id="text_4">
      <!-- 0.6 -->
      <defs>
       <path d="M 33.015625 40.375 
Q 26.375 40.375 22.484375 35.828125 
Q 18.609375 31.296875 18.609375 23.390625 
Q 18.609375 15.53125 22.484375 10.953125 
Q 26.375 6.390625 33.015625 6.390625 
Q 39.65625 6.390625 43.53125 10.953125 
Q 47.40625 15.53125 47.40625 23.390625 
Q 47.40625 31.296875 43.53125 35.828125 
Q 39.65625 40.375 33.015625 40.375 
z
M 52.59375 71.296875 
L 52.59375 62.3125 
Q 48.875 64.0625 45.09375 64.984375 
Q 41.3125 65.921875 37.59375 65.921875 
Q 27.828125 65.921875 22.671875 59.328125 
Q 17.53125 52.734375 16.796875 39.40625 
Q 19.671875 43.65625 24.015625 45.921875 
Q 28.375 48.1875 33.59375 48.1875 
Q 44.578125 48.1875 50.953125 41.515625 
Q 57.328125 34.859375 57.328125 23.390625 
Q 57.328125 12.15625 50.6875 5.359375 
Q 44.046875 -1.421875 33.015625 -1.421875 
Q 20.359375 -1.421875 13.671875 8.265625 
Q 6.984375 17.96875 6.984375 36.375 
Q 6.984375 53.65625 15.1875 63.9375 
Q 23.390625 74.21875 37.203125 74.21875 
Q 40.921875 74.21875 44.703125 73.484375 
Q 48.484375 72.75 52.59375 71.296875 
z
" id="DejaVuSans-54"/>
      </defs>
      <g transform="translate(433.283665 466.398437)scale(0.1 -0.1)">
       <use xlink:href="#DejaVuSans-48"/>
       <use x="63.623047" xlink:href="#DejaVuSans-46"/>
       <use x="95.410156" xlink:href="#DejaVuSans-54"/>
      </g>
     </g>
    </g>
    <g id="xtick_5">
     <g id="line2d_5">
      <g>
       <use style="stroke:#000000;stroke-width:0.8;" x="560.330682" xlink:href="#m2f01697721" y="451.8"/>
      </g>
     </g>
     <g id="text_5">
      <!-- 0.8 -->
      <defs>
       <path d="M 31.78125 34.625 
Q 24.75 34.625 20.71875 30.859375 
Q 16.703125 27.09375 16.703125 20.515625 
Q 16.703125 13.921875 20.71875 10.15625 
Q 24.75 6.390625 31.78125 6.390625 
Q 38.8125 6.390625 42.859375 10.171875 
Q 46.921875 13.96875 46.921875 20.515625 
Q 46.921875 27.09375 42.890625 30.859375 
Q 38.875 34.625 31.78125 34.625 
z
M 21.921875 38.8125 
Q 15.578125 40.375 12.03125 44.71875 
Q 8.5 49.078125 8.5 55.328125 
Q 8.5 64.0625 14.71875 69.140625 
Q 20.953125 74.21875 31.78125 74.21875 
Q 42.671875 74.21875 48.875 69.140625 
Q 55.078125 64.0625 55.078125 55.328125 
Q 55.078125 49.078125 51.53125 44.71875 
Q 48 40.375 41.703125 38.8125 
Q 48.828125 37.15625 52.796875 32.3125 
Q 56.78125 27.484375 56.78125 20.515625 
Q 56.78125 9.90625 50.3125 4.234375 
Q 43.84375 -1.421875 31.78125 -1.421875 
Q 19.734375 -1.421875 13.25 4.234375 
Q 6.78125 9.90625 6.78125 20.515625 
Q 6.78125 27.484375 10.78125 32.3125 
Q 14.796875 37.15625 21.921875 38.8125 
z
M 18.3125 54.390625 
Q 18.3125 48.734375 21.84375 45.5625 
Q 25.390625 42.390625 31.78125 42.390625 
Q 38.140625 42.390625 41.71875 45.5625 
Q 45.3125 48.734375 45.3125 54.390625 
Q 45.3125 60.0625 41.71875 63.234375 
Q 38.140625 66.40625 31.78125 66.40625 
Q 25.390625 66.40625 21.84375 63.234375 
Q 18.3125 60.0625 18.3125 54.390625 
z
" id="DejaVuSans-56"/>
      </defs>
      <g transform="translate(552.379119 466.398437)scale(0.1 -0.1)">
       <use xlink:href="#DejaVuSans-48"/>
       <use x="63.623047" xlink:href="#DejaVuSans-46"/>
       <use x="95.410156" xlink:href="#DejaVuSans-56"/>
      </g>
     </g>
    </g>
    <g id="xtick_6">
     <g id="line2d_6">
      <g>
       <use style="stroke:#000000;stroke-width:0.8;" x="679.426136" xlink:href="#m2f01697721" y="451.8"/>
      </g>
     </g>
     <g id="text_6">
      <!-- 1.0 -->
      <defs>
       <path d="M 12.40625 8.296875 
L 28.515625 8.296875 
L 28.515625 63.921875 
L 10.984375 60.40625 
L 10.984375 69.390625 
L 28.421875 72.90625 
L 38.28125 72.90625 
L 38.28125 8.296875 
L 54.390625 8.296875 
L 54.390625 0 
L 12.40625 0 
z
" id="DejaVuSans-49"/>
      </defs>
      <g transform="translate(671.474574 466.398437)scale(0.1 -0.1)">
       <use xlink:href="#DejaVuSans-49"/>
       <use x="63.623047" xlink:href="#DejaVuSans-46"/>
       <use x="95.410156" xlink:href="#DejaVuSans-48"/>
      </g>
     </g>
    </g>
   </g>
   <g id="matplotlib.axis_2">
    <g id="ytick_1">
     <g id="line2d_7">
      <defs>
       <path d="M 0 0 
L -3.5 0 
" id="m5b15efe1f4" style="stroke:#000000;stroke-width:0.8;"/>
      </defs>
      <g>
       <use style="stroke:#000000;stroke-width:0.8;" x="54.175" xlink:href="#m5b15efe1f4" y="432.481818"/>
      </g>
     </g>
     <g id="text_7">
      <!-- 0.0 -->
      <g transform="translate(31.271875 436.281037)scale(0.1 -0.1)">
       <use xlink:href="#DejaVuSans-48"/>
       <use x="63.623047" xlink:href="#DejaVuSans-46"/>
       <use x="95.410156" xlink:href="#DejaVuSans-48"/>
      </g>
     </g>
    </g>
    <g id="ytick_2">
     <g id="line2d_8">
      <g>
       <use style="stroke:#000000;stroke-width:0.8;" x="54.175" xlink:href="#m5b15efe1f4" y="355.209091"/>
      </g>
     </g>
     <g id="text_8">
      <!-- 0.2 -->
      <g transform="translate(31.271875 359.00831)scale(0.1 -0.1)">
       <use xlink:href="#DejaVuSans-48"/>
       <use x="63.623047" xlink:href="#DejaVuSans-46"/>
       <use x="95.410156" xlink:href="#DejaVuSans-50"/>
      </g>
     </g>
    </g>
    <g id="ytick_3">
     <g id="line2d_9">
      <g>
       <use style="stroke:#000000;stroke-width:0.8;" x="54.175" xlink:href="#m5b15efe1f4" y="277.936364"/>
      </g>
     </g>
     <g id="text_9">
      <!-- 0.4 -->
      <g transform="translate(31.271875 281.735582)scale(0.1 -0.1)">
       <use xlink:href="#DejaVuSans-48"/>
       <use x="63.623047" xlink:href="#DejaVuSans-46"/>
       <use x="95.410156" xlink:href="#DejaVuSans-52"/>
      </g>
     </g>
    </g>
    <g id="ytick_4">
     <g id="line2d_10">
      <g>
       <use style="stroke:#000000;stroke-width:0.8;" x="54.175" xlink:href="#m5b15efe1f4" y="200.663636"/>
      </g>
     </g>
     <g id="text_10">
      <!-- 0.6 -->
      <g transform="translate(31.271875 204.462855)scale(0.1 -0.1)">
       <use xlink:href="#DejaVuSans-48"/>
       <use x="63.623047" xlink:href="#DejaVuSans-46"/>
       <use x="95.410156" xlink:href="#DejaVuSans-54"/>
      </g>
     </g>
    </g>
    <g id="ytick_5">
     <g id="line2d_11">
      <g>
       <use style="stroke:#000000;stroke-width:0.8;" x="54.175" xlink:href="#m5b15efe1f4" y="123.390909"/>
      </g>
     </g>
     <g id="text_11">
      <!-- 0.8 -->
      <g transform="translate(31.271875 127.190128)scale(0.1 -0.1)">
       <use xlink:href="#DejaVuSans-48"/>
       <use x="63.623047" xlink:href="#DejaVuSans-46"/>
       <use x="95.410156" xlink:href="#DejaVuSans-56"/>
      </g>
     </g>
    </g>
    <g id="ytick_6">
     <g id="line2d_12">
      <g>
       <use style="stroke:#000000;stroke-width:0.8;" x="54.175" xlink:href="#m5b15efe1f4" y="46.118182"/>
      </g>
     </g>
     <g id="text_12">
      <!-- 1.0 -->
      <g transform="translate(31.271875 49.917401)scale(0.1 -0.1)">
       <use xlink:href="#DejaVuSans-49"/>
       <use x="63.623047" xlink:href="#DejaVuSans-46"/>
       <use x="95.410156" xlink:href="#DejaVuSans-48"/>
      </g>
     </g>
    </g>
    <g id="text_13">
     <!-- Fraction of positives -->
     <defs>
      <path d="M 9.8125 72.90625 
L 51.703125 72.90625 
L 51.703125 64.59375 
L 19.671875 64.59375 
L 19.671875 43.109375 
L 48.578125 43.109375 
L 48.578125 34.8125 
L 19.671875 34.8125 
L 19.671875 0 
L 9.8125 0 
z
" id="DejaVuSans-70"/>
      <path d="M 41.109375 46.296875 
Q 39.59375 47.171875 37.8125 47.578125 
Q 36.03125 48 33.890625 48 
Q 26.265625 48 22.1875 43.046875 
Q 18.109375 38.09375 18.109375 28.8125 
L 18.109375 0 
L 9.078125 0 
L 9.078125 54.6875 
L 18.109375 54.6875 
L 18.109375 46.1875 
Q 20.953125 51.171875 25.484375 53.578125 
Q 30.03125 56 36.53125 56 
Q 37.453125 56 38.578125 55.875 
Q 39.703125 55.765625 41.0625 55.515625 
z
" id="DejaVuSans-114"/>
      <path d="M 34.28125 27.484375 
Q 23.390625 27.484375 19.1875 25 
Q 14.984375 22.515625 14.984375 16.5 
Q 14.984375 11.71875 18.140625 8.90625 
Q 21.296875 6.109375 26.703125 6.109375 
Q 34.1875 6.109375 38.703125 11.40625 
Q 43.21875 16.703125 43.21875 25.484375 
L 43.21875 27.484375 
z
M 52.203125 31.203125 
L 52.203125 0 
L 43.21875 0 
L 43.21875 8.296875 
Q 40.140625 3.328125 35.546875 0.953125 
Q 30.953125 -1.421875 24.3125 -1.421875 
Q 15.921875 -1.421875 10.953125 3.296875 
Q 6 8.015625 6 15.921875 
Q 6 25.140625 12.171875 29.828125 
Q 18.359375 34.515625 30.609375 34.515625 
L 43.21875 34.515625 
L 43.21875 35.40625 
Q 43.21875 41.609375 39.140625 45 
Q 35.0625 48.390625 27.6875 48.390625 
Q 23 48.390625 18.546875 47.265625 
Q 14.109375 46.140625 10.015625 43.890625 
L 10.015625 52.203125 
Q 14.9375 54.109375 19.578125 55.046875 
Q 24.21875 56 28.609375 56 
Q 40.484375 56 46.34375 49.84375 
Q 52.203125 43.703125 52.203125 31.203125 
z
" id="DejaVuSans-97"/>
      <path d="M 48.78125 52.59375 
L 48.78125 44.1875 
Q 44.96875 46.296875 41.140625 47.34375 
Q 37.3125 48.390625 33.40625 48.390625 
Q 24.65625 48.390625 19.8125 42.84375 
Q 14.984375 37.3125 14.984375 27.296875 
Q 14.984375 17.28125 19.8125 11.734375 
Q 24.65625 6.203125 33.40625 6.203125 
Q 37.3125 6.203125 41.140625 7.25 
Q 44.96875 8.296875 48.78125 10.40625 
L 48.78125 2.09375 
Q 45.015625 0.34375 40.984375 -0.53125 
Q 36.96875 -1.421875 32.421875 -1.421875 
Q 20.0625 -1.421875 12.78125 6.34375 
Q 5.515625 14.109375 5.515625 27.296875 
Q 5.515625 40.671875 12.859375 48.328125 
Q 20.21875 56 33.015625 56 
Q 37.15625 56 41.109375 55.140625 
Q 45.0625 54.296875 48.78125 52.59375 
z
" id="DejaVuSans-99"/>
      <path d="M 18.3125 70.21875 
L 18.3125 54.6875 
L 36.8125 54.6875 
L 36.8125 47.703125 
L 18.3125 47.703125 
L 18.3125 18.015625 
Q 18.3125 11.328125 20.140625 9.421875 
Q 21.96875 7.515625 27.59375 7.515625 
L 36.8125 7.515625 
L 36.8125 0 
L 27.59375 0 
Q 17.1875 0 13.234375 3.875 
Q 9.28125 7.765625 9.28125 18.015625 
L 9.28125 47.703125 
L 2.6875 47.703125 
L 2.6875 54.6875 
L 9.28125 54.6875 
L 9.28125 70.21875 
z
" id="DejaVuSans-116"/>
      <path d="M 9.421875 54.6875 
L 18.40625 54.6875 
L 18.40625 0 
L 9.421875 0 
z
M 9.421875 75.984375 
L 18.40625 75.984375 
L 18.40625 64.59375 
L 9.421875 64.59375 
z
" id="DejaVuSans-105"/>
      <path d="M 30.609375 48.390625 
Q 23.390625 48.390625 19.1875 42.75 
Q 14.984375 37.109375 14.984375 27.296875 
Q 14.984375 17.484375 19.15625 11.84375 
Q 23.34375 6.203125 30.609375 6.203125 
Q 37.796875 6.203125 41.984375 11.859375 
Q 46.1875 17.53125 46.1875 27.296875 
Q 46.1875 37.015625 41.984375 42.703125 
Q 37.796875 48.390625 30.609375 48.390625 
z
M 30.609375 56 
Q 42.328125 56 49.015625 48.375 
Q 55.71875 40.765625 55.71875 27.296875 
Q 55.71875 13.875 49.015625 6.21875 
Q 42.328125 -1.421875 30.609375 -1.421875 
Q 18.84375 -1.421875 12.171875 6.21875 
Q 5.515625 13.875 5.515625 27.296875 
Q 5.515625 40.765625 12.171875 48.375 
Q 18.84375 56 30.609375 56 
z
" id="DejaVuSans-111"/>
      <path d="M 54.890625 33.015625 
L 54.890625 0 
L 45.90625 0 
L 45.90625 32.71875 
Q 45.90625 40.484375 42.875 44.328125 
Q 39.84375 48.1875 33.796875 48.1875 
Q 26.515625 48.1875 22.3125 43.546875 
Q 18.109375 38.921875 18.109375 30.90625 
L 18.109375 0 
L 9.078125 0 
L 9.078125 54.6875 
L 18.109375 54.6875 
L 18.109375 46.1875 
Q 21.34375 51.125 25.703125 53.5625 
Q 30.078125 56 35.796875 56 
Q 45.21875 56 50.046875 50.171875 
Q 54.890625 44.34375 54.890625 33.015625 
z
" id="DejaVuSans-110"/>
      <path id="DejaVuSans-32"/>
      <path d="M 37.109375 75.984375 
L 37.109375 68.5 
L 28.515625 68.5 
Q 23.6875 68.5 21.796875 66.546875 
Q 19.921875 64.59375 19.921875 59.515625 
L 19.921875 54.6875 
L 34.71875 54.6875 
L 34.71875 47.703125 
L 19.921875 47.703125 
L 19.921875 0 
L 10.890625 0 
L 10.890625 47.703125 
L 2.296875 47.703125 
L 2.296875 54.6875 
L 10.890625 54.6875 
L 10.890625 58.5 
Q 10.890625 67.625 15.140625 71.796875 
Q 19.390625 75.984375 28.609375 75.984375 
z
" id="DejaVuSans-102"/>
      <path d="M 18.109375 8.203125 
L 18.109375 -20.796875 
L 9.078125 -20.796875 
L 9.078125 54.6875 
L 18.109375 54.6875 
L 18.109375 46.390625 
Q 20.953125 51.265625 25.265625 53.625 
Q 29.59375 56 35.59375 56 
Q 45.5625 56 51.78125 48.09375 
Q 58.015625 40.1875 58.015625 27.296875 
Q 58.015625 14.40625 51.78125 6.484375 
Q 45.5625 -1.421875 35.59375 -1.421875 
Q 29.59375 -1.421875 25.265625 0.953125 
Q 20.953125 3.328125 18.109375 8.203125 
z
M 48.6875 27.296875 
Q 48.6875 37.203125 44.609375 42.84375 
Q 40.53125 48.484375 33.40625 48.484375 
Q 26.265625 48.484375 22.1875 42.84375 
Q 18.109375 37.203125 18.109375 27.296875 
Q 18.109375 17.390625 22.1875 11.75 
Q 26.265625 6.109375 33.40625 6.109375 
Q 40.53125 6.109375 44.609375 11.75 
Q 48.6875 17.390625 48.6875 27.296875 
z
" id="DejaVuSans-112"/>
      <path d="M 44.28125 53.078125 
L 44.28125 44.578125 
Q 40.484375 46.53125 36.375 47.5 
Q 32.28125 48.484375 27.875 48.484375 
Q 21.1875 48.484375 17.84375 46.4375 
Q 14.5 44.390625 14.5 40.28125 
Q 14.5 37.15625 16.890625 35.375 
Q 19.28125 33.59375 26.515625 31.984375 
L 29.59375 31.296875 
Q 39.15625 29.25 43.1875 25.515625 
Q 47.21875 21.78125 47.21875 15.09375 
Q 47.21875 7.46875 41.1875 3.015625 
Q 35.15625 -1.421875 24.609375 -1.421875 
Q 20.21875 -1.421875 15.453125 -0.5625 
Q 10.6875 0.296875 5.421875 2 
L 5.421875 11.28125 
Q 10.40625 8.6875 15.234375 7.390625 
Q 20.0625 6.109375 24.8125 6.109375 
Q 31.15625 6.109375 34.5625 8.28125 
Q 37.984375 10.453125 37.984375 14.40625 
Q 37.984375 18.0625 35.515625 20.015625 
Q 33.0625 21.96875 24.703125 23.78125 
L 21.578125 24.515625 
Q 13.234375 26.265625 9.515625 29.90625 
Q 5.8125 33.546875 5.8125 39.890625 
Q 5.8125 47.609375 11.28125 51.796875 
Q 16.75 56 26.8125 56 
Q 31.78125 56 36.171875 55.265625 
Q 40.578125 54.546875 44.28125 53.078125 
z
" id="DejaVuSans-115"/>
      <path d="M 2.984375 54.6875 
L 12.5 54.6875 
L 29.59375 8.796875 
L 46.6875 54.6875 
L 56.203125 54.6875 
L 35.6875 0 
L 23.484375 0 
z
" id="DejaVuSans-118"/>
      <path d="M 56.203125 29.59375 
L 56.203125 25.203125 
L 14.890625 25.203125 
Q 15.484375 15.921875 20.484375 11.0625 
Q 25.484375 6.203125 34.421875 6.203125 
Q 39.59375 6.203125 44.453125 7.46875 
Q 49.3125 8.734375 54.109375 11.28125 
L 54.109375 2.78125 
Q 49.265625 0.734375 44.1875 -0.34375 
Q 39.109375 -1.421875 33.890625 -1.421875 
Q 20.796875 -1.421875 13.15625 6.1875 
Q 5.515625 13.8125 5.515625 26.8125 
Q 5.515625 40.234375 12.765625 48.109375 
Q 20.015625 56 32.328125 56 
Q 43.359375 56 49.78125 48.890625 
Q 56.203125 41.796875 56.203125 29.59375 
z
M 47.21875 32.234375 
Q 47.125 39.59375 43.09375 43.984375 
Q 39.0625 48.390625 32.421875 48.390625 
Q 24.90625 48.390625 20.390625 44.140625 
Q 15.875 39.890625 15.1875 32.171875 
z
" id="DejaVuSans-101"/>
     </defs>
     <g transform="translate(25.192187 289.83125)rotate(-90)scale(0.1 -0.1)">
      <use xlink:href="#DejaVuSans-70"/>
      <use x="57.410156" xlink:href="#DejaVuSans-114"/>
      <use x="98.523438" xlink:href="#DejaVuSans-97"/>
      <use x="159.802734" xlink:href="#DejaVuSans-99"/>
      <use x="214.783203" xlink:href="#DejaVuSans-116"/>
      <use x="253.992188" xlink:href="#DejaVuSans-105"/>
      <use x="281.775391" xlink:href="#DejaVuSans-111"/>
      <use x="342.957031" xlink:href="#DejaVuSans-110"/>
      <use x="406.335938" xlink:href="#DejaVuSans-32"/>
      <use x="438.123047" xlink:href="#DejaVuSans-111"/>
      <use x="499.304688" xlink:href="#DejaVuSans-102"/>
      <use x="534.509766" xlink:href="#DejaVuSans-32"/>
      <use x="566.296875" xlink:href="#DejaVuSans-112"/>
      <use x="629.773438" xlink:href="#DejaVuSans-111"/>
      <use x="690.955078" xlink:href="#DejaVuSans-115"/>
      <use x="743.054688" xlink:href="#DejaVuSans-105"/>
      <use x="770.837891" xlink:href="#DejaVuSans-116"/>
      <use x="810.046875" xlink:href="#DejaVuSans-105"/>
      <use x="837.830078" xlink:href="#DejaVuSans-118"/>
      <use x="897.009766" xlink:href="#DejaVuSans-101"/>
      <use x="958.533203" xlink:href="#DejaVuSans-115"/>
     </g>
    </g>
   </g>
   <g id="line2d_13">
    <path clip-path="url(#p9ddbd129cb)" d="M 83.948864 432.481818 
L 679.426136 46.118182 
" style="fill:none;stroke:#000000;stroke-dasharray:1.5,2.475;stroke-dashoffset:0;stroke-width:1.5;"/>
   </g>
   <g id="line2d_14">
    <path clip-path="url(#p9ddbd129cb)" d="M 83.948864 251.007989 
L 89.963786 251.007989 
L 95.978708 251.007989 
L 101.993629 251.007989 
L 108.008551 251.007989 
L 114.023473 251.007989 
L 120.038395 251.007989 
L 126.053317 251.007989 
L 132.068239 251.007989 
L 138.083161 251.007989 
L 144.098083 251.007989 
L 150.113005 251.007989 
L 156.127927 251.007989 
L 162.142849 251.007989 
L 168.157771 251.007989 
L 174.172693 251.007989 
L 180.187615 251.007989 
L 186.202537 251.007989 
L 192.217459 251.007989 
L 198.232381 251.007989 
L 204.247303 251.007989 
L 210.262225 251.007989 
L 216.277146 250.672021 
L 222.292068 250.244424 
L 228.30699 249.816828 
L 234.321912 249.389232 
L 240.336834 247.242767 
L 246.351756 243.643297 
L 252.366678 240.043826 
L 258.3816 237.026502 
L 264.396522 234.364506 
L 270.411444 231.655644 
L 276.426366 228.946782 
L 282.441288 226.237921 
L 288.45621 224.865349 
L 294.471132 225.512338 
L 300.486054 227.447163 
L 306.500976 229.381988 
L 312.515898 231.316814 
L 318.53082 233.251639 
L 324.545742 235.186464 
L 330.560663 237.209429 
L 336.575585 239.931308 
L 342.590507 242.653186 
L 348.605429 244.855905 
L 354.620351 246.892572 
L 360.635273 248.92924 
L 366.650195 251.659369 
L 372.665117 252.675255 
L 378.680039 250.643423 
L 384.694961 244.569093 
L 390.709883 243.449082 
L 396.724805 245.178447 
L 402.739727 246.957183 
L 408.754649 244.713363 
L 414.769571 241.419544 
L 420.784493 231.90631 
L 426.799415 221.031903 
L 432.814337 211.147059 
L 438.829258 201.59265 
L 444.84418 192.038241 
L 450.859102 182.483833 
L 456.874024 173.488188 
L 462.888946 166.003817 
L 468.903868 159.798657 
L 474.91879 156.545075 
L 480.933712 153.532738 
L 486.948634 151.728702 
L 492.963556 149.702185 
L 498.978478 147.074228 
L 504.9934 144.446271 
L 511.008322 138.46852 
L 517.023244 130.748874 
L 523.038166 125.543268 
L 529.053088 122.147993 
L 535.06801 120.524418 
L 541.082932 119.493028 
L 547.097854 118.461639 
L 553.112775 117.674702 
L 559.127697 117.501041 
L 565.142619 117.327379 
L 571.157541 117.153718 
L 577.172463 116.980056 
L 583.187385 116.806395 
L 589.202307 116.632734 
L 595.217229 118.939662 
L 601.232151 120.174208 
L 607.247073 121.30382 
L 613.261995 122.433432 
L 619.276917 123.563043 
L 625.291839 124.692655 
L 631.306761 125.822267 
L 637.321683 126.951879 
L 643.336605 128.081491 
L 649.351527 129.211103 
L 655.366449 130.340715 
L 661.381371 131.470327 
L 667.396292 132.599939 
L 673.411214 133.729551 
L 679.426136 134.859163 
" style="fill:none;stroke:#003f5c;stroke-linecap:square;stroke-width:1.5;"/>
   </g>
   <g id="line2d_15">
    <path clip-path="url(#p9ddbd129cb)" d="M 83.948864 295.966667 
L 89.963786 295.966667 
L 95.978708 298.027858 
L 101.993629 301.030692 
L 108.008551 304.033525 
L 114.023473 307.036359 
L 120.038395 310.039192 
L 126.053317 313.042026 
L 132.068239 316.044859 
L 138.083161 319.047693 
L 144.098083 322.050527 
L 150.113005 325.05336 
L 156.127927 328.056194 
L 162.142849 331.059027 
L 168.157771 334.061861 
L 174.172693 331.606437 
L 180.187615 327.951076 
L 186.202537 324.295715 
L 192.217459 320.640354 
L 198.232381 316.984993 
L 204.247303 312.860562 
L 210.262225 308.717368 
L 216.277146 304.574174 
L 222.292068 300.43098 
L 228.30699 297.365477 
L 234.321912 296.846383 
L 240.336834 299.027729 
L 246.351756 301.041752 
L 252.366678 302.330709 
L 258.3816 303.619666 
L 264.396522 304.908622 
L 270.411444 305.450125 
L 276.426366 305.715292 
L 282.441288 305.980458 
L 288.45621 301.477551 
L 294.471132 296.668575 
L 300.486054 291.859599 
L 306.500976 287.050623 
L 312.515898 281.532595 
L 318.53082 274.5007 
L 324.545742 268.689544 
L 330.560663 262.878388 
L 336.575585 257.067232 
L 342.590507 251.256075 
L 348.605429 245.444919 
L 354.620351 237.287607 
L 360.635273 226.99339 
L 366.650195 216.699173 
L 372.665117 206.404955 
L 378.680039 195.474647 
L 384.694961 194.714194 
L 390.709883 206.942696 
L 396.724805 217.066431 
L 402.739727 211.57119 
L 408.754649 207.508395 
L 414.769571 204.629766 
L 420.784493 201.929272 
L 426.799415 198.33818 
L 432.814337 194.276096 
L 438.829258 188.657616 
L 444.84418 183.039136 
L 450.859102 177.420656 
L 456.874024 171.802176 
L 462.888946 166.183696 
L 468.903868 157.364623 
L 474.91879 151.161864 
L 480.933712 147.009886 
L 486.948634 144.73326 
L 492.963556 142.456634 
L 498.978478 140.587219 
L 504.9934 140.047036 
L 511.008322 139.774312 
L 517.023244 136.707545 
L 523.038166 131.87131 
L 529.053088 128.117322 
L 535.06801 125.132004 
L 541.082932 126.265452 
L 547.097854 128.194954 
L 553.112775 131.434629 
L 559.127697 137.358539 
L 565.142619 143.282449 
L 571.157541 149.20636 
L 577.172463 155.676337 
L 583.187385 163.432109 
L 589.202307 171.187881 
L 595.217229 177.42767 
L 601.232151 177.4625 
L 607.247073 175.754325 
L 613.261995 169.9311 
L 619.276917 163.411024 
L 625.291839 156.890948 
L 631.306761 150.370872 
L 637.321683 143.960693 
L 643.336605 138.97918 
L 649.351527 134.437544 
L 655.366449 131.098669 
L 661.381371 128.366804 
L 667.396292 125.63494 
L 673.411214 122.903076 
L 679.426136 120.171212 
" style="fill:none;stroke:#58508d;stroke-linecap:square;stroke-width:1.5;"/>
   </g>
   <g id="line2d_16">
    <path clip-path="url(#p9ddbd129cb)" d="M 83.948864 406.724242 
L 89.963786 406.301514 
L 95.978708 405.878785 
L 101.993629 405.456057 
L 108.008551 404.472019 
L 114.023473 403.321468 
L 120.038395 402.170917 
L 126.053317 401.020366 
L 132.068239 399.869815 
L 138.083161 398.719264 
L 144.098083 397.568713 
L 150.113005 396.418162 
L 156.127927 395.267611 
L 162.142849 394.11706 
L 168.157771 392.966509 
L 174.172693 391.815958 
L 180.187615 390.603605 
L 186.202537 389.448535 
L 192.217459 386.071512 
L 198.232381 381.35764 
L 204.247303 375.941288 
L 210.262225 370.524936 
L 216.277146 365.108585 
L 222.292068 359.692233 
L 228.30699 356.837728 
L 234.321912 352.853038 
L 240.336834 347.380084 
L 246.351756 341.373569 
L 252.366678 334.968164 
L 258.3816 328.562759 
L 264.396522 322.157354 
L 270.411444 315.751949 
L 276.426366 309.915637 
L 282.441288 305.558444 
L 288.45621 301.201251 
L 294.471132 296.844058 
L 300.486054 292.486865 
L 306.500976 289.021374 
L 312.515898 283.624822 
L 318.53082 274.594902 
L 324.545742 265.564981 
L 330.560663 256.03043 
L 336.575585 245.62918 
L 342.590507 231.21894 
L 348.605429 216.808699 
L 354.620351 205.197438 
L 360.635273 196.894681 
L 366.650195 188.591925 
L 372.665117 180.289168 
L 378.680039 171.17924 
L 384.694961 164.303922 
L 390.709883 162.736008 
L 396.724805 160.763577 
L 402.739727 158.47666 
L 408.754649 155.920322 
L 414.769571 155.394244 
L 420.784493 158.065373 
L 426.799415 158.993678 
L 432.814337 159.224903 
L 438.829258 159.456128 
L 444.84418 159.687353 
L 450.859102 159.918578 
L 456.874024 160.149803 
L 462.888946 160.628407 
L 468.903868 161.158929 
L 474.91879 159.245707 
L 480.933712 154.849777 
L 486.948634 150.595855 
L 492.963556 145.037894 
L 498.978478 139.479932 
L 504.9934 133.921971 
L 511.008322 130.347083 
L 517.023244 129.369729 
L 523.038166 128.392375 
L 529.053088 128.602283 
L 535.06801 126.031788 
L 541.082932 118.575256 
L 547.097854 110.23249 
L 553.112775 99.405063 
L 559.127697 89.058699 
L 565.142619 80.651253 
L 571.157541 77.438292 
L 577.172463 77.913534 
L 583.187385 80.955384 
L 589.202307 83.997233 
L 595.217229 85.543568 
L 601.232151 87.089834 
L 607.247073 88.922689 
L 613.261995 91.109121 
L 619.276917 93.056706 
L 625.291839 95.00429 
L 631.306761 96.951874 
L 637.321683 98.899458 
L 643.336605 100.753829 
L 649.351527 102.647139 
L 655.366449 104.620575 
L 661.381371 106.594011 
L 667.396292 108.087723 
L 673.411214 109.051212 
L 679.426136 109.546212 
" style="fill:none;stroke:#bc5090;stroke-linecap:square;stroke-width:1.5;"/>
   </g>
   <g id="patch_3">
    <path d="M 54.175 451.8 
L 54.175 26.8 
" style="fill:none;stroke:#000000;stroke-linecap:square;stroke-linejoin:miter;stroke-width:0.8;"/>
   </g>
   <g id="patch_4">
    <path d="M 709.2 451.8 
L 709.2 26.8 
" style="fill:none;stroke:#000000;stroke-linecap:square;stroke-linejoin:miter;stroke-width:0.8;"/>
   </g>
   <g id="patch_5">
    <path d="M 54.175 451.8 
L 709.2 451.8 
" style="fill:none;stroke:#000000;stroke-linecap:square;stroke-linejoin:miter;stroke-width:0.8;"/>
   </g>
   <g id="patch_6">
    <path d="M 54.175 26.8 
L 709.2 26.8 
" style="fill:none;stroke:#000000;stroke-linecap:square;stroke-linejoin:miter;stroke-width:0.8;"/>
   </g>
   <g id="text_14">
    <!-- Calibration plots  (reliability curve) -->
    <defs>
     <path d="M 64.40625 67.28125 
L 64.40625 56.890625 
Q 59.421875 61.53125 53.78125 63.8125 
Q 48.140625 66.109375 41.796875 66.109375 
Q 29.296875 66.109375 22.65625 58.46875 
Q 16.015625 50.828125 16.015625 36.375 
Q 16.015625 21.96875 22.65625 14.328125 
Q 29.296875 6.6875 41.796875 6.6875 
Q 48.140625 6.6875 53.78125 8.984375 
Q 59.421875 11.28125 64.40625 15.921875 
L 64.40625 5.609375 
Q 59.234375 2.09375 53.4375 0.328125 
Q 47.65625 -1.421875 41.21875 -1.421875 
Q 24.65625 -1.421875 15.125 8.703125 
Q 5.609375 18.84375 5.609375 36.375 
Q 5.609375 53.953125 15.125 64.078125 
Q 24.65625 74.21875 41.21875 74.21875 
Q 47.75 74.21875 53.53125 72.484375 
Q 59.328125 70.75 64.40625 67.28125 
z
" id="DejaVuSans-67"/>
     <path d="M 9.421875 75.984375 
L 18.40625 75.984375 
L 18.40625 0 
L 9.421875 0 
z
" id="DejaVuSans-108"/>
     <path d="M 48.6875 27.296875 
Q 48.6875 37.203125 44.609375 42.84375 
Q 40.53125 48.484375 33.40625 48.484375 
Q 26.265625 48.484375 22.1875 42.84375 
Q 18.109375 37.203125 18.109375 27.296875 
Q 18.109375 17.390625 22.1875 11.75 
Q 26.265625 6.109375 33.40625 6.109375 
Q 40.53125 6.109375 44.609375 11.75 
Q 48.6875 17.390625 48.6875 27.296875 
z
M 18.109375 46.390625 
Q 20.953125 51.265625 25.265625 53.625 
Q 29.59375 56 35.59375 56 
Q 45.5625 56 51.78125 48.09375 
Q 58.015625 40.1875 58.015625 27.296875 
Q 58.015625 14.40625 51.78125 6.484375 
Q 45.5625 -1.421875 35.59375 -1.421875 
Q 29.59375 -1.421875 25.265625 0.953125 
Q 20.953125 3.328125 18.109375 8.203125 
L 18.109375 0 
L 9.078125 0 
L 9.078125 75.984375 
L 18.109375 75.984375 
z
" id="DejaVuSans-98"/>
     <path d="M 31 75.875 
Q 24.46875 64.65625 21.28125 53.65625 
Q 18.109375 42.671875 18.109375 31.390625 
Q 18.109375 20.125 21.3125 9.0625 
Q 24.515625 -2 31 -13.1875 
L 23.1875 -13.1875 
Q 15.875 -1.703125 12.234375 9.375 
Q 8.59375 20.453125 8.59375 31.390625 
Q 8.59375 42.28125 12.203125 53.3125 
Q 15.828125 64.359375 23.1875 75.875 
z
" id="DejaVuSans-40"/>
     <path d="M 32.171875 -5.078125 
Q 28.375 -14.84375 24.75 -17.8125 
Q 21.140625 -20.796875 15.09375 -20.796875 
L 7.90625 -20.796875 
L 7.90625 -13.28125 
L 13.1875 -13.28125 
Q 16.890625 -13.28125 18.9375 -11.515625 
Q 21 -9.765625 23.484375 -3.21875 
L 25.09375 0.875 
L 2.984375 54.6875 
L 12.5 54.6875 
L 29.59375 11.921875 
L 46.6875 54.6875 
L 56.203125 54.6875 
z
" id="DejaVuSans-121"/>
     <path d="M 8.5 21.578125 
L 8.5 54.6875 
L 17.484375 54.6875 
L 17.484375 21.921875 
Q 17.484375 14.15625 20.5 10.265625 
Q 23.53125 6.390625 29.59375 6.390625 
Q 36.859375 6.390625 41.078125 11.03125 
Q 45.3125 15.671875 45.3125 23.6875 
L 45.3125 54.6875 
L 54.296875 54.6875 
L 54.296875 0 
L 45.3125 0 
L 45.3125 8.40625 
Q 42.046875 3.421875 37.71875 1 
Q 33.40625 -1.421875 27.6875 -1.421875 
Q 18.265625 -1.421875 13.375 4.4375 
Q 8.5 10.296875 8.5 21.578125 
z
M 31.109375 56 
z
" id="DejaVuSans-117"/>
     <path d="M 8.015625 75.875 
L 15.828125 75.875 
Q 23.140625 64.359375 26.78125 53.3125 
Q 30.421875 42.28125 30.421875 31.390625 
Q 30.421875 20.453125 26.78125 9.375 
Q 23.140625 -1.703125 15.828125 -13.1875 
L 8.015625 -13.1875 
Q 14.5 -2 17.703125 9.0625 
Q 20.90625 20.125 20.90625 31.390625 
Q 20.90625 42.671875 17.703125 53.65625 
Q 14.5 64.65625 8.015625 75.875 
z
" id="DejaVuSans-41"/>
    </defs>
    <g transform="translate(277.415938 20.8)scale(0.12 -0.12)">
     <use xlink:href="#DejaVuSans-67"/>
     <use x="69.824219" xlink:href="#DejaVuSans-97"/>
     <use x="131.103516" xlink:href="#DejaVuSans-108"/>
     <use x="158.886719" xlink:href="#DejaVuSans-105"/>
     <use x="186.669922" xlink:href="#DejaVuSans-98"/>
     <use x="250.146484" xlink:href="#DejaVuSans-114"/>
     <use x="291.259766" xlink:href="#DejaVuSans-97"/>
     <use x="352.539062" xlink:href="#DejaVuSans-116"/>
     <use x="391.748047" xlink:href="#DejaVuSans-105"/>
     <use x="419.53125" xlink:href="#DejaVuSans-111"/>
     <use x="480.712891" xlink:href="#DejaVuSans-110"/>
     <use x="544.091797" xlink:href="#DejaVuSans-32"/>
     <use x="575.878906" xlink:href="#DejaVuSans-112"/>
     <use x="639.355469" xlink:href="#DejaVuSans-108"/>
     <use x="667.138672" xlink:href="#DejaVuSans-111"/>
     <use x="728.320312" xlink:href="#DejaVuSans-116"/>
     <use x="767.529297" xlink:href="#DejaVuSans-115"/>
     <use x="819.628906" xlink:href="#DejaVuSans-32"/>
     <use x="851.416016" xlink:href="#DejaVuSans-32"/>
     <use x="883.203125" xlink:href="#DejaVuSans-40"/>
     <use x="922.216797" xlink:href="#DejaVuSans-114"/>
     <use x="963.298828" xlink:href="#DejaVuSans-101"/>
     <use x="1024.822266" xlink:href="#DejaVuSans-108"/>
     <use x="1052.605469" xlink:href="#DejaVuSans-105"/>
     <use x="1080.388672" xlink:href="#DejaVuSans-97"/>
     <use x="1141.667969" xlink:href="#DejaVuSans-98"/>
     <use x="1205.144531" xlink:href="#DejaVuSans-105"/>
     <use x="1232.927734" xlink:href="#DejaVuSans-108"/>
     <use x="1260.710938" xlink:href="#DejaVuSans-105"/>
     <use x="1288.494141" xlink:href="#DejaVuSans-116"/>
     <use x="1327.703125" xlink:href="#DejaVuSans-121"/>
     <use x="1386.882812" xlink:href="#DejaVuSans-32"/>
     <use x="1418.669922" xlink:href="#DejaVuSans-99"/>
     <use x="1473.650391" xlink:href="#DejaVuSans-117"/>
     <use x="1537.029297" xlink:href="#DejaVuSans-114"/>
     <use x="1578.142578" xlink:href="#DejaVuSans-118"/>
     <use x="1637.322266" xlink:href="#DejaVuSans-101"/>
     <use x="1698.845703" xlink:href="#DejaVuSans-41"/>
    </g>
   </g>
   <g id="legend_1">
    <g id="patch_7">
     <path d="M 520.41875 446.8 
L 702.2 446.8 
Q 704.2 446.8 704.2 444.8 
L 704.2 387.0875 
Q 704.2 385.0875 702.2 385.0875 
L 520.41875 385.0875 
Q 518.41875 385.0875 518.41875 387.0875 
L 518.41875 444.8 
Q 518.41875 446.8 520.41875 446.8 
z
" style="fill:#ffffff;opacity:0.8;stroke:#cccccc;stroke-linejoin:miter;"/>
    </g>
    <g id="line2d_17">
     <path d="M 522.41875 393.185937 
L 542.41875 393.185937 
" style="fill:none;stroke:#000000;stroke-dasharray:1.5,2.475;stroke-dashoffset:0;stroke-width:1.5;"/>
    </g>
    <g id="line2d_18"/>
    <g id="text_15">
     <!-- Calibration parfaite -->
     <g transform="translate(550.41875 396.685937)scale(0.1 -0.1)">
      <use xlink:href="#DejaVuSans-67"/>
      <use x="69.824219" xlink:href="#DejaVuSans-97"/>
      <use x="131.103516" xlink:href="#DejaVuSans-108"/>
      <use x="158.886719" xlink:href="#DejaVuSans-105"/>
      <use x="186.669922" xlink:href="#DejaVuSans-98"/>
      <use x="250.146484" xlink:href="#DejaVuSans-114"/>
      <use x="291.259766" xlink:href="#DejaVuSans-97"/>
      <use x="352.539062" xlink:href="#DejaVuSans-116"/>
      <use x="391.748047" xlink:href="#DejaVuSans-105"/>
      <use x="419.53125" xlink:href="#DejaVuSans-111"/>
      <use x="480.712891" xlink:href="#DejaVuSans-110"/>
      <use x="544.091797" xlink:href="#DejaVuSans-32"/>
      <use x="575.878906" xlink:href="#DejaVuSans-112"/>
      <use x="639.355469" xlink:href="#DejaVuSans-97"/>
      <use x="700.634766" xlink:href="#DejaVuSans-114"/>
      <use x="741.748047" xlink:href="#DejaVuSans-102"/>
      <use x="776.953125" xlink:href="#DejaVuSans-97"/>
      <use x="838.232422" xlink:href="#DejaVuSans-105"/>
      <use x="866.015625" xlink:href="#DejaVuSans-116"/>
      <use x="905.224609" xlink:href="#DejaVuSans-101"/>
     </g>
    </g>
    <g id="line2d_19">
     <path d="M 522.41875 407.864062 
L 542.41875 407.864062 
" style="fill:none;stroke:#003f5c;stroke-linecap:square;stroke-width:1.5;"/>
    </g>
    <g id="line2d_20"/>
    <g id="text_16">
     <!-- PPrediction (Brier 0.230.03) -->
     <defs>
      <path d="M 19.671875 64.796875 
L 19.671875 37.40625 
L 32.078125 37.40625 
Q 38.96875 37.40625 42.71875 40.96875 
Q 46.484375 44.53125 46.484375 51.125 
Q 46.484375 57.671875 42.71875 61.234375 
Q 38.96875 64.796875 32.078125 64.796875 
z
M 9.8125 72.90625 
L 32.078125 72.90625 
Q 44.34375 72.90625 50.609375 67.359375 
Q 56.890625 61.8125 56.890625 51.125 
Q 56.890625 40.328125 50.609375 34.8125 
Q 44.34375 29.296875 32.078125 29.296875 
L 19.671875 29.296875 
L 19.671875 0 
L 9.8125 0 
z
" id="DejaVuSans-80"/>
      <path d="M 45.40625 46.390625 
L 45.40625 75.984375 
L 54.390625 75.984375 
L 54.390625 0 
L 45.40625 0 
L 45.40625 8.203125 
Q 42.578125 3.328125 38.25 0.953125 
Q 33.9375 -1.421875 27.875 -1.421875 
Q 17.96875 -1.421875 11.734375 6.484375 
Q 5.515625 14.40625 5.515625 27.296875 
Q 5.515625 40.1875 11.734375 48.09375 
Q 17.96875 56 27.875 56 
Q 33.9375 56 38.25 53.625 
Q 42.578125 51.265625 45.40625 46.390625 
z
M 14.796875 27.296875 
Q 14.796875 17.390625 18.875 11.75 
Q 22.953125 6.109375 30.078125 6.109375 
Q 37.203125 6.109375 41.296875 11.75 
Q 45.40625 17.390625 45.40625 27.296875 
Q 45.40625 37.203125 41.296875 42.84375 
Q 37.203125 48.484375 30.078125 48.484375 
Q 22.953125 48.484375 18.875 42.84375 
Q 14.796875 37.203125 14.796875 27.296875 
z
" id="DejaVuSans-100"/>
      <path d="M 19.671875 34.8125 
L 19.671875 8.109375 
L 35.5 8.109375 
Q 43.453125 8.109375 47.28125 11.40625 
Q 51.125 14.703125 51.125 21.484375 
Q 51.125 28.328125 47.28125 31.5625 
Q 43.453125 34.8125 35.5 34.8125 
z
M 19.671875 64.796875 
L 19.671875 42.828125 
L 34.28125 42.828125 
Q 41.5 42.828125 45.03125 45.53125 
Q 48.578125 48.25 48.578125 53.8125 
Q 48.578125 59.328125 45.03125 62.0625 
Q 41.5 64.796875 34.28125 64.796875 
z
M 9.8125 72.90625 
L 35.015625 72.90625 
Q 46.296875 72.90625 52.390625 68.21875 
Q 58.5 63.53125 58.5 54.890625 
Q 58.5 48.1875 55.375 44.234375 
Q 52.25 40.28125 46.1875 39.3125 
Q 53.46875 37.75 57.5 32.78125 
Q 61.53125 27.828125 61.53125 20.40625 
Q 61.53125 10.640625 54.890625 5.3125 
Q 48.25 0 35.984375 0 
L 9.8125 0 
z
" id="DejaVuSans-66"/>
      <path d="M 40.578125 39.3125 
Q 47.65625 37.796875 51.625 33 
Q 55.609375 28.21875 55.609375 21.1875 
Q 55.609375 10.40625 48.1875 4.484375 
Q 40.765625 -1.421875 27.09375 -1.421875 
Q 22.515625 -1.421875 17.65625 -0.515625 
Q 12.796875 0.390625 7.625 2.203125 
L 7.625 11.71875 
Q 11.71875 9.328125 16.59375 8.109375 
Q 21.484375 6.890625 26.8125 6.890625 
Q 36.078125 6.890625 40.9375 10.546875 
Q 45.796875 14.203125 45.796875 21.1875 
Q 45.796875 27.640625 41.28125 31.265625 
Q 36.765625 34.90625 28.71875 34.90625 
L 20.21875 34.90625 
L 20.21875 43.015625 
L 29.109375 43.015625 
Q 36.375 43.015625 40.234375 45.921875 
Q 44.09375 48.828125 44.09375 54.296875 
Q 44.09375 59.90625 40.109375 62.90625 
Q 36.140625 65.921875 28.71875 65.921875 
Q 24.65625 65.921875 20.015625 65.03125 
Q 15.375 64.15625 9.8125 62.3125 
L 9.8125 71.09375 
Q 15.4375 72.65625 20.34375 73.4375 
Q 25.25 74.21875 29.59375 74.21875 
Q 40.828125 74.21875 47.359375 69.109375 
Q 53.90625 64.015625 53.90625 55.328125 
Q 53.90625 49.265625 50.4375 45.09375 
Q 46.96875 40.921875 40.578125 39.3125 
z
" id="DejaVuSans-51"/>
      <path d="M 46 62.703125 
L 46 43.796875 
L 73.1875 43.796875 
L 73.1875 35.5 
L 46 35.5 
L 46 16.609375 
L 37.796875 16.609375 
L 37.796875 35.5 
L 10.59375 35.5 
L 10.59375 43.796875 
L 37.796875 43.796875 
L 37.796875 62.703125 
z
M 10.59375 8.296875 
L 73.1875 8.296875 
L 73.1875 0 
L 10.59375 0 
z
" id="DejaVuSans-177"/>
     </defs>
     <g transform="translate(550.41875 411.364062)scale(0.1 -0.1)">
      <use xlink:href="#DejaVuSans-80"/>
      <use x="60.302734" xlink:href="#DejaVuSans-80"/>
      <use x="120.589844" xlink:href="#DejaVuSans-114"/>
      <use x="161.671875" xlink:href="#DejaVuSans-101"/>
      <use x="223.195312" xlink:href="#DejaVuSans-100"/>
      <use x="286.671875" xlink:href="#DejaVuSans-105"/>
      <use x="314.455078" xlink:href="#DejaVuSans-99"/>
      <use x="369.435547" xlink:href="#DejaVuSans-116"/>
      <use x="408.644531" xlink:href="#DejaVuSans-105"/>
      <use x="436.427734" xlink:href="#DejaVuSans-111"/>
      <use x="497.609375" xlink:href="#DejaVuSans-110"/>
      <use x="560.988281" xlink:href="#DejaVuSans-32"/>
      <use x="592.775391" xlink:href="#DejaVuSans-40"/>
      <use x="631.789062" xlink:href="#DejaVuSans-66"/>
      <use x="700.392578" xlink:href="#DejaVuSans-114"/>
      <use x="741.505859" xlink:href="#DejaVuSans-105"/>
      <use x="769.289062" xlink:href="#DejaVuSans-101"/>
      <use x="830.8125" xlink:href="#DejaVuSans-114"/>
      <use x="871.925781" xlink:href="#DejaVuSans-32"/>
      <use x="903.712891" xlink:href="#DejaVuSans-48"/>
      <use x="967.335938" xlink:href="#DejaVuSans-46"/>
      <use x="999.123047" xlink:href="#DejaVuSans-50"/>
      <use x="1062.746094" xlink:href="#DejaVuSans-51"/>
      <use x="1126.369141" xlink:href="#DejaVuSans-177"/>
      <use x="1210.158203" xlink:href="#DejaVuSans-48"/>
      <use x="1273.78125" xlink:href="#DejaVuSans-46"/>
      <use x="1305.568359" xlink:href="#DejaVuSans-48"/>
      <use x="1369.191406" xlink:href="#DejaVuSans-51"/>
      <use x="1432.814453" xlink:href="#DejaVuSans-41"/>
     </g>
    </g>
    <g id="line2d_21">
     <path d="M 522.41875 422.542187 
L 542.41875 422.542187 
" style="fill:none;stroke:#58508d;stroke-linecap:square;stroke-width:1.5;"/>
    </g>
    <g id="line2d_22"/>
    <g id="text_17">
     <!-- DPrediction (Brier 0.210.04) -->
     <defs>
      <path d="M 19.671875 64.796875 
L 19.671875 8.109375 
L 31.59375 8.109375 
Q 46.6875 8.109375 53.6875 14.9375 
Q 60.6875 21.78125 60.6875 36.53125 
Q 60.6875 51.171875 53.6875 57.984375 
Q 46.6875 64.796875 31.59375 64.796875 
z
M 9.8125 72.90625 
L 30.078125 72.90625 
Q 51.265625 72.90625 61.171875 64.09375 
Q 71.09375 55.28125 71.09375 36.53125 
Q 71.09375 17.671875 61.125 8.828125 
Q 51.171875 0 30.078125 0 
L 9.8125 0 
z
" id="DejaVuSans-68"/>
     </defs>
     <g transform="translate(550.41875 426.042187)scale(0.1 -0.1)">
      <use xlink:href="#DejaVuSans-68"/>
      <use x="77.001953" xlink:href="#DejaVuSans-80"/>
      <use x="137.289062" xlink:href="#DejaVuSans-114"/>
      <use x="178.371094" xlink:href="#DejaVuSans-101"/>
      <use x="239.894531" xlink:href="#DejaVuSans-100"/>
      <use x="303.371094" xlink:href="#DejaVuSans-105"/>
      <use x="331.154297" xlink:href="#DejaVuSans-99"/>
      <use x="386.134766" xlink:href="#DejaVuSans-116"/>
      <use x="425.34375" xlink:href="#DejaVuSans-105"/>
      <use x="453.126953" xlink:href="#DejaVuSans-111"/>
      <use x="514.308594" xlink:href="#DejaVuSans-110"/>
      <use x="577.6875" xlink:href="#DejaVuSans-32"/>
      <use x="609.474609" xlink:href="#DejaVuSans-40"/>
      <use x="648.488281" xlink:href="#DejaVuSans-66"/>
      <use x="717.091797" xlink:href="#DejaVuSans-114"/>
      <use x="758.205078" xlink:href="#DejaVuSans-105"/>
      <use x="785.988281" xlink:href="#DejaVuSans-101"/>
      <use x="847.511719" xlink:href="#DejaVuSans-114"/>
      <use x="888.625" xlink:href="#DejaVuSans-32"/>
      <use x="920.412109" xlink:href="#DejaVuSans-48"/>
      <use x="984.035156" xlink:href="#DejaVuSans-46"/>
      <use x="1015.822266" xlink:href="#DejaVuSans-50"/>
      <use x="1079.445312" xlink:href="#DejaVuSans-49"/>
      <use x="1143.068359" xlink:href="#DejaVuSans-177"/>
      <use x="1226.857422" xlink:href="#DejaVuSans-48"/>
      <use x="1290.480469" xlink:href="#DejaVuSans-46"/>
      <use x="1322.267578" xlink:href="#DejaVuSans-48"/>
      <use x="1385.890625" xlink:href="#DejaVuSans-52"/>
      <use x="1449.513672" xlink:href="#DejaVuSans-41"/>
     </g>
    </g>
    <g id="line2d_23">
     <path d="M 522.41875 437.220312 
L 542.41875 437.220312 
" style="fill:none;stroke:#bc5090;stroke-linecap:square;stroke-width:1.5;"/>
    </g>
    <g id="line2d_24"/>
    <g id="text_18">
     <!-- MPrediction (Brier 0.170.04) -->
     <defs>
      <path d="M 9.8125 72.90625 
L 24.515625 72.90625 
L 43.109375 23.296875 
L 61.8125 72.90625 
L 76.515625 72.90625 
L 76.515625 0 
L 66.890625 0 
L 66.890625 64.015625 
L 48.09375 14.015625 
L 38.1875 14.015625 
L 19.390625 64.015625 
L 19.390625 0 
L 9.8125 0 
z
" id="DejaVuSans-77"/>
      <path d="M 8.203125 72.90625 
L 55.078125 72.90625 
L 55.078125 68.703125 
L 28.609375 0 
L 18.3125 0 
L 43.21875 64.59375 
L 8.203125 64.59375 
z
" id="DejaVuSans-55"/>
     </defs>
     <g transform="translate(550.41875 440.720312)scale(0.1 -0.1)">
      <use xlink:href="#DejaVuSans-77"/>
      <use x="86.279297" xlink:href="#DejaVuSans-80"/>
      <use x="146.566406" xlink:href="#DejaVuSans-114"/>
      <use x="187.648438" xlink:href="#DejaVuSans-101"/>
      <use x="249.171875" xlink:href="#DejaVuSans-100"/>
      <use x="312.648438" xlink:href="#DejaVuSans-105"/>
      <use x="340.431641" xlink:href="#DejaVuSans-99"/>
      <use x="395.412109" xlink:href="#DejaVuSans-116"/>
      <use x="434.621094" xlink:href="#DejaVuSans-105"/>
      <use x="462.404297" xlink:href="#DejaVuSans-111"/>
      <use x="523.585938" xlink:href="#DejaVuSans-110"/>
      <use x="586.964844" xlink:href="#DejaVuSans-32"/>
      <use x="618.751953" xlink:href="#DejaVuSans-40"/>
      <use x="657.765625" xlink:href="#DejaVuSans-66"/>
      <use x="726.369141" xlink:href="#DejaVuSans-114"/>
      <use x="767.482422" xlink:href="#DejaVuSans-105"/>
      <use x="795.265625" xlink:href="#DejaVuSans-101"/>
      <use x="856.789062" xlink:href="#DejaVuSans-114"/>
      <use x="897.902344" xlink:href="#DejaVuSans-32"/>
      <use x="929.689453" xlink:href="#DejaVuSans-48"/>
      <use x="993.3125" xlink:href="#DejaVuSans-46"/>
      <use x="1025.099609" xlink:href="#DejaVuSans-49"/>
      <use x="1088.722656" xlink:href="#DejaVuSans-55"/>
      <use x="1152.345703" xlink:href="#DejaVuSans-177"/>
      <use x="1236.134766" xlink:href="#DejaVuSans-48"/>
      <use x="1299.757812" xlink:href="#DejaVuSans-46"/>
      <use x="1331.544922" xlink:href="#DejaVuSans-48"/>
      <use x="1395.167969" xlink:href="#DejaVuSans-52"/>
      <use x="1458.791016" xlink:href="#DejaVuSans-41"/>
     </g>
    </g>
   </g>
  </g>
  <g id="axes_2">
   <g id="patch_8">
    <path d="M 54.175 678.2 
L 709.2 678.2 
L 709.2 479.6 
L 54.175 479.6 
z
" style="fill:#ffffff;"/>
   </g>
   <g id="patch_9">
    <path clip-path="url(#p851dbffcc9)" d="M 83.948864 678.2 
L 83.948864 678.2 
L 143.496591 678.2 
L 143.496591 678.2 
L 203.044318 678.2 
L 203.044318 665.590476 
L 262.592045 665.590476 
L 262.592045 678.2 
L 322.139773 678.2 
L 322.139773 602.542857 
L 381.6875 602.542857 
L 381.6875 577.32381 
L 441.235227 577.32381 
L 441.235227 627.761905 
L 500.782955 627.761905 
L 500.782955 665.590476 
L 560.330682 665.590476 
L 560.330682 665.590476 
L 619.878409 665.590476 
L 619.878409 665.590476 
L 679.426136 665.590476 
L 679.426136 678.2 
" style="fill:none;stroke:#003f5c;stroke-linejoin:miter;stroke-width:2;"/>
   </g>
   <g id="patch_10">
    <path clip-path="url(#p851dbffcc9)" d="M 83.948864 678.2 
L 83.948864 678.2 
L 143.496591 678.2 
L 143.496591 678.2 
L 203.044318 678.2 
L 203.044318 678.2 
L 262.592045 678.2 
L 262.592045 678.2 
L 322.139773 678.2 
L 322.139773 678.2 
L 381.6875 678.2 
L 381.6875 489.057143 
L 441.235227 489.057143 
L 441.235227 640.371429 
L 500.782955 640.371429 
L 500.782955 640.371429 
L 560.330682 640.371429 
L 560.330682 678.2 
L 619.878409 678.2 
L 619.878409 665.590476 
L 679.426136 665.590476 
L 679.426136 678.2 
" style="fill:none;stroke:#58508d;stroke-linejoin:miter;stroke-width:2;"/>
   </g>
   <g id="patch_11">
    <path clip-path="url(#p851dbffcc9)" d="M 83.948864 678.2 
L 83.948864 678.2 
L 143.496591 678.2 
L 143.496591 678.2 
L 203.044318 678.2 
L 203.044318 627.761905 
L 262.592045 627.761905 
L 262.592045 627.761905 
L 322.139773 627.761905 
L 322.139773 640.371429 
L 381.6875 640.371429 
L 381.6875 665.590476 
L 441.235227 665.590476 
L 441.235227 602.542857 
L 500.782955 602.542857 
L 500.782955 652.980952 
L 560.330682 652.980952 
L 560.330682 652.980952 
L 619.878409 652.980952 
L 619.878409 678.2 
L 679.426136 678.2 
L 679.426136 678.2 
" style="fill:none;stroke:#bc5090;stroke-linejoin:miter;stroke-width:2;"/>
   </g>
   <g id="matplotlib.axis_3">
    <g id="xtick_7">
     <g id="line2d_25">
      <g>
       <use style="stroke:#000000;stroke-width:0.8;" x="83.948864" xlink:href="#m2f01697721" y="678.2"/>
      </g>
     </g>
     <g id="text_19">
      <!-- 0.0 -->
      <g transform="translate(75.997301 692.798437)scale(0.1 -0.1)">
       <use xlink:href="#DejaVuSans-48"/>
       <use x="63.623047" xlink:href="#DejaVuSans-46"/>
       <use x="95.410156" xlink:href="#DejaVuSans-48"/>
      </g>
     </g>
    </g>
    <g id="xtick_8">
     <g id="line2d_26">
      <g>
       <use style="stroke:#000000;stroke-width:0.8;" x="203.044318" xlink:href="#m2f01697721" y="678.2"/>
      </g>
     </g>
     <g id="text_20">
      <!-- 0.2 -->
      <g transform="translate(195.092756 692.798437)scale(0.1 -0.1)">
       <use xlink:href="#DejaVuSans-48"/>
       <use x="63.623047" xlink:href="#DejaVuSans-46"/>
       <use x="95.410156" xlink:href="#DejaVuSans-50"/>
      </g>
     </g>
    </g>
    <g id="xtick_9">
     <g id="line2d_27">
      <g>
       <use style="stroke:#000000;stroke-width:0.8;" x="322.139773" xlink:href="#m2f01697721" y="678.2"/>
      </g>
     </g>
     <g id="text_21">
      <!-- 0.4 -->
      <g transform="translate(314.18821 692.798437)scale(0.1 -0.1)">
       <use xlink:href="#DejaVuSans-48"/>
       <use x="63.623047" xlink:href="#DejaVuSans-46"/>
       <use x="95.410156" xlink:href="#DejaVuSans-52"/>
      </g>
     </g>
    </g>
    <g id="xtick_10">
     <g id="line2d_28">
      <g>
       <use style="stroke:#000000;stroke-width:0.8;" x="441.235227" xlink:href="#m2f01697721" y="678.2"/>
      </g>
     </g>
     <g id="text_22">
      <!-- 0.6 -->
      <g transform="translate(433.283665 692.798437)scale(0.1 -0.1)">
       <use xlink:href="#DejaVuSans-48"/>
       <use x="63.623047" xlink:href="#DejaVuSans-46"/>
       <use x="95.410156" xlink:href="#DejaVuSans-54"/>
      </g>
     </g>
    </g>
    <g id="xtick_11">
     <g id="line2d_29">
      <g>
       <use style="stroke:#000000;stroke-width:0.8;" x="560.330682" xlink:href="#m2f01697721" y="678.2"/>
      </g>
     </g>
     <g id="text_23">
      <!-- 0.8 -->
      <g transform="translate(552.379119 692.798437)scale(0.1 -0.1)">
       <use xlink:href="#DejaVuSans-48"/>
       <use x="63.623047" xlink:href="#DejaVuSans-46"/>
       <use x="95.410156" xlink:href="#DejaVuSans-56"/>
      </g>
     </g>
    </g>
    <g id="xtick_12">
     <g id="line2d_30">
      <g>
       <use style="stroke:#000000;stroke-width:0.8;" x="679.426136" xlink:href="#m2f01697721" y="678.2"/>
      </g>
     </g>
     <g id="text_24">
      <!-- 1.0 -->
      <g transform="translate(671.474574 692.798437)scale(0.1 -0.1)">
       <use xlink:href="#DejaVuSans-49"/>
       <use x="63.623047" xlink:href="#DejaVuSans-46"/>
       <use x="95.410156" xlink:href="#DejaVuSans-48"/>
      </g>
     </g>
    </g>
    <g id="text_25">
     <!-- Mean predicted value -->
     <g transform="translate(327.4 706.476562)scale(0.1 -0.1)">
      <use xlink:href="#DejaVuSans-77"/>
      <use x="86.279297" xlink:href="#DejaVuSans-101"/>
      <use x="147.802734" xlink:href="#DejaVuSans-97"/>
      <use x="209.082031" xlink:href="#DejaVuSans-110"/>
      <use x="272.460938" xlink:href="#DejaVuSans-32"/>
      <use x="304.248047" xlink:href="#DejaVuSans-112"/>
      <use x="367.724609" xlink:href="#DejaVuSans-114"/>
      <use x="408.806641" xlink:href="#DejaVuSans-101"/>
      <use x="470.330078" xlink:href="#DejaVuSans-100"/>
      <use x="533.806641" xlink:href="#DejaVuSans-105"/>
      <use x="561.589844" xlink:href="#DejaVuSans-99"/>
      <use x="616.570312" xlink:href="#DejaVuSans-116"/>
      <use x="655.779297" xlink:href="#DejaVuSans-101"/>
      <use x="717.302734" xlink:href="#DejaVuSans-100"/>
      <use x="780.779297" xlink:href="#DejaVuSans-32"/>
      <use x="812.566406" xlink:href="#DejaVuSans-118"/>
      <use x="871.746094" xlink:href="#DejaVuSans-97"/>
      <use x="933.025391" xlink:href="#DejaVuSans-108"/>
      <use x="960.808594" xlink:href="#DejaVuSans-117"/>
      <use x="1024.1875" xlink:href="#DejaVuSans-101"/>
     </g>
    </g>
   </g>
   <g id="matplotlib.axis_4">
    <g id="ytick_7">
     <g id="line2d_31">
      <g>
       <use style="stroke:#000000;stroke-width:0.8;" x="54.175" xlink:href="#m5b15efe1f4" y="678.2"/>
      </g>
     </g>
     <g id="text_26">
      <!-- 0 -->
      <g transform="translate(40.8125 681.999219)scale(0.1 -0.1)">
       <use xlink:href="#DejaVuSans-48"/>
      </g>
     </g>
    </g>
    <g id="ytick_8">
     <g id="line2d_32">
      <g>
       <use style="stroke:#000000;stroke-width:0.8;" x="54.175" xlink:href="#m5b15efe1f4" y="652.980952"/>
      </g>
     </g>
     <g id="text_27">
      <!-- 2 -->
      <g transform="translate(40.8125 656.780171)scale(0.1 -0.1)">
       <use xlink:href="#DejaVuSans-50"/>
      </g>
     </g>
    </g>
    <g id="ytick_9">
     <g id="line2d_33">
      <g>
       <use style="stroke:#000000;stroke-width:0.8;" x="54.175" xlink:href="#m5b15efe1f4" y="627.761905"/>
      </g>
     </g>
     <g id="text_28">
      <!-- 4 -->
      <g transform="translate(40.8125 631.561124)scale(0.1 -0.1)">
       <use xlink:href="#DejaVuSans-52"/>
      </g>
     </g>
    </g>
    <g id="ytick_10">
     <g id="line2d_34">
      <g>
       <use style="stroke:#000000;stroke-width:0.8;" x="54.175" xlink:href="#m5b15efe1f4" y="602.542857"/>
      </g>
     </g>
     <g id="text_29">
      <!-- 6 -->
      <g transform="translate(40.8125 606.342076)scale(0.1 -0.1)">
       <use xlink:href="#DejaVuSans-54"/>
      </g>
     </g>
    </g>
    <g id="ytick_11">
     <g id="line2d_35">
      <g>
       <use style="stroke:#000000;stroke-width:0.8;" x="54.175" xlink:href="#m5b15efe1f4" y="577.32381"/>
      </g>
     </g>
     <g id="text_30">
      <!-- 8 -->
      <g transform="translate(40.8125 581.123028)scale(0.1 -0.1)">
       <use xlink:href="#DejaVuSans-56"/>
      </g>
     </g>
    </g>
    <g id="ytick_12">
     <g id="line2d_36">
      <g>
       <use style="stroke:#000000;stroke-width:0.8;" x="54.175" xlink:href="#m5b15efe1f4" y="552.104762"/>
      </g>
     </g>
     <g id="text_31">
      <!-- 10 -->
      <g transform="translate(34.45 555.903981)scale(0.1 -0.1)">
       <use xlink:href="#DejaVuSans-49"/>
       <use x="63.623047" xlink:href="#DejaVuSans-48"/>
      </g>
     </g>
    </g>
    <g id="ytick_13">
     <g id="line2d_37">
      <g>
       <use style="stroke:#000000;stroke-width:0.8;" x="54.175" xlink:href="#m5b15efe1f4" y="526.885714"/>
      </g>
     </g>
     <g id="text_32">
      <!-- 12 -->
      <g transform="translate(34.45 530.684933)scale(0.1 -0.1)">
       <use xlink:href="#DejaVuSans-49"/>
       <use x="63.623047" xlink:href="#DejaVuSans-50"/>
      </g>
     </g>
    </g>
    <g id="ytick_14">
     <g id="line2d_38">
      <g>
       <use style="stroke:#000000;stroke-width:0.8;" x="54.175" xlink:href="#m5b15efe1f4" y="501.666667"/>
      </g>
     </g>
     <g id="text_33">
      <!-- 14 -->
      <g transform="translate(34.45 505.465885)scale(0.1 -0.1)">
       <use xlink:href="#DejaVuSans-49"/>
       <use x="63.623047" xlink:href="#DejaVuSans-52"/>
      </g>
     </g>
    </g>
    <g id="text_34">
     <!-- Count -->
     <g transform="translate(28.370312 593.748437)rotate(-90)scale(0.1 -0.1)">
      <use xlink:href="#DejaVuSans-67"/>
      <use x="69.824219" xlink:href="#DejaVuSans-111"/>
      <use x="131.005859" xlink:href="#DejaVuSans-117"/>
      <use x="194.384766" xlink:href="#DejaVuSans-110"/>
      <use x="257.763672" xlink:href="#DejaVuSans-116"/>
     </g>
    </g>
   </g>
   <g id="patch_12">
    <path d="M 54.175 678.2 
L 54.175 479.6 
" style="fill:none;stroke:#000000;stroke-linecap:square;stroke-linejoin:miter;stroke-width:0.8;"/>
   </g>
   <g id="patch_13">
    <path d="M 709.2 678.2 
L 709.2 479.6 
" style="fill:none;stroke:#000000;stroke-linecap:square;stroke-linejoin:miter;stroke-width:0.8;"/>
   </g>
   <g id="patch_14">
    <path d="M 54.175 678.2 
L 709.2 678.2 
" style="fill:none;stroke:#000000;stroke-linecap:square;stroke-linejoin:miter;stroke-width:0.8;"/>
   </g>
   <g id="patch_15">
    <path d="M 54.175 479.6 
L 709.2 479.6 
" style="fill:none;stroke:#000000;stroke-linecap:square;stroke-linejoin:miter;stroke-width:0.8;"/>
   </g>
   <g id="legend_2">
    <g id="patch_16">
     <path d="M 283.454688 516.95625 
L 479.920313 516.95625 
Q 481.920313 516.95625 481.920313 514.95625 
L 481.920313 486.6 
Q 481.920313 484.6 479.920313 484.6 
L 283.454688 484.6 
Q 281.454688 484.6 281.454688 486.6 
L 281.454688 514.95625 
Q 281.454688 516.95625 283.454688 516.95625 
z
" style="fill:#ffffff;opacity:0.8;stroke:#cccccc;stroke-linejoin:miter;"/>
    </g>
    <g id="patch_17">
     <path d="M 285.454688 496.198437 
L 305.454688 496.198437 
L 305.454688 489.198437 
L 285.454688 489.198437 
z
" style="fill:none;stroke:#003f5c;stroke-linejoin:miter;stroke-width:2;"/>
    </g>
    <g id="text_35">
     <!-- PPrediction -->
     <g transform="translate(313.454688 496.198437)scale(0.1 -0.1)">
      <use xlink:href="#DejaVuSans-80"/>
      <use x="60.302734" xlink:href="#DejaVuSans-80"/>
      <use x="120.589844" xlink:href="#DejaVuSans-114"/>
      <use x="161.671875" xlink:href="#DejaVuSans-101"/>
      <use x="223.195312" xlink:href="#DejaVuSans-100"/>
      <use x="286.671875" xlink:href="#DejaVuSans-105"/>
      <use x="314.455078" xlink:href="#DejaVuSans-99"/>
      <use x="369.435547" xlink:href="#DejaVuSans-116"/>
      <use x="408.644531" xlink:href="#DejaVuSans-105"/>
      <use x="436.427734" xlink:href="#DejaVuSans-111"/>
      <use x="497.609375" xlink:href="#DejaVuSans-110"/>
     </g>
    </g>
    <g id="patch_18">
     <path d="M 285.454688 510.876562 
L 305.454688 510.876562 
L 305.454688 503.876562 
L 285.454688 503.876562 
z
" style="fill:none;stroke:#58508d;stroke-linejoin:miter;stroke-width:2;"/>
    </g>
    <g id="text_36">
     <!-- DPrediction -->
     <g transform="translate(313.454688 510.876562)scale(0.1 -0.1)">
      <use xlink:href="#DejaVuSans-68"/>
      <use x="77.001953" xlink:href="#DejaVuSans-80"/>
      <use x="137.289062" xlink:href="#DejaVuSans-114"/>
      <use x="178.371094" xlink:href="#DejaVuSans-101"/>
      <use x="239.894531" xlink:href="#DejaVuSans-100"/>
      <use x="303.371094" xlink:href="#DejaVuSans-105"/>
      <use x="331.154297" xlink:href="#DejaVuSans-99"/>
      <use x="386.134766" xlink:href="#DejaVuSans-116"/>
      <use x="425.34375" xlink:href="#DejaVuSans-105"/>
      <use x="453.126953" xlink:href="#DejaVuSans-111"/>
      <use x="514.308594" xlink:href="#DejaVuSans-110"/>
     </g>
    </g>
    <g id="patch_19">
     <path d="M 391.223438 496.198437 
L 411.223438 496.198437 
L 411.223438 489.198437 
L 391.223438 489.198437 
z
" style="fill:none;stroke:#bc5090;stroke-linejoin:miter;stroke-width:2;"/>
    </g>
    <g id="text_37">
     <!-- MPrediction -->
     <g transform="translate(419.223438 496.198437)scale(0.1 -0.1)">
      <use xlink:href="#DejaVuSans-77"/>
      <use x="86.279297" xlink:href="#DejaVuSans-80"/>
      <use x="146.566406" xlink:href="#DejaVuSans-114"/>
      <use x="187.648438" xlink:href="#DejaVuSans-101"/>
      <use x="249.171875" xlink:href="#DejaVuSans-100"/>
      <use x="312.648438" xlink:href="#DejaVuSans-105"/>
      <use x="340.431641" xlink:href="#DejaVuSans-99"/>
      <use x="395.412109" xlink:href="#DejaVuSans-116"/>
      <use x="434.621094" xlink:href="#DejaVuSans-105"/>
      <use x="462.404297" xlink:href="#DejaVuSans-111"/>
      <use x="523.585938" xlink:href="#DejaVuSans-110"/>
     </g>
    </g>
   </g>
  </g>
 </g>
 <defs>
  <clipPath id="p9ddbd129cb">
   <rect height="425" width="655.025" x="54.175" y="26.8"/>
  </clipPath>
  <clipPath id="p851dbffcc9">
   <rect height="198.6" width="655.025" x="54.175" y="479.6"/>
  </clipPath>
 </defs>
</svg>
