<?xml version="1.0" encoding="utf-8" standalone="no"?>
<!DOCTYPE svg PUBLIC "-//W3C//DTD SVG 1.1//EN"
  "http://www.w3.org/Graphics/SVG/1.1/DTD/svg11.dtd">
<!-- Created with matplotlib (https://matplotlib.org/) -->
<svg height="720pt" version="1.1" viewBox="0 0 720 720" width="720pt" xmlns="http://www.w3.org/2000/svg" xmlns:xlink="http://www.w3.org/1999/xlink">
 <defs>
  <style type="text/css">
*{stroke-linecap:butt;stroke-linejoin:round;}
  </style>
 </defs>
 <g id="figure_1">
  <g id="patch_1">
   <path d="M 0 720 
L 720 720 
L 720 0 
L 0 0 
z
" style="fill:#ffffff;"/>
  </g>
  <g id="axes_1">
   <g id="patch_2">
    <path d="M 47.675 451.8 
L 709.2 451.8 
L 709.2 26.8 
L 47.675 26.8 
z
" style="fill:#ffffff;"/>
   </g>
   <g id="PolyCollection_1">
    <defs>
     <path d="M 77.744318 -453.230952 
L 77.744318 -287.518182 
L 83.818928 -287.518182 
L 89.893538 -287.518182 
L 95.968147 -287.518182 
L 102.042757 -287.518182 
L 108.117367 -287.518182 
L 114.191977 -287.518182 
L 120.266586 -287.518182 
L 126.341196 -287.518182 
L 132.415806 -287.518182 
L 138.490416 -287.518182 
L 144.565025 -287.518182 
L 150.639635 -287.518182 
L 156.714245 -287.518182 
L 162.788854 -287.518182 
L 168.863464 -287.518182 
L 174.938074 -287.518182 
L 181.012684 -287.518182 
L 187.087293 -287.518182 
L 193.161903 -287.518182 
L 199.236513 -287.518182 
L 205.311123 -287.518182 
L 211.385732 -287.518182 
L 217.460342 -287.518182 
L 223.534952 -287.518182 
L 229.609562 -287.518182 
L 235.684171 -287.518182 
L 241.758781 -287.518182 
L 247.833391 -287.518182 
L 253.908 -288.88278 
L 259.98261 -296.944074 
L 266.05722 -304.163581 
L 272.13183 -310.771149 
L 278.206439 -315.752714 
L 284.281049 -327.206032 
L 290.355659 -335.872683 
L 296.430269 -341.869006 
L 302.504878 -343.706421 
L 308.579488 -341.170287 
L 314.654098 -335.064733 
L 320.728708 -326.299679 
L 326.803317 -315.63924 
L 332.877927 -310.172699 
L 338.952537 -309.502083 
L 345.027146 -313.139794 
L 351.101756 -324.42716 
L 357.176366 -336.725075 
L 363.250976 -351.582449 
L 369.325585 -365.144498 
L 375.400195 -377.007612 
L 381.474805 -386.747793 
L 387.549415 -393.96264 
L 393.624024 -398.379226 
L 399.698634 -399.95484 
L 405.773244 -399.484245 
L 411.847854 -401.508746 
L 417.922463 -404.013495 
L 423.997073 -411.00152 
L 430.071683 -417.65778 
L 436.146292 -426.722156 
L 442.220902 -433.61993 
L 448.295512 -439.359555 
L 454.370122 -442.793912 
L 460.444731 -443.21936 
L 466.519341 -442.876769 
L 472.593951 -441.937841 
L 478.668561 -439.691222 
L 484.74317 -437.725754 
L 490.81778 -433.949682 
L 496.89239 -436.038815 
L 502.967 -437.884195 
L 509.041609 -434.285185 
L 515.116219 -426.818685 
L 521.190829 -425.772444 
L 527.265438 -422.057871 
L 533.340048 -434.426459 
L 539.414658 -448.086881 
L 545.489268 -459.264376 
L 551.563877 -466.57311 
L 557.638487 -469.699272 
L 563.713097 -478.72319 
L 569.787707 -490.946407 
L 575.862316 -501.433359 
L 581.936926 -509.613693 
L 588.011536 -516.588747 
L 594.086146 -523.790916 
L 600.160755 -530.456677 
L 606.235365 -536.469243 
L 612.309975 -541.782234 
L 618.384584 -546.362197 
L 624.459194 -550.192313 
L 630.533804 -553.274406 
L 636.608414 -555.628726 
L 642.683023 -557.291546 
L 648.757633 -558.055611 
L 654.832243 -557.964629 
L 660.906853 -557.612399 
L 666.981462 -557.585523 
L 673.056072 -557.240031 
L 679.130682 -556.506309 
L 679.130682 -673.881818 
L 679.130682 -673.881818 
L 673.056072 -673.881818 
L 666.981462 -673.881818 
L 660.906853 -673.881818 
L 654.832243 -673.881818 
L 648.757633 -673.881818 
L 642.683023 -673.881818 
L 636.608414 -673.881818 
L 630.533804 -673.881818 
L 624.459194 -673.881818 
L 618.384584 -673.881818 
L 612.309975 -673.881818 
L 606.235365 -673.881818 
L 600.160755 -673.881818 
L 594.086146 -673.881818 
L 588.011536 -673.881818 
L 581.936926 -673.881818 
L 575.862316 -673.881818 
L 569.787707 -673.881818 
L 563.713097 -673.881818 
L 557.638487 -673.881818 
L 551.563877 -673.881818 
L 545.489268 -673.881818 
L 539.414658 -673.881818 
L 533.340048 -673.881818 
L 527.265438 -673.881818 
L 521.190829 -673.881818 
L 515.116219 -673.881818 
L 509.041609 -673.881818 
L 502.967 -673.881818 
L 496.89239 -673.881818 
L 490.81778 -671.848848 
L 484.74317 -660.267451 
L 478.668561 -650.496656 
L 472.593951 -640.444712 
L 466.519341 -631.700458 
L 460.444731 -623.552541 
L 454.370122 -616.172663 
L 448.295512 -611.801693 
L 442.220902 -609.735993 
L 436.146292 -608.828441 
L 430.071683 -610.087491 
L 423.997073 -608.938425 
L 417.922463 -608.121124 
L 411.847854 -602.820547 
L 405.773244 -597.039722 
L 399.698634 -588.763801 
L 393.624024 -582.534089 
L 387.549415 -579.145349 
L 381.474805 -578.55487 
L 375.400195 -580.489725 
L 369.325585 -584.547513 
L 363.250976 -590.304236 
L 357.176366 -597.356284 
L 351.101756 -601.848873 
L 345.027146 -605.330913 
L 338.952537 -601.163298 
L 332.877927 -592.687357 
L 326.803317 -579.41549 
L 320.728708 -560.949724 
L 314.654098 -544.379345 
L 308.579488 -530.468464 
L 302.504878 -520.127004 
L 296.430269 -514.159093 
L 290.355659 -512.35009 
L 284.281049 -513.211416 
L 278.206439 -516.859407 
L 272.13183 -514.035646 
L 266.05722 -512.837888 
L 259.98261 -512.252069 
L 253.908 -512.508037 
L 247.833391 -512.774223 
L 241.758781 -513.115659 
L 235.684171 -511.376426 
L 229.609562 -509.058566 
L 223.534952 -507.27324 
L 217.460342 -506.834218 
L 211.385732 -509.44154 
L 205.311123 -510.884008 
L 199.236513 -509.341952 
L 193.161903 -509.843691 
L 187.087293 -507.074059 
L 181.012684 -503.114028 
L 174.938074 -499.903468 
L 168.863464 -495.145075 
L 162.788854 -488.308074 
L 156.714245 -481.996343 
L 150.639635 -476.236641 
L 144.565025 -469.576691 
L 138.490416 -461.919802 
L 132.415806 -453.294189 
L 126.341196 -447.737686 
L 120.266586 -445.367003 
L 114.191977 -446.073838 
L 108.117367 -449.559913 
L 102.042757 -453.016518 
L 95.968147 -453.691463 
L 89.893538 -454.419344 
L 83.818928 -453.688156 
L 77.744318 -453.230952 
z
" id="m6336a7bfb6" style="stroke:#003f5c;stroke-opacity:0.2;"/>
    </defs>
    <g clip-path="url(#p01755f047e)">
     <use style="fill:#003f5c;fill-opacity:0.2;stroke:#003f5c;stroke-opacity:0.2;" x="0" xlink:href="#m6336a7bfb6" y="720"/>
    </g>
   </g>
   <g id="PolyCollection_2">
    <defs>
     <path d="M 77.744318 -383.894205 
L 77.744318 -287.518182 
L 83.818928 -287.518182 
L 89.893538 -287.518182 
L 95.968147 -287.518182 
L 102.042757 -287.518182 
L 108.117367 -287.518182 
L 114.191977 -287.518182 
L 120.266586 -287.518182 
L 126.341196 -287.518182 
L 132.415806 -287.518182 
L 138.490416 -287.518182 
L 144.565025 -287.518182 
L 150.639635 -287.518182 
L 156.714245 -287.518182 
L 162.788854 -287.518182 
L 168.863464 -287.518182 
L 174.938074 -287.518182 
L 181.012684 -287.518182 
L 187.087293 -287.518182 
L 193.161903 -287.518182 
L 199.236513 -290.210887 
L 205.311123 -289.783057 
L 211.385732 -287.518182 
L 217.460342 -287.518182 
L 223.534952 -287.518182 
L 229.609562 -287.518182 
L 235.684171 -287.518182 
L 241.758781 -287.518182 
L 247.833391 -290.629209 
L 253.908 -293.840729 
L 259.98261 -295.452412 
L 266.05722 -295.561575 
L 272.13183 -294.312928 
L 278.206439 -291.873296 
L 284.281049 -289.159913 
L 290.355659 -297.004003 
L 296.430269 -311.394779 
L 302.504878 -325.051082 
L 308.579488 -337.902379 
L 314.654098 -348.83356 
L 320.728708 -357.062297 
L 326.803317 -362.176669 
L 332.877927 -364.047023 
L 338.952537 -362.88706 
L 345.027146 -359.297231 
L 351.101756 -362.001132 
L 357.176366 -372.109415 
L 363.250976 -382.283393 
L 369.325585 -390.090441 
L 375.400195 -395.198072 
L 381.474805 -397.491621 
L 387.549415 -399.499457 
L 393.624024 -404.934091 
L 399.698634 -408.298542 
L 405.773244 -413.08329 
L 411.847854 -421.532432 
L 417.922463 -428.931346 
L 423.997073 -433.979202 
L 430.071683 -435.060275 
L 436.146292 -432.364451 
L 442.220902 -427.920044 
L 448.295512 -424.288548 
L 454.370122 -419.469342 
L 460.444731 -413.721848 
L 466.519341 -407.959447 
L 472.593951 -401.164489 
L 478.668561 -404.01165 
L 484.74317 -406.691968 
L 490.81778 -415.61747 
L 496.89239 -429.390048 
L 502.967 -441.498301 
L 509.041609 -451.579169 
L 515.116219 -460.620594 
L 521.190829 -469.638334 
L 527.265438 -480.409754 
L 533.340048 -488.743515 
L 539.414658 -495.10086 
L 545.489268 -498.952163 
L 551.563877 -505.443378 
L 557.638487 -507.902458 
L 563.713097 -501.988712 
L 569.787707 -489.8489 
L 575.862316 -475.780761 
L 581.936926 -479.689077 
L 588.011536 -482.309892 
L 594.086146 -484.32204 
L 600.160755 -495.025324 
L 606.235365 -507.171923 
L 612.309975 -518.557924 
L 618.384584 -529.021862 
L 624.459194 -538.382754 
L 630.533804 -546.452676 
L 636.608414 -553.058864 
L 642.683023 -558.072736 
L 648.757633 -561.437156 
L 654.832243 -563.180128 
L 660.906853 -563.57274 
L 666.981462 -562.872785 
L 673.056072 -560.944362 
L 679.130682 -557.972727 
L 679.130682 -673.881818 
L 679.130682 -673.881818 
L 673.056072 -673.881818 
L 666.981462 -673.881818 
L 660.906853 -673.881818 
L 654.832243 -673.881818 
L 648.757633 -673.881818 
L 642.683023 -673.881818 
L 636.608414 -673.881818 
L 630.533804 -673.881818 
L 624.459194 -673.881818 
L 618.384584 -673.881818 
L 612.309975 -673.881818 
L 606.235365 -673.881818 
L 600.160755 -673.881818 
L 594.086146 -673.881818 
L 588.011536 -673.881818 
L 581.936926 -673.881818 
L 575.862316 -673.881818 
L 569.787707 -673.881818 
L 563.713097 -673.881818 
L 557.638487 -673.881818 
L 551.563877 -673.881818 
L 545.489268 -673.881818 
L 539.414658 -673.140279 
L 533.340048 -671.692298 
L 527.265438 -672.220732 
L 521.190829 -673.881818 
L 515.116219 -673.881818 
L 509.041609 -673.881818 
L 502.967 -673.881818 
L 496.89239 -673.881818 
L 490.81778 -673.881818 
L 484.74317 -673.881818 
L 478.668561 -673.881818 
L 472.593951 -673.881818 
L 466.519341 -666.61778 
L 460.444731 -653.050053 
L 454.370122 -639.497233 
L 448.295512 -626.872701 
L 442.220902 -615.435878 
L 436.146292 -603.186146 
L 430.071683 -592.684996 
L 423.997073 -585.960743 
L 417.922463 -583.203273 
L 411.847854 -582.796861 
L 405.773244 -583.440677 
L 399.698634 -580.420099 
L 393.624024 -575.979224 
L 387.549415 -573.608532 
L 381.474805 -567.811042 
L 375.400195 -562.299265 
L 369.325585 -559.60157 
L 363.250976 -559.603292 
L 357.176366 -561.971944 
L 351.101756 -564.274901 
L 345.027146 -559.173476 
L 338.952537 -547.778322 
L 332.877927 -538.813032 
L 326.803317 -532.87806 
L 320.728708 -530.187107 
L 314.654098 -530.610517 
L 308.579488 -533.736372 
L 302.504878 -538.782343 
L 296.430269 -544.63332 
L 290.355659 -551.21877 
L 284.281049 -551.257534 
L 278.206439 -540.738825 
L 272.13183 -530.493868 
L 266.05722 -521.439895 
L 259.98261 -513.743731 
L 253.908 -507.550088 
L 247.833391 -502.956282 
L 241.758781 -498.455785 
L 235.684171 -492.996604 
L 229.609562 -487.937814 
L 223.534952 -484.292283 
L 217.460342 -474.940408 
L 211.385732 -460.765635 
L 205.311123 -449.165153 
L 199.236513 -440.931997 
L 193.161903 -436.651873 
L 187.087293 -436.771673 
L 181.012684 -438.823535 
L 174.938074 -439.123742 
L 168.863464 -437.896799 
L 162.788854 -434.690555 
L 156.714245 -425.138753 
L 150.639635 -414.573417 
L 144.565025 -404.841457 
L 138.490416 -396.992019 
L 132.415806 -391.350282 
L 126.341196 -388.082549 
L 120.266586 -387.126292 
L 114.191977 -388.217591 
L 108.117367 -390.184593 
L 102.042757 -390.908276 
L 95.968147 -390.543391 
L 89.893538 -389.84691 
L 83.818928 -386.843762 
L 77.744318 -383.894205 
z
" id="m8afa21d150" style="stroke:#58508d;stroke-opacity:0.2;"/>
    </defs>
    <g clip-path="url(#p01755f047e)">
     <use style="fill:#58508d;fill-opacity:0.2;stroke:#58508d;stroke-opacity:0.2;" x="0" xlink:href="#m8afa21d150" y="720"/>
    </g>
   </g>
   <g id="PolyCollection_3">
    <defs>
     <path d="M 77.744318 -345.472727 
L 77.744318 -287.518182 
L 83.818928 -287.518182 
L 89.893538 -287.518182 
L 95.968147 -287.518182 
L 102.042757 -287.518182 
L 108.117367 -287.518182 
L 114.191977 -287.518182 
L 120.266586 -287.518182 
L 126.341196 -287.518182 
L 132.415806 -287.518182 
L 138.490416 -287.518182 
L 144.565025 -287.518182 
L 150.639635 -287.518182 
L 156.714245 -287.518182 
L 162.788854 -287.518182 
L 168.863464 -287.518182 
L 174.938074 -287.518182 
L 181.012684 -287.518182 
L 187.087293 -287.518182 
L 193.161903 -287.518182 
L 199.236513 -296.650178 
L 205.311123 -309.01741 
L 211.385732 -320.399385 
L 217.460342 -329.989713 
L 223.534952 -337.218712 
L 229.609562 -342.227516 
L 235.684171 -343.896546 
L 241.758781 -347.080436 
L 247.833391 -350.878797 
L 253.908 -350.288358 
L 259.98261 -346.840072 
L 266.05722 -342.385329 
L 272.13183 -336.245852 
L 278.206439 -329.001072 
L 284.281049 -321.047794 
L 290.355659 -317.216136 
L 296.430269 -321.712305 
L 302.504878 -325.476794 
L 308.579488 -328.04347 
L 314.654098 -329.568765 
L 320.728708 -339.841831 
L 326.803317 -343.567356 
L 332.877927 -340.77678 
L 338.952537 -334.984535 
L 345.027146 -337.380297 
L 351.101756 -347.314836 
L 357.176366 -360.455158 
L 363.250976 -372.977932 
L 369.325585 -384.702157 
L 375.400195 -395.402713 
L 381.474805 -404.810941 
L 387.549415 -412.637502 
L 393.624024 -422.164541 
L 399.698634 -429.652552 
L 405.773244 -434.726002 
L 411.847854 -438.704065 
L 417.922463 -442.459526 
L 423.997073 -446.556986 
L 430.071683 -451.81396 
L 436.146292 -453.76221 
L 442.220902 -452.68234 
L 448.295512 -449.164397 
L 454.370122 -444.715002 
L 460.444731 -439.597174 
L 466.519341 -433.019214 
L 472.593951 -426.184036 
L 478.668561 -431.954867 
L 484.74317 -449.547039 
L 490.81778 -465.734595 
L 496.89239 -478.630492 
L 502.967 -487.798451 
L 509.041609 -495.796109 
L 515.116219 -499.32731 
L 521.190829 -501.66934 
L 527.265438 -504.343649 
L 533.340048 -505.410782 
L 539.414658 -505.357944 
L 545.489268 -505.153765 
L 551.563877 -504.232973 
L 557.638487 -502.706857 
L 563.713097 -500.674892 
L 569.787707 -498.222481 
L 575.862316 -495.421097 
L 581.936926 -492.424621 
L 588.011536 -499.404187 
L 594.086146 -513.306752 
L 600.160755 -527.3215 
L 606.235365 -541.118821 
L 612.309975 -554.614121 
L 618.384584 -567.677895 
L 624.459194 -580.107578 
L 630.533804 -591.584599 
L 636.608414 -601.624636 
L 642.683023 -609.575441 
L 648.757633 -614.790658 
L 654.832243 -618.550223 
L 660.906853 -623.221415 
L 666.981462 -627.567114 
L 673.056072 -631.576054 
L 679.130682 -635.245455 
L 679.130682 -673.881818 
L 679.130682 -673.881818 
L 673.056072 -673.881818 
L 666.981462 -673.881818 
L 660.906853 -673.881818 
L 654.832243 -673.881818 
L 648.757633 -673.881818 
L 642.683023 -673.881818 
L 636.608414 -673.881818 
L 630.533804 -673.881818 
L 624.459194 -673.881818 
L 618.384584 -673.881818 
L 612.309975 -673.881818 
L 606.235365 -673.881818 
L 600.160755 -673.881818 
L 594.086146 -673.881818 
L 588.011536 -673.881818 
L 581.936926 -673.881818 
L 575.862316 -673.881818 
L 569.787707 -673.881818 
L 563.713097 -673.881818 
L 557.638487 -673.881818 
L 551.563877 -673.881818 
L 545.489268 -670.8927 
L 539.414658 -662.883195 
L 533.340048 -655.025031 
L 527.265438 -648.286837 
L 521.190829 -643.15582 
L 515.116219 -637.692524 
L 509.041609 -633.4184 
L 502.967 -633.610731 
L 496.89239 -634.973364 
L 490.81778 -640.063936 
L 484.74317 -648.446166 
L 478.668561 -658.233012 
L 472.593951 -656.198517 
L 466.519341 -641.558013 
L 460.444731 -627.174727 
L 454.370122 -614.251573 
L 448.295512 -601.996852 
L 442.220902 -590.673583 
L 436.146292 -581.788387 
L 430.071683 -575.931311 
L 423.997073 -573.382959 
L 417.922463 -569.675093 
L 411.847854 -565.625228 
L 405.773244 -561.797965 
L 399.698634 -559.066089 
L 393.624024 -558.748774 
L 387.549415 -560.470487 
L 381.474805 -560.491722 
L 375.400195 -562.094624 
L 369.325585 -564.989854 
L 363.250976 -568.908753 
L 357.176366 -573.626201 
L 351.101756 -578.961197 
L 345.027146 -581.09041 
L 338.952537 -575.680846 
L 332.877927 -562.083275 
L 326.803317 -551.487373 
L 320.728708 -547.407572 
L 314.654098 -549.875312 
L 308.579488 -543.595281 
L 302.504878 -538.356631 
L 296.430269 -534.315794 
L 290.355659 -531.006637 
L 284.281049 -519.369654 
L 278.206439 -503.611049 
L 272.13183 -488.560943 
L 266.05722 -474.61614 
L 259.98261 -462.356071 
L 253.908 -451.102459 
L 247.833391 -442.706695 
L 241.758781 -438.69973 
L 235.684171 -434.078293 
L 229.609562 -427.941997 
L 223.534952 -425.145475 
L 217.460342 -424.569148 
L 211.385732 -426.35415 
L 205.311123 -429.930799 
L 199.236513 -434.492705 
L 193.161903 -438.986414 
L 187.087293 -444.433519 
L 181.012684 -450.557851 
L 174.938074 -457.16956 
L 168.863464 -459.698087 
L 162.788854 -451.887826 
L 156.714245 -444.108323 
L 150.639635 -436.082895 
L 144.565025 -428.039535 
L 138.490416 -420.015418 
L 132.415806 -412.013208 
L 126.341196 -404.036061 
L 120.266586 -396.08775 
L 114.191977 -388.172805 
L 108.117367 -380.296708 
L 102.042757 -372.466139 
L 95.968147 -364.689292 
L 89.893538 -356.976297 
L 83.818928 -349.339756 
L 77.744318 -345.472727 
z
" id="m35aba9be31" style="stroke:#bc5090;stroke-opacity:0.2;"/>
    </defs>
    <g clip-path="url(#p01755f047e)">
     <use style="fill:#bc5090;fill-opacity:0.2;stroke:#bc5090;stroke-opacity:0.2;" x="0" xlink:href="#m35aba9be31" y="720"/>
    </g>
   </g>
   <g id="matplotlib.axis_1">
    <g id="xtick_1">
     <g id="line2d_1">
      <defs>
       <path d="M 0 0 
L 0 3.5 
" id="mf4bce5078c" style="stroke:#000000;stroke-width:0.8;"/>
      </defs>
      <g>
       <use style="stroke:#000000;stroke-width:0.8;" x="77.744318" xlink:href="#mf4bce5078c" y="451.8"/>
      </g>
     </g>
     <g id="text_1">
      <!-- 0.0 -->
      <defs>
       <path d="M 31.78125 66.40625 
Q 24.171875 66.40625 20.328125 58.90625 
Q 16.5 51.421875 16.5 36.375 
Q 16.5 21.390625 20.328125 13.890625 
Q 24.171875 6.390625 31.78125 6.390625 
Q 39.453125 6.390625 43.28125 13.890625 
Q 47.125 21.390625 47.125 36.375 
Q 47.125 51.421875 43.28125 58.90625 
Q 39.453125 66.40625 31.78125 66.40625 
z
M 31.78125 74.21875 
Q 44.046875 74.21875 50.515625 64.515625 
Q 56.984375 54.828125 56.984375 36.375 
Q 56.984375 17.96875 50.515625 8.265625 
Q 44.046875 -1.421875 31.78125 -1.421875 
Q 19.53125 -1.421875 13.0625 8.265625 
Q 6.59375 17.96875 6.59375 36.375 
Q 6.59375 54.828125 13.0625 64.515625 
Q 19.53125 74.21875 31.78125 74.21875 
z
" id="DejaVuSans-48"/>
       <path d="M 10.6875 12.40625 
L 21 12.40625 
L 21 0 
L 10.6875 0 
z
" id="DejaVuSans-46"/>
      </defs>
      <g transform="translate(69.792756 466.398437)scale(0.1 -0.1)">
       <use xlink:href="#DejaVuSans-48"/>
       <use x="63.623047" xlink:href="#DejaVuSans-46"/>
       <use x="95.410156" xlink:href="#DejaVuSans-48"/>
      </g>
     </g>
    </g>
    <g id="xtick_2">
     <g id="line2d_2">
      <g>
       <use style="stroke:#000000;stroke-width:0.8;" x="198.021591" xlink:href="#mf4bce5078c" y="451.8"/>
      </g>
     </g>
     <g id="text_2">
      <!-- 0.2 -->
      <defs>
       <path d="M 19.1875 8.296875 
L 53.609375 8.296875 
L 53.609375 0 
L 7.328125 0 
L 7.328125 8.296875 
Q 12.9375 14.109375 22.625 23.890625 
Q 32.328125 33.6875 34.8125 36.53125 
Q 39.546875 41.84375 41.421875 45.53125 
Q 43.3125 49.21875 43.3125 52.78125 
Q 43.3125 58.59375 39.234375 62.25 
Q 35.15625 65.921875 28.609375 65.921875 
Q 23.96875 65.921875 18.8125 64.3125 
Q 13.671875 62.703125 7.8125 59.421875 
L 7.8125 69.390625 
Q 13.765625 71.78125 18.9375 73 
Q 24.125 74.21875 28.421875 74.21875 
Q 39.75 74.21875 46.484375 68.546875 
Q 53.21875 62.890625 53.21875 53.421875 
Q 53.21875 48.921875 51.53125 44.890625 
Q 49.859375 40.875 45.40625 35.40625 
Q 44.1875 33.984375 37.640625 27.21875 
Q 31.109375 20.453125 19.1875 8.296875 
z
" id="DejaVuSans-50"/>
      </defs>
      <g transform="translate(190.070028 466.398437)scale(0.1 -0.1)">
       <use xlink:href="#DejaVuSans-48"/>
       <use x="63.623047" xlink:href="#DejaVuSans-46"/>
       <use x="95.410156" xlink:href="#DejaVuSans-50"/>
      </g>
     </g>
    </g>
    <g id="xtick_3">
     <g id="line2d_3">
      <g>
       <use style="stroke:#000000;stroke-width:0.8;" x="318.298864" xlink:href="#mf4bce5078c" y="451.8"/>
      </g>
     </g>
     <g id="text_3">
      <!-- 0.4 -->
      <defs>
       <path d="M 37.796875 64.3125 
L 12.890625 25.390625 
L 37.796875 25.390625 
z
M 35.203125 72.90625 
L 47.609375 72.90625 
L 47.609375 25.390625 
L 58.015625 25.390625 
L 58.015625 17.1875 
L 47.609375 17.1875 
L 47.609375 0 
L 37.796875 0 
L 37.796875 17.1875 
L 4.890625 17.1875 
L 4.890625 26.703125 
z
" id="DejaVuSans-52"/>
      </defs>
      <g transform="translate(310.347301 466.398437)scale(0.1 -0.1)">
       <use xlink:href="#DejaVuSans-48"/>
       <use x="63.623047" xlink:href="#DejaVuSans-46"/>
       <use x="95.410156" xlink:href="#DejaVuSans-52"/>
      </g>
     </g>
    </g>
    <g id="xtick_4">
     <g id="line2d_4">
      <g>
       <use style="stroke:#000000;stroke-width:0.8;" x="438.576136" xlink:href="#mf4bce5078c" y="451.8"/>
      </g>
     </g>
     <g id="text_4">
      <!-- 0.6 -->
      <defs>
       <path d="M 33.015625 40.375 
Q 26.375 40.375 22.484375 35.828125 
Q 18.609375 31.296875 18.609375 23.390625 
Q 18.609375 15.53125 22.484375 10.953125 
Q 26.375 6.390625 33.015625 6.390625 
Q 39.65625 6.390625 43.53125 10.953125 
Q 47.40625 15.53125 47.40625 23.390625 
Q 47.40625 31.296875 43.53125 35.828125 
Q 39.65625 40.375 33.015625 40.375 
z
M 52.59375 71.296875 
L 52.59375 62.3125 
Q 48.875 64.0625 45.09375 64.984375 
Q 41.3125 65.921875 37.59375 65.921875 
Q 27.828125 65.921875 22.671875 59.328125 
Q 17.53125 52.734375 16.796875 39.40625 
Q 19.671875 43.65625 24.015625 45.921875 
Q 28.375 48.1875 33.59375 48.1875 
Q 44.578125 48.1875 50.953125 41.515625 
Q 57.328125 34.859375 57.328125 23.390625 
Q 57.328125 12.15625 50.6875 5.359375 
Q 44.046875 -1.421875 33.015625 -1.421875 
Q 20.359375 -1.421875 13.671875 8.265625 
Q 6.984375 17.96875 6.984375 36.375 
Q 6.984375 53.65625 15.1875 63.9375 
Q 23.390625 74.21875 37.203125 74.21875 
Q 40.921875 74.21875 44.703125 73.484375 
Q 48.484375 72.75 52.59375 71.296875 
z
" id="DejaVuSans-54"/>
      </defs>
      <g transform="translate(430.624574 466.398437)scale(0.1 -0.1)">
       <use xlink:href="#DejaVuSans-48"/>
       <use x="63.623047" xlink:href="#DejaVuSans-46"/>
       <use x="95.410156" xlink:href="#DejaVuSans-54"/>
      </g>
     </g>
    </g>
    <g id="xtick_5">
     <g id="line2d_5">
      <g>
       <use style="stroke:#000000;stroke-width:0.8;" x="558.853409" xlink:href="#mf4bce5078c" y="451.8"/>
      </g>
     </g>
     <g id="text_5">
      <!-- 0.8 -->
      <defs>
       <path d="M 31.78125 34.625 
Q 24.75 34.625 20.71875 30.859375 
Q 16.703125 27.09375 16.703125 20.515625 
Q 16.703125 13.921875 20.71875 10.15625 
Q 24.75 6.390625 31.78125 6.390625 
Q 38.8125 6.390625 42.859375 10.171875 
Q 46.921875 13.96875 46.921875 20.515625 
Q 46.921875 27.09375 42.890625 30.859375 
Q 38.875 34.625 31.78125 34.625 
z
M 21.921875 38.8125 
Q 15.578125 40.375 12.03125 44.71875 
Q 8.5 49.078125 8.5 55.328125 
Q 8.5 64.0625 14.71875 69.140625 
Q 20.953125 74.21875 31.78125 74.21875 
Q 42.671875 74.21875 48.875 69.140625 
Q 55.078125 64.0625 55.078125 55.328125 
Q 55.078125 49.078125 51.53125 44.71875 
Q 48 40.375 41.703125 38.8125 
Q 48.828125 37.15625 52.796875 32.3125 
Q 56.78125 27.484375 56.78125 20.515625 
Q 56.78125 9.90625 50.3125 4.234375 
Q 43.84375 -1.421875 31.78125 -1.421875 
Q 19.734375 -1.421875 13.25 4.234375 
Q 6.78125 9.90625 6.78125 20.515625 
Q 6.78125 27.484375 10.78125 32.3125 
Q 14.796875 37.15625 21.921875 38.8125 
z
M 18.3125 54.390625 
Q 18.3125 48.734375 21.84375 45.5625 
Q 25.390625 42.390625 31.78125 42.390625 
Q 38.140625 42.390625 41.71875 45.5625 
Q 45.3125 48.734375 45.3125 54.390625 
Q 45.3125 60.0625 41.71875 63.234375 
Q 38.140625 66.40625 31.78125 66.40625 
Q 25.390625 66.40625 21.84375 63.234375 
Q 18.3125 60.0625 18.3125 54.390625 
z
" id="DejaVuSans-56"/>
      </defs>
      <g transform="translate(550.901847 466.398437)scale(0.1 -0.1)">
       <use xlink:href="#DejaVuSans-48"/>
       <use x="63.623047" xlink:href="#DejaVuSans-46"/>
       <use x="95.410156" xlink:href="#DejaVuSans-56"/>
      </g>
     </g>
    </g>
    <g id="xtick_6">
     <g id="line2d_6">
      <g>
       <use style="stroke:#000000;stroke-width:0.8;" x="679.130682" xlink:href="#mf4bce5078c" y="451.8"/>
      </g>
     </g>
     <g id="text_6">
      <!-- 1.0 -->
      <defs>
       <path d="M 12.40625 8.296875 
L 28.515625 8.296875 
L 28.515625 63.921875 
L 10.984375 60.40625 
L 10.984375 69.390625 
L 28.421875 72.90625 
L 38.28125 72.90625 
L 38.28125 8.296875 
L 54.390625 8.296875 
L 54.390625 0 
L 12.40625 0 
z
" id="DejaVuSans-49"/>
      </defs>
      <g transform="translate(671.179119 466.398437)scale(0.1 -0.1)">
       <use xlink:href="#DejaVuSans-49"/>
       <use x="63.623047" xlink:href="#DejaVuSans-46"/>
       <use x="95.410156" xlink:href="#DejaVuSans-48"/>
      </g>
     </g>
    </g>
   </g>
   <g id="matplotlib.axis_2">
    <g id="ytick_1">
     <g id="line2d_7">
      <defs>
       <path d="M 0 0 
L -3.5 0 
" id="mdd5f6f7b10" style="stroke:#000000;stroke-width:0.8;"/>
      </defs>
      <g>
       <use style="stroke:#000000;stroke-width:0.8;" x="47.675" xlink:href="#mdd5f6f7b10" y="432.481818"/>
      </g>
     </g>
     <g id="text_7">
      <!-- 0.0 -->
      <g transform="translate(24.771875 436.281037)scale(0.1 -0.1)">
       <use xlink:href="#DejaVuSans-48"/>
       <use x="63.623047" xlink:href="#DejaVuSans-46"/>
       <use x="95.410156" xlink:href="#DejaVuSans-48"/>
      </g>
     </g>
    </g>
    <g id="ytick_2">
     <g id="line2d_8">
      <g>
       <use style="stroke:#000000;stroke-width:0.8;" x="47.675" xlink:href="#mdd5f6f7b10" y="355.209091"/>
      </g>
     </g>
     <g id="text_8">
      <!-- 0.2 -->
      <g transform="translate(24.771875 359.00831)scale(0.1 -0.1)">
       <use xlink:href="#DejaVuSans-48"/>
       <use x="63.623047" xlink:href="#DejaVuSans-46"/>
       <use x="95.410156" xlink:href="#DejaVuSans-50"/>
      </g>
     </g>
    </g>
    <g id="ytick_3">
     <g id="line2d_9">
      <g>
       <use style="stroke:#000000;stroke-width:0.8;" x="47.675" xlink:href="#mdd5f6f7b10" y="277.936364"/>
      </g>
     </g>
     <g id="text_9">
      <!-- 0.4 -->
      <g transform="translate(24.771875 281.735582)scale(0.1 -0.1)">
       <use xlink:href="#DejaVuSans-48"/>
       <use x="63.623047" xlink:href="#DejaVuSans-46"/>
       <use x="95.410156" xlink:href="#DejaVuSans-52"/>
      </g>
     </g>
    </g>
    <g id="ytick_4">
     <g id="line2d_10">
      <g>
       <use style="stroke:#000000;stroke-width:0.8;" x="47.675" xlink:href="#mdd5f6f7b10" y="200.663636"/>
      </g>
     </g>
     <g id="text_10">
      <!-- 0.6 -->
      <g transform="translate(24.771875 204.462855)scale(0.1 -0.1)">
       <use xlink:href="#DejaVuSans-48"/>
       <use x="63.623047" xlink:href="#DejaVuSans-46"/>
       <use x="95.410156" xlink:href="#DejaVuSans-54"/>
      </g>
     </g>
    </g>
    <g id="ytick_5">
     <g id="line2d_11">
      <g>
       <use style="stroke:#000000;stroke-width:0.8;" x="47.675" xlink:href="#mdd5f6f7b10" y="123.390909"/>
      </g>
     </g>
     <g id="text_11">
      <!-- 0.8 -->
      <g transform="translate(24.771875 127.190128)scale(0.1 -0.1)">
       <use xlink:href="#DejaVuSans-48"/>
       <use x="63.623047" xlink:href="#DejaVuSans-46"/>
       <use x="95.410156" xlink:href="#DejaVuSans-56"/>
      </g>
     </g>
    </g>
    <g id="ytick_6">
     <g id="line2d_12">
      <g>
       <use style="stroke:#000000;stroke-width:0.8;" x="47.675" xlink:href="#mdd5f6f7b10" y="46.118182"/>
      </g>
     </g>
     <g id="text_12">
      <!-- 1.0 -->
      <g transform="translate(24.771875 49.917401)scale(0.1 -0.1)">
       <use xlink:href="#DejaVuSans-49"/>
       <use x="63.623047" xlink:href="#DejaVuSans-46"/>
       <use x="95.410156" xlink:href="#DejaVuSans-48"/>
      </g>
     </g>
    </g>
    <g id="text_13">
     <!-- Fraction of positives -->
     <defs>
      <path d="M 9.8125 72.90625 
L 51.703125 72.90625 
L 51.703125 64.59375 
L 19.671875 64.59375 
L 19.671875 43.109375 
L 48.578125 43.109375 
L 48.578125 34.8125 
L 19.671875 34.8125 
L 19.671875 0 
L 9.8125 0 
z
" id="DejaVuSans-70"/>
      <path d="M 41.109375 46.296875 
Q 39.59375 47.171875 37.8125 47.578125 
Q 36.03125 48 33.890625 48 
Q 26.265625 48 22.1875 43.046875 
Q 18.109375 38.09375 18.109375 28.8125 
L 18.109375 0 
L 9.078125 0 
L 9.078125 54.6875 
L 18.109375 54.6875 
L 18.109375 46.1875 
Q 20.953125 51.171875 25.484375 53.578125 
Q 30.03125 56 36.53125 56 
Q 37.453125 56 38.578125 55.875 
Q 39.703125 55.765625 41.0625 55.515625 
z
" id="DejaVuSans-114"/>
      <path d="M 34.28125 27.484375 
Q 23.390625 27.484375 19.1875 25 
Q 14.984375 22.515625 14.984375 16.5 
Q 14.984375 11.71875 18.140625 8.90625 
Q 21.296875 6.109375 26.703125 6.109375 
Q 34.1875 6.109375 38.703125 11.40625 
Q 43.21875 16.703125 43.21875 25.484375 
L 43.21875 27.484375 
z
M 52.203125 31.203125 
L 52.203125 0 
L 43.21875 0 
L 43.21875 8.296875 
Q 40.140625 3.328125 35.546875 0.953125 
Q 30.953125 -1.421875 24.3125 -1.421875 
Q 15.921875 -1.421875 10.953125 3.296875 
Q 6 8.015625 6 15.921875 
Q 6 25.140625 12.171875 29.828125 
Q 18.359375 34.515625 30.609375 34.515625 
L 43.21875 34.515625 
L 43.21875 35.40625 
Q 43.21875 41.609375 39.140625 45 
Q 35.0625 48.390625 27.6875 48.390625 
Q 23 48.390625 18.546875 47.265625 
Q 14.109375 46.140625 10.015625 43.890625 
L 10.015625 52.203125 
Q 14.9375 54.109375 19.578125 55.046875 
Q 24.21875 56 28.609375 56 
Q 40.484375 56 46.34375 49.84375 
Q 52.203125 43.703125 52.203125 31.203125 
z
" id="DejaVuSans-97"/>
      <path d="M 48.78125 52.59375 
L 48.78125 44.1875 
Q 44.96875 46.296875 41.140625 47.34375 
Q 37.3125 48.390625 33.40625 48.390625 
Q 24.65625 48.390625 19.8125 42.84375 
Q 14.984375 37.3125 14.984375 27.296875 
Q 14.984375 17.28125 19.8125 11.734375 
Q 24.65625 6.203125 33.40625 6.203125 
Q 37.3125 6.203125 41.140625 7.25 
Q 44.96875 8.296875 48.78125 10.40625 
L 48.78125 2.09375 
Q 45.015625 0.34375 40.984375 -0.53125 
Q 36.96875 -1.421875 32.421875 -1.421875 
Q 20.0625 -1.421875 12.78125 6.34375 
Q 5.515625 14.109375 5.515625 27.296875 
Q 5.515625 40.671875 12.859375 48.328125 
Q 20.21875 56 33.015625 56 
Q 37.15625 56 41.109375 55.140625 
Q 45.0625 54.296875 48.78125 52.59375 
z
" id="DejaVuSans-99"/>
      <path d="M 18.3125 70.21875 
L 18.3125 54.6875 
L 36.8125 54.6875 
L 36.8125 47.703125 
L 18.3125 47.703125 
L 18.3125 18.015625 
Q 18.3125 11.328125 20.140625 9.421875 
Q 21.96875 7.515625 27.59375 7.515625 
L 36.8125 7.515625 
L 36.8125 0 
L 27.59375 0 
Q 17.1875 0 13.234375 3.875 
Q 9.28125 7.765625 9.28125 18.015625 
L 9.28125 47.703125 
L 2.6875 47.703125 
L 2.6875 54.6875 
L 9.28125 54.6875 
L 9.28125 70.21875 
z
" id="DejaVuSans-116"/>
      <path d="M 9.421875 54.6875 
L 18.40625 54.6875 
L 18.40625 0 
L 9.421875 0 
z
M 9.421875 75.984375 
L 18.40625 75.984375 
L 18.40625 64.59375 
L 9.421875 64.59375 
z
" id="DejaVuSans-105"/>
      <path d="M 30.609375 48.390625 
Q 23.390625 48.390625 19.1875 42.75 
Q 14.984375 37.109375 14.984375 27.296875 
Q 14.984375 17.484375 19.15625 11.84375 
Q 23.34375 6.203125 30.609375 6.203125 
Q 37.796875 6.203125 41.984375 11.859375 
Q 46.1875 17.53125 46.1875 27.296875 
Q 46.1875 37.015625 41.984375 42.703125 
Q 37.796875 48.390625 30.609375 48.390625 
z
M 30.609375 56 
Q 42.328125 56 49.015625 48.375 
Q 55.71875 40.765625 55.71875 27.296875 
Q 55.71875 13.875 49.015625 6.21875 
Q 42.328125 -1.421875 30.609375 -1.421875 
Q 18.84375 -1.421875 12.171875 6.21875 
Q 5.515625 13.875 5.515625 27.296875 
Q 5.515625 40.765625 12.171875 48.375 
Q 18.84375 56 30.609375 56 
z
" id="DejaVuSans-111"/>
      <path d="M 54.890625 33.015625 
L 54.890625 0 
L 45.90625 0 
L 45.90625 32.71875 
Q 45.90625 40.484375 42.875 44.328125 
Q 39.84375 48.1875 33.796875 48.1875 
Q 26.515625 48.1875 22.3125 43.546875 
Q 18.109375 38.921875 18.109375 30.90625 
L 18.109375 0 
L 9.078125 0 
L 9.078125 54.6875 
L 18.109375 54.6875 
L 18.109375 46.1875 
Q 21.34375 51.125 25.703125 53.5625 
Q 30.078125 56 35.796875 56 
Q 45.21875 56 50.046875 50.171875 
Q 54.890625 44.34375 54.890625 33.015625 
z
" id="DejaVuSans-110"/>
      <path id="DejaVuSans-32"/>
      <path d="M 37.109375 75.984375 
L 37.109375 68.5 
L 28.515625 68.5 
Q 23.6875 68.5 21.796875 66.546875 
Q 19.921875 64.59375 19.921875 59.515625 
L 19.921875 54.6875 
L 34.71875 54.6875 
L 34.71875 47.703125 
L 19.921875 47.703125 
L 19.921875 0 
L 10.890625 0 
L 10.890625 47.703125 
L 2.296875 47.703125 
L 2.296875 54.6875 
L 10.890625 54.6875 
L 10.890625 58.5 
Q 10.890625 67.625 15.140625 71.796875 
Q 19.390625 75.984375 28.609375 75.984375 
z
" id="DejaVuSans-102"/>
      <path d="M 18.109375 8.203125 
L 18.109375 -20.796875 
L 9.078125 -20.796875 
L 9.078125 54.6875 
L 18.109375 54.6875 
L 18.109375 46.390625 
Q 20.953125 51.265625 25.265625 53.625 
Q 29.59375 56 35.59375 56 
Q 45.5625 56 51.78125 48.09375 
Q 58.015625 40.1875 58.015625 27.296875 
Q 58.015625 14.40625 51.78125 6.484375 
Q 45.5625 -1.421875 35.59375 -1.421875 
Q 29.59375 -1.421875 25.265625 0.953125 
Q 20.953125 3.328125 18.109375 8.203125 
z
M 48.6875 27.296875 
Q 48.6875 37.203125 44.609375 42.84375 
Q 40.53125 48.484375 33.40625 48.484375 
Q 26.265625 48.484375 22.1875 42.84375 
Q 18.109375 37.203125 18.109375 27.296875 
Q 18.109375 17.390625 22.1875 11.75 
Q 26.265625 6.109375 33.40625 6.109375 
Q 40.53125 6.109375 44.609375 11.75 
Q 48.6875 17.390625 48.6875 27.296875 
z
" id="DejaVuSans-112"/>
      <path d="M 44.28125 53.078125 
L 44.28125 44.578125 
Q 40.484375 46.53125 36.375 47.5 
Q 32.28125 48.484375 27.875 48.484375 
Q 21.1875 48.484375 17.84375 46.4375 
Q 14.5 44.390625 14.5 40.28125 
Q 14.5 37.15625 16.890625 35.375 
Q 19.28125 33.59375 26.515625 31.984375 
L 29.59375 31.296875 
Q 39.15625 29.25 43.1875 25.515625 
Q 47.21875 21.78125 47.21875 15.09375 
Q 47.21875 7.46875 41.1875 3.015625 
Q 35.15625 -1.421875 24.609375 -1.421875 
Q 20.21875 -1.421875 15.453125 -0.5625 
Q 10.6875 0.296875 5.421875 2 
L 5.421875 11.28125 
Q 10.40625 8.6875 15.234375 7.390625 
Q 20.0625 6.109375 24.8125 6.109375 
Q 31.15625 6.109375 34.5625 8.28125 
Q 37.984375 10.453125 37.984375 14.40625 
Q 37.984375 18.0625 35.515625 20.015625 
Q 33.0625 21.96875 24.703125 23.78125 
L 21.578125 24.515625 
Q 13.234375 26.265625 9.515625 29.90625 
Q 5.8125 33.546875 5.8125 39.890625 
Q 5.8125 47.609375 11.28125 51.796875 
Q 16.75 56 26.8125 56 
Q 31.78125 56 36.171875 55.265625 
Q 40.578125 54.546875 44.28125 53.078125 
z
" id="DejaVuSans-115"/>
      <path d="M 2.984375 54.6875 
L 12.5 54.6875 
L 29.59375 8.796875 
L 46.6875 54.6875 
L 56.203125 54.6875 
L 35.6875 0 
L 23.484375 0 
z
" id="DejaVuSans-118"/>
      <path d="M 56.203125 29.59375 
L 56.203125 25.203125 
L 14.890625 25.203125 
Q 15.484375 15.921875 20.484375 11.0625 
Q 25.484375 6.203125 34.421875 6.203125 
Q 39.59375 6.203125 44.453125 7.46875 
Q 49.3125 8.734375 54.109375 11.28125 
L 54.109375 2.78125 
Q 49.265625 0.734375 44.1875 -0.34375 
Q 39.109375 -1.421875 33.890625 -1.421875 
Q 20.796875 -1.421875 13.15625 6.1875 
Q 5.515625 13.8125 5.515625 26.8125 
Q 5.515625 40.234375 12.765625 48.109375 
Q 20.015625 56 32.328125 56 
Q 43.359375 56 49.78125 48.890625 
Q 56.203125 41.796875 56.203125 29.59375 
z
M 47.21875 32.234375 
Q 47.125 39.59375 43.09375 43.984375 
Q 39.0625 48.390625 32.421875 48.390625 
Q 24.90625 48.390625 20.390625 44.140625 
Q 15.875 39.890625 15.1875 32.171875 
z
" id="DejaVuSans-101"/>
     </defs>
     <g transform="translate(18.692187 289.83125)rotate(-90)scale(0.1 -0.1)">
      <use xlink:href="#DejaVuSans-70"/>
      <use x="57.410156" xlink:href="#DejaVuSans-114"/>
      <use x="98.523438" xlink:href="#DejaVuSans-97"/>
      <use x="159.802734" xlink:href="#DejaVuSans-99"/>
      <use x="214.783203" xlink:href="#DejaVuSans-116"/>
      <use x="253.992188" xlink:href="#DejaVuSans-105"/>
      <use x="281.775391" xlink:href="#DejaVuSans-111"/>
      <use x="342.957031" xlink:href="#DejaVuSans-110"/>
      <use x="406.335938" xlink:href="#DejaVuSans-32"/>
      <use x="438.123047" xlink:href="#DejaVuSans-111"/>
      <use x="499.304688" xlink:href="#DejaVuSans-102"/>
      <use x="534.509766" xlink:href="#DejaVuSans-32"/>
      <use x="566.296875" xlink:href="#DejaVuSans-112"/>
      <use x="629.773438" xlink:href="#DejaVuSans-111"/>
      <use x="690.955078" xlink:href="#DejaVuSans-115"/>
      <use x="743.054688" xlink:href="#DejaVuSans-105"/>
      <use x="770.837891" xlink:href="#DejaVuSans-116"/>
      <use x="810.046875" xlink:href="#DejaVuSans-105"/>
      <use x="837.830078" xlink:href="#DejaVuSans-118"/>
      <use x="897.009766" xlink:href="#DejaVuSans-101"/>
      <use x="958.533203" xlink:href="#DejaVuSans-115"/>
     </g>
    </g>
   </g>
   <g id="line2d_13">
    <path clip-path="url(#p01755f047e)" d="M 77.744318 432.481818 
L 679.130682 46.118182 
" style="fill:none;stroke:#000000;stroke-dasharray:1.5,2.475;stroke-dashoffset:0;stroke-width:1.5;"/>
   </g>
   <g id="line2d_14">
    <path clip-path="url(#p01755f047e)" d="M 77.744318 300.474242 
L 83.818928 295.984101 
L 89.893538 291.49396 
L 95.968147 285.012844 
L 102.042757 278.230011 
L 108.117367 275.860688 
L 114.191977 275.968587 
L 120.266586 276.076487 
L 126.341196 276.184386 
L 132.415806 276.292286 
L 138.490416 276.400185 
L 144.565025 273.46039 
L 150.639635 268.623997 
L 156.714245 260.253649 
L 162.788854 251.883302 
L 168.863464 243.512955 
L 174.938074 237.874355 
L 181.012684 234.14174 
L 187.087293 230.907189 
L 193.161903 229.62478 
L 199.236513 232.499146 
L 205.311123 235.373511 
L 211.385732 234.511631 
L 217.460342 230.942867 
L 223.534952 229.983906 
L 229.609562 224.997844 
L 235.684171 214.179585 
L 241.758781 202.344621 
L 247.833391 188.533584 
L 253.908 176.484372 
L 259.98261 167.781537 
L 266.05722 162.615081 
L 272.13183 161.132241 
L 278.206439 162.625693 
L 284.281049 174.126305 
L 290.355659 183.106862 
L 296.430269 188.959067 
L 302.504878 196.222631 
L 308.579488 203.486194 
L 314.654098 210.749758 
L 320.728708 218.013322 
L 326.803317 225.276886 
L 332.877927 228.138002 
L 338.952537 232.899889 
L 345.027146 232.507312 
L 351.101756 227.70657 
L 357.176366 222.681539 
L 363.250976 216.611355 
L 369.325585 210.612401 
L 375.400195 204.613447 
L 381.474805 198.614493 
L 387.549415 192.615539 
L 393.624024 186.616585 
L 399.698634 180.07061 
L 405.773244 173.584763 
L 411.847854 172.145879 
L 417.922463 173.898003 
L 423.997073 171.452165 
L 430.071683 170.034275 
L 436.146292 172.155741 
L 442.220902 174.277206 
L 448.295512 177.244098 
L 454.370122 180.360063 
L 460.444731 182.574188 
L 466.519341 183.664575 
L 472.593951 184.092453 
L 478.668561 184.52033 
L 484.74317 181.326941 
L 490.81778 177.941242 
L 496.89239 177.299184 
L 502.967 180.766695 
L 509.041609 184.234207 
L 515.116219 188.2107 
L 521.190829 190.62627 
L 527.265438 192.417989 
L 533.340048 192.040034 
L 539.414658 196.220086 
L 545.489268 200.978583 
L 551.563877 205.737081 
L 557.638487 210.495578 
L 563.713097 209.857813 
L 569.787707 206.619941 
L 575.862316 204.424416 
L 581.936926 200.408646 
L 588.011536 196.392876 
L 594.086146 189.656299 
L 600.160755 182.775576 
L 606.235365 175.894852 
L 612.309975 169.014128 
L 618.384584 162.133404 
L 624.459194 155.25268 
L 630.533804 148.371956 
L 636.608414 141.491233 
L 642.683023 134.610509 
L 648.757633 128.287167 
L 654.832243 122.601384 
L 660.906853 117.247374 
L 666.981462 113.209364 
L 673.056072 110.250894 
L 679.130682 107.292424 
" style="fill:none;stroke:#003f5c;stroke-linecap:square;stroke-width:1.5;"/>
   </g>
   <g id="line2d_15">
    <path clip-path="url(#p01755f047e)" d="M 77.744318 342.330303 
L 83.818928 341.259157 
L 89.893538 340.14073 
L 95.968147 339.536463 
L 102.042757 338.67767 
L 108.117367 336.937857 
L 114.191977 333.04425 
L 120.266586 328.466683 
L 126.341196 323.889116 
L 132.415806 319.311548 
L 138.490416 314.733981 
L 144.565025 310.156414 
L 150.639635 305.578847 
L 156.714245 301.470681 
L 162.788854 299.281694 
L 168.863464 293.393697 
L 174.938074 289.070938 
L 181.012684 288.065168 
L 187.087293 284.368046 
L 193.161903 278.914926 
L 199.236513 272.725854 
L 205.311123 266.536782 
L 211.385732 260.347711 
L 217.460342 254.158639 
L 223.534952 251.174908 
L 229.609562 247.855881 
L 235.684171 244.972292 
L 241.758781 242.879334 
L 247.833391 240.426995 
L 253.908 237.089661 
L 259.98261 233.752326 
L 266.05722 230.414992 
L 272.13183 227.077658 
L 278.206439 223.725003 
L 284.281049 219.893378 
L 290.355659 219.522101 
L 296.430269 215.930409 
L 302.504878 209.646358 
L 308.579488 204.003377 
L 314.654098 198.525983 
L 320.728708 193.048589 
L 326.803317 187.571195 
L 332.877927 182.0938 
L 338.952537 176.616406 
L 345.027146 172.754068 
L 351.101756 174.615054 
L 357.176366 168.446583 
L 363.250976 160.167428 
L 369.325585 151.888273 
L 375.400195 143.609118 
L 381.474805 135.329963 
L 387.549415 129.534804 
L 393.624024 129.644782 
L 399.698634 129.75476 
L 405.773244 131.777716 
L 411.847854 135.446 
L 417.922463 138.298189 
L 423.997073 142.81676 
L 430.071683 147.525618 
L 436.146292 152.234477 
L 442.220902 157.952664 
L 448.295512 165.784497 
L 454.370122 173.616331 
L 460.444731 181.448164 
L 466.519341 187.046395 
L 472.593951 193.054948 
L 478.668561 196.318539 
L 484.74317 196.92423 
L 490.81778 190.909169 
L 496.89239 180.992738 
L 502.967 171.076308 
L 509.041609 161.159878 
L 515.116219 152.532519 
L 521.190829 146.448992 
L 527.265438 138.992503 
L 533.340048 132.129925 
L 539.414658 124.453189 
L 545.489268 117.291291 
L 551.563877 120.395761 
L 557.638487 129.997332 
L 563.713097 139.598903 
L 569.787707 149.200474 
L 575.862316 157.806397 
L 581.936926 156.72908 
L 588.011536 156.083916 
L 594.086146 156.521004 
L 600.160755 152.13835 
L 606.235365 146.734826 
L 612.309975 141.331302 
L 618.384584 135.927777 
L 624.459194 130.524253 
L 630.533804 125.120728 
L 636.608414 119.717204 
L 642.683023 114.31368 
L 648.757633 108.910155 
L 654.832243 103.506631 
L 660.906853 98.406187 
L 666.981462 93.85564 
L 673.056072 89.305093 
L 679.130682 84.754545 
" style="fill:none;stroke:#58508d;stroke-linecap:square;stroke-width:1.5;"/>
   </g>
   <g id="line2d_16">
    <path clip-path="url(#p01755f047e)" d="M 77.744318 413.163636 
L 83.818928 412.434899 
L 89.893538 409.877181 
L 95.968147 407.319463 
L 102.042757 404.761745 
L 108.117367 402.204027 
L 114.191977 399.646309 
L 120.266586 397.088592 
L 126.341196 394.530874 
L 132.415806 391.973156 
L 138.490416 389.415438 
L 144.565025 386.85772 
L 150.639635 384.300002 
L 156.714245 381.668949 
L 162.788854 378.457827 
L 168.863464 375.270083 
L 174.938074 377.946627 
L 181.012684 382.173281 
L 187.087293 386.399935 
L 193.161903 390.62659 
L 199.236513 394.853244 
L 205.311123 396.872724 
L 211.385732 398.462241 
L 217.460342 400.051757 
L 223.534952 401.451592 
L 229.609562 401.404607 
L 235.684171 400.546934 
L 241.758781 393.725776 
L 247.833391 381.940952 
L 253.908 370.156128 
L 259.98261 357.949795 
L 266.05722 344.606764 
L 272.13183 331.263733 
L 278.206439 317.920702 
L 284.281049 304.66522 
L 290.355659 294.331936 
L 296.430269 289.729462 
L 302.504878 284.166371 
L 308.579488 278.606127 
L 314.654098 272.967518 
L 320.728708 258.797503 
L 326.803317 244.627488 
L 332.877927 230.457473 
L 338.952537 218.268935 
L 345.027146 209.512022 
L 351.101756 199.239571 
L 357.176366 188.261656 
L 363.250976 176.03066 
L 369.325585 163.799664 
L 375.400195 151.568667 
L 381.474805 139.337671 
L 387.549415 127.106675 
L 393.624024 118.052767 
L 399.698634 109.02858 
L 405.773244 100.000473 
L 411.847854 95.36934 
L 417.922463 95.377179 
L 423.997073 98.669215 
L 430.071683 106.326078 
L 436.146292 113.98294 
L 442.220902 121.639803 
L 448.295512 129.296666 
L 454.370122 137.810913 
L 460.444731 146.836411 
L 466.519341 154.462096 
L 472.593951 161.738936 
L 478.668561 160.16329 
L 484.74317 149.96152 
L 490.81778 136.550167 
L 496.89239 123.138813 
L 502.967 110.564481 
L 509.041609 101.6783 
L 515.116219 93.107852 
L 521.190829 89.843761 
L 527.265438 90.705479 
L 533.340048 91.567198 
L 539.414658 92.934518 
L 545.489268 95.649969 
L 551.563877 98.365419 
L 557.638487 101.08087 
L 563.713097 103.796321 
L 569.787707 106.511772 
L 575.862316 109.227222 
L 581.936926 111.853983 
L 588.011536 108.841421 
L 594.086146 104.165569 
L 600.160755 100.019268 
L 606.235365 95.872967 
L 612.309975 91.726666 
L 618.384584 87.580365 
L 624.459194 83.434063 
L 630.533804 79.287762 
L 636.608414 75.141461 
L 642.683023 70.99516 
L 648.757633 66.848859 
L 654.832243 63.817701 
L 660.906853 62.612519 
L 666.981462 61.407336 
L 673.056072 60.202153 
L 679.130682 58.99697 
" style="fill:none;stroke:#bc5090;stroke-linecap:square;stroke-width:1.5;"/>
   </g>
   <g id="patch_3">
    <path d="M 47.675 451.8 
L 47.675 26.8 
" style="fill:none;stroke:#000000;stroke-linecap:square;stroke-linejoin:miter;stroke-width:0.8;"/>
   </g>
   <g id="patch_4">
    <path d="M 709.2 451.8 
L 709.2 26.8 
" style="fill:none;stroke:#000000;stroke-linecap:square;stroke-linejoin:miter;stroke-width:0.8;"/>
   </g>
   <g id="patch_5">
    <path d="M 47.675 451.8 
L 709.2 451.8 
" style="fill:none;stroke:#000000;stroke-linecap:square;stroke-linejoin:miter;stroke-width:0.8;"/>
   </g>
   <g id="patch_6">
    <path d="M 47.675 26.8 
L 709.2 26.8 
" style="fill:none;stroke:#000000;stroke-linecap:square;stroke-linejoin:miter;stroke-width:0.8;"/>
   </g>
   <g id="text_14">
    <!-- Calibration plots  (reliability curve) -->
    <defs>
     <path d="M 64.40625 67.28125 
L 64.40625 56.890625 
Q 59.421875 61.53125 53.78125 63.8125 
Q 48.140625 66.109375 41.796875 66.109375 
Q 29.296875 66.109375 22.65625 58.46875 
Q 16.015625 50.828125 16.015625 36.375 
Q 16.015625 21.96875 22.65625 14.328125 
Q 29.296875 6.6875 41.796875 6.6875 
Q 48.140625 6.6875 53.78125 8.984375 
Q 59.421875 11.28125 64.40625 15.921875 
L 64.40625 5.609375 
Q 59.234375 2.09375 53.4375 0.328125 
Q 47.65625 -1.421875 41.21875 -1.421875 
Q 24.65625 -1.421875 15.125 8.703125 
Q 5.609375 18.84375 5.609375 36.375 
Q 5.609375 53.953125 15.125 64.078125 
Q 24.65625 74.21875 41.21875 74.21875 
Q 47.75 74.21875 53.53125 72.484375 
Q 59.328125 70.75 64.40625 67.28125 
z
" id="DejaVuSans-67"/>
     <path d="M 9.421875 75.984375 
L 18.40625 75.984375 
L 18.40625 0 
L 9.421875 0 
z
" id="DejaVuSans-108"/>
     <path d="M 48.6875 27.296875 
Q 48.6875 37.203125 44.609375 42.84375 
Q 40.53125 48.484375 33.40625 48.484375 
Q 26.265625 48.484375 22.1875 42.84375 
Q 18.109375 37.203125 18.109375 27.296875 
Q 18.109375 17.390625 22.1875 11.75 
Q 26.265625 6.109375 33.40625 6.109375 
Q 40.53125 6.109375 44.609375 11.75 
Q 48.6875 17.390625 48.6875 27.296875 
z
M 18.109375 46.390625 
Q 20.953125 51.265625 25.265625 53.625 
Q 29.59375 56 35.59375 56 
Q 45.5625 56 51.78125 48.09375 
Q 58.015625 40.1875 58.015625 27.296875 
Q 58.015625 14.40625 51.78125 6.484375 
Q 45.5625 -1.421875 35.59375 -1.421875 
Q 29.59375 -1.421875 25.265625 0.953125 
Q 20.953125 3.328125 18.109375 8.203125 
L 18.109375 0 
L 9.078125 0 
L 9.078125 75.984375 
L 18.109375 75.984375 
z
" id="DejaVuSans-98"/>
     <path d="M 31 75.875 
Q 24.46875 64.65625 21.28125 53.65625 
Q 18.109375 42.671875 18.109375 31.390625 
Q 18.109375 20.125 21.3125 9.0625 
Q 24.515625 -2 31 -13.1875 
L 23.1875 -13.1875 
Q 15.875 -1.703125 12.234375 9.375 
Q 8.59375 20.453125 8.59375 31.390625 
Q 8.59375 42.28125 12.203125 53.3125 
Q 15.828125 64.359375 23.1875 75.875 
z
" id="DejaVuSans-40"/>
     <path d="M 32.171875 -5.078125 
Q 28.375 -14.84375 24.75 -17.8125 
Q 21.140625 -20.796875 15.09375 -20.796875 
L 7.90625 -20.796875 
L 7.90625 -13.28125 
L 13.1875 -13.28125 
Q 16.890625 -13.28125 18.9375 -11.515625 
Q 21 -9.765625 23.484375 -3.21875 
L 25.09375 0.875 
L 2.984375 54.6875 
L 12.5 54.6875 
L 29.59375 11.921875 
L 46.6875 54.6875 
L 56.203125 54.6875 
z
" id="DejaVuSans-121"/>
     <path d="M 8.5 21.578125 
L 8.5 54.6875 
L 17.484375 54.6875 
L 17.484375 21.921875 
Q 17.484375 14.15625 20.5 10.265625 
Q 23.53125 6.390625 29.59375 6.390625 
Q 36.859375 6.390625 41.078125 11.03125 
Q 45.3125 15.671875 45.3125 23.6875 
L 45.3125 54.6875 
L 54.296875 54.6875 
L 54.296875 0 
L 45.3125 0 
L 45.3125 8.40625 
Q 42.046875 3.421875 37.71875 1 
Q 33.40625 -1.421875 27.6875 -1.421875 
Q 18.265625 -1.421875 13.375 4.4375 
Q 8.5 10.296875 8.5 21.578125 
z
M 31.109375 56 
z
" id="DejaVuSans-117"/>
     <path d="M 8.015625 75.875 
L 15.828125 75.875 
Q 23.140625 64.359375 26.78125 53.3125 
Q 30.421875 42.28125 30.421875 31.390625 
Q 30.421875 20.453125 26.78125 9.375 
Q 23.140625 -1.703125 15.828125 -13.1875 
L 8.015625 -13.1875 
Q 14.5 -2 17.703125 9.0625 
Q 20.90625 20.125 20.90625 31.390625 
Q 20.90625 42.671875 17.703125 53.65625 
Q 14.5 64.65625 8.015625 75.875 
z
" id="DejaVuSans-41"/>
    </defs>
    <g transform="translate(274.165938 20.8)scale(0.12 -0.12)">
     <use xlink:href="#DejaVuSans-67"/>
     <use x="69.824219" xlink:href="#DejaVuSans-97"/>
     <use x="131.103516" xlink:href="#DejaVuSans-108"/>
     <use x="158.886719" xlink:href="#DejaVuSans-105"/>
     <use x="186.669922" xlink:href="#DejaVuSans-98"/>
     <use x="250.146484" xlink:href="#DejaVuSans-114"/>
     <use x="291.259766" xlink:href="#DejaVuSans-97"/>
     <use x="352.539062" xlink:href="#DejaVuSans-116"/>
     <use x="391.748047" xlink:href="#DejaVuSans-105"/>
     <use x="419.53125" xlink:href="#DejaVuSans-111"/>
     <use x="480.712891" xlink:href="#DejaVuSans-110"/>
     <use x="544.091797" xlink:href="#DejaVuSans-32"/>
     <use x="575.878906" xlink:href="#DejaVuSans-112"/>
     <use x="639.355469" xlink:href="#DejaVuSans-108"/>
     <use x="667.138672" xlink:href="#DejaVuSans-111"/>
     <use x="728.320312" xlink:href="#DejaVuSans-116"/>
     <use x="767.529297" xlink:href="#DejaVuSans-115"/>
     <use x="819.628906" xlink:href="#DejaVuSans-32"/>
     <use x="851.416016" xlink:href="#DejaVuSans-32"/>
     <use x="883.203125" xlink:href="#DejaVuSans-40"/>
     <use x="922.216797" xlink:href="#DejaVuSans-114"/>
     <use x="963.298828" xlink:href="#DejaVuSans-101"/>
     <use x="1024.822266" xlink:href="#DejaVuSans-108"/>
     <use x="1052.605469" xlink:href="#DejaVuSans-105"/>
     <use x="1080.388672" xlink:href="#DejaVuSans-97"/>
     <use x="1141.667969" xlink:href="#DejaVuSans-98"/>
     <use x="1205.144531" xlink:href="#DejaVuSans-105"/>
     <use x="1232.927734" xlink:href="#DejaVuSans-108"/>
     <use x="1260.710938" xlink:href="#DejaVuSans-105"/>
     <use x="1288.494141" xlink:href="#DejaVuSans-116"/>
     <use x="1327.703125" xlink:href="#DejaVuSans-121"/>
     <use x="1386.882812" xlink:href="#DejaVuSans-32"/>
     <use x="1418.669922" xlink:href="#DejaVuSans-99"/>
     <use x="1473.650391" xlink:href="#DejaVuSans-117"/>
     <use x="1537.029297" xlink:href="#DejaVuSans-114"/>
     <use x="1578.142578" xlink:href="#DejaVuSans-118"/>
     <use x="1637.322266" xlink:href="#DejaVuSans-101"/>
     <use x="1698.845703" xlink:href="#DejaVuSans-41"/>
    </g>
   </g>
   <g id="legend_1">
    <g id="patch_7">
     <path d="M 520.41875 446.8 
L 702.2 446.8 
Q 704.2 446.8 704.2 444.8 
L 704.2 387.0875 
Q 704.2 385.0875 702.2 385.0875 
L 520.41875 385.0875 
Q 518.41875 385.0875 518.41875 387.0875 
L 518.41875 444.8 
Q 518.41875 446.8 520.41875 446.8 
z
" style="fill:#ffffff;opacity:0.8;stroke:#cccccc;stroke-linejoin:miter;"/>
    </g>
    <g id="line2d_17">
     <path d="M 522.41875 393.185937 
L 542.41875 393.185937 
" style="fill:none;stroke:#000000;stroke-dasharray:1.5,2.475;stroke-dashoffset:0;stroke-width:1.5;"/>
    </g>
    <g id="line2d_18"/>
    <g id="text_15">
     <!-- Calibration parfaite -->
     <g transform="translate(550.41875 396.685937)scale(0.1 -0.1)">
      <use xlink:href="#DejaVuSans-67"/>
      <use x="69.824219" xlink:href="#DejaVuSans-97"/>
      <use x="131.103516" xlink:href="#DejaVuSans-108"/>
      <use x="158.886719" xlink:href="#DejaVuSans-105"/>
      <use x="186.669922" xlink:href="#DejaVuSans-98"/>
      <use x="250.146484" xlink:href="#DejaVuSans-114"/>
      <use x="291.259766" xlink:href="#DejaVuSans-97"/>
      <use x="352.539062" xlink:href="#DejaVuSans-116"/>
      <use x="391.748047" xlink:href="#DejaVuSans-105"/>
      <use x="419.53125" xlink:href="#DejaVuSans-111"/>
      <use x="480.712891" xlink:href="#DejaVuSans-110"/>
      <use x="544.091797" xlink:href="#DejaVuSans-32"/>
      <use x="575.878906" xlink:href="#DejaVuSans-112"/>
      <use x="639.355469" xlink:href="#DejaVuSans-97"/>
      <use x="700.634766" xlink:href="#DejaVuSans-114"/>
      <use x="741.748047" xlink:href="#DejaVuSans-102"/>
      <use x="776.953125" xlink:href="#DejaVuSans-97"/>
      <use x="838.232422" xlink:href="#DejaVuSans-105"/>
      <use x="866.015625" xlink:href="#DejaVuSans-116"/>
      <use x="905.224609" xlink:href="#DejaVuSans-101"/>
     </g>
    </g>
    <g id="line2d_19">
     <path d="M 522.41875 407.864062 
L 542.41875 407.864062 
" style="fill:none;stroke:#003f5c;stroke-linecap:square;stroke-width:1.5;"/>
    </g>
    <g id="line2d_20"/>
    <g id="text_16">
     <!-- PPrediction (Brier 0.270.08) -->
     <defs>
      <path d="M 19.671875 64.796875 
L 19.671875 37.40625 
L 32.078125 37.40625 
Q 38.96875 37.40625 42.71875 40.96875 
Q 46.484375 44.53125 46.484375 51.125 
Q 46.484375 57.671875 42.71875 61.234375 
Q 38.96875 64.796875 32.078125 64.796875 
z
M 9.8125 72.90625 
L 32.078125 72.90625 
Q 44.34375 72.90625 50.609375 67.359375 
Q 56.890625 61.8125 56.890625 51.125 
Q 56.890625 40.328125 50.609375 34.8125 
Q 44.34375 29.296875 32.078125 29.296875 
L 19.671875 29.296875 
L 19.671875 0 
L 9.8125 0 
z
" id="DejaVuSans-80"/>
      <path d="M 45.40625 46.390625 
L 45.40625 75.984375 
L 54.390625 75.984375 
L 54.390625 0 
L 45.40625 0 
L 45.40625 8.203125 
Q 42.578125 3.328125 38.25 0.953125 
Q 33.9375 -1.421875 27.875 -1.421875 
Q 17.96875 -1.421875 11.734375 6.484375 
Q 5.515625 14.40625 5.515625 27.296875 
Q 5.515625 40.1875 11.734375 48.09375 
Q 17.96875 56 27.875 56 
Q 33.9375 56 38.25 53.625 
Q 42.578125 51.265625 45.40625 46.390625 
z
M 14.796875 27.296875 
Q 14.796875 17.390625 18.875 11.75 
Q 22.953125 6.109375 30.078125 6.109375 
Q 37.203125 6.109375 41.296875 11.75 
Q 45.40625 17.390625 45.40625 27.296875 
Q 45.40625 37.203125 41.296875 42.84375 
Q 37.203125 48.484375 30.078125 48.484375 
Q 22.953125 48.484375 18.875 42.84375 
Q 14.796875 37.203125 14.796875 27.296875 
z
" id="DejaVuSans-100"/>
      <path d="M 19.671875 34.8125 
L 19.671875 8.109375 
L 35.5 8.109375 
Q 43.453125 8.109375 47.28125 11.40625 
Q 51.125 14.703125 51.125 21.484375 
Q 51.125 28.328125 47.28125 31.5625 
Q 43.453125 34.8125 35.5 34.8125 
z
M 19.671875 64.796875 
L 19.671875 42.828125 
L 34.28125 42.828125 
Q 41.5 42.828125 45.03125 45.53125 
Q 48.578125 48.25 48.578125 53.8125 
Q 48.578125 59.328125 45.03125 62.0625 
Q 41.5 64.796875 34.28125 64.796875 
z
M 9.8125 72.90625 
L 35.015625 72.90625 
Q 46.296875 72.90625 52.390625 68.21875 
Q 58.5 63.53125 58.5 54.890625 
Q 58.5 48.1875 55.375 44.234375 
Q 52.25 40.28125 46.1875 39.3125 
Q 53.46875 37.75 57.5 32.78125 
Q 61.53125 27.828125 61.53125 20.40625 
Q 61.53125 10.640625 54.890625 5.3125 
Q 48.25 0 35.984375 0 
L 9.8125 0 
z
" id="DejaVuSans-66"/>
      <path d="M 8.203125 72.90625 
L 55.078125 72.90625 
L 55.078125 68.703125 
L 28.609375 0 
L 18.3125 0 
L 43.21875 64.59375 
L 8.203125 64.59375 
z
" id="DejaVuSans-55"/>
      <path d="M 46 62.703125 
L 46 43.796875 
L 73.1875 43.796875 
L 73.1875 35.5 
L 46 35.5 
L 46 16.609375 
L 37.796875 16.609375 
L 37.796875 35.5 
L 10.59375 35.5 
L 10.59375 43.796875 
L 37.796875 43.796875 
L 37.796875 62.703125 
z
M 10.59375 8.296875 
L 73.1875 8.296875 
L 73.1875 0 
L 10.59375 0 
z
" id="DejaVuSans-177"/>
     </defs>
     <g transform="translate(550.41875 411.364062)scale(0.1 -0.1)">
      <use xlink:href="#DejaVuSans-80"/>
      <use x="60.302734" xlink:href="#DejaVuSans-80"/>
      <use x="120.589844" xlink:href="#DejaVuSans-114"/>
      <use x="161.671875" xlink:href="#DejaVuSans-101"/>
      <use x="223.195312" xlink:href="#DejaVuSans-100"/>
      <use x="286.671875" xlink:href="#DejaVuSans-105"/>
      <use x="314.455078" xlink:href="#DejaVuSans-99"/>
      <use x="369.435547" xlink:href="#DejaVuSans-116"/>
      <use x="408.644531" xlink:href="#DejaVuSans-105"/>
      <use x="436.427734" xlink:href="#DejaVuSans-111"/>
      <use x="497.609375" xlink:href="#DejaVuSans-110"/>
      <use x="560.988281" xlink:href="#DejaVuSans-32"/>
      <use x="592.775391" xlink:href="#DejaVuSans-40"/>
      <use x="631.789062" xlink:href="#DejaVuSans-66"/>
      <use x="700.392578" xlink:href="#DejaVuSans-114"/>
      <use x="741.505859" xlink:href="#DejaVuSans-105"/>
      <use x="769.289062" xlink:href="#DejaVuSans-101"/>
      <use x="830.8125" xlink:href="#DejaVuSans-114"/>
      <use x="871.925781" xlink:href="#DejaVuSans-32"/>
      <use x="903.712891" xlink:href="#DejaVuSans-48"/>
      <use x="967.335938" xlink:href="#DejaVuSans-46"/>
      <use x="999.123047" xlink:href="#DejaVuSans-50"/>
      <use x="1062.746094" xlink:href="#DejaVuSans-55"/>
      <use x="1126.369141" xlink:href="#DejaVuSans-177"/>
      <use x="1210.158203" xlink:href="#DejaVuSans-48"/>
      <use x="1273.78125" xlink:href="#DejaVuSans-46"/>
      <use x="1305.568359" xlink:href="#DejaVuSans-48"/>
      <use x="1369.191406" xlink:href="#DejaVuSans-56"/>
      <use x="1432.814453" xlink:href="#DejaVuSans-41"/>
     </g>
    </g>
    <g id="line2d_21">
     <path d="M 522.41875 422.542187 
L 542.41875 422.542187 
" style="fill:none;stroke:#58508d;stroke-linecap:square;stroke-width:1.5;"/>
    </g>
    <g id="line2d_22"/>
    <g id="text_17">
     <!-- DPrediction (Brier 0.250.05) -->
     <defs>
      <path d="M 19.671875 64.796875 
L 19.671875 8.109375 
L 31.59375 8.109375 
Q 46.6875 8.109375 53.6875 14.9375 
Q 60.6875 21.78125 60.6875 36.53125 
Q 60.6875 51.171875 53.6875 57.984375 
Q 46.6875 64.796875 31.59375 64.796875 
z
M 9.8125 72.90625 
L 30.078125 72.90625 
Q 51.265625 72.90625 61.171875 64.09375 
Q 71.09375 55.28125 71.09375 36.53125 
Q 71.09375 17.671875 61.125 8.828125 
Q 51.171875 0 30.078125 0 
L 9.8125 0 
z
" id="DejaVuSans-68"/>
      <path d="M 10.796875 72.90625 
L 49.515625 72.90625 
L 49.515625 64.59375 
L 19.828125 64.59375 
L 19.828125 46.734375 
Q 21.96875 47.46875 24.109375 47.828125 
Q 26.265625 48.1875 28.421875 48.1875 
Q 40.625 48.1875 47.75 41.5 
Q 54.890625 34.8125 54.890625 23.390625 
Q 54.890625 11.625 47.5625 5.09375 
Q 40.234375 -1.421875 26.90625 -1.421875 
Q 22.3125 -1.421875 17.546875 -0.640625 
Q 12.796875 0.140625 7.71875 1.703125 
L 7.71875 11.625 
Q 12.109375 9.234375 16.796875 8.0625 
Q 21.484375 6.890625 26.703125 6.890625 
Q 35.15625 6.890625 40.078125 11.328125 
Q 45.015625 15.765625 45.015625 23.390625 
Q 45.015625 31 40.078125 35.4375 
Q 35.15625 39.890625 26.703125 39.890625 
Q 22.75 39.890625 18.8125 39.015625 
Q 14.890625 38.140625 10.796875 36.28125 
z
" id="DejaVuSans-53"/>
     </defs>
     <g transform="translate(550.41875 426.042187)scale(0.1 -0.1)">
      <use xlink:href="#DejaVuSans-68"/>
      <use x="77.001953" xlink:href="#DejaVuSans-80"/>
      <use x="137.289062" xlink:href="#DejaVuSans-114"/>
      <use x="178.371094" xlink:href="#DejaVuSans-101"/>
      <use x="239.894531" xlink:href="#DejaVuSans-100"/>
      <use x="303.371094" xlink:href="#DejaVuSans-105"/>
      <use x="331.154297" xlink:href="#DejaVuSans-99"/>
      <use x="386.134766" xlink:href="#DejaVuSans-116"/>
      <use x="425.34375" xlink:href="#DejaVuSans-105"/>
      <use x="453.126953" xlink:href="#DejaVuSans-111"/>
      <use x="514.308594" xlink:href="#DejaVuSans-110"/>
      <use x="577.6875" xlink:href="#DejaVuSans-32"/>
      <use x="609.474609" xlink:href="#DejaVuSans-40"/>
      <use x="648.488281" xlink:href="#DejaVuSans-66"/>
      <use x="717.091797" xlink:href="#DejaVuSans-114"/>
      <use x="758.205078" xlink:href="#DejaVuSans-105"/>
      <use x="785.988281" xlink:href="#DejaVuSans-101"/>
      <use x="847.511719" xlink:href="#DejaVuSans-114"/>
      <use x="888.625" xlink:href="#DejaVuSans-32"/>
      <use x="920.412109" xlink:href="#DejaVuSans-48"/>
      <use x="984.035156" xlink:href="#DejaVuSans-46"/>
      <use x="1015.822266" xlink:href="#DejaVuSans-50"/>
      <use x="1079.445312" xlink:href="#DejaVuSans-53"/>
      <use x="1143.068359" xlink:href="#DejaVuSans-177"/>
      <use x="1226.857422" xlink:href="#DejaVuSans-48"/>
      <use x="1290.480469" xlink:href="#DejaVuSans-46"/>
      <use x="1322.267578" xlink:href="#DejaVuSans-48"/>
      <use x="1385.890625" xlink:href="#DejaVuSans-53"/>
      <use x="1449.513672" xlink:href="#DejaVuSans-41"/>
     </g>
    </g>
    <g id="line2d_23">
     <path d="M 522.41875 437.220312 
L 542.41875 437.220312 
" style="fill:none;stroke:#bc5090;stroke-linecap:square;stroke-width:1.5;"/>
    </g>
    <g id="line2d_24"/>
    <g id="text_18">
     <!-- MPrediction (Brier 0.160.05) -->
     <defs>
      <path d="M 9.8125 72.90625 
L 24.515625 72.90625 
L 43.109375 23.296875 
L 61.8125 72.90625 
L 76.515625 72.90625 
L 76.515625 0 
L 66.890625 0 
L 66.890625 64.015625 
L 48.09375 14.015625 
L 38.1875 14.015625 
L 19.390625 64.015625 
L 19.390625 0 
L 9.8125 0 
z
" id="DejaVuSans-77"/>
     </defs>
     <g transform="translate(550.41875 440.720312)scale(0.1 -0.1)">
      <use xlink:href="#DejaVuSans-77"/>
      <use x="86.279297" xlink:href="#DejaVuSans-80"/>
      <use x="146.566406" xlink:href="#DejaVuSans-114"/>
      <use x="187.648438" xlink:href="#DejaVuSans-101"/>
      <use x="249.171875" xlink:href="#DejaVuSans-100"/>
      <use x="312.648438" xlink:href="#DejaVuSans-105"/>
      <use x="340.431641" xlink:href="#DejaVuSans-99"/>
      <use x="395.412109" xlink:href="#DejaVuSans-116"/>
      <use x="434.621094" xlink:href="#DejaVuSans-105"/>
      <use x="462.404297" xlink:href="#DejaVuSans-111"/>
      <use x="523.585938" xlink:href="#DejaVuSans-110"/>
      <use x="586.964844" xlink:href="#DejaVuSans-32"/>
      <use x="618.751953" xlink:href="#DejaVuSans-40"/>
      <use x="657.765625" xlink:href="#DejaVuSans-66"/>
      <use x="726.369141" xlink:href="#DejaVuSans-114"/>
      <use x="767.482422" xlink:href="#DejaVuSans-105"/>
      <use x="795.265625" xlink:href="#DejaVuSans-101"/>
      <use x="856.789062" xlink:href="#DejaVuSans-114"/>
      <use x="897.902344" xlink:href="#DejaVuSans-32"/>
      <use x="929.689453" xlink:href="#DejaVuSans-48"/>
      <use x="993.3125" xlink:href="#DejaVuSans-46"/>
      <use x="1025.099609" xlink:href="#DejaVuSans-49"/>
      <use x="1088.722656" xlink:href="#DejaVuSans-54"/>
      <use x="1152.345703" xlink:href="#DejaVuSans-177"/>
      <use x="1236.134766" xlink:href="#DejaVuSans-48"/>
      <use x="1299.757812" xlink:href="#DejaVuSans-46"/>
      <use x="1331.544922" xlink:href="#DejaVuSans-48"/>
      <use x="1395.167969" xlink:href="#DejaVuSans-53"/>
      <use x="1458.791016" xlink:href="#DejaVuSans-41"/>
     </g>
    </g>
   </g>
  </g>
  <g id="axes_2">
   <g id="patch_8">
    <path d="M 47.675 678.2 
L 709.2 678.2 
L 709.2 479.6 
L 47.675 479.6 
z
" style="fill:#ffffff;"/>
   </g>
   <g id="patch_9">
    <path clip-path="url(#pbc4715e956)" d="M 77.744318 678.2 
L 77.744318 651.179592 
L 137.882955 651.179592 
L 137.882955 678.2 
L 198.021591 678.2 
L 198.021591 651.179592 
L 258.160227 651.179592 
L 258.160227 543.097959 
L 318.298864 543.097959 
L 318.298864 651.179592 
L 378.4375 651.179592 
L 378.4375 570.118367 
L 438.576136 570.118367 
L 438.576136 597.138776 
L 498.714773 597.138776 
L 498.714773 543.097959 
L 558.853409 543.097959 
L 558.853409 651.179592 
L 618.992045 651.179592 
L 618.992045 651.179592 
L 679.130682 651.179592 
L 679.130682 678.2 
" style="fill:none;stroke:#003f5c;stroke-linejoin:miter;stroke-width:2;"/>
   </g>
   <g id="patch_10">
    <path clip-path="url(#pbc4715e956)" d="M 77.744318 678.2 
L 77.744318 597.138776 
L 137.882955 597.138776 
L 137.882955 597.138776 
L 198.021591 597.138776 
L 198.021591 570.118367 
L 258.160227 570.118367 
L 258.160227 651.179592 
L 318.298864 651.179592 
L 318.298864 489.057143 
L 378.4375 489.057143 
L 378.4375 624.159184 
L 438.576136 624.159184 
L 438.576136 651.179592 
L 498.714773 651.179592 
L 498.714773 678.2 
L 558.853409 678.2 
L 558.853409 678.2 
L 618.992045 678.2 
L 618.992045 651.179592 
L 679.130682 651.179592 
L 679.130682 678.2 
" style="fill:none;stroke:#58508d;stroke-linejoin:miter;stroke-width:2;"/>
   </g>
   <g id="patch_11">
    <path clip-path="url(#pbc4715e956)" d="M 77.744318 678.2 
L 77.744318 651.179592 
L 137.882955 651.179592 
L 137.882955 543.097959 
L 198.021591 543.097959 
L 198.021591 624.159184 
L 258.160227 624.159184 
L 258.160227 651.179592 
L 318.298864 651.179592 
L 318.298864 516.077551 
L 378.4375 516.077551 
L 378.4375 624.159184 
L 438.576136 624.159184 
L 438.576136 624.159184 
L 498.714773 624.159184 
L 498.714773 678.2 
L 558.853409 678.2 
L 558.853409 651.179592 
L 618.992045 651.179592 
L 618.992045 624.159184 
L 679.130682 624.159184 
L 679.130682 678.2 
" style="fill:none;stroke:#bc5090;stroke-linejoin:miter;stroke-width:2;"/>
   </g>
   <g id="matplotlib.axis_3">
    <g id="xtick_7">
     <g id="line2d_25">
      <g>
       <use style="stroke:#000000;stroke-width:0.8;" x="77.744318" xlink:href="#mf4bce5078c" y="678.2"/>
      </g>
     </g>
     <g id="text_19">
      <!-- 0.0 -->
      <g transform="translate(69.792756 692.798437)scale(0.1 -0.1)">
       <use xlink:href="#DejaVuSans-48"/>
       <use x="63.623047" xlink:href="#DejaVuSans-46"/>
       <use x="95.410156" xlink:href="#DejaVuSans-48"/>
      </g>
     </g>
    </g>
    <g id="xtick_8">
     <g id="line2d_26">
      <g>
       <use style="stroke:#000000;stroke-width:0.8;" x="198.021591" xlink:href="#mf4bce5078c" y="678.2"/>
      </g>
     </g>
     <g id="text_20">
      <!-- 0.2 -->
      <g transform="translate(190.070028 692.798437)scale(0.1 -0.1)">
       <use xlink:href="#DejaVuSans-48"/>
       <use x="63.623047" xlink:href="#DejaVuSans-46"/>
       <use x="95.410156" xlink:href="#DejaVuSans-50"/>
      </g>
     </g>
    </g>
    <g id="xtick_9">
     <g id="line2d_27">
      <g>
       <use style="stroke:#000000;stroke-width:0.8;" x="318.298864" xlink:href="#mf4bce5078c" y="678.2"/>
      </g>
     </g>
     <g id="text_21">
      <!-- 0.4 -->
      <g transform="translate(310.347301 692.798437)scale(0.1 -0.1)">
       <use xlink:href="#DejaVuSans-48"/>
       <use x="63.623047" xlink:href="#DejaVuSans-46"/>
       <use x="95.410156" xlink:href="#DejaVuSans-52"/>
      </g>
     </g>
    </g>
    <g id="xtick_10">
     <g id="line2d_28">
      <g>
       <use style="stroke:#000000;stroke-width:0.8;" x="438.576136" xlink:href="#mf4bce5078c" y="678.2"/>
      </g>
     </g>
     <g id="text_22">
      <!-- 0.6 -->
      <g transform="translate(430.624574 692.798437)scale(0.1 -0.1)">
       <use xlink:href="#DejaVuSans-48"/>
       <use x="63.623047" xlink:href="#DejaVuSans-46"/>
       <use x="95.410156" xlink:href="#DejaVuSans-54"/>
      </g>
     </g>
    </g>
    <g id="xtick_11">
     <g id="line2d_29">
      <g>
       <use style="stroke:#000000;stroke-width:0.8;" x="558.853409" xlink:href="#mf4bce5078c" y="678.2"/>
      </g>
     </g>
     <g id="text_23">
      <!-- 0.8 -->
      <g transform="translate(550.901847 692.798437)scale(0.1 -0.1)">
       <use xlink:href="#DejaVuSans-48"/>
       <use x="63.623047" xlink:href="#DejaVuSans-46"/>
       <use x="95.410156" xlink:href="#DejaVuSans-56"/>
      </g>
     </g>
    </g>
    <g id="xtick_12">
     <g id="line2d_30">
      <g>
       <use style="stroke:#000000;stroke-width:0.8;" x="679.130682" xlink:href="#mf4bce5078c" y="678.2"/>
      </g>
     </g>
     <g id="text_24">
      <!-- 1.0 -->
      <g transform="translate(671.179119 692.798437)scale(0.1 -0.1)">
       <use xlink:href="#DejaVuSans-49"/>
       <use x="63.623047" xlink:href="#DejaVuSans-46"/>
       <use x="95.410156" xlink:href="#DejaVuSans-48"/>
      </g>
     </g>
    </g>
    <g id="text_25">
     <!-- Mean predicted value -->
     <g transform="translate(324.15 706.476562)scale(0.1 -0.1)">
      <use xlink:href="#DejaVuSans-77"/>
      <use x="86.279297" xlink:href="#DejaVuSans-101"/>
      <use x="147.802734" xlink:href="#DejaVuSans-97"/>
      <use x="209.082031" xlink:href="#DejaVuSans-110"/>
      <use x="272.460938" xlink:href="#DejaVuSans-32"/>
      <use x="304.248047" xlink:href="#DejaVuSans-112"/>
      <use x="367.724609" xlink:href="#DejaVuSans-114"/>
      <use x="408.806641" xlink:href="#DejaVuSans-101"/>
      <use x="470.330078" xlink:href="#DejaVuSans-100"/>
      <use x="533.806641" xlink:href="#DejaVuSans-105"/>
      <use x="561.589844" xlink:href="#DejaVuSans-99"/>
      <use x="616.570312" xlink:href="#DejaVuSans-116"/>
      <use x="655.779297" xlink:href="#DejaVuSans-101"/>
      <use x="717.302734" xlink:href="#DejaVuSans-100"/>
      <use x="780.779297" xlink:href="#DejaVuSans-32"/>
      <use x="812.566406" xlink:href="#DejaVuSans-118"/>
      <use x="871.746094" xlink:href="#DejaVuSans-97"/>
      <use x="933.025391" xlink:href="#DejaVuSans-108"/>
      <use x="960.808594" xlink:href="#DejaVuSans-117"/>
      <use x="1024.1875" xlink:href="#DejaVuSans-101"/>
     </g>
    </g>
   </g>
   <g id="matplotlib.axis_4">
    <g id="ytick_7">
     <g id="line2d_31">
      <g>
       <use style="stroke:#000000;stroke-width:0.8;" x="47.675" xlink:href="#mdd5f6f7b10" y="678.2"/>
      </g>
     </g>
     <g id="text_26">
      <!-- 0 -->
      <g transform="translate(34.3125 681.999219)scale(0.1 -0.1)">
       <use xlink:href="#DejaVuSans-48"/>
      </g>
     </g>
    </g>
    <g id="ytick_8">
     <g id="line2d_32">
      <g>
       <use style="stroke:#000000;stroke-width:0.8;" x="47.675" xlink:href="#mdd5f6f7b10" y="651.179592"/>
      </g>
     </g>
     <g id="text_27">
      <!-- 1 -->
      <g transform="translate(34.3125 654.978811)scale(0.1 -0.1)">
       <use xlink:href="#DejaVuSans-49"/>
      </g>
     </g>
    </g>
    <g id="ytick_9">
     <g id="line2d_33">
      <g>
       <use style="stroke:#000000;stroke-width:0.8;" x="47.675" xlink:href="#mdd5f6f7b10" y="624.159184"/>
      </g>
     </g>
     <g id="text_28">
      <!-- 2 -->
      <g transform="translate(34.3125 627.958402)scale(0.1 -0.1)">
       <use xlink:href="#DejaVuSans-50"/>
      </g>
     </g>
    </g>
    <g id="ytick_10">
     <g id="line2d_34">
      <g>
       <use style="stroke:#000000;stroke-width:0.8;" x="47.675" xlink:href="#mdd5f6f7b10" y="597.138776"/>
      </g>
     </g>
     <g id="text_29">
      <!-- 3 -->
      <defs>
       <path d="M 40.578125 39.3125 
Q 47.65625 37.796875 51.625 33 
Q 55.609375 28.21875 55.609375 21.1875 
Q 55.609375 10.40625 48.1875 4.484375 
Q 40.765625 -1.421875 27.09375 -1.421875 
Q 22.515625 -1.421875 17.65625 -0.515625 
Q 12.796875 0.390625 7.625 2.203125 
L 7.625 11.71875 
Q 11.71875 9.328125 16.59375 8.109375 
Q 21.484375 6.890625 26.8125 6.890625 
Q 36.078125 6.890625 40.9375 10.546875 
Q 45.796875 14.203125 45.796875 21.1875 
Q 45.796875 27.640625 41.28125 31.265625 
Q 36.765625 34.90625 28.71875 34.90625 
L 20.21875 34.90625 
L 20.21875 43.015625 
L 29.109375 43.015625 
Q 36.375 43.015625 40.234375 45.921875 
Q 44.09375 48.828125 44.09375 54.296875 
Q 44.09375 59.90625 40.109375 62.90625 
Q 36.140625 65.921875 28.71875 65.921875 
Q 24.65625 65.921875 20.015625 65.03125 
Q 15.375 64.15625 9.8125 62.3125 
L 9.8125 71.09375 
Q 15.4375 72.65625 20.34375 73.4375 
Q 25.25 74.21875 29.59375 74.21875 
Q 40.828125 74.21875 47.359375 69.109375 
Q 53.90625 64.015625 53.90625 55.328125 
Q 53.90625 49.265625 50.4375 45.09375 
Q 46.96875 40.921875 40.578125 39.3125 
z
" id="DejaVuSans-51"/>
      </defs>
      <g transform="translate(34.3125 600.937994)scale(0.1 -0.1)">
       <use xlink:href="#DejaVuSans-51"/>
      </g>
     </g>
    </g>
    <g id="ytick_11">
     <g id="line2d_35">
      <g>
       <use style="stroke:#000000;stroke-width:0.8;" x="47.675" xlink:href="#mdd5f6f7b10" y="570.118367"/>
      </g>
     </g>
     <g id="text_30">
      <!-- 4 -->
      <g transform="translate(34.3125 573.917586)scale(0.1 -0.1)">
       <use xlink:href="#DejaVuSans-52"/>
      </g>
     </g>
    </g>
    <g id="ytick_12">
     <g id="line2d_36">
      <g>
       <use style="stroke:#000000;stroke-width:0.8;" x="47.675" xlink:href="#mdd5f6f7b10" y="543.097959"/>
      </g>
     </g>
     <g id="text_31">
      <!-- 5 -->
      <g transform="translate(34.3125 546.897178)scale(0.1 -0.1)">
       <use xlink:href="#DejaVuSans-53"/>
      </g>
     </g>
    </g>
    <g id="ytick_13">
     <g id="line2d_37">
      <g>
       <use style="stroke:#000000;stroke-width:0.8;" x="47.675" xlink:href="#mdd5f6f7b10" y="516.077551"/>
      </g>
     </g>
     <g id="text_32">
      <!-- 6 -->
      <g transform="translate(34.3125 519.87677)scale(0.1 -0.1)">
       <use xlink:href="#DejaVuSans-54"/>
      </g>
     </g>
    </g>
    <g id="ytick_14">
     <g id="line2d_38">
      <g>
       <use style="stroke:#000000;stroke-width:0.8;" x="47.675" xlink:href="#mdd5f6f7b10" y="489.057143"/>
      </g>
     </g>
     <g id="text_33">
      <!-- 7 -->
      <g transform="translate(34.3125 492.856362)scale(0.1 -0.1)">
       <use xlink:href="#DejaVuSans-55"/>
      </g>
     </g>
    </g>
    <g id="text_34">
     <!-- Count -->
     <g transform="translate(28.232812 593.748437)rotate(-90)scale(0.1 -0.1)">
      <use xlink:href="#DejaVuSans-67"/>
      <use x="69.824219" xlink:href="#DejaVuSans-111"/>
      <use x="131.005859" xlink:href="#DejaVuSans-117"/>
      <use x="194.384766" xlink:href="#DejaVuSans-110"/>
      <use x="257.763672" xlink:href="#DejaVuSans-116"/>
     </g>
    </g>
   </g>
   <g id="patch_12">
    <path d="M 47.675 678.2 
L 47.675 479.6 
" style="fill:none;stroke:#000000;stroke-linecap:square;stroke-linejoin:miter;stroke-width:0.8;"/>
   </g>
   <g id="patch_13">
    <path d="M 709.2 678.2 
L 709.2 479.6 
" style="fill:none;stroke:#000000;stroke-linecap:square;stroke-linejoin:miter;stroke-width:0.8;"/>
   </g>
   <g id="patch_14">
    <path d="M 47.675 678.2 
L 709.2 678.2 
" style="fill:none;stroke:#000000;stroke-linecap:square;stroke-linejoin:miter;stroke-width:0.8;"/>
   </g>
   <g id="patch_15">
    <path d="M 47.675 479.6 
L 709.2 479.6 
" style="fill:none;stroke:#000000;stroke-linecap:square;stroke-linejoin:miter;stroke-width:0.8;"/>
   </g>
   <g id="legend_2">
    <g id="patch_16">
     <path d="M 280.204688 516.95625 
L 476.670313 516.95625 
Q 478.670313 516.95625 478.670313 514.95625 
L 478.670313 486.6 
Q 478.670313 484.6 476.670313 484.6 
L 280.204688 484.6 
Q 278.204688 484.6 278.204688 486.6 
L 278.204688 514.95625 
Q 278.204688 516.95625 280.204688 516.95625 
z
" style="fill:#ffffff;opacity:0.8;stroke:#cccccc;stroke-linejoin:miter;"/>
    </g>
    <g id="patch_17">
     <path d="M 282.204688 496.198437 
L 302.204688 496.198437 
L 302.204688 489.198437 
L 282.204688 489.198437 
z
" style="fill:none;stroke:#003f5c;stroke-linejoin:miter;stroke-width:2;"/>
    </g>
    <g id="text_35">
     <!-- PPrediction -->
     <g transform="translate(310.204688 496.198437)scale(0.1 -0.1)">
      <use xlink:href="#DejaVuSans-80"/>
      <use x="60.302734" xlink:href="#DejaVuSans-80"/>
      <use x="120.589844" xlink:href="#DejaVuSans-114"/>
      <use x="161.671875" xlink:href="#DejaVuSans-101"/>
      <use x="223.195312" xlink:href="#DejaVuSans-100"/>
      <use x="286.671875" xlink:href="#DejaVuSans-105"/>
      <use x="314.455078" xlink:href="#DejaVuSans-99"/>
      <use x="369.435547" xlink:href="#DejaVuSans-116"/>
      <use x="408.644531" xlink:href="#DejaVuSans-105"/>
      <use x="436.427734" xlink:href="#DejaVuSans-111"/>
      <use x="497.609375" xlink:href="#DejaVuSans-110"/>
     </g>
    </g>
    <g id="patch_18">
     <path d="M 282.204688 510.876562 
L 302.204688 510.876562 
L 302.204688 503.876562 
L 282.204688 503.876562 
z
" style="fill:none;stroke:#58508d;stroke-linejoin:miter;stroke-width:2;"/>
    </g>
    <g id="text_36">
     <!-- DPrediction -->
     <g transform="translate(310.204688 510.876562)scale(0.1 -0.1)">
      <use xlink:href="#DejaVuSans-68"/>
      <use x="77.001953" xlink:href="#DejaVuSans-80"/>
      <use x="137.289062" xlink:href="#DejaVuSans-114"/>
      <use x="178.371094" xlink:href="#DejaVuSans-101"/>
      <use x="239.894531" xlink:href="#DejaVuSans-100"/>
      <use x="303.371094" xlink:href="#DejaVuSans-105"/>
      <use x="331.154297" xlink:href="#DejaVuSans-99"/>
      <use x="386.134766" xlink:href="#DejaVuSans-116"/>
      <use x="425.34375" xlink:href="#DejaVuSans-105"/>
      <use x="453.126953" xlink:href="#DejaVuSans-111"/>
      <use x="514.308594" xlink:href="#DejaVuSans-110"/>
     </g>
    </g>
    <g id="patch_19">
     <path d="M 387.973438 496.198437 
L 407.973438 496.198437 
L 407.973438 489.198437 
L 387.973438 489.198437 
z
" style="fill:none;stroke:#bc5090;stroke-linejoin:miter;stroke-width:2;"/>
    </g>
    <g id="text_37">
     <!-- MPrediction -->
     <g transform="translate(415.973438 496.198437)scale(0.1 -0.1)">
      <use xlink:href="#DejaVuSans-77"/>
      <use x="86.279297" xlink:href="#DejaVuSans-80"/>
      <use x="146.566406" xlink:href="#DejaVuSans-114"/>
      <use x="187.648438" xlink:href="#DejaVuSans-101"/>
      <use x="249.171875" xlink:href="#DejaVuSans-100"/>
      <use x="312.648438" xlink:href="#DejaVuSans-105"/>
      <use x="340.431641" xlink:href="#DejaVuSans-99"/>
      <use x="395.412109" xlink:href="#DejaVuSans-116"/>
      <use x="434.621094" xlink:href="#DejaVuSans-105"/>
      <use x="462.404297" xlink:href="#DejaVuSans-111"/>
      <use x="523.585938" xlink:href="#DejaVuSans-110"/>
     </g>
    </g>
   </g>
  </g>
 </g>
 <defs>
  <clipPath id="p01755f047e">
   <rect height="425" width="661.525" x="47.675" y="26.8"/>
  </clipPath>
  <clipPath id="pbc4715e956">
   <rect height="198.6" width="661.525" x="47.675" y="479.6"/>
  </clipPath>
 </defs>
</svg>
