<?xml version="1.0" encoding="utf-8" standalone="no"?>
<!DOCTYPE svg PUBLIC "-//W3C//DTD SVG 1.1//EN"
  "http://www.w3.org/Graphics/SVG/1.1/DTD/svg11.dtd">
<!-- Created with matplotlib (https://matplotlib.org/) -->
<svg height="720pt" version="1.1" viewBox="0 0 720 720" width="720pt" xmlns="http://www.w3.org/2000/svg" xmlns:xlink="http://www.w3.org/1999/xlink">
 <defs>
  <style type="text/css">
*{stroke-linecap:butt;stroke-linejoin:round;}
  </style>
 </defs>
 <g id="figure_1">
  <g id="patch_1">
   <path d="M 0 720 
L 720 720 
L 720 0 
L 0 0 
z
" style="fill:#ffffff;"/>
  </g>
  <g id="axes_1">
   <g id="patch_2">
    <path d="M 47.675 451.8 
L 709.2 451.8 
L 709.2 26.8 
L 47.675 26.8 
z
" style="fill:#ffffff;"/>
   </g>
   <g id="PolyCollection_1">
    <defs>
     <path d="M 77.744318 -420.080333 
L 77.744318 -287.518182 
L 83.818928 -287.518182 
L 89.893538 -287.518182 
L 95.968147 -287.518182 
L 102.042757 -287.518182 
L 108.117367 -287.518182 
L 114.191977 -287.518182 
L 120.266586 -287.518182 
L 126.341196 -287.518182 
L 132.415806 -287.518182 
L 138.490416 -287.518182 
L 144.565025 -287.518182 
L 150.639635 -287.518182 
L 156.714245 -287.518182 
L 162.788854 -287.518182 
L 168.863464 -287.518182 
L 174.938074 -287.518182 
L 181.012684 -287.518182 
L 187.087293 -287.518182 
L 193.161903 -287.518182 
L 199.236513 -287.518182 
L 205.311123 -287.518182 
L 211.385732 -287.518182 
L 217.460342 -287.518182 
L 223.534952 -287.518182 
L 229.609562 -287.518182 
L 235.684171 -287.518182 
L 241.758781 -287.518182 
L 247.833391 -287.518182 
L 253.908 -287.518182 
L 259.98261 -287.518182 
L 266.05722 -287.518182 
L 272.13183 -287.518182 
L 278.206439 -289.712931 
L 284.281049 -293.438604 
L 290.355659 -299.755169 
L 296.430269 -307.768691 
L 302.504878 -315.601168 
L 308.579488 -323.233641 
L 314.654098 -330.64559 
L 320.728708 -337.815072 
L 326.803317 -344.882186 
L 332.877927 -352.999497 
L 338.952537 -360.876093 
L 345.027146 -368.432253 
L 351.101756 -375.581892 
L 357.176366 -382.283379 
L 363.250976 -389.215976 
L 369.325585 -397.964009 
L 375.400195 -408.225152 
L 381.474805 -415.07221 
L 387.549415 -419.344623 
L 393.624024 -422.875792 
L 399.698634 -424.394332 
L 405.773244 -422.69602 
L 411.847854 -419.621622 
L 417.922463 -428.836173 
L 423.997073 -439.584291 
L 430.071683 -449.57254 
L 436.146292 -457.177493 
L 442.220902 -461.144544 
L 448.295512 -461.462733 
L 454.370122 -458.862252 
L 460.444731 -455.418905 
L 466.519341 -451.688668 
L 472.593951 -454.917891 
L 478.668561 -459.249784 
L 484.74317 -460.047276 
L 490.81778 -459.322833 
L 496.89239 -457.403525 
L 502.967 -454.373252 
L 509.041609 -459.306063 
L 515.116219 -467.926307 
L 521.190829 -477.667955 
L 527.265438 -487.372643 
L 533.340048 -496.64895 
L 539.414658 -506.16928 
L 545.489268 -514.46886 
L 551.563877 -521.57126 
L 557.638487 -527.760428 
L 563.713097 -532.312167 
L 569.787707 -535.179884 
L 575.862316 -536.437081 
L 581.936926 -536.253567 
L 588.011536 -534.848455 
L 594.086146 -534.880392 
L 600.160755 -538.765151 
L 606.235365 -543.492223 
L 612.309975 -548.088795 
L 618.384584 -552.551565 
L 624.459194 -556.877788 
L 630.533804 -561.065337 
L 636.608414 -565.112757 
L 642.683023 -569.019301 
L 648.757633 -572.784948 
L 654.832243 -576.410408 
L 660.906853 -579.897095 
L 666.981462 -583.247101 
L 673.056072 -586.46314 
L 679.130682 -589.548483 
L 679.130682 -673.881818 
L 679.130682 -673.881818 
L 673.056072 -673.881818 
L 666.981462 -673.881818 
L 660.906853 -673.881818 
L 654.832243 -673.881818 
L 648.757633 -673.881818 
L 642.683023 -673.881818 
L 636.608414 -673.881818 
L 630.533804 -673.881818 
L 624.459194 -673.881818 
L 618.384584 -673.881818 
L 612.309975 -673.881818 
L 606.235365 -673.881818 
L 600.160755 -673.881818 
L 594.086146 -673.881818 
L 588.011536 -673.881818 
L 581.936926 -673.881818 
L 575.862316 -673.881818 
L 569.787707 -672.087884 
L 563.713097 -667.150276 
L 557.638487 -663.896689 
L 551.563877 -662.28053 
L 545.489268 -661.577605 
L 539.414658 -662.071859 
L 533.340048 -663.786863 
L 527.265438 -665.257844 
L 521.190829 -667.157205 
L 515.116219 -669.093528 
L 509.041609 -669.908446 
L 502.967 -667.035931 
L 496.89239 -656.200332 
L 490.81778 -646.475698 
L 484.74317 -637.945929 
L 478.668561 -630.938094 
L 472.593951 -627.464662 
L 466.519341 -622.888558 
L 460.444731 -611.352996 
L 454.370122 -600.104322 
L 448.295512 -589.698516 
L 442.220902 -582.211378 
L 436.146292 -578.373103 
L 430.071683 -578.17273 
L 423.997073 -580.355654 
L 417.922463 -583.298445 
L 411.847854 -584.707671 
L 405.773244 -573.827947 
L 399.698634 -564.324309 
L 393.624024 -558.037523 
L 387.549415 -553.763366 
L 381.474805 -550.230453 
L 375.400195 -549.272185 
L 369.325585 -551.728002 
L 363.250976 -552.670709 
L 357.176366 -551.79798 
L 351.101756 -550.694141 
L 345.027146 -550.038454 
L 338.952537 -549.789288 
L 332.877927 -549.860558 
L 326.803317 -550.172543 
L 320.728708 -549.434331 
L 314.654098 -548.798487 
L 308.579488 -548.40511 
L 302.504878 -548.232257 
L 296.430269 -548.259408 
L 290.355659 -548.467604 
L 284.281049 -546.978843 
L 278.206439 -542.89919 
L 272.13183 -537.762364 
L 266.05722 -533.522725 
L 259.98261 -530.187495 
L 253.908 -527.672358 
L 247.833391 -524.401608 
L 241.758781 -520.974638 
L 235.684171 -518.239967 
L 229.609562 -515.502483 
L 223.534952 -512.152184 
L 217.460342 -508.812078 
L 211.385732 -505.482032 
L 205.311123 -502.036256 
L 199.236513 -498.133593 
L 193.161903 -494.23093 
L 187.087293 -490.328267 
L 181.012684 -486.425604 
L 174.938074 -482.522941 
L 168.863464 -478.620278 
L 162.788854 -474.717615 
L 156.714245 -470.814952 
L 150.639635 -466.912289 
L 144.565025 -463.009626 
L 138.490416 -459.106963 
L 132.415806 -455.2043 
L 126.341196 -451.301637 
L 120.266586 -447.398974 
L 114.191977 -443.496311 
L 108.117367 -439.593648 
L 102.042757 -435.690985 
L 95.968147 -431.788322 
L 89.893538 -427.885659 
L 83.818928 -423.982996 
L 77.744318 -420.080333 
z
" id="m8e58f54bae" style="stroke:#003f5c;stroke-opacity:0.2;"/>
    </defs>
    <g clip-path="url(#p55f53adc23)">
     <use style="fill:#003f5c;fill-opacity:0.2;stroke:#003f5c;stroke-opacity:0.2;" x="0" xlink:href="#m8e58f54bae" y="720"/>
    </g>
   </g>
   <g id="PolyCollection_2">
    <defs>
     <path d="M 77.744318 -440.445315 
L 77.744318 -287.518182 
L 83.818928 -287.518182 
L 89.893538 -287.518182 
L 95.968147 -287.518182 
L 102.042757 -287.518182 
L 108.117367 -287.518182 
L 114.191977 -287.518182 
L 120.266586 -287.518182 
L 126.341196 -287.518182 
L 132.415806 -287.518182 
L 138.490416 -287.518182 
L 144.565025 -287.518182 
L 150.639635 -287.518182 
L 156.714245 -287.518182 
L 162.788854 -287.518182 
L 168.863464 -287.518182 
L 174.938074 -287.518182 
L 181.012684 -287.518182 
L 187.087293 -287.518182 
L 193.161903 -287.518182 
L 199.236513 -287.518182 
L 205.311123 -287.518182 
L 211.385732 -287.518182 
L 217.460342 -287.518182 
L 223.534952 -287.518182 
L 229.609562 -287.518182 
L 235.684171 -287.518182 
L 241.758781 -287.518182 
L 247.833391 -287.518182 
L 253.908 -287.518182 
L 259.98261 -287.518182 
L 266.05722 -287.518182 
L 272.13183 -287.518182 
L 278.206439 -287.518182 
L 284.281049 -287.518182 
L 290.355659 -292.510149 
L 296.430269 -304.132365 
L 302.504878 -312.940892 
L 308.579488 -318.581974 
L 314.654098 -320.916489 
L 320.728708 -320.070271 
L 326.803317 -323.049242 
L 332.877927 -334.590545 
L 338.952537 -346.194338 
L 345.027146 -358.34699 
L 351.101756 -371.578428 
L 357.176366 -385.176923 
L 363.250976 -397.270575 
L 369.325585 -408.251976 
L 375.400195 -417.556512 
L 381.474805 -423.38079 
L 387.549415 -425.395872 
L 393.624024 -423.925188 
L 399.698634 -419.934413 
L 405.773244 -418.460211 
L 411.847854 -418.648504 
L 417.922463 -426.116232 
L 423.997073 -433.763558 
L 430.071683 -440.836371 
L 436.146292 -449.634808 
L 442.220902 -457.050168 
L 448.295512 -462.043338 
L 454.370122 -466.700496 
L 460.444731 -473.063479 
L 466.519341 -479.789479 
L 472.593951 -484.517996 
L 478.668561 -487.938253 
L 484.74317 -491.85255 
L 490.81778 -495.084481 
L 496.89239 -497.580438 
L 502.967 -499.391059 
L 509.041609 -500.583488 
L 515.116219 -501.232396 
L 521.190829 -501.412467 
L 527.265438 -501.214522 
L 533.340048 -504.145789 
L 539.414658 -510.402794 
L 545.489268 -516.354802 
L 551.563877 -521.669101 
L 557.638487 -526.41081 
L 563.713097 -530.662734 
L 569.787707 -534.569504 
L 575.862316 -538.510712 
L 581.936926 -542.016264 
L 588.011536 -545.971228 
L 594.086146 -549.672763 
L 600.160755 -552.795896 
L 606.235365 -555.759281 
L 612.309975 -558.569138 
L 618.384584 -562.199158 
L 624.459194 -565.725606 
L 630.533804 -569.150071 
L 636.608414 -572.474528 
L 642.683023 -575.701298 
L 648.757633 -578.833002 
L 654.832243 -582.141145 
L 660.906853 -586.043808 
L 666.981462 -589.946471 
L 673.056072 -593.849134 
L 679.130682 -597.751797 
L 679.130682 -673.881818 
L 679.130682 -673.881818 
L 673.056072 -673.881818 
L 666.981462 -673.881818 
L 660.906853 -673.881818 
L 654.832243 -673.881818 
L 648.757633 -673.881818 
L 642.683023 -673.881818 
L 636.608414 -673.881818 
L 630.533804 -673.881818 
L 624.459194 -673.881818 
L 618.384584 -673.881818 
L 612.309975 -673.881818 
L 606.235365 -673.881818 
L 600.160755 -673.881818 
L 594.086146 -673.881818 
L 588.011536 -673.881818 
L 581.936926 -673.881818 
L 575.862316 -673.881818 
L 569.787707 -672.698265 
L 563.713097 -668.799708 
L 557.638487 -665.246306 
L 551.563877 -662.18269 
L 545.489268 -659.691662 
L 539.414658 -657.838345 
L 533.340048 -656.290023 
L 527.265438 -651.415964 
L 521.190829 -643.412694 
L 515.116219 -635.787439 
L 509.041609 -628.631021 
L 502.967 -622.018124 
L 496.89239 -616.023418 
L 490.81778 -610.71405 
L 484.74317 -606.140655 
L 478.668561 -602.249626 
L 472.593951 -597.864557 
L 466.519341 -594.787748 
L 460.444731 -593.708422 
L 454.370122 -592.266079 
L 448.295512 -589.117911 
L 442.220902 -586.305755 
L 436.146292 -585.915789 
L 430.071683 -586.9089 
L 423.997073 -586.176387 
L 417.922463 -586.018387 
L 411.847854 -585.680789 
L 405.773244 -578.063756 
L 399.698634 -568.784228 
L 393.624024 -556.988127 
L 387.549415 -547.712117 
L 381.474805 -541.921873 
L 375.400195 -539.940825 
L 369.325585 -541.440035 
L 363.250976 -544.61611 
L 357.176366 -548.904436 
L 351.101756 -554.697605 
L 345.027146 -560.123717 
L 338.952537 -564.471043 
L 332.877927 -568.26951 
L 326.803317 -572.005487 
L 320.728708 -567.179132 
L 314.654098 -558.527589 
L 308.579488 -553.056777 
L 302.504878 -550.892534 
L 296.430269 -551.895734 
L 290.355659 -555.712624 
L 284.281049 -554.396478 
L 278.206439 -551.902278 
L 272.13183 -549.411655 
L 266.05722 -547.439679 
L 259.98261 -545.9651 
L 253.908 -544.962806 
L 247.833391 -543.841555 
L 241.758781 -542.26183 
L 235.684171 -539.900345 
L 229.609562 -536.450234 
L 223.534952 -533.005716 
L 217.460342 -529.623818 
L 211.385732 -526.303901 
L 205.311123 -522.401238 
L 199.236513 -518.498575 
L 193.161903 -514.595912 
L 187.087293 -510.693249 
L 181.012684 -506.790586 
L 174.938074 -502.887923 
L 168.863464 -498.98526 
L 162.788854 -495.082597 
L 156.714245 -491.179934 
L 150.639635 -487.277271 
L 144.565025 -483.374608 
L 138.490416 -479.471945 
L 132.415806 -475.569282 
L 126.341196 -471.666619 
L 120.266586 -467.763956 
L 114.191977 -463.861293 
L 108.117367 -459.95863 
L 102.042757 -456.055967 
L 95.968147 -452.153304 
L 89.893538 -448.250641 
L 83.818928 -444.347978 
L 77.744318 -440.445315 
z
" id="m3ed3a8a1cb" style="stroke:#58508d;stroke-opacity:0.2;"/>
    </defs>
    <g clip-path="url(#p55f53adc23)">
     <use style="fill:#58508d;fill-opacity:0.2;stroke:#58508d;stroke-opacity:0.2;" x="0" xlink:href="#m3ed3a8a1cb" y="720"/>
    </g>
   </g>
   <g id="PolyCollection_3">
    <defs>
     <path d="M 77.744318 -403.113823 
L 77.744318 -287.518182 
L 83.818928 -287.518182 
L 89.893538 -287.518182 
L 95.968147 -287.518182 
L 102.042757 -287.518182 
L 108.117367 -287.518182 
L 114.191977 -287.518182 
L 120.266586 -287.518182 
L 126.341196 -287.518182 
L 132.415806 -287.518182 
L 138.490416 -287.518182 
L 144.565025 -287.518182 
L 150.639635 -287.518182 
L 156.714245 -287.518182 
L 162.788854 -287.518182 
L 168.863464 -287.518182 
L 174.938074 -287.518182 
L 181.012684 -287.518182 
L 187.087293 -287.518182 
L 193.161903 -287.518182 
L 199.236513 -287.518182 
L 205.311123 -287.518182 
L 211.385732 -287.518182 
L 217.460342 -287.518182 
L 223.534952 -287.518182 
L 229.609562 -287.518182 
L 235.684171 -287.518182 
L 241.758781 -287.518182 
L 247.833391 -287.518182 
L 253.908 -287.518182 
L 259.98261 -287.518182 
L 266.05722 -290.043715 
L 272.13183 -298.142562 
L 278.206439 -305.590382 
L 284.281049 -311.930915 
L 290.355659 -316.927247 
L 296.430269 -320.478942 
L 302.504878 -322.599916 
L 308.579488 -323.358146 
L 314.654098 -322.863588 
L 320.728708 -329.229844 
L 326.803317 -340.499974 
L 332.877927 -346.032715 
L 338.952537 -340.83315 
L 345.027146 -340.365901 
L 351.101756 -345.962936 
L 357.176366 -352.344542 
L 363.250976 -359.013754 
L 369.325585 -365.172822 
L 375.400195 -370.024505 
L 381.474805 -372.825527 
L 387.549415 -374.13745 
L 393.624024 -375.272377 
L 399.698634 -377.732453 
L 405.773244 -380.886674 
L 411.847854 -385.634739 
L 417.922463 -390.8925 
L 423.997073 -397.539156 
L 430.071683 -405.082855 
L 436.146292 -401.947824 
L 442.220902 -392.008847 
L 448.295512 -395.619886 
L 454.370122 -404.134955 
L 460.444731 -413.469913 
L 466.519341 -422.811599 
L 472.593951 -432.463488 
L 478.668561 -441.811519 
L 484.74317 -451.165979 
L 490.81778 -458.160569 
L 496.89239 -459.857278 
L 502.967 -456.585828 
L 509.041609 -449.269596 
L 515.116219 -455.837899 
L 521.190829 -463.390653 
L 527.265438 -470.357806 
L 533.340048 -476.687346 
L 539.414658 -484.802939 
L 545.489268 -494.352521 
L 551.563877 -504.200149 
L 557.638487 -513.780596 
L 563.713097 -523.034503 
L 569.787707 -531.888765 
L 575.862316 -540.679522 
L 581.936926 -549.121263 
L 588.011536 -557.551642 
L 594.086146 -565.276812 
L 600.160755 -572.109223 
L 606.235365 -578.659585 
L 612.309975 -585.830478 
L 618.384584 -592.513467 
L 624.459194 -600.566584 
L 630.533804 -604.333308 
L 636.608414 -604.123468 
L 642.683023 -600.336697 
L 648.757633 -595.110658 
L 654.832243 -597.516588 
L 660.906853 -600.326552 
L 666.981462 -603.035026 
L 673.056072 -606.793139 
L 679.130682 -610.809023 
L 679.130682 -673.881818 
L 679.130682 -673.881818 
L 673.056072 -673.881818 
L 666.981462 -673.881818 
L 660.906853 -673.881818 
L 654.832243 -673.881818 
L 648.757633 -673.881818 
L 642.683023 -673.881818 
L 636.608414 -673.881818 
L 630.533804 -673.881818 
L 624.459194 -673.881818 
L 618.384584 -673.881818 
L 612.309975 -673.881818 
L 606.235365 -673.881818 
L 600.160755 -673.881818 
L 594.086146 -673.212261 
L 588.011536 -673.132104 
L 581.936926 -673.757158 
L 575.862316 -673.881818 
L 569.787707 -673.881818 
L 563.713097 -673.881818 
L 557.638487 -673.881818 
L 551.563877 -673.881818 
L 545.489268 -673.881818 
L 539.414658 -673.881818 
L 533.340048 -673.881818 
L 527.265438 -673.881818 
L 521.190829 -673.881818 
L 515.116219 -673.881818 
L 509.041609 -673.881818 
L 502.967 -664.823355 
L 496.89239 -653.746579 
L 490.81778 -647.637962 
L 484.74317 -646.827225 
L 478.668561 -648.37636 
L 472.593951 -649.919065 
L 466.519341 -651.765627 
L 460.444731 -653.301988 
L 454.370122 -654.83162 
L 448.295512 -655.541362 
L 442.220902 -651.347076 
L 436.146292 -633.602773 
L 430.071683 -622.662416 
L 423.997073 -622.400789 
L 417.922463 -621.242119 
L 411.847854 -618.694554 
L 405.773244 -615.637293 
L 399.698634 -610.986188 
L 393.624024 -605.640937 
L 387.549415 -598.970539 
L 381.474805 -592.477136 
L 375.400195 -587.472832 
L 369.325585 -584.519189 
L 363.250976 -582.872931 
L 357.176366 -581.736817 
L 351.101756 -580.313097 
L 345.027146 -578.104806 
L 338.952537 -569.832231 
L 332.877927 -556.82734 
L 326.803317 -554.554755 
L 320.728708 -558.019559 
L 314.654098 -556.58049 
L 308.579488 -548.280605 
L 302.504878 -541.233509 
L 296.430269 -535.549157 
L 290.355659 -531.295527 
L 284.281049 -528.486532 
L 278.206439 -527.021739 
L 272.13183 -526.664233 
L 266.05722 -526.957754 
L 259.98261 -525.360653 
L 253.908 -524.08623 
L 247.833391 -523.115479 
L 241.758781 -520.082451 
L 235.684171 -515.006764 
L 229.609562 -510.288238 
L 223.534952 -505.972169 
L 217.460342 -502.033132 
L 211.385732 -498.471456 
L 205.311123 -488.650696 
L 199.236513 -490.0694 
L 193.161903 -487.523133 
L 187.087293 -479.024665 
L 181.012684 -472.063744 
L 174.938074 -466.761207 
L 168.863464 -463.176537 
L 162.788854 -460.32032 
L 156.714245 -455.484228 
L 150.639635 -450.913522 
L 144.565025 -446.612783 
L 138.490416 -442.584787 
L 132.415806 -438.830417 
L 126.341196 -434.850193 
L 120.266586 -430.394102 
L 114.191977 -426.188036 
L 108.117367 -422.23397 
L 102.042757 -418.53224 
L 95.968147 -414.821812 
L 89.893538 -410.919149 
L 83.818928 -407.016486 
L 77.744318 -403.113823 
z
" id="m07b02c0951" style="stroke:#bc5090;stroke-opacity:0.2;"/>
    </defs>
    <g clip-path="url(#p55f53adc23)">
     <use style="fill:#bc5090;fill-opacity:0.2;stroke:#bc5090;stroke-opacity:0.2;" x="0" xlink:href="#m07b02c0951" y="720"/>
    </g>
   </g>
   <g id="matplotlib.axis_1">
    <g id="xtick_1">
     <g id="line2d_1">
      <defs>
       <path d="M 0 0 
L 0 3.5 
" id="m5e358539bf" style="stroke:#000000;stroke-width:0.8;"/>
      </defs>
      <g>
       <use style="stroke:#000000;stroke-width:0.8;" x="77.744318" xlink:href="#m5e358539bf" y="451.8"/>
      </g>
     </g>
     <g id="text_1">
      <!-- 0.0 -->
      <defs>
       <path d="M 31.78125 66.40625 
Q 24.171875 66.40625 20.328125 58.90625 
Q 16.5 51.421875 16.5 36.375 
Q 16.5 21.390625 20.328125 13.890625 
Q 24.171875 6.390625 31.78125 6.390625 
Q 39.453125 6.390625 43.28125 13.890625 
Q 47.125 21.390625 47.125 36.375 
Q 47.125 51.421875 43.28125 58.90625 
Q 39.453125 66.40625 31.78125 66.40625 
z
M 31.78125 74.21875 
Q 44.046875 74.21875 50.515625 64.515625 
Q 56.984375 54.828125 56.984375 36.375 
Q 56.984375 17.96875 50.515625 8.265625 
Q 44.046875 -1.421875 31.78125 -1.421875 
Q 19.53125 -1.421875 13.0625 8.265625 
Q 6.59375 17.96875 6.59375 36.375 
Q 6.59375 54.828125 13.0625 64.515625 
Q 19.53125 74.21875 31.78125 74.21875 
z
" id="DejaVuSans-48"/>
       <path d="M 10.6875 12.40625 
L 21 12.40625 
L 21 0 
L 10.6875 0 
z
" id="DejaVuSans-46"/>
      </defs>
      <g transform="translate(69.792756 466.398437)scale(0.1 -0.1)">
       <use xlink:href="#DejaVuSans-48"/>
       <use x="63.623047" xlink:href="#DejaVuSans-46"/>
       <use x="95.410156" xlink:href="#DejaVuSans-48"/>
      </g>
     </g>
    </g>
    <g id="xtick_2">
     <g id="line2d_2">
      <g>
       <use style="stroke:#000000;stroke-width:0.8;" x="198.021591" xlink:href="#m5e358539bf" y="451.8"/>
      </g>
     </g>
     <g id="text_2">
      <!-- 0.2 -->
      <defs>
       <path d="M 19.1875 8.296875 
L 53.609375 8.296875 
L 53.609375 0 
L 7.328125 0 
L 7.328125 8.296875 
Q 12.9375 14.109375 22.625 23.890625 
Q 32.328125 33.6875 34.8125 36.53125 
Q 39.546875 41.84375 41.421875 45.53125 
Q 43.3125 49.21875 43.3125 52.78125 
Q 43.3125 58.59375 39.234375 62.25 
Q 35.15625 65.921875 28.609375 65.921875 
Q 23.96875 65.921875 18.8125 64.3125 
Q 13.671875 62.703125 7.8125 59.421875 
L 7.8125 69.390625 
Q 13.765625 71.78125 18.9375 73 
Q 24.125 74.21875 28.421875 74.21875 
Q 39.75 74.21875 46.484375 68.546875 
Q 53.21875 62.890625 53.21875 53.421875 
Q 53.21875 48.921875 51.53125 44.890625 
Q 49.859375 40.875 45.40625 35.40625 
Q 44.1875 33.984375 37.640625 27.21875 
Q 31.109375 20.453125 19.1875 8.296875 
z
" id="DejaVuSans-50"/>
      </defs>
      <g transform="translate(190.070028 466.398437)scale(0.1 -0.1)">
       <use xlink:href="#DejaVuSans-48"/>
       <use x="63.623047" xlink:href="#DejaVuSans-46"/>
       <use x="95.410156" xlink:href="#DejaVuSans-50"/>
      </g>
     </g>
    </g>
    <g id="xtick_3">
     <g id="line2d_3">
      <g>
       <use style="stroke:#000000;stroke-width:0.8;" x="318.298864" xlink:href="#m5e358539bf" y="451.8"/>
      </g>
     </g>
     <g id="text_3">
      <!-- 0.4 -->
      <defs>
       <path d="M 37.796875 64.3125 
L 12.890625 25.390625 
L 37.796875 25.390625 
z
M 35.203125 72.90625 
L 47.609375 72.90625 
L 47.609375 25.390625 
L 58.015625 25.390625 
L 58.015625 17.1875 
L 47.609375 17.1875 
L 47.609375 0 
L 37.796875 0 
L 37.796875 17.1875 
L 4.890625 17.1875 
L 4.890625 26.703125 
z
" id="DejaVuSans-52"/>
      </defs>
      <g transform="translate(310.347301 466.398437)scale(0.1 -0.1)">
       <use xlink:href="#DejaVuSans-48"/>
       <use x="63.623047" xlink:href="#DejaVuSans-46"/>
       <use x="95.410156" xlink:href="#DejaVuSans-52"/>
      </g>
     </g>
    </g>
    <g id="xtick_4">
     <g id="line2d_4">
      <g>
       <use style="stroke:#000000;stroke-width:0.8;" x="438.576136" xlink:href="#m5e358539bf" y="451.8"/>
      </g>
     </g>
     <g id="text_4">
      <!-- 0.6 -->
      <defs>
       <path d="M 33.015625 40.375 
Q 26.375 40.375 22.484375 35.828125 
Q 18.609375 31.296875 18.609375 23.390625 
Q 18.609375 15.53125 22.484375 10.953125 
Q 26.375 6.390625 33.015625 6.390625 
Q 39.65625 6.390625 43.53125 10.953125 
Q 47.40625 15.53125 47.40625 23.390625 
Q 47.40625 31.296875 43.53125 35.828125 
Q 39.65625 40.375 33.015625 40.375 
z
M 52.59375 71.296875 
L 52.59375 62.3125 
Q 48.875 64.0625 45.09375 64.984375 
Q 41.3125 65.921875 37.59375 65.921875 
Q 27.828125 65.921875 22.671875 59.328125 
Q 17.53125 52.734375 16.796875 39.40625 
Q 19.671875 43.65625 24.015625 45.921875 
Q 28.375 48.1875 33.59375 48.1875 
Q 44.578125 48.1875 50.953125 41.515625 
Q 57.328125 34.859375 57.328125 23.390625 
Q 57.328125 12.15625 50.6875 5.359375 
Q 44.046875 -1.421875 33.015625 -1.421875 
Q 20.359375 -1.421875 13.671875 8.265625 
Q 6.984375 17.96875 6.984375 36.375 
Q 6.984375 53.65625 15.1875 63.9375 
Q 23.390625 74.21875 37.203125 74.21875 
Q 40.921875 74.21875 44.703125 73.484375 
Q 48.484375 72.75 52.59375 71.296875 
z
" id="DejaVuSans-54"/>
      </defs>
      <g transform="translate(430.624574 466.398437)scale(0.1 -0.1)">
       <use xlink:href="#DejaVuSans-48"/>
       <use x="63.623047" xlink:href="#DejaVuSans-46"/>
       <use x="95.410156" xlink:href="#DejaVuSans-54"/>
      </g>
     </g>
    </g>
    <g id="xtick_5">
     <g id="line2d_5">
      <g>
       <use style="stroke:#000000;stroke-width:0.8;" x="558.853409" xlink:href="#m5e358539bf" y="451.8"/>
      </g>
     </g>
     <g id="text_5">
      <!-- 0.8 -->
      <defs>
       <path d="M 31.78125 34.625 
Q 24.75 34.625 20.71875 30.859375 
Q 16.703125 27.09375 16.703125 20.515625 
Q 16.703125 13.921875 20.71875 10.15625 
Q 24.75 6.390625 31.78125 6.390625 
Q 38.8125 6.390625 42.859375 10.171875 
Q 46.921875 13.96875 46.921875 20.515625 
Q 46.921875 27.09375 42.890625 30.859375 
Q 38.875 34.625 31.78125 34.625 
z
M 21.921875 38.8125 
Q 15.578125 40.375 12.03125 44.71875 
Q 8.5 49.078125 8.5 55.328125 
Q 8.5 64.0625 14.71875 69.140625 
Q 20.953125 74.21875 31.78125 74.21875 
Q 42.671875 74.21875 48.875 69.140625 
Q 55.078125 64.0625 55.078125 55.328125 
Q 55.078125 49.078125 51.53125 44.71875 
Q 48 40.375 41.703125 38.8125 
Q 48.828125 37.15625 52.796875 32.3125 
Q 56.78125 27.484375 56.78125 20.515625 
Q 56.78125 9.90625 50.3125 4.234375 
Q 43.84375 -1.421875 31.78125 -1.421875 
Q 19.734375 -1.421875 13.25 4.234375 
Q 6.78125 9.90625 6.78125 20.515625 
Q 6.78125 27.484375 10.78125 32.3125 
Q 14.796875 37.15625 21.921875 38.8125 
z
M 18.3125 54.390625 
Q 18.3125 48.734375 21.84375 45.5625 
Q 25.390625 42.390625 31.78125 42.390625 
Q 38.140625 42.390625 41.71875 45.5625 
Q 45.3125 48.734375 45.3125 54.390625 
Q 45.3125 60.0625 41.71875 63.234375 
Q 38.140625 66.40625 31.78125 66.40625 
Q 25.390625 66.40625 21.84375 63.234375 
Q 18.3125 60.0625 18.3125 54.390625 
z
" id="DejaVuSans-56"/>
      </defs>
      <g transform="translate(550.901847 466.398437)scale(0.1 -0.1)">
       <use xlink:href="#DejaVuSans-48"/>
       <use x="63.623047" xlink:href="#DejaVuSans-46"/>
       <use x="95.410156" xlink:href="#DejaVuSans-56"/>
      </g>
     </g>
    </g>
    <g id="xtick_6">
     <g id="line2d_6">
      <g>
       <use style="stroke:#000000;stroke-width:0.8;" x="679.130682" xlink:href="#m5e358539bf" y="451.8"/>
      </g>
     </g>
     <g id="text_6">
      <!-- 1.0 -->
      <defs>
       <path d="M 12.40625 8.296875 
L 28.515625 8.296875 
L 28.515625 63.921875 
L 10.984375 60.40625 
L 10.984375 69.390625 
L 28.421875 72.90625 
L 38.28125 72.90625 
L 38.28125 8.296875 
L 54.390625 8.296875 
L 54.390625 0 
L 12.40625 0 
z
" id="DejaVuSans-49"/>
      </defs>
      <g transform="translate(671.179119 466.398437)scale(0.1 -0.1)">
       <use xlink:href="#DejaVuSans-49"/>
       <use x="63.623047" xlink:href="#DejaVuSans-46"/>
       <use x="95.410156" xlink:href="#DejaVuSans-48"/>
      </g>
     </g>
    </g>
   </g>
   <g id="matplotlib.axis_2">
    <g id="ytick_1">
     <g id="line2d_7">
      <defs>
       <path d="M 0 0 
L -3.5 0 
" id="m47cfb36d51" style="stroke:#000000;stroke-width:0.8;"/>
      </defs>
      <g>
       <use style="stroke:#000000;stroke-width:0.8;" x="47.675" xlink:href="#m47cfb36d51" y="432.481818"/>
      </g>
     </g>
     <g id="text_7">
      <!-- 0.0 -->
      <g transform="translate(24.771875 436.281037)scale(0.1 -0.1)">
       <use xlink:href="#DejaVuSans-48"/>
       <use x="63.623047" xlink:href="#DejaVuSans-46"/>
       <use x="95.410156" xlink:href="#DejaVuSans-48"/>
      </g>
     </g>
    </g>
    <g id="ytick_2">
     <g id="line2d_8">
      <g>
       <use style="stroke:#000000;stroke-width:0.8;" x="47.675" xlink:href="#m47cfb36d51" y="355.209091"/>
      </g>
     </g>
     <g id="text_8">
      <!-- 0.2 -->
      <g transform="translate(24.771875 359.00831)scale(0.1 -0.1)">
       <use xlink:href="#DejaVuSans-48"/>
       <use x="63.623047" xlink:href="#DejaVuSans-46"/>
       <use x="95.410156" xlink:href="#DejaVuSans-50"/>
      </g>
     </g>
    </g>
    <g id="ytick_3">
     <g id="line2d_9">
      <g>
       <use style="stroke:#000000;stroke-width:0.8;" x="47.675" xlink:href="#m47cfb36d51" y="277.936364"/>
      </g>
     </g>
     <g id="text_9">
      <!-- 0.4 -->
      <g transform="translate(24.771875 281.735582)scale(0.1 -0.1)">
       <use xlink:href="#DejaVuSans-48"/>
       <use x="63.623047" xlink:href="#DejaVuSans-46"/>
       <use x="95.410156" xlink:href="#DejaVuSans-52"/>
      </g>
     </g>
    </g>
    <g id="ytick_4">
     <g id="line2d_10">
      <g>
       <use style="stroke:#000000;stroke-width:0.8;" x="47.675" xlink:href="#m47cfb36d51" y="200.663636"/>
      </g>
     </g>
     <g id="text_10">
      <!-- 0.6 -->
      <g transform="translate(24.771875 204.462855)scale(0.1 -0.1)">
       <use xlink:href="#DejaVuSans-48"/>
       <use x="63.623047" xlink:href="#DejaVuSans-46"/>
       <use x="95.410156" xlink:href="#DejaVuSans-54"/>
      </g>
     </g>
    </g>
    <g id="ytick_5">
     <g id="line2d_11">
      <g>
       <use style="stroke:#000000;stroke-width:0.8;" x="47.675" xlink:href="#m47cfb36d51" y="123.390909"/>
      </g>
     </g>
     <g id="text_11">
      <!-- 0.8 -->
      <g transform="translate(24.771875 127.190128)scale(0.1 -0.1)">
       <use xlink:href="#DejaVuSans-48"/>
       <use x="63.623047" xlink:href="#DejaVuSans-46"/>
       <use x="95.410156" xlink:href="#DejaVuSans-56"/>
      </g>
     </g>
    </g>
    <g id="ytick_6">
     <g id="line2d_12">
      <g>
       <use style="stroke:#000000;stroke-width:0.8;" x="47.675" xlink:href="#m47cfb36d51" y="46.118182"/>
      </g>
     </g>
     <g id="text_12">
      <!-- 1.0 -->
      <g transform="translate(24.771875 49.917401)scale(0.1 -0.1)">
       <use xlink:href="#DejaVuSans-49"/>
       <use x="63.623047" xlink:href="#DejaVuSans-46"/>
       <use x="95.410156" xlink:href="#DejaVuSans-48"/>
      </g>
     </g>
    </g>
    <g id="text_13">
     <!-- Fraction of positives -->
     <defs>
      <path d="M 9.8125 72.90625 
L 51.703125 72.90625 
L 51.703125 64.59375 
L 19.671875 64.59375 
L 19.671875 43.109375 
L 48.578125 43.109375 
L 48.578125 34.8125 
L 19.671875 34.8125 
L 19.671875 0 
L 9.8125 0 
z
" id="DejaVuSans-70"/>
      <path d="M 41.109375 46.296875 
Q 39.59375 47.171875 37.8125 47.578125 
Q 36.03125 48 33.890625 48 
Q 26.265625 48 22.1875 43.046875 
Q 18.109375 38.09375 18.109375 28.8125 
L 18.109375 0 
L 9.078125 0 
L 9.078125 54.6875 
L 18.109375 54.6875 
L 18.109375 46.1875 
Q 20.953125 51.171875 25.484375 53.578125 
Q 30.03125 56 36.53125 56 
Q 37.453125 56 38.578125 55.875 
Q 39.703125 55.765625 41.0625 55.515625 
z
" id="DejaVuSans-114"/>
      <path d="M 34.28125 27.484375 
Q 23.390625 27.484375 19.1875 25 
Q 14.984375 22.515625 14.984375 16.5 
Q 14.984375 11.71875 18.140625 8.90625 
Q 21.296875 6.109375 26.703125 6.109375 
Q 34.1875 6.109375 38.703125 11.40625 
Q 43.21875 16.703125 43.21875 25.484375 
L 43.21875 27.484375 
z
M 52.203125 31.203125 
L 52.203125 0 
L 43.21875 0 
L 43.21875 8.296875 
Q 40.140625 3.328125 35.546875 0.953125 
Q 30.953125 -1.421875 24.3125 -1.421875 
Q 15.921875 -1.421875 10.953125 3.296875 
Q 6 8.015625 6 15.921875 
Q 6 25.140625 12.171875 29.828125 
Q 18.359375 34.515625 30.609375 34.515625 
L 43.21875 34.515625 
L 43.21875 35.40625 
Q 43.21875 41.609375 39.140625 45 
Q 35.0625 48.390625 27.6875 48.390625 
Q 23 48.390625 18.546875 47.265625 
Q 14.109375 46.140625 10.015625 43.890625 
L 10.015625 52.203125 
Q 14.9375 54.109375 19.578125 55.046875 
Q 24.21875 56 28.609375 56 
Q 40.484375 56 46.34375 49.84375 
Q 52.203125 43.703125 52.203125 31.203125 
z
" id="DejaVuSans-97"/>
      <path d="M 48.78125 52.59375 
L 48.78125 44.1875 
Q 44.96875 46.296875 41.140625 47.34375 
Q 37.3125 48.390625 33.40625 48.390625 
Q 24.65625 48.390625 19.8125 42.84375 
Q 14.984375 37.3125 14.984375 27.296875 
Q 14.984375 17.28125 19.8125 11.734375 
Q 24.65625 6.203125 33.40625 6.203125 
Q 37.3125 6.203125 41.140625 7.25 
Q 44.96875 8.296875 48.78125 10.40625 
L 48.78125 2.09375 
Q 45.015625 0.34375 40.984375 -0.53125 
Q 36.96875 -1.421875 32.421875 -1.421875 
Q 20.0625 -1.421875 12.78125 6.34375 
Q 5.515625 14.109375 5.515625 27.296875 
Q 5.515625 40.671875 12.859375 48.328125 
Q 20.21875 56 33.015625 56 
Q 37.15625 56 41.109375 55.140625 
Q 45.0625 54.296875 48.78125 52.59375 
z
" id="DejaVuSans-99"/>
      <path d="M 18.3125 70.21875 
L 18.3125 54.6875 
L 36.8125 54.6875 
L 36.8125 47.703125 
L 18.3125 47.703125 
L 18.3125 18.015625 
Q 18.3125 11.328125 20.140625 9.421875 
Q 21.96875 7.515625 27.59375 7.515625 
L 36.8125 7.515625 
L 36.8125 0 
L 27.59375 0 
Q 17.1875 0 13.234375 3.875 
Q 9.28125 7.765625 9.28125 18.015625 
L 9.28125 47.703125 
L 2.6875 47.703125 
L 2.6875 54.6875 
L 9.28125 54.6875 
L 9.28125 70.21875 
z
" id="DejaVuSans-116"/>
      <path d="M 9.421875 54.6875 
L 18.40625 54.6875 
L 18.40625 0 
L 9.421875 0 
z
M 9.421875 75.984375 
L 18.40625 75.984375 
L 18.40625 64.59375 
L 9.421875 64.59375 
z
" id="DejaVuSans-105"/>
      <path d="M 30.609375 48.390625 
Q 23.390625 48.390625 19.1875 42.75 
Q 14.984375 37.109375 14.984375 27.296875 
Q 14.984375 17.484375 19.15625 11.84375 
Q 23.34375 6.203125 30.609375 6.203125 
Q 37.796875 6.203125 41.984375 11.859375 
Q 46.1875 17.53125 46.1875 27.296875 
Q 46.1875 37.015625 41.984375 42.703125 
Q 37.796875 48.390625 30.609375 48.390625 
z
M 30.609375 56 
Q 42.328125 56 49.015625 48.375 
Q 55.71875 40.765625 55.71875 27.296875 
Q 55.71875 13.875 49.015625 6.21875 
Q 42.328125 -1.421875 30.609375 -1.421875 
Q 18.84375 -1.421875 12.171875 6.21875 
Q 5.515625 13.875 5.515625 27.296875 
Q 5.515625 40.765625 12.171875 48.375 
Q 18.84375 56 30.609375 56 
z
" id="DejaVuSans-111"/>
      <path d="M 54.890625 33.015625 
L 54.890625 0 
L 45.90625 0 
L 45.90625 32.71875 
Q 45.90625 40.484375 42.875 44.328125 
Q 39.84375 48.1875 33.796875 48.1875 
Q 26.515625 48.1875 22.3125 43.546875 
Q 18.109375 38.921875 18.109375 30.90625 
L 18.109375 0 
L 9.078125 0 
L 9.078125 54.6875 
L 18.109375 54.6875 
L 18.109375 46.1875 
Q 21.34375 51.125 25.703125 53.5625 
Q 30.078125 56 35.796875 56 
Q 45.21875 56 50.046875 50.171875 
Q 54.890625 44.34375 54.890625 33.015625 
z
" id="DejaVuSans-110"/>
      <path id="DejaVuSans-32"/>
      <path d="M 37.109375 75.984375 
L 37.109375 68.5 
L 28.515625 68.5 
Q 23.6875 68.5 21.796875 66.546875 
Q 19.921875 64.59375 19.921875 59.515625 
L 19.921875 54.6875 
L 34.71875 54.6875 
L 34.71875 47.703125 
L 19.921875 47.703125 
L 19.921875 0 
L 10.890625 0 
L 10.890625 47.703125 
L 2.296875 47.703125 
L 2.296875 54.6875 
L 10.890625 54.6875 
L 10.890625 58.5 
Q 10.890625 67.625 15.140625 71.796875 
Q 19.390625 75.984375 28.609375 75.984375 
z
" id="DejaVuSans-102"/>
      <path d="M 18.109375 8.203125 
L 18.109375 -20.796875 
L 9.078125 -20.796875 
L 9.078125 54.6875 
L 18.109375 54.6875 
L 18.109375 46.390625 
Q 20.953125 51.265625 25.265625 53.625 
Q 29.59375 56 35.59375 56 
Q 45.5625 56 51.78125 48.09375 
Q 58.015625 40.1875 58.015625 27.296875 
Q 58.015625 14.40625 51.78125 6.484375 
Q 45.5625 -1.421875 35.59375 -1.421875 
Q 29.59375 -1.421875 25.265625 0.953125 
Q 20.953125 3.328125 18.109375 8.203125 
z
M 48.6875 27.296875 
Q 48.6875 37.203125 44.609375 42.84375 
Q 40.53125 48.484375 33.40625 48.484375 
Q 26.265625 48.484375 22.1875 42.84375 
Q 18.109375 37.203125 18.109375 27.296875 
Q 18.109375 17.390625 22.1875 11.75 
Q 26.265625 6.109375 33.40625 6.109375 
Q 40.53125 6.109375 44.609375 11.75 
Q 48.6875 17.390625 48.6875 27.296875 
z
" id="DejaVuSans-112"/>
      <path d="M 44.28125 53.078125 
L 44.28125 44.578125 
Q 40.484375 46.53125 36.375 47.5 
Q 32.28125 48.484375 27.875 48.484375 
Q 21.1875 48.484375 17.84375 46.4375 
Q 14.5 44.390625 14.5 40.28125 
Q 14.5 37.15625 16.890625 35.375 
Q 19.28125 33.59375 26.515625 31.984375 
L 29.59375 31.296875 
Q 39.15625 29.25 43.1875 25.515625 
Q 47.21875 21.78125 47.21875 15.09375 
Q 47.21875 7.46875 41.1875 3.015625 
Q 35.15625 -1.421875 24.609375 -1.421875 
Q 20.21875 -1.421875 15.453125 -0.5625 
Q 10.6875 0.296875 5.421875 2 
L 5.421875 11.28125 
Q 10.40625 8.6875 15.234375 7.390625 
Q 20.0625 6.109375 24.8125 6.109375 
Q 31.15625 6.109375 34.5625 8.28125 
Q 37.984375 10.453125 37.984375 14.40625 
Q 37.984375 18.0625 35.515625 20.015625 
Q 33.0625 21.96875 24.703125 23.78125 
L 21.578125 24.515625 
Q 13.234375 26.265625 9.515625 29.90625 
Q 5.8125 33.546875 5.8125 39.890625 
Q 5.8125 47.609375 11.28125 51.796875 
Q 16.75 56 26.8125 56 
Q 31.78125 56 36.171875 55.265625 
Q 40.578125 54.546875 44.28125 53.078125 
z
" id="DejaVuSans-115"/>
      <path d="M 2.984375 54.6875 
L 12.5 54.6875 
L 29.59375 8.796875 
L 46.6875 54.6875 
L 56.203125 54.6875 
L 35.6875 0 
L 23.484375 0 
z
" id="DejaVuSans-118"/>
      <path d="M 56.203125 29.59375 
L 56.203125 25.203125 
L 14.890625 25.203125 
Q 15.484375 15.921875 20.484375 11.0625 
Q 25.484375 6.203125 34.421875 6.203125 
Q 39.59375 6.203125 44.453125 7.46875 
Q 49.3125 8.734375 54.109375 11.28125 
L 54.109375 2.78125 
Q 49.265625 0.734375 44.1875 -0.34375 
Q 39.109375 -1.421875 33.890625 -1.421875 
Q 20.796875 -1.421875 13.15625 6.1875 
Q 5.515625 13.8125 5.515625 26.8125 
Q 5.515625 40.234375 12.765625 48.109375 
Q 20.015625 56 32.328125 56 
Q 43.359375 56 49.78125 48.890625 
Q 56.203125 41.796875 56.203125 29.59375 
z
M 47.21875 32.234375 
Q 47.125 39.59375 43.09375 43.984375 
Q 39.0625 48.390625 32.421875 48.390625 
Q 24.90625 48.390625 20.390625 44.140625 
Q 15.875 39.890625 15.1875 32.171875 
z
" id="DejaVuSans-101"/>
     </defs>
     <g transform="translate(18.692187 289.83125)rotate(-90)scale(0.1 -0.1)">
      <use xlink:href="#DejaVuSans-70"/>
      <use x="57.410156" xlink:href="#DejaVuSans-114"/>
      <use x="98.523438" xlink:href="#DejaVuSans-97"/>
      <use x="159.802734" xlink:href="#DejaVuSans-99"/>
      <use x="214.783203" xlink:href="#DejaVuSans-116"/>
      <use x="253.992188" xlink:href="#DejaVuSans-105"/>
      <use x="281.775391" xlink:href="#DejaVuSans-111"/>
      <use x="342.957031" xlink:href="#DejaVuSans-110"/>
      <use x="406.335938" xlink:href="#DejaVuSans-32"/>
      <use x="438.123047" xlink:href="#DejaVuSans-111"/>
      <use x="499.304688" xlink:href="#DejaVuSans-102"/>
      <use x="534.509766" xlink:href="#DejaVuSans-32"/>
      <use x="566.296875" xlink:href="#DejaVuSans-112"/>
      <use x="629.773438" xlink:href="#DejaVuSans-111"/>
      <use x="690.955078" xlink:href="#DejaVuSans-115"/>
      <use x="743.054688" xlink:href="#DejaVuSans-105"/>
      <use x="770.837891" xlink:href="#DejaVuSans-116"/>
      <use x="810.046875" xlink:href="#DejaVuSans-105"/>
      <use x="837.830078" xlink:href="#DejaVuSans-118"/>
      <use x="897.009766" xlink:href="#DejaVuSans-101"/>
      <use x="958.533203" xlink:href="#DejaVuSans-115"/>
     </g>
    </g>
   </g>
   <g id="line2d_13">
    <path clip-path="url(#p55f53adc23)" d="M 77.744318 432.481818 
L 679.130682 46.118182 
" style="fill:none;stroke:#000000;stroke-dasharray:1.5,2.475;stroke-dashoffset:0;stroke-width:1.5;"/>
   </g>
   <g id="line2d_14">
    <path clip-path="url(#p55f53adc23)" d="M 77.744318 251.007989 
L 83.818928 251.007989 
L 89.893538 251.007989 
L 95.968147 251.007989 
L 102.042757 251.007989 
L 108.117367 251.007989 
L 114.191977 251.007989 
L 120.266586 251.007989 
L 126.341196 251.007989 
L 132.415806 251.007989 
L 138.490416 251.007989 
L 144.565025 251.007989 
L 150.639635 251.007989 
L 156.714245 251.007989 
L 162.788854 251.007989 
L 168.863464 251.007989 
L 174.938074 251.007989 
L 181.012684 251.007989 
L 187.087293 251.007989 
L 193.161903 251.007989 
L 199.236513 251.007989 
L 205.311123 251.007989 
L 211.385732 250.672021 
L 217.460342 250.244424 
L 223.534952 249.816828 
L 229.609562 249.389232 
L 235.684171 247.243949 
L 241.758781 243.644692 
L 247.833391 240.045434 
L 253.908 237.027332 
L 259.98261 234.365597 
L 266.05722 231.656998 
L 272.13183 228.948398 
L 278.206439 226.239798 
L 284.281049 224.864603 
L 290.355659 225.511601 
L 296.430269 227.44615 
L 302.504878 229.380698 
L 308.579488 231.315247 
L 314.654098 233.249796 
L 320.728708 235.184344 
L 326.803317 237.206859 
L 332.877927 239.928499 
L 338.952537 242.650139 
L 345.027146 244.852527 
L 351.101756 246.888962 
L 357.176366 248.925398 
L 363.250976 251.655288 
L 369.325585 252.670947 
L 375.400195 250.636864 
L 381.474805 244.563565 
L 387.549415 243.444709 
L 393.624024 245.17517 
L 399.698634 246.955022 
L 405.773244 244.711769 
L 411.847854 241.419025 
L 417.922463 231.907768 
L 423.997073 221.035535 
L 430.071683 211.152856 
L 436.146292 201.600603 
L 442.220902 192.04835 
L 448.295512 182.496097 
L 454.370122 173.502603 
L 460.444731 166.020341 
L 466.519341 159.794589 
L 472.593951 156.541344 
L 478.668561 153.529444 
L 484.74317 151.725847 
L 490.81778 149.699823 
L 496.89239 147.072235 
L 502.967 144.444647 
L 509.041609 138.467241 
L 515.116219 130.74793 
L 521.190829 125.542978 
L 527.265438 122.14898 
L 533.340048 120.524864 
L 539.414658 119.493335 
L 545.489268 118.461805 
L 551.563877 117.674728 
L 557.638487 117.500926 
L 563.713097 117.327125 
L 569.787707 117.153323 
L 575.862316 116.979522 
L 581.936926 116.80572 
L 588.011536 116.631919 
L 594.086146 118.93921 
L 600.160755 120.173764 
L 606.235365 121.30341 
L 612.309975 122.433056 
L 618.384584 123.562702 
L 624.459194 124.692349 
L 630.533804 125.821995 
L 636.608414 126.951641 
L 642.683023 128.081287 
L 648.757633 129.210933 
L 654.832243 130.340579 
L 660.906853 131.470225 
L 666.981462 132.599871 
L 673.056072 133.729517 
L 679.130682 134.859163 
" style="fill:none;stroke:#003f5c;stroke-linecap:square;stroke-width:1.5;"/>
   </g>
   <g id="line2d_15">
    <path clip-path="url(#p55f53adc23)" d="M 77.744318 342.330303 
L 83.818928 342.330303 
L 89.893538 342.330303 
L 95.968147 342.330303 
L 102.042757 342.330303 
L 108.117367 342.330303 
L 114.191977 342.330303 
L 120.266586 342.330303 
L 126.341196 342.330303 
L 132.415806 342.330303 
L 138.490416 342.330303 
L 144.565025 342.330303 
L 150.639635 342.330303 
L 156.714245 342.330303 
L 162.788854 342.330303 
L 168.863464 342.330303 
L 174.938074 342.330303 
L 181.012684 342.330303 
L 187.087293 342.330303 
L 193.161903 342.330303 
L 199.236513 342.330303 
L 205.311123 342.330303 
L 211.385732 342.330303 
L 217.460342 341.289593 
L 223.534952 340.248883 
L 229.609562 339.208173 
L 235.684171 338.074876 
L 241.758781 335.041066 
L 247.833391 330.161888 
L 253.908 323.952478 
L 259.98261 316.958864 
L 266.05722 309.965249 
L 272.13183 302.971635 
L 278.206439 295.978021 
L 284.281049 290.225791 
L 290.355659 285.034382 
L 296.430269 273.75535 
L 302.504878 262.476318 
L 308.579488 251.197286 
L 314.654098 239.918254 
L 320.728708 228.639221 
L 326.803317 221.963618 
L 332.877927 222.042743 
L 338.952537 222.838968 
L 345.027146 222.775808 
L 351.101756 223.305146 
L 357.176366 226.026593 
L 363.250976 228.9295 
L 369.325585 231.883818 
L 375.400195 233.8522 
L 381.474805 235.820583 
L 387.549415 237.788965 
L 393.624024 239.757348 
L 399.698634 241.554699 
L 405.773244 239.575111 
L 411.847854 236.363578 
L 417.922463 227.463498 
L 423.997073 219.978622 
L 430.071683 213.543688 
L 436.146292 203.517641 
L 442.220902 192.542039 
L 448.295512 181.566438 
L 454.370122 169.675987 
L 460.444731 161.872999 
L 466.519341 156.071731 
L 472.593951 152.200622 
L 478.668561 149.116636 
L 484.74317 148.819948 
L 490.81778 148.701173 
L 496.89239 148.582398 
L 502.967 148.463623 
L 509.041609 148.344848 
L 515.116219 148.226073 
L 521.190829 148.107297 
L 527.265438 148.03066 
L 533.340048 147.489727 
L 539.414658 144.682652 
L 545.489268 141.875577 
L 551.563877 139.648049 
L 557.638487 137.64035 
L 563.713097 135.632651 
L 569.787707 133.362804 
L 575.862316 130.585665 
L 581.936926 127.921539 
L 588.011536 126.986733 
L 594.086146 126.10581 
L 600.160755 125.785283 
L 606.235365 125.464756 
L 612.309975 125.14423 
L 618.384584 124.223293 
L 624.459194 123.302357 
L 630.533804 122.38142 
L 636.608414 121.460483 
L 642.683023 120.539547 
L 648.757633 119.61861 
L 654.832243 118.974145 
L 660.906853 118.974145 
L 666.981462 118.974145 
L 673.056072 118.974145 
L 679.130682 118.974145 
" style="fill:none;stroke:#58508d;stroke-linecap:square;stroke-width:1.5;"/>
   </g>
   <g id="line2d_16">
    <path clip-path="url(#p55f53adc23)" d="M 77.744318 306.913636 
L 83.818928 306.913636 
L 89.893538 306.913636 
L 95.968147 306.913636 
L 102.042757 306.024702 
L 108.117367 304.226823 
L 114.191977 302.428945 
L 120.266586 300.631067 
L 126.341196 298.833188 
L 132.415806 296.400354 
L 138.490416 293.536343 
L 144.565025 290.672332 
L 150.639635 287.808321 
L 156.714245 284.94431 
L 162.788854 282.080299 
L 168.863464 275.932961 
L 174.938074 270.498283 
L 181.012684 265.063605 
L 187.087293 259.628926 
L 193.161903 254.194248 
L 199.236513 253.788269 
L 205.311123 261.693965 
L 211.385732 260.739576 
L 217.460342 260.854986 
L 223.534952 260.970396 
L 229.609562 261.085806 
L 235.684171 261.369875 
L 241.758781 261.750369 
L 247.833391 261.978086 
L 253.908 261.846845 
L 259.98261 261.709272 
L 266.05722 261.571699 
L 272.13183 259.093006 
L 278.206439 257.85686 
L 284.281049 257.779772 
L 290.355659 258.091574 
L 296.430269 258.403376 
L 302.504878 258.715178 
L 308.579488 259.02698 
L 314.654098 259.338782 
L 320.728708 264.467798 
L 326.803317 276.822634 
L 332.877927 285.311328 
L 338.952537 292.935043 
L 345.027146 290.849745 
L 351.101756 290.246486 
L 357.176366 290.718324 
L 363.250976 288.962814 
L 369.325585 285.440298 
L 375.400195 281.917783 
L 381.474805 276.54075 
L 387.549415 270.658763 
L 393.624024 264.051401 
L 399.698634 255.628171 
L 405.773244 245.900557 
L 411.847854 237.397303 
L 417.922463 229.412742 
L 423.997073 222.087679 
L 430.071683 217.916505 
L 436.146292 211.826975 
L 442.220902 206.79016 
L 448.295512 201.356457 
L 454.370122 193.7574 
L 460.444731 187.133442 
L 466.519341 183.115628 
L 472.593951 179.485583 
L 478.668561 175.68122 
L 484.74317 171.205583 
L 490.81778 172.416715 
L 496.89239 174.652646 
L 502.967 176.888577 
L 509.041609 179.124508 
L 515.116219 173.999218 
L 521.190829 168.172601 
L 527.265438 162.345983 
L 533.340048 156.519365 
L 539.414658 152.914328 
L 545.489268 147.61892 
L 551.563877 140.919533 
L 557.638487 134.220145 
L 563.713097 127.520758 
L 569.787707 120.82137 
L 575.862316 115.019914 
L 581.936926 110.146626 
L 588.011536 105.871051 
L 594.086146 101.595476 
L 600.160755 97.412734 
L 606.235365 94.245921 
L 612.309975 92.493823 
L 618.384584 90.560146 
L 624.459194 92.116216 
L 630.533804 94.284048 
L 636.608414 97.118523 
L 642.683023 100.806781 
L 648.757633 105.988556 
L 654.832243 107.484737 
L 660.906853 108.750567 
L 666.981462 110.016397 
L 673.056072 110.581812 
L 679.130682 110.972078 
" style="fill:none;stroke:#bc5090;stroke-linecap:square;stroke-width:1.5;"/>
   </g>
   <g id="patch_3">
    <path d="M 47.675 451.8 
L 47.675 26.8 
" style="fill:none;stroke:#000000;stroke-linecap:square;stroke-linejoin:miter;stroke-width:0.8;"/>
   </g>
   <g id="patch_4">
    <path d="M 709.2 451.8 
L 709.2 26.8 
" style="fill:none;stroke:#000000;stroke-linecap:square;stroke-linejoin:miter;stroke-width:0.8;"/>
   </g>
   <g id="patch_5">
    <path d="M 47.675 451.8 
L 709.2 451.8 
" style="fill:none;stroke:#000000;stroke-linecap:square;stroke-linejoin:miter;stroke-width:0.8;"/>
   </g>
   <g id="patch_6">
    <path d="M 47.675 26.8 
L 709.2 26.8 
" style="fill:none;stroke:#000000;stroke-linecap:square;stroke-linejoin:miter;stroke-width:0.8;"/>
   </g>
   <g id="text_14">
    <!-- Calibration plots  (reliability curve) -->
    <defs>
     <path d="M 64.40625 67.28125 
L 64.40625 56.890625 
Q 59.421875 61.53125 53.78125 63.8125 
Q 48.140625 66.109375 41.796875 66.109375 
Q 29.296875 66.109375 22.65625 58.46875 
Q 16.015625 50.828125 16.015625 36.375 
Q 16.015625 21.96875 22.65625 14.328125 
Q 29.296875 6.6875 41.796875 6.6875 
Q 48.140625 6.6875 53.78125 8.984375 
Q 59.421875 11.28125 64.40625 15.921875 
L 64.40625 5.609375 
Q 59.234375 2.09375 53.4375 0.328125 
Q 47.65625 -1.421875 41.21875 -1.421875 
Q 24.65625 -1.421875 15.125 8.703125 
Q 5.609375 18.84375 5.609375 36.375 
Q 5.609375 53.953125 15.125 64.078125 
Q 24.65625 74.21875 41.21875 74.21875 
Q 47.75 74.21875 53.53125 72.484375 
Q 59.328125 70.75 64.40625 67.28125 
z
" id="DejaVuSans-67"/>
     <path d="M 9.421875 75.984375 
L 18.40625 75.984375 
L 18.40625 0 
L 9.421875 0 
z
" id="DejaVuSans-108"/>
     <path d="M 48.6875 27.296875 
Q 48.6875 37.203125 44.609375 42.84375 
Q 40.53125 48.484375 33.40625 48.484375 
Q 26.265625 48.484375 22.1875 42.84375 
Q 18.109375 37.203125 18.109375 27.296875 
Q 18.109375 17.390625 22.1875 11.75 
Q 26.265625 6.109375 33.40625 6.109375 
Q 40.53125 6.109375 44.609375 11.75 
Q 48.6875 17.390625 48.6875 27.296875 
z
M 18.109375 46.390625 
Q 20.953125 51.265625 25.265625 53.625 
Q 29.59375 56 35.59375 56 
Q 45.5625 56 51.78125 48.09375 
Q 58.015625 40.1875 58.015625 27.296875 
Q 58.015625 14.40625 51.78125 6.484375 
Q 45.5625 -1.421875 35.59375 -1.421875 
Q 29.59375 -1.421875 25.265625 0.953125 
Q 20.953125 3.328125 18.109375 8.203125 
L 18.109375 0 
L 9.078125 0 
L 9.078125 75.984375 
L 18.109375 75.984375 
z
" id="DejaVuSans-98"/>
     <path d="M 31 75.875 
Q 24.46875 64.65625 21.28125 53.65625 
Q 18.109375 42.671875 18.109375 31.390625 
Q 18.109375 20.125 21.3125 9.0625 
Q 24.515625 -2 31 -13.1875 
L 23.1875 -13.1875 
Q 15.875 -1.703125 12.234375 9.375 
Q 8.59375 20.453125 8.59375 31.390625 
Q 8.59375 42.28125 12.203125 53.3125 
Q 15.828125 64.359375 23.1875 75.875 
z
" id="DejaVuSans-40"/>
     <path d="M 32.171875 -5.078125 
Q 28.375 -14.84375 24.75 -17.8125 
Q 21.140625 -20.796875 15.09375 -20.796875 
L 7.90625 -20.796875 
L 7.90625 -13.28125 
L 13.1875 -13.28125 
Q 16.890625 -13.28125 18.9375 -11.515625 
Q 21 -9.765625 23.484375 -3.21875 
L 25.09375 0.875 
L 2.984375 54.6875 
L 12.5 54.6875 
L 29.59375 11.921875 
L 46.6875 54.6875 
L 56.203125 54.6875 
z
" id="DejaVuSans-121"/>
     <path d="M 8.5 21.578125 
L 8.5 54.6875 
L 17.484375 54.6875 
L 17.484375 21.921875 
Q 17.484375 14.15625 20.5 10.265625 
Q 23.53125 6.390625 29.59375 6.390625 
Q 36.859375 6.390625 41.078125 11.03125 
Q 45.3125 15.671875 45.3125 23.6875 
L 45.3125 54.6875 
L 54.296875 54.6875 
L 54.296875 0 
L 45.3125 0 
L 45.3125 8.40625 
Q 42.046875 3.421875 37.71875 1 
Q 33.40625 -1.421875 27.6875 -1.421875 
Q 18.265625 -1.421875 13.375 4.4375 
Q 8.5 10.296875 8.5 21.578125 
z
M 31.109375 56 
z
" id="DejaVuSans-117"/>
     <path d="M 8.015625 75.875 
L 15.828125 75.875 
Q 23.140625 64.359375 26.78125 53.3125 
Q 30.421875 42.28125 30.421875 31.390625 
Q 30.421875 20.453125 26.78125 9.375 
Q 23.140625 -1.703125 15.828125 -13.1875 
L 8.015625 -13.1875 
Q 14.5 -2 17.703125 9.0625 
Q 20.90625 20.125 20.90625 31.390625 
Q 20.90625 42.671875 17.703125 53.65625 
Q 14.5 64.65625 8.015625 75.875 
z
" id="DejaVuSans-41"/>
    </defs>
    <g transform="translate(274.165938 20.8)scale(0.12 -0.12)">
     <use xlink:href="#DejaVuSans-67"/>
     <use x="69.824219" xlink:href="#DejaVuSans-97"/>
     <use x="131.103516" xlink:href="#DejaVuSans-108"/>
     <use x="158.886719" xlink:href="#DejaVuSans-105"/>
     <use x="186.669922" xlink:href="#DejaVuSans-98"/>
     <use x="250.146484" xlink:href="#DejaVuSans-114"/>
     <use x="291.259766" xlink:href="#DejaVuSans-97"/>
     <use x="352.539062" xlink:href="#DejaVuSans-116"/>
     <use x="391.748047" xlink:href="#DejaVuSans-105"/>
     <use x="419.53125" xlink:href="#DejaVuSans-111"/>
     <use x="480.712891" xlink:href="#DejaVuSans-110"/>
     <use x="544.091797" xlink:href="#DejaVuSans-32"/>
     <use x="575.878906" xlink:href="#DejaVuSans-112"/>
     <use x="639.355469" xlink:href="#DejaVuSans-108"/>
     <use x="667.138672" xlink:href="#DejaVuSans-111"/>
     <use x="728.320312" xlink:href="#DejaVuSans-116"/>
     <use x="767.529297" xlink:href="#DejaVuSans-115"/>
     <use x="819.628906" xlink:href="#DejaVuSans-32"/>
     <use x="851.416016" xlink:href="#DejaVuSans-32"/>
     <use x="883.203125" xlink:href="#DejaVuSans-40"/>
     <use x="922.216797" xlink:href="#DejaVuSans-114"/>
     <use x="963.298828" xlink:href="#DejaVuSans-101"/>
     <use x="1024.822266" xlink:href="#DejaVuSans-108"/>
     <use x="1052.605469" xlink:href="#DejaVuSans-105"/>
     <use x="1080.388672" xlink:href="#DejaVuSans-97"/>
     <use x="1141.667969" xlink:href="#DejaVuSans-98"/>
     <use x="1205.144531" xlink:href="#DejaVuSans-105"/>
     <use x="1232.927734" xlink:href="#DejaVuSans-108"/>
     <use x="1260.710938" xlink:href="#DejaVuSans-105"/>
     <use x="1288.494141" xlink:href="#DejaVuSans-116"/>
     <use x="1327.703125" xlink:href="#DejaVuSans-121"/>
     <use x="1386.882812" xlink:href="#DejaVuSans-32"/>
     <use x="1418.669922" xlink:href="#DejaVuSans-99"/>
     <use x="1473.650391" xlink:href="#DejaVuSans-117"/>
     <use x="1537.029297" xlink:href="#DejaVuSans-114"/>
     <use x="1578.142578" xlink:href="#DejaVuSans-118"/>
     <use x="1637.322266" xlink:href="#DejaVuSans-101"/>
     <use x="1698.845703" xlink:href="#DejaVuSans-41"/>
    </g>
   </g>
   <g id="legend_1">
    <g id="patch_7">
     <path d="M 520.41875 446.8 
L 702.2 446.8 
Q 704.2 446.8 704.2 444.8 
L 704.2 387.0875 
Q 704.2 385.0875 702.2 385.0875 
L 520.41875 385.0875 
Q 518.41875 385.0875 518.41875 387.0875 
L 518.41875 444.8 
Q 518.41875 446.8 520.41875 446.8 
z
" style="fill:#ffffff;opacity:0.8;stroke:#cccccc;stroke-linejoin:miter;"/>
    </g>
    <g id="line2d_17">
     <path d="M 522.41875 393.185937 
L 542.41875 393.185937 
" style="fill:none;stroke:#000000;stroke-dasharray:1.5,2.475;stroke-dashoffset:0;stroke-width:1.5;"/>
    </g>
    <g id="line2d_18"/>
    <g id="text_15">
     <!-- Calibration parfaite -->
     <g transform="translate(550.41875 396.685937)scale(0.1 -0.1)">
      <use xlink:href="#DejaVuSans-67"/>
      <use x="69.824219" xlink:href="#DejaVuSans-97"/>
      <use x="131.103516" xlink:href="#DejaVuSans-108"/>
      <use x="158.886719" xlink:href="#DejaVuSans-105"/>
      <use x="186.669922" xlink:href="#DejaVuSans-98"/>
      <use x="250.146484" xlink:href="#DejaVuSans-114"/>
      <use x="291.259766" xlink:href="#DejaVuSans-97"/>
      <use x="352.539062" xlink:href="#DejaVuSans-116"/>
      <use x="391.748047" xlink:href="#DejaVuSans-105"/>
      <use x="419.53125" xlink:href="#DejaVuSans-111"/>
      <use x="480.712891" xlink:href="#DejaVuSans-110"/>
      <use x="544.091797" xlink:href="#DejaVuSans-32"/>
      <use x="575.878906" xlink:href="#DejaVuSans-112"/>
      <use x="639.355469" xlink:href="#DejaVuSans-97"/>
      <use x="700.634766" xlink:href="#DejaVuSans-114"/>
      <use x="741.748047" xlink:href="#DejaVuSans-102"/>
      <use x="776.953125" xlink:href="#DejaVuSans-97"/>
      <use x="838.232422" xlink:href="#DejaVuSans-105"/>
      <use x="866.015625" xlink:href="#DejaVuSans-116"/>
      <use x="905.224609" xlink:href="#DejaVuSans-101"/>
     </g>
    </g>
    <g id="line2d_19">
     <path d="M 522.41875 407.864062 
L 542.41875 407.864062 
" style="fill:none;stroke:#003f5c;stroke-linecap:square;stroke-width:1.5;"/>
    </g>
    <g id="line2d_20"/>
    <g id="text_16">
     <!-- PPrediction (Brier 0.230.03) -->
     <defs>
      <path d="M 19.671875 64.796875 
L 19.671875 37.40625 
L 32.078125 37.40625 
Q 38.96875 37.40625 42.71875 40.96875 
Q 46.484375 44.53125 46.484375 51.125 
Q 46.484375 57.671875 42.71875 61.234375 
Q 38.96875 64.796875 32.078125 64.796875 
z
M 9.8125 72.90625 
L 32.078125 72.90625 
Q 44.34375 72.90625 50.609375 67.359375 
Q 56.890625 61.8125 56.890625 51.125 
Q 56.890625 40.328125 50.609375 34.8125 
Q 44.34375 29.296875 32.078125 29.296875 
L 19.671875 29.296875 
L 19.671875 0 
L 9.8125 0 
z
" id="DejaVuSans-80"/>
      <path d="M 45.40625 46.390625 
L 45.40625 75.984375 
L 54.390625 75.984375 
L 54.390625 0 
L 45.40625 0 
L 45.40625 8.203125 
Q 42.578125 3.328125 38.25 0.953125 
Q 33.9375 -1.421875 27.875 -1.421875 
Q 17.96875 -1.421875 11.734375 6.484375 
Q 5.515625 14.40625 5.515625 27.296875 
Q 5.515625 40.1875 11.734375 48.09375 
Q 17.96875 56 27.875 56 
Q 33.9375 56 38.25 53.625 
Q 42.578125 51.265625 45.40625 46.390625 
z
M 14.796875 27.296875 
Q 14.796875 17.390625 18.875 11.75 
Q 22.953125 6.109375 30.078125 6.109375 
Q 37.203125 6.109375 41.296875 11.75 
Q 45.40625 17.390625 45.40625 27.296875 
Q 45.40625 37.203125 41.296875 42.84375 
Q 37.203125 48.484375 30.078125 48.484375 
Q 22.953125 48.484375 18.875 42.84375 
Q 14.796875 37.203125 14.796875 27.296875 
z
" id="DejaVuSans-100"/>
      <path d="M 19.671875 34.8125 
L 19.671875 8.109375 
L 35.5 8.109375 
Q 43.453125 8.109375 47.28125 11.40625 
Q 51.125 14.703125 51.125 21.484375 
Q 51.125 28.328125 47.28125 31.5625 
Q 43.453125 34.8125 35.5 34.8125 
z
M 19.671875 64.796875 
L 19.671875 42.828125 
L 34.28125 42.828125 
Q 41.5 42.828125 45.03125 45.53125 
Q 48.578125 48.25 48.578125 53.8125 
Q 48.578125 59.328125 45.03125 62.0625 
Q 41.5 64.796875 34.28125 64.796875 
z
M 9.8125 72.90625 
L 35.015625 72.90625 
Q 46.296875 72.90625 52.390625 68.21875 
Q 58.5 63.53125 58.5 54.890625 
Q 58.5 48.1875 55.375 44.234375 
Q 52.25 40.28125 46.1875 39.3125 
Q 53.46875 37.75 57.5 32.78125 
Q 61.53125 27.828125 61.53125 20.40625 
Q 61.53125 10.640625 54.890625 5.3125 
Q 48.25 0 35.984375 0 
L 9.8125 0 
z
" id="DejaVuSans-66"/>
      <path d="M 40.578125 39.3125 
Q 47.65625 37.796875 51.625 33 
Q 55.609375 28.21875 55.609375 21.1875 
Q 55.609375 10.40625 48.1875 4.484375 
Q 40.765625 -1.421875 27.09375 -1.421875 
Q 22.515625 -1.421875 17.65625 -0.515625 
Q 12.796875 0.390625 7.625 2.203125 
L 7.625 11.71875 
Q 11.71875 9.328125 16.59375 8.109375 
Q 21.484375 6.890625 26.8125 6.890625 
Q 36.078125 6.890625 40.9375 10.546875 
Q 45.796875 14.203125 45.796875 21.1875 
Q 45.796875 27.640625 41.28125 31.265625 
Q 36.765625 34.90625 28.71875 34.90625 
L 20.21875 34.90625 
L 20.21875 43.015625 
L 29.109375 43.015625 
Q 36.375 43.015625 40.234375 45.921875 
Q 44.09375 48.828125 44.09375 54.296875 
Q 44.09375 59.90625 40.109375 62.90625 
Q 36.140625 65.921875 28.71875 65.921875 
Q 24.65625 65.921875 20.015625 65.03125 
Q 15.375 64.15625 9.8125 62.3125 
L 9.8125 71.09375 
Q 15.4375 72.65625 20.34375 73.4375 
Q 25.25 74.21875 29.59375 74.21875 
Q 40.828125 74.21875 47.359375 69.109375 
Q 53.90625 64.015625 53.90625 55.328125 
Q 53.90625 49.265625 50.4375 45.09375 
Q 46.96875 40.921875 40.578125 39.3125 
z
" id="DejaVuSans-51"/>
      <path d="M 46 62.703125 
L 46 43.796875 
L 73.1875 43.796875 
L 73.1875 35.5 
L 46 35.5 
L 46 16.609375 
L 37.796875 16.609375 
L 37.796875 35.5 
L 10.59375 35.5 
L 10.59375 43.796875 
L 37.796875 43.796875 
L 37.796875 62.703125 
z
M 10.59375 8.296875 
L 73.1875 8.296875 
L 73.1875 0 
L 10.59375 0 
z
" id="DejaVuSans-177"/>
     </defs>
     <g transform="translate(550.41875 411.364062)scale(0.1 -0.1)">
      <use xlink:href="#DejaVuSans-80"/>
      <use x="60.302734" xlink:href="#DejaVuSans-80"/>
      <use x="120.589844" xlink:href="#DejaVuSans-114"/>
      <use x="161.671875" xlink:href="#DejaVuSans-101"/>
      <use x="223.195312" xlink:href="#DejaVuSans-100"/>
      <use x="286.671875" xlink:href="#DejaVuSans-105"/>
      <use x="314.455078" xlink:href="#DejaVuSans-99"/>
      <use x="369.435547" xlink:href="#DejaVuSans-116"/>
      <use x="408.644531" xlink:href="#DejaVuSans-105"/>
      <use x="436.427734" xlink:href="#DejaVuSans-111"/>
      <use x="497.609375" xlink:href="#DejaVuSans-110"/>
      <use x="560.988281" xlink:href="#DejaVuSans-32"/>
      <use x="592.775391" xlink:href="#DejaVuSans-40"/>
      <use x="631.789062" xlink:href="#DejaVuSans-66"/>
      <use x="700.392578" xlink:href="#DejaVuSans-114"/>
      <use x="741.505859" xlink:href="#DejaVuSans-105"/>
      <use x="769.289062" xlink:href="#DejaVuSans-101"/>
      <use x="830.8125" xlink:href="#DejaVuSans-114"/>
      <use x="871.925781" xlink:href="#DejaVuSans-32"/>
      <use x="903.712891" xlink:href="#DejaVuSans-48"/>
      <use x="967.335938" xlink:href="#DejaVuSans-46"/>
      <use x="999.123047" xlink:href="#DejaVuSans-50"/>
      <use x="1062.746094" xlink:href="#DejaVuSans-51"/>
      <use x="1126.369141" xlink:href="#DejaVuSans-177"/>
      <use x="1210.158203" xlink:href="#DejaVuSans-48"/>
      <use x="1273.78125" xlink:href="#DejaVuSans-46"/>
      <use x="1305.568359" xlink:href="#DejaVuSans-48"/>
      <use x="1369.191406" xlink:href="#DejaVuSans-51"/>
      <use x="1432.814453" xlink:href="#DejaVuSans-41"/>
     </g>
    </g>
    <g id="line2d_21">
     <path d="M 522.41875 422.542187 
L 542.41875 422.542187 
" style="fill:none;stroke:#58508d;stroke-linecap:square;stroke-width:1.5;"/>
    </g>
    <g id="line2d_22"/>
    <g id="text_17">
     <!-- DPrediction (Brier 0.220.04) -->
     <defs>
      <path d="M 19.671875 64.796875 
L 19.671875 8.109375 
L 31.59375 8.109375 
Q 46.6875 8.109375 53.6875 14.9375 
Q 60.6875 21.78125 60.6875 36.53125 
Q 60.6875 51.171875 53.6875 57.984375 
Q 46.6875 64.796875 31.59375 64.796875 
z
M 9.8125 72.90625 
L 30.078125 72.90625 
Q 51.265625 72.90625 61.171875 64.09375 
Q 71.09375 55.28125 71.09375 36.53125 
Q 71.09375 17.671875 61.125 8.828125 
Q 51.171875 0 30.078125 0 
L 9.8125 0 
z
" id="DejaVuSans-68"/>
     </defs>
     <g transform="translate(550.41875 426.042187)scale(0.1 -0.1)">
      <use xlink:href="#DejaVuSans-68"/>
      <use x="77.001953" xlink:href="#DejaVuSans-80"/>
      <use x="137.289062" xlink:href="#DejaVuSans-114"/>
      <use x="178.371094" xlink:href="#DejaVuSans-101"/>
      <use x="239.894531" xlink:href="#DejaVuSans-100"/>
      <use x="303.371094" xlink:href="#DejaVuSans-105"/>
      <use x="331.154297" xlink:href="#DejaVuSans-99"/>
      <use x="386.134766" xlink:href="#DejaVuSans-116"/>
      <use x="425.34375" xlink:href="#DejaVuSans-105"/>
      <use x="453.126953" xlink:href="#DejaVuSans-111"/>
      <use x="514.308594" xlink:href="#DejaVuSans-110"/>
      <use x="577.6875" xlink:href="#DejaVuSans-32"/>
      <use x="609.474609" xlink:href="#DejaVuSans-40"/>
      <use x="648.488281" xlink:href="#DejaVuSans-66"/>
      <use x="717.091797" xlink:href="#DejaVuSans-114"/>
      <use x="758.205078" xlink:href="#DejaVuSans-105"/>
      <use x="785.988281" xlink:href="#DejaVuSans-101"/>
      <use x="847.511719" xlink:href="#DejaVuSans-114"/>
      <use x="888.625" xlink:href="#DejaVuSans-32"/>
      <use x="920.412109" xlink:href="#DejaVuSans-48"/>
      <use x="984.035156" xlink:href="#DejaVuSans-46"/>
      <use x="1015.822266" xlink:href="#DejaVuSans-50"/>
      <use x="1079.445312" xlink:href="#DejaVuSans-50"/>
      <use x="1143.068359" xlink:href="#DejaVuSans-177"/>
      <use x="1226.857422" xlink:href="#DejaVuSans-48"/>
      <use x="1290.480469" xlink:href="#DejaVuSans-46"/>
      <use x="1322.267578" xlink:href="#DejaVuSans-48"/>
      <use x="1385.890625" xlink:href="#DejaVuSans-52"/>
      <use x="1449.513672" xlink:href="#DejaVuSans-41"/>
     </g>
    </g>
    <g id="line2d_23">
     <path d="M 522.41875 437.220312 
L 542.41875 437.220312 
" style="fill:none;stroke:#bc5090;stroke-linecap:square;stroke-width:1.5;"/>
    </g>
    <g id="line2d_24"/>
    <g id="text_18">
     <!-- MPrediction (Brier 0.200.03) -->
     <defs>
      <path d="M 9.8125 72.90625 
L 24.515625 72.90625 
L 43.109375 23.296875 
L 61.8125 72.90625 
L 76.515625 72.90625 
L 76.515625 0 
L 66.890625 0 
L 66.890625 64.015625 
L 48.09375 14.015625 
L 38.1875 14.015625 
L 19.390625 64.015625 
L 19.390625 0 
L 9.8125 0 
z
" id="DejaVuSans-77"/>
     </defs>
     <g transform="translate(550.41875 440.720312)scale(0.1 -0.1)">
      <use xlink:href="#DejaVuSans-77"/>
      <use x="86.279297" xlink:href="#DejaVuSans-80"/>
      <use x="146.566406" xlink:href="#DejaVuSans-114"/>
      <use x="187.648438" xlink:href="#DejaVuSans-101"/>
      <use x="249.171875" xlink:href="#DejaVuSans-100"/>
      <use x="312.648438" xlink:href="#DejaVuSans-105"/>
      <use x="340.431641" xlink:href="#DejaVuSans-99"/>
      <use x="395.412109" xlink:href="#DejaVuSans-116"/>
      <use x="434.621094" xlink:href="#DejaVuSans-105"/>
      <use x="462.404297" xlink:href="#DejaVuSans-111"/>
      <use x="523.585938" xlink:href="#DejaVuSans-110"/>
      <use x="586.964844" xlink:href="#DejaVuSans-32"/>
      <use x="618.751953" xlink:href="#DejaVuSans-40"/>
      <use x="657.765625" xlink:href="#DejaVuSans-66"/>
      <use x="726.369141" xlink:href="#DejaVuSans-114"/>
      <use x="767.482422" xlink:href="#DejaVuSans-105"/>
      <use x="795.265625" xlink:href="#DejaVuSans-101"/>
      <use x="856.789062" xlink:href="#DejaVuSans-114"/>
      <use x="897.902344" xlink:href="#DejaVuSans-32"/>
      <use x="929.689453" xlink:href="#DejaVuSans-48"/>
      <use x="993.3125" xlink:href="#DejaVuSans-46"/>
      <use x="1025.099609" xlink:href="#DejaVuSans-50"/>
      <use x="1088.722656" xlink:href="#DejaVuSans-48"/>
      <use x="1152.345703" xlink:href="#DejaVuSans-177"/>
      <use x="1236.134766" xlink:href="#DejaVuSans-48"/>
      <use x="1299.757812" xlink:href="#DejaVuSans-46"/>
      <use x="1331.544922" xlink:href="#DejaVuSans-48"/>
      <use x="1395.167969" xlink:href="#DejaVuSans-51"/>
      <use x="1458.791016" xlink:href="#DejaVuSans-41"/>
     </g>
    </g>
   </g>
  </g>
  <g id="axes_2">
   <g id="patch_8">
    <path d="M 47.675 678.2 
L 709.2 678.2 
L 709.2 479.6 
L 47.675 479.6 
z
" style="fill:#ffffff;"/>
   </g>
   <g id="patch_9">
    <path clip-path="url(#p48967f3278)" d="M 77.744318 678.2 
L 77.744318 678.2 
L 137.882955 678.2 
L 137.882955 678.2 
L 198.021591 678.2 
L 198.021591 663.650549 
L 258.160227 663.650549 
L 258.160227 678.2 
L 318.298864 678.2 
L 318.298864 590.903297 
L 378.4375 590.903297 
L 378.4375 561.804396 
L 438.576136 561.804396 
L 438.576136 620.002198 
L 498.714773 620.002198 
L 498.714773 663.650549 
L 558.853409 663.650549 
L 558.853409 663.650549 
L 618.992045 663.650549 
L 618.992045 663.650549 
L 679.130682 663.650549 
L 679.130682 678.2 
" style="fill:none;stroke:#003f5c;stroke-linejoin:miter;stroke-width:2;"/>
   </g>
   <g id="patch_10">
    <path clip-path="url(#p48967f3278)" d="M 77.744318 678.2 
L 77.744318 678.2 
L 137.882955 678.2 
L 137.882955 678.2 
L 198.021591 678.2 
L 198.021591 678.2 
L 258.160227 678.2 
L 258.160227 678.2 
L 318.298864 678.2 
L 318.298864 663.650549 
L 378.4375 663.650549 
L 378.4375 561.804396 
L 438.576136 561.804396 
L 438.576136 489.057143 
L 498.714773 489.057143 
L 498.714773 678.2 
L 558.853409 678.2 
L 558.853409 678.2 
L 618.992045 678.2 
L 618.992045 678.2 
L 679.130682 678.2 
L 679.130682 678.2 
" style="fill:none;stroke:#58508d;stroke-linejoin:miter;stroke-width:2;"/>
   </g>
   <g id="patch_11">
    <path clip-path="url(#p48967f3278)" d="M 77.744318 678.2 
L 77.744318 663.650549 
L 137.882955 663.650549 
L 137.882955 678.2 
L 198.021591 678.2 
L 198.021591 561.804396 
L 258.160227 561.804396 
L 258.160227 649.101099 
L 318.298864 649.101099 
L 318.298864 649.101099 
L 378.4375 649.101099 
L 378.4375 649.101099 
L 438.576136 649.101099 
L 438.576136 663.650549 
L 498.714773 663.650549 
L 498.714773 678.2 
L 558.853409 678.2 
L 558.853409 605.452747 
L 618.992045 605.452747 
L 618.992045 663.650549 
L 679.130682 663.650549 
L 679.130682 678.2 
" style="fill:none;stroke:#bc5090;stroke-linejoin:miter;stroke-width:2;"/>
   </g>
   <g id="matplotlib.axis_3">
    <g id="xtick_7">
     <g id="line2d_25">
      <g>
       <use style="stroke:#000000;stroke-width:0.8;" x="77.744318" xlink:href="#m5e358539bf" y="678.2"/>
      </g>
     </g>
     <g id="text_19">
      <!-- 0.0 -->
      <g transform="translate(69.792756 692.798437)scale(0.1 -0.1)">
       <use xlink:href="#DejaVuSans-48"/>
       <use x="63.623047" xlink:href="#DejaVuSans-46"/>
       <use x="95.410156" xlink:href="#DejaVuSans-48"/>
      </g>
     </g>
    </g>
    <g id="xtick_8">
     <g id="line2d_26">
      <g>
       <use style="stroke:#000000;stroke-width:0.8;" x="198.021591" xlink:href="#m5e358539bf" y="678.2"/>
      </g>
     </g>
     <g id="text_20">
      <!-- 0.2 -->
      <g transform="translate(190.070028 692.798437)scale(0.1 -0.1)">
       <use xlink:href="#DejaVuSans-48"/>
       <use x="63.623047" xlink:href="#DejaVuSans-46"/>
       <use x="95.410156" xlink:href="#DejaVuSans-50"/>
      </g>
     </g>
    </g>
    <g id="xtick_9">
     <g id="line2d_27">
      <g>
       <use style="stroke:#000000;stroke-width:0.8;" x="318.298864" xlink:href="#m5e358539bf" y="678.2"/>
      </g>
     </g>
     <g id="text_21">
      <!-- 0.4 -->
      <g transform="translate(310.347301 692.798437)scale(0.1 -0.1)">
       <use xlink:href="#DejaVuSans-48"/>
       <use x="63.623047" xlink:href="#DejaVuSans-46"/>
       <use x="95.410156" xlink:href="#DejaVuSans-52"/>
      </g>
     </g>
    </g>
    <g id="xtick_10">
     <g id="line2d_28">
      <g>
       <use style="stroke:#000000;stroke-width:0.8;" x="438.576136" xlink:href="#m5e358539bf" y="678.2"/>
      </g>
     </g>
     <g id="text_22">
      <!-- 0.6 -->
      <g transform="translate(430.624574 692.798437)scale(0.1 -0.1)">
       <use xlink:href="#DejaVuSans-48"/>
       <use x="63.623047" xlink:href="#DejaVuSans-46"/>
       <use x="95.410156" xlink:href="#DejaVuSans-54"/>
      </g>
     </g>
    </g>
    <g id="xtick_11">
     <g id="line2d_29">
      <g>
       <use style="stroke:#000000;stroke-width:0.8;" x="558.853409" xlink:href="#m5e358539bf" y="678.2"/>
      </g>
     </g>
     <g id="text_23">
      <!-- 0.8 -->
      <g transform="translate(550.901847 692.798437)scale(0.1 -0.1)">
       <use xlink:href="#DejaVuSans-48"/>
       <use x="63.623047" xlink:href="#DejaVuSans-46"/>
       <use x="95.410156" xlink:href="#DejaVuSans-56"/>
      </g>
     </g>
    </g>
    <g id="xtick_12">
     <g id="line2d_30">
      <g>
       <use style="stroke:#000000;stroke-width:0.8;" x="679.130682" xlink:href="#m5e358539bf" y="678.2"/>
      </g>
     </g>
     <g id="text_24">
      <!-- 1.0 -->
      <g transform="translate(671.179119 692.798437)scale(0.1 -0.1)">
       <use xlink:href="#DejaVuSans-49"/>
       <use x="63.623047" xlink:href="#DejaVuSans-46"/>
       <use x="95.410156" xlink:href="#DejaVuSans-48"/>
      </g>
     </g>
    </g>
    <g id="text_25">
     <!-- Mean predicted value -->
     <g transform="translate(324.15 706.476562)scale(0.1 -0.1)">
      <use xlink:href="#DejaVuSans-77"/>
      <use x="86.279297" xlink:href="#DejaVuSans-101"/>
      <use x="147.802734" xlink:href="#DejaVuSans-97"/>
      <use x="209.082031" xlink:href="#DejaVuSans-110"/>
      <use x="272.460938" xlink:href="#DejaVuSans-32"/>
      <use x="304.248047" xlink:href="#DejaVuSans-112"/>
      <use x="367.724609" xlink:href="#DejaVuSans-114"/>
      <use x="408.806641" xlink:href="#DejaVuSans-101"/>
      <use x="470.330078" xlink:href="#DejaVuSans-100"/>
      <use x="533.806641" xlink:href="#DejaVuSans-105"/>
      <use x="561.589844" xlink:href="#DejaVuSans-99"/>
      <use x="616.570312" xlink:href="#DejaVuSans-116"/>
      <use x="655.779297" xlink:href="#DejaVuSans-101"/>
      <use x="717.302734" xlink:href="#DejaVuSans-100"/>
      <use x="780.779297" xlink:href="#DejaVuSans-32"/>
      <use x="812.566406" xlink:href="#DejaVuSans-118"/>
      <use x="871.746094" xlink:href="#DejaVuSans-97"/>
      <use x="933.025391" xlink:href="#DejaVuSans-108"/>
      <use x="960.808594" xlink:href="#DejaVuSans-117"/>
      <use x="1024.1875" xlink:href="#DejaVuSans-101"/>
     </g>
    </g>
   </g>
   <g id="matplotlib.axis_4">
    <g id="ytick_7">
     <g id="line2d_31">
      <g>
       <use style="stroke:#000000;stroke-width:0.8;" x="47.675" xlink:href="#m47cfb36d51" y="678.2"/>
      </g>
     </g>
     <g id="text_26">
      <!-- 0 -->
      <g transform="translate(34.3125 681.999219)scale(0.1 -0.1)">
       <use xlink:href="#DejaVuSans-48"/>
      </g>
     </g>
    </g>
    <g id="ytick_8">
     <g id="line2d_32">
      <g>
       <use style="stroke:#000000;stroke-width:0.8;" x="47.675" xlink:href="#m47cfb36d51" y="649.101099"/>
      </g>
     </g>
     <g id="text_27">
      <!-- 2 -->
      <g transform="translate(34.3125 652.900318)scale(0.1 -0.1)">
       <use xlink:href="#DejaVuSans-50"/>
      </g>
     </g>
    </g>
    <g id="ytick_9">
     <g id="line2d_33">
      <g>
       <use style="stroke:#000000;stroke-width:0.8;" x="47.675" xlink:href="#m47cfb36d51" y="620.002198"/>
      </g>
     </g>
     <g id="text_28">
      <!-- 4 -->
      <g transform="translate(34.3125 623.801417)scale(0.1 -0.1)">
       <use xlink:href="#DejaVuSans-52"/>
      </g>
     </g>
    </g>
    <g id="ytick_10">
     <g id="line2d_34">
      <g>
       <use style="stroke:#000000;stroke-width:0.8;" x="47.675" xlink:href="#m47cfb36d51" y="590.903297"/>
      </g>
     </g>
     <g id="text_29">
      <!-- 6 -->
      <g transform="translate(34.3125 594.702515)scale(0.1 -0.1)">
       <use xlink:href="#DejaVuSans-54"/>
      </g>
     </g>
    </g>
    <g id="ytick_11">
     <g id="line2d_35">
      <g>
       <use style="stroke:#000000;stroke-width:0.8;" x="47.675" xlink:href="#m47cfb36d51" y="561.804396"/>
      </g>
     </g>
     <g id="text_30">
      <!-- 8 -->
      <g transform="translate(34.3125 565.603614)scale(0.1 -0.1)">
       <use xlink:href="#DejaVuSans-56"/>
      </g>
     </g>
    </g>
    <g id="ytick_12">
     <g id="line2d_36">
      <g>
       <use style="stroke:#000000;stroke-width:0.8;" x="47.675" xlink:href="#m47cfb36d51" y="532.705495"/>
      </g>
     </g>
     <g id="text_31">
      <!-- 10 -->
      <g transform="translate(27.95 536.504713)scale(0.1 -0.1)">
       <use xlink:href="#DejaVuSans-49"/>
       <use x="63.623047" xlink:href="#DejaVuSans-48"/>
      </g>
     </g>
    </g>
    <g id="ytick_13">
     <g id="line2d_37">
      <g>
       <use style="stroke:#000000;stroke-width:0.8;" x="47.675" xlink:href="#m47cfb36d51" y="503.606593"/>
      </g>
     </g>
     <g id="text_32">
      <!-- 12 -->
      <g transform="translate(27.95 507.405812)scale(0.1 -0.1)">
       <use xlink:href="#DejaVuSans-49"/>
       <use x="63.623047" xlink:href="#DejaVuSans-50"/>
      </g>
     </g>
    </g>
    <g id="text_33">
     <!-- Count -->
     <g transform="translate(21.870312 593.748437)rotate(-90)scale(0.1 -0.1)">
      <use xlink:href="#DejaVuSans-67"/>
      <use x="69.824219" xlink:href="#DejaVuSans-111"/>
      <use x="131.005859" xlink:href="#DejaVuSans-117"/>
      <use x="194.384766" xlink:href="#DejaVuSans-110"/>
      <use x="257.763672" xlink:href="#DejaVuSans-116"/>
     </g>
    </g>
   </g>
   <g id="patch_12">
    <path d="M 47.675 678.2 
L 47.675 479.6 
" style="fill:none;stroke:#000000;stroke-linecap:square;stroke-linejoin:miter;stroke-width:0.8;"/>
   </g>
   <g id="patch_13">
    <path d="M 709.2 678.2 
L 709.2 479.6 
" style="fill:none;stroke:#000000;stroke-linecap:square;stroke-linejoin:miter;stroke-width:0.8;"/>
   </g>
   <g id="patch_14">
    <path d="M 47.675 678.2 
L 709.2 678.2 
" style="fill:none;stroke:#000000;stroke-linecap:square;stroke-linejoin:miter;stroke-width:0.8;"/>
   </g>
   <g id="patch_15">
    <path d="M 47.675 479.6 
L 709.2 479.6 
" style="fill:none;stroke:#000000;stroke-linecap:square;stroke-linejoin:miter;stroke-width:0.8;"/>
   </g>
   <g id="legend_2">
    <g id="patch_16">
     <path d="M 280.204688 516.95625 
L 476.670313 516.95625 
Q 478.670313 516.95625 478.670313 514.95625 
L 478.670313 486.6 
Q 478.670313 484.6 476.670313 484.6 
L 280.204688 484.6 
Q 278.204688 484.6 278.204688 486.6 
L 278.204688 514.95625 
Q 278.204688 516.95625 280.204688 516.95625 
z
" style="fill:#ffffff;opacity:0.8;stroke:#cccccc;stroke-linejoin:miter;"/>
    </g>
    <g id="patch_17">
     <path d="M 282.204688 496.198437 
L 302.204688 496.198437 
L 302.204688 489.198437 
L 282.204688 489.198437 
z
" style="fill:none;stroke:#003f5c;stroke-linejoin:miter;stroke-width:2;"/>
    </g>
    <g id="text_34">
     <!-- PPrediction -->
     <g transform="translate(310.204688 496.198437)scale(0.1 -0.1)">
      <use xlink:href="#DejaVuSans-80"/>
      <use x="60.302734" xlink:href="#DejaVuSans-80"/>
      <use x="120.589844" xlink:href="#DejaVuSans-114"/>
      <use x="161.671875" xlink:href="#DejaVuSans-101"/>
      <use x="223.195312" xlink:href="#DejaVuSans-100"/>
      <use x="286.671875" xlink:href="#DejaVuSans-105"/>
      <use x="314.455078" xlink:href="#DejaVuSans-99"/>
      <use x="369.435547" xlink:href="#DejaVuSans-116"/>
      <use x="408.644531" xlink:href="#DejaVuSans-105"/>
      <use x="436.427734" xlink:href="#DejaVuSans-111"/>
      <use x="497.609375" xlink:href="#DejaVuSans-110"/>
     </g>
    </g>
    <g id="patch_18">
     <path d="M 282.204688 510.876562 
L 302.204688 510.876562 
L 302.204688 503.876562 
L 282.204688 503.876562 
z
" style="fill:none;stroke:#58508d;stroke-linejoin:miter;stroke-width:2;"/>
    </g>
    <g id="text_35">
     <!-- DPrediction -->
     <g transform="translate(310.204688 510.876562)scale(0.1 -0.1)">
      <use xlink:href="#DejaVuSans-68"/>
      <use x="77.001953" xlink:href="#DejaVuSans-80"/>
      <use x="137.289062" xlink:href="#DejaVuSans-114"/>
      <use x="178.371094" xlink:href="#DejaVuSans-101"/>
      <use x="239.894531" xlink:href="#DejaVuSans-100"/>
      <use x="303.371094" xlink:href="#DejaVuSans-105"/>
      <use x="331.154297" xlink:href="#DejaVuSans-99"/>
      <use x="386.134766" xlink:href="#DejaVuSans-116"/>
      <use x="425.34375" xlink:href="#DejaVuSans-105"/>
      <use x="453.126953" xlink:href="#DejaVuSans-111"/>
      <use x="514.308594" xlink:href="#DejaVuSans-110"/>
     </g>
    </g>
    <g id="patch_19">
     <path d="M 387.973438 496.198437 
L 407.973438 496.198437 
L 407.973438 489.198437 
L 387.973438 489.198437 
z
" style="fill:none;stroke:#bc5090;stroke-linejoin:miter;stroke-width:2;"/>
    </g>
    <g id="text_36">
     <!-- MPrediction -->
     <g transform="translate(415.973438 496.198437)scale(0.1 -0.1)">
      <use xlink:href="#DejaVuSans-77"/>
      <use x="86.279297" xlink:href="#DejaVuSans-80"/>
      <use x="146.566406" xlink:href="#DejaVuSans-114"/>
      <use x="187.648438" xlink:href="#DejaVuSans-101"/>
      <use x="249.171875" xlink:href="#DejaVuSans-100"/>
      <use x="312.648438" xlink:href="#DejaVuSans-105"/>
      <use x="340.431641" xlink:href="#DejaVuSans-99"/>
      <use x="395.412109" xlink:href="#DejaVuSans-116"/>
      <use x="434.621094" xlink:href="#DejaVuSans-105"/>
      <use x="462.404297" xlink:href="#DejaVuSans-111"/>
      <use x="523.585938" xlink:href="#DejaVuSans-110"/>
     </g>
    </g>
   </g>
  </g>
 </g>
 <defs>
  <clipPath id="p55f53adc23">
   <rect height="425" width="661.525" x="47.675" y="26.8"/>
  </clipPath>
  <clipPath id="p48967f3278">
   <rect height="198.6" width="661.525" x="47.675" y="479.6"/>
  </clipPath>
 </defs>
</svg>
