<?xml version="1.0" encoding="utf-8" standalone="no"?>
<!DOCTYPE svg PUBLIC "-//W3C//DTD SVG 1.1//EN"
  "http://www.w3.org/Graphics/SVG/1.1/DTD/svg11.dtd">
<!-- Created with matplotlib (https://matplotlib.org/) -->
<svg height="720pt" version="1.1" viewBox="0 0 720 720" width="720pt" xmlns="http://www.w3.org/2000/svg" xmlns:xlink="http://www.w3.org/1999/xlink">
 <defs>
  <style type="text/css">
*{stroke-linecap:butt;stroke-linejoin:round;}
  </style>
 </defs>
 <g id="figure_1">
  <g id="patch_1">
   <path d="M 0 720 
L 720 720 
L 720 0 
L 0 0 
z
" style="fill:#ffffff;"/>
  </g>
  <g id="axes_1">
   <g id="patch_2">
    <path d="M 54.175 451.8 
L 709.2 451.8 
L 709.2 26.8 
L 54.175 26.8 
z
" style="fill:#ffffff;"/>
   </g>
   <g id="PolyCollection_1">
    <defs>
     <path d="M 83.948864 -445.829081 
L 83.948864 -287.518182 
L 89.963786 -287.518182 
L 95.978708 -287.518182 
L 101.993629 -287.518182 
L 108.008551 -287.518182 
L 114.023473 -287.518182 
L 120.038395 -287.518182 
L 126.053317 -287.518182 
L 132.068239 -287.518182 
L 138.083161 -287.518182 
L 144.098083 -287.518182 
L 150.113005 -287.518182 
L 156.127927 -287.518182 
L 162.142849 -287.518182 
L 168.157771 -287.518182 
L 174.172693 -287.518182 
L 180.187615 -287.518182 
L 186.202537 -287.518182 
L 192.217459 -287.518182 
L 198.232381 -287.518182 
L 204.247303 -287.518182 
L 210.262225 -287.518182 
L 216.277146 -287.518182 
L 222.292068 -287.518182 
L 228.30699 -288.106799 
L 234.321912 -300.285781 
L 240.336834 -307.723478 
L 246.351756 -310.224421 
L 252.366678 -309.267053 
L 258.3816 -306.654319 
L 264.396522 -317.110256 
L 270.411444 -322.252311 
L 276.426366 -321.462031 
L 282.441288 -315.538484 
L 288.45621 -308.26321 
L 294.471132 -307.812962 
L 300.486054 -313.967563 
L 306.500976 -326.947425 
L 312.515898 -337.983711 
L 318.53082 -345.599193 
L 324.545742 -349.388667 
L 330.560663 -349.48063 
L 336.575585 -347.101394 
L 342.590507 -341.548434 
L 348.605429 -341.486454 
L 354.620351 -345.119298 
L 360.635273 -352.23654 
L 366.650195 -362.592099 
L 372.665117 -369.736134 
L 378.680039 -372.866252 
L 384.694961 -372.465282 
L 390.709883 -374.706206 
L 396.724805 -387.663517 
L 402.739727 -400.458679 
L 408.754649 -411.966373 
L 414.769571 -422.09712 
L 420.784493 -430.12208 
L 426.799415 -436.410768 
L 432.814337 -438.360054 
L 438.829258 -437.923948 
L 444.84418 -435.461832 
L 450.859102 -431.383499 
L 456.874024 -426.062445 
L 462.888946 -423.756464 
L 468.903868 -424.033207 
L 474.91879 -425.293842 
L 480.933712 -428.007711 
L 486.948634 -440.033733 
L 492.963556 -460.125344 
L 498.978478 -465.595351 
L 504.9934 -459.57164 
L 511.008322 -454.203081 
L 517.023244 -462.529646 
L 523.038166 -468.717263 
L 529.053088 -473.54053 
L 535.06801 -477.980618 
L 541.082932 -483.561406 
L 547.097854 -492.128769 
L 553.112775 -499.757451 
L 559.127697 -506.24155 
L 565.142619 -511.173767 
L 571.157541 -514.500313 
L 577.172463 -516.97248 
L 583.187385 -519.721145 
L 589.202307 -520.688599 
L 595.217229 -521.969083 
L 601.232151 -524.851157 
L 607.247073 -529.067595 
L 613.261995 -532.270927 
L 619.276917 -534.482328 
L 625.291839 -535.750645 
L 631.306761 -536.145829 
L 637.321683 -535.750759 
L 643.336605 -534.65338 
L 649.351527 -532.940417 
L 655.366449 -530.693134 
L 661.381371 -528.840439 
L 667.396292 -527.056644 
L 673.411214 -525.154579 
L 679.426136 -523.001995 
L 679.426136 -673.881818 
L 679.426136 -673.881818 
L 673.411214 -673.881818 
L 667.396292 -673.881818 
L 661.381371 -673.881818 
L 655.366449 -673.881818 
L 649.351527 -673.881818 
L 643.336605 -673.881818 
L 637.321683 -673.881818 
L 631.306761 -673.881818 
L 625.291839 -673.881818 
L 619.276917 -673.881818 
L 613.261995 -673.881818 
L 607.247073 -673.881818 
L 601.232151 -673.881818 
L 595.217229 -673.881818 
L 589.202307 -673.881818 
L 583.187385 -673.881818 
L 577.172463 -673.881818 
L 571.157541 -673.881818 
L 565.142619 -673.881818 
L 559.127697 -673.881818 
L 553.112775 -673.881818 
L 547.097854 -673.881818 
L 541.082932 -673.881818 
L 535.06801 -673.881818 
L 529.053088 -673.881818 
L 523.038166 -673.881818 
L 517.023244 -673.881818 
L 511.008322 -673.881818 
L 504.9934 -661.837542 
L 498.978478 -648.008505 
L 492.963556 -645.673187 
L 486.948634 -657.959471 
L 480.933712 -662.180168 
L 474.91879 -657.08871 
L 468.903868 -650.54402 
L 462.888946 -643.015437 
L 456.874024 -632.90413 
L 450.859102 -619.77775 
L 444.84418 -607.894091 
L 438.829258 -597.626649 
L 432.814337 -589.385217 
L 426.799415 -583.529177 
L 420.784493 -582.012539 
L 414.769571 -582.232173 
L 408.754649 -584.557594 
L 402.739727 -588.259962 
L 396.724805 -593.249798 
L 390.709883 -598.401783 
L 384.694961 -592.837381 
L 378.680039 -584.631085 
L 372.665117 -579.955877 
L 366.650195 -579.294586 
L 360.635273 -581.844819 
L 354.620351 -581.156735 
L 348.605429 -576.984253 
L 342.590507 -569.116948 
L 336.575585 -555.758661 
L 330.560663 -545.574099 
L 324.545742 -537.860736 
L 318.53082 -533.844885 
L 312.515898 -533.65504 
L 306.500976 -536.886 
L 300.486054 -542.060536 
L 294.471132 -540.409811 
L 288.45621 -532.154237 
L 282.441288 -517.073638 
L 276.426366 -503.344764 
L 270.411444 -494.749158 
L 264.396522 -492.085887 
L 258.3816 -494.736498 
L 252.366678 -484.318438 
L 246.351756 -475.555744 
L 240.336834 -470.251361 
L 234.321912 -469.883732 
L 228.30699 -474.257388 
L 222.292068 -479.614099 
L 216.277146 -484.421216 
L 210.262225 -489.327184 
L 204.247303 -492.134622 
L 198.232381 -497.492689 
L 192.217459 -504.265138 
L 186.202537 -502.535553 
L 180.187615 -498.817746 
L 174.172693 -493.361782 
L 168.157771 -485.74723 
L 162.142849 -473.804053 
L 156.127927 -462.750977 
L 150.113005 -452.942366 
L 144.098083 -444.565192 
L 138.083161 -437.786455 
L 132.068239 -432.72721 
L 126.053317 -429.43953 
L 120.038395 -427.895473 
L 114.023473 -427.993087 
L 108.008551 -429.790561 
L 101.993629 -432.94068 
L 95.978708 -437.510397 
L 89.963786 -442.865196 
L 83.948864 -445.829081 
z
" id="m8c249ffab4" style="stroke:#003f5c;stroke-opacity:0.2;"/>
    </defs>
    <g clip-path="url(#p31f9bccd3f)">
     <use style="fill:#003f5c;fill-opacity:0.2;stroke:#003f5c;stroke-opacity:0.2;" x="0" xlink:href="#m8c249ffab4" y="720"/>
    </g>
   </g>
   <g id="PolyCollection_2">
    <defs>
     <path d="M 83.948864 -431.5434 
L 83.948864 -287.518182 
L 89.963786 -287.518182 
L 95.978708 -287.518182 
L 101.993629 -287.518182 
L 108.008551 -287.518182 
L 114.023473 -287.518182 
L 120.038395 -287.518182 
L 126.053317 -287.518182 
L 132.068239 -287.518182 
L 138.083161 -287.518182 
L 144.098083 -287.518182 
L 150.113005 -287.518182 
L 156.127927 -287.518182 
L 162.142849 -287.518182 
L 168.157771 -287.518182 
L 174.172693 -287.518182 
L 180.187615 -287.518182 
L 186.202537 -287.518182 
L 192.217459 -287.518182 
L 198.232381 -287.518182 
L 204.247303 -292.848086 
L 210.262225 -307.123965 
L 216.277146 -311.024665 
L 222.292068 -305.178444 
L 228.30699 -299.92207 
L 234.321912 -296.380597 
L 240.336834 -289.180854 
L 246.351756 -297.797494 
L 252.366678 -305.278923 
L 258.3816 -316.829387 
L 264.396522 -330.248504 
L 270.411444 -340.295158 
L 276.426366 -345.992821 
L 282.441288 -348.819147 
L 288.45621 -348.517575 
L 294.471132 -348.82843 
L 300.486054 -354.617609 
L 306.500976 -359.271028 
L 312.515898 -364.273747 
L 318.53082 -366.125852 
L 324.545742 -365.239644 
L 330.560663 -362.074264 
L 336.575585 -357.140874 
L 342.590507 -351.194227 
L 348.605429 -346.804608 
L 354.620351 -343.465516 
L 360.635273 -339.937479 
L 366.650195 -339.434516 
L 372.665117 -337.908754 
L 378.680039 -338.293802 
L 384.694961 -348.24981 
L 390.709883 -356.558199 
L 396.724805 -365.151528 
L 402.739727 -376.605975 
L 408.754649 -386.609549 
L 414.769571 -395.50284 
L 420.784493 -408.355067 
L 426.799415 -422.423443 
L 432.814337 -437.67777 
L 438.829258 -450.731893 
L 444.84418 -460.588872 
L 450.859102 -466.277729 
L 456.874024 -467.437433 
L 462.888946 -464.607752 
L 468.903868 -461.175366 
L 474.91879 -463.643329 
L 480.933712 -466.013734 
L 486.948634 -468.500515 
L 492.963556 -470.832791 
L 498.978478 -472.73548 
L 504.9934 -474.238385 
L 511.008322 -475.373757 
L 517.023244 -476.174632 
L 523.038166 -476.673518 
L 529.053088 -479.89697 
L 535.06801 -483.845734 
L 541.082932 -491.464002 
L 547.097854 -500.660421 
L 553.112775 -509.399903 
L 559.127697 -517.597648 
L 565.142619 -525.15999 
L 571.157541 -531.989491 
L 577.172463 -537.993561 
L 583.187385 -543.096018 
L 589.202307 -547.249184 
L 595.217229 -550.442691 
L 601.232151 -552.705515 
L 607.247073 -554.100393 
L 613.261995 -554.712925 
L 619.276917 -554.873869 
L 625.291839 -555.397989 
L 631.306761 -555.794908 
L 637.321683 -556.079412 
L 643.336605 -556.264451 
L 649.351527 -556.361345 
L 655.366449 -556.614406 
L 661.381371 -556.953986 
L 667.396292 -557.293566 
L 673.411214 -557.633147 
L 679.426136 -557.972727 
L 679.426136 -673.881818 
L 679.426136 -673.881818 
L 673.411214 -673.881818 
L 667.396292 -673.881818 
L 661.381371 -673.881818 
L 655.366449 -673.881818 
L 649.351527 -673.881818 
L 643.336605 -673.881818 
L 637.321683 -673.881818 
L 631.306761 -673.881818 
L 625.291839 -673.881818 
L 619.276917 -673.881818 
L 613.261995 -673.881818 
L 607.247073 -673.881818 
L 601.232151 -673.881818 
L 595.217229 -673.881818 
L 589.202307 -673.881818 
L 583.187385 -673.881818 
L 577.172463 -673.881818 
L 571.157541 -673.881818 
L 565.142619 -673.881818 
L 559.127697 -673.881818 
L 553.112775 -673.881818 
L 547.097854 -673.881818 
L 541.082932 -673.881818 
L 535.06801 -673.881818 
L 529.053088 -672.733517 
L 523.038166 -668.151642 
L 517.023244 -660.845202 
L 511.008322 -653.840752 
L 504.9934 -647.170797 
L 498.978478 -640.868377 
L 492.963556 -634.96574 
L 486.948634 -629.49269 
L 480.933712 -624.174145 
L 474.91879 -618.739224 
L 468.903868 -613.401861 
L 462.888946 -602.164149 
L 456.874024 -591.529142 
L 450.859102 -584.88352 
L 444.84418 -582.76705 
L 438.829258 -584.818703 
L 432.814337 -590.067501 
L 426.799415 -597.516502 
L 420.784493 -603.779552 
L 414.769571 -608.826453 
L 408.754649 -609.914418 
L 402.739727 -612.112666 
L 396.724805 -615.761787 
L 390.709883 -616.54979 
L 384.694961 -617.052853 
L 378.680039 -619.203535 
L 372.665117 -611.783257 
L 366.650195 -602.452169 
L 360.635273 -594.14388 
L 354.620351 -582.810517 
L 348.605429 -571.666099 
L 342.590507 -559.471154 
L 336.575585 -545.719181 
L 330.560663 -532.980465 
L 324.545742 -522.009759 
L 318.53082 -513.318225 
L 312.515898 -507.365004 
L 306.500976 -504.562398 
L 300.486054 -501.410491 
L 294.471132 -499.394343 
L 288.45621 -491.899872 
L 282.441288 -483.792974 
L 276.426366 -478.813974 
L 270.411444 -476.706311 
L 264.396522 -478.947639 
L 258.3816 -484.56143 
L 252.366678 -488.306568 
L 246.351756 -487.982672 
L 240.336834 -488.793985 
L 234.321912 -473.788916 
L 228.30699 -462.442117 
L 222.292068 -449.380417 
L 216.277146 -435.728871 
L 210.262225 -431.824244 
L 204.247303 -438.294797 
L 198.232381 -442.92066 
L 192.217459 -440.064613 
L 186.202537 -439.744172 
L 180.187615 -439.977786 
L 174.172693 -438.873617 
L 168.157771 -436.159413 
L 162.142849 -426.121037 
L 156.127927 -416.107164 
L 150.113005 -407.914045 
L 144.098083 -401.85352 
L 138.083161 -398.108747 
L 132.068239 -396.665651 
L 126.053317 -397.318584 
L 120.038395 -399.74558 
L 114.023473 -403.553776 
L 108.008551 -408.630229 
L 101.993629 -414.382913 
L 95.978708 -420.32485 
L 89.963786 -425.974132 
L 83.948864 -431.5434 
z
" id="m18d27213db" style="stroke:#58508d;stroke-opacity:0.2;"/>
    </defs>
    <g clip-path="url(#p31f9bccd3f)">
     <use style="fill:#58508d;fill-opacity:0.2;stroke:#58508d;stroke-opacity:0.2;" x="0" xlink:href="#m18d27213db" y="720"/>
    </g>
   </g>
   <g id="PolyCollection_3">
    <defs>
     <path d="M 83.948864 -354.07239 
L 83.948864 -287.518182 
L 89.963786 -287.518182 
L 95.978708 -287.518182 
L 101.993629 -287.518182 
L 108.008551 -287.518182 
L 114.023473 -287.518182 
L 120.038395 -287.518182 
L 126.053317 -287.518182 
L 132.068239 -287.518182 
L 138.083161 -287.518182 
L 144.098083 -287.518182 
L 150.113005 -287.518182 
L 156.127927 -287.518182 
L 162.142849 -287.518182 
L 168.157771 -287.518182 
L 174.172693 -287.518182 
L 180.187615 -290.305644 
L 186.202537 -295.158492 
L 192.217459 -300.007843 
L 198.232381 -304.853521 
L 204.247303 -309.695341 
L 210.262225 -314.533105 
L 216.277146 -319.366602 
L 222.292068 -324.195608 
L 228.30699 -329.019883 
L 234.321912 -333.839172 
L 240.336834 -338.653203 
L 246.351756 -343.461685 
L 252.366678 -348.264307 
L 258.3816 -353.060737 
L 264.396522 -357.850619 
L 270.411444 -362.633575 
L 276.426366 -367.409197 
L 282.441288 -372.17705 
L 288.45621 -376.936668 
L 294.471132 -381.687553 
L 300.486054 -386.429169 
L 306.500976 -391.160944 
L 312.515898 -395.882265 
L 318.53082 -400.592477 
L 324.545742 -405.290877 
L 330.560663 -409.976714 
L 336.575585 -414.649186 
L 342.590507 -419.307436 
L 348.605429 -423.95055 
L 354.620351 -428.577555 
L 360.635273 -433.187418 
L 366.650195 -437.779041 
L 372.665117 -442.351264 
L 378.680039 -446.902865 
L 384.694961 -451.432556 
L 390.709883 -455.938992 
L 396.724805 -460.42077 
L 402.739727 -464.876437 
L 408.754649 -469.304497 
L 414.769571 -473.703421 
L 420.784493 -478.071659 
L 426.799415 -482.407658 
L 432.814337 -486.709872 
L 438.829258 -490.976793 
L 444.84418 -495.206961 
L 450.859102 -499.398999 
L 456.874024 -503.55163 
L 462.888946 -507.663704 
L 468.903868 -511.734225 
L 474.91879 -515.762369 
L 480.933712 -519.747508 
L 486.948634 -523.689221 
L 492.963556 -527.587307 
L 498.978478 -531.441789 
L 504.9934 -535.252915 
L 511.008322 -539.021151 
L 517.023244 -542.747168 
L 523.038166 -546.431827 
L 529.053088 -550.076158 
L 535.06801 -553.68134 
L 541.082932 -557.248673 
L 547.097854 -560.779555 
L 553.112775 -564.275454 
L 559.127697 -567.737892 
L 565.142619 -571.168416 
L 571.157541 -574.56858 
L 577.172463 -577.939931 
L 583.187385 -581.283991 
L 589.202307 -584.60225 
L 595.217229 -587.896149 
L 601.232151 -591.167079 
L 607.247073 -594.416375 
L 613.261995 -597.64531 
L 619.276917 -600.855094 
L 625.291839 -604.046874 
L 631.306761 -607.221733 
L 637.321683 -610.380692 
L 643.336605 -613.524712 
L 649.351527 -616.654694 
L 655.366449 -619.743396 
L 661.381371 -622.796519 
L 667.396292 -626.016696 
L 673.411214 -628.856572 
L 679.426136 -632.65242 
L 679.426136 -673.881818 
L 679.426136 -673.881818 
L 673.411214 -673.881818 
L 667.396292 -673.881818 
L 661.381371 -673.881818 
L 655.366449 -673.881818 
L 649.351527 -673.881818 
L 643.336605 -673.881818 
L 637.321683 -673.881818 
L 631.306761 -673.881818 
L 625.291839 -673.468829 
L 619.276917 -668.855282 
L 613.261995 -664.25974 
L 607.247073 -659.683349 
L 601.232151 -655.127319 
L 595.217229 -650.592924 
L 589.202307 -646.081497 
L 583.187385 -641.594429 
L 577.172463 -637.133164 
L 571.157541 -632.699189 
L 565.142619 -628.294027 
L 559.127697 -623.919224 
L 553.112775 -619.576336 
L 547.097854 -615.26691 
L 541.082932 -610.992465 
L 535.06801 -606.754472 
L 529.053088 -602.554328 
L 523.038166 -598.393334 
L 517.023244 -594.272667 
L 511.008322 -590.193358 
L 504.9934 -586.156268 
L 498.978478 -582.162068 
L 492.963556 -578.211224 
L 486.948634 -574.303984 
L 480.933712 -570.440371 
L 474.91879 -566.620184 
L 468.903868 -562.843002 
L 462.888946 -559.108197 
L 456.874024 -555.414945 
L 450.859102 -551.76225 
L 444.84418 -548.148961 
L 438.829258 -544.573804 
L 432.814337 -541.035399 
L 426.799415 -537.532287 
L 420.784493 -534.06296 
L 414.769571 -530.625872 
L 408.754649 -527.21947 
L 402.739727 -523.842204 
L 396.724805 -520.492545 
L 390.709883 -517.168997 
L 384.694961 -513.870107 
L 378.680039 -510.594472 
L 372.665117 -507.340747 
L 366.650195 -504.107644 
L 360.635273 -500.893941 
L 354.620351 -497.698478 
L 348.605429 -494.520157 
L 342.590507 -491.357945 
L 336.575585 -488.210869 
L 330.560663 -485.078015 
L 324.545742 -481.958526 
L 318.53082 -478.8516 
L 312.515898 -475.756486 
L 306.500976 -472.672481 
L 300.486054 -469.598931 
L 294.471132 -466.535221 
L 288.45621 -463.480779 
L 282.441288 -460.435071 
L 276.426366 -457.397598 
L 270.411444 -454.367894 
L 264.396522 -451.345524 
L 258.3816 -448.330081 
L 252.366678 -445.321185 
L 246.351756 -442.318481 
L 240.336834 -439.321636 
L 234.321912 -436.330341 
L 228.30699 -433.344304 
L 222.292068 -430.363253 
L 216.277146 -427.386933 
L 210.262225 -424.415104 
L 204.247303 -421.447542 
L 198.232381 -418.484036 
L 192.217459 -415.524389 
L 186.202537 -412.568413 
L 180.187615 -409.615936 
L 174.172693 -406.666791 
L 168.157771 -403.720825 
L 162.142849 -400.777891 
L 156.127927 -397.837852 
L 150.113005 -394.900578 
L 144.098083 -391.965947 
L 138.083161 -389.033843 
L 132.068239 -386.104156 
L 126.053317 -382.86034 
L 120.038395 -378.840272 
L 114.023473 -374.66947 
L 108.008551 -370.504506 
L 101.993629 -366.345448 
L 95.978708 -362.192365 
L 89.963786 -358.045323 
L 83.948864 -354.07239 
z
" id="mb3e6dac6bb" style="stroke:#bc5090;stroke-opacity:0.2;"/>
    </defs>
    <g clip-path="url(#p31f9bccd3f)">
     <use style="fill:#bc5090;fill-opacity:0.2;stroke:#bc5090;stroke-opacity:0.2;" x="0" xlink:href="#mb3e6dac6bb" y="720"/>
    </g>
   </g>
   <g id="matplotlib.axis_1">
    <g id="xtick_1">
     <g id="line2d_1">
      <defs>
       <path d="M 0 0 
L 0 3.5 
" id="mb09454350c" style="stroke:#000000;stroke-width:0.8;"/>
      </defs>
      <g>
       <use style="stroke:#000000;stroke-width:0.8;" x="83.948864" xlink:href="#mb09454350c" y="451.8"/>
      </g>
     </g>
     <g id="text_1">
      <!-- 0.0 -->
      <defs>
       <path d="M 31.78125 66.40625 
Q 24.171875 66.40625 20.328125 58.90625 
Q 16.5 51.421875 16.5 36.375 
Q 16.5 21.390625 20.328125 13.890625 
Q 24.171875 6.390625 31.78125 6.390625 
Q 39.453125 6.390625 43.28125 13.890625 
Q 47.125 21.390625 47.125 36.375 
Q 47.125 51.421875 43.28125 58.90625 
Q 39.453125 66.40625 31.78125 66.40625 
z
M 31.78125 74.21875 
Q 44.046875 74.21875 50.515625 64.515625 
Q 56.984375 54.828125 56.984375 36.375 
Q 56.984375 17.96875 50.515625 8.265625 
Q 44.046875 -1.421875 31.78125 -1.421875 
Q 19.53125 -1.421875 13.0625 8.265625 
Q 6.59375 17.96875 6.59375 36.375 
Q 6.59375 54.828125 13.0625 64.515625 
Q 19.53125 74.21875 31.78125 74.21875 
z
" id="DejaVuSans-48"/>
       <path d="M 10.6875 12.40625 
L 21 12.40625 
L 21 0 
L 10.6875 0 
z
" id="DejaVuSans-46"/>
      </defs>
      <g transform="translate(75.997301 466.398437)scale(0.1 -0.1)">
       <use xlink:href="#DejaVuSans-48"/>
       <use x="63.623047" xlink:href="#DejaVuSans-46"/>
       <use x="95.410156" xlink:href="#DejaVuSans-48"/>
      </g>
     </g>
    </g>
    <g id="xtick_2">
     <g id="line2d_2">
      <g>
       <use style="stroke:#000000;stroke-width:0.8;" x="203.044318" xlink:href="#mb09454350c" y="451.8"/>
      </g>
     </g>
     <g id="text_2">
      <!-- 0.2 -->
      <defs>
       <path d="M 19.1875 8.296875 
L 53.609375 8.296875 
L 53.609375 0 
L 7.328125 0 
L 7.328125 8.296875 
Q 12.9375 14.109375 22.625 23.890625 
Q 32.328125 33.6875 34.8125 36.53125 
Q 39.546875 41.84375 41.421875 45.53125 
Q 43.3125 49.21875 43.3125 52.78125 
Q 43.3125 58.59375 39.234375 62.25 
Q 35.15625 65.921875 28.609375 65.921875 
Q 23.96875 65.921875 18.8125 64.3125 
Q 13.671875 62.703125 7.8125 59.421875 
L 7.8125 69.390625 
Q 13.765625 71.78125 18.9375 73 
Q 24.125 74.21875 28.421875 74.21875 
Q 39.75 74.21875 46.484375 68.546875 
Q 53.21875 62.890625 53.21875 53.421875 
Q 53.21875 48.921875 51.53125 44.890625 
Q 49.859375 40.875 45.40625 35.40625 
Q 44.1875 33.984375 37.640625 27.21875 
Q 31.109375 20.453125 19.1875 8.296875 
z
" id="DejaVuSans-50"/>
      </defs>
      <g transform="translate(195.092756 466.398437)scale(0.1 -0.1)">
       <use xlink:href="#DejaVuSans-48"/>
       <use x="63.623047" xlink:href="#DejaVuSans-46"/>
       <use x="95.410156" xlink:href="#DejaVuSans-50"/>
      </g>
     </g>
    </g>
    <g id="xtick_3">
     <g id="line2d_3">
      <g>
       <use style="stroke:#000000;stroke-width:0.8;" x="322.139773" xlink:href="#mb09454350c" y="451.8"/>
      </g>
     </g>
     <g id="text_3">
      <!-- 0.4 -->
      <defs>
       <path d="M 37.796875 64.3125 
L 12.890625 25.390625 
L 37.796875 25.390625 
z
M 35.203125 72.90625 
L 47.609375 72.90625 
L 47.609375 25.390625 
L 58.015625 25.390625 
L 58.015625 17.1875 
L 47.609375 17.1875 
L 47.609375 0 
L 37.796875 0 
L 37.796875 17.1875 
L 4.890625 17.1875 
L 4.890625 26.703125 
z
" id="DejaVuSans-52"/>
      </defs>
      <g transform="translate(314.18821 466.398437)scale(0.1 -0.1)">
       <use xlink:href="#DejaVuSans-48"/>
       <use x="63.623047" xlink:href="#DejaVuSans-46"/>
       <use x="95.410156" xlink:href="#DejaVuSans-52"/>
      </g>
     </g>
    </g>
    <g id="xtick_4">
     <g id="line2d_4">
      <g>
       <use style="stroke:#000000;stroke-width:0.8;" x="441.235227" xlink:href="#mb09454350c" y="451.8"/>
      </g>
     </g>
     <g id="text_4">
      <!-- 0.6 -->
      <defs>
       <path d="M 33.015625 40.375 
Q 26.375 40.375 22.484375 35.828125 
Q 18.609375 31.296875 18.609375 23.390625 
Q 18.609375 15.53125 22.484375 10.953125 
Q 26.375 6.390625 33.015625 6.390625 
Q 39.65625 6.390625 43.53125 10.953125 
Q 47.40625 15.53125 47.40625 23.390625 
Q 47.40625 31.296875 43.53125 35.828125 
Q 39.65625 40.375 33.015625 40.375 
z
M 52.59375 71.296875 
L 52.59375 62.3125 
Q 48.875 64.0625 45.09375 64.984375 
Q 41.3125 65.921875 37.59375 65.921875 
Q 27.828125 65.921875 22.671875 59.328125 
Q 17.53125 52.734375 16.796875 39.40625 
Q 19.671875 43.65625 24.015625 45.921875 
Q 28.375 48.1875 33.59375 48.1875 
Q 44.578125 48.1875 50.953125 41.515625 
Q 57.328125 34.859375 57.328125 23.390625 
Q 57.328125 12.15625 50.6875 5.359375 
Q 44.046875 -1.421875 33.015625 -1.421875 
Q 20.359375 -1.421875 13.671875 8.265625 
Q 6.984375 17.96875 6.984375 36.375 
Q 6.984375 53.65625 15.1875 63.9375 
Q 23.390625 74.21875 37.203125 74.21875 
Q 40.921875 74.21875 44.703125 73.484375 
Q 48.484375 72.75 52.59375 71.296875 
z
" id="DejaVuSans-54"/>
      </defs>
      <g transform="translate(433.283665 466.398437)scale(0.1 -0.1)">
       <use xlink:href="#DejaVuSans-48"/>
       <use x="63.623047" xlink:href="#DejaVuSans-46"/>
       <use x="95.410156" xlink:href="#DejaVuSans-54"/>
      </g>
     </g>
    </g>
    <g id="xtick_5">
     <g id="line2d_5">
      <g>
       <use style="stroke:#000000;stroke-width:0.8;" x="560.330682" xlink:href="#mb09454350c" y="451.8"/>
      </g>
     </g>
     <g id="text_5">
      <!-- 0.8 -->
      <defs>
       <path d="M 31.78125 34.625 
Q 24.75 34.625 20.71875 30.859375 
Q 16.703125 27.09375 16.703125 20.515625 
Q 16.703125 13.921875 20.71875 10.15625 
Q 24.75 6.390625 31.78125 6.390625 
Q 38.8125 6.390625 42.859375 10.171875 
Q 46.921875 13.96875 46.921875 20.515625 
Q 46.921875 27.09375 42.890625 30.859375 
Q 38.875 34.625 31.78125 34.625 
z
M 21.921875 38.8125 
Q 15.578125 40.375 12.03125 44.71875 
Q 8.5 49.078125 8.5 55.328125 
Q 8.5 64.0625 14.71875 69.140625 
Q 20.953125 74.21875 31.78125 74.21875 
Q 42.671875 74.21875 48.875 69.140625 
Q 55.078125 64.0625 55.078125 55.328125 
Q 55.078125 49.078125 51.53125 44.71875 
Q 48 40.375 41.703125 38.8125 
Q 48.828125 37.15625 52.796875 32.3125 
Q 56.78125 27.484375 56.78125 20.515625 
Q 56.78125 9.90625 50.3125 4.234375 
Q 43.84375 -1.421875 31.78125 -1.421875 
Q 19.734375 -1.421875 13.25 4.234375 
Q 6.78125 9.90625 6.78125 20.515625 
Q 6.78125 27.484375 10.78125 32.3125 
Q 14.796875 37.15625 21.921875 38.8125 
z
M 18.3125 54.390625 
Q 18.3125 48.734375 21.84375 45.5625 
Q 25.390625 42.390625 31.78125 42.390625 
Q 38.140625 42.390625 41.71875 45.5625 
Q 45.3125 48.734375 45.3125 54.390625 
Q 45.3125 60.0625 41.71875 63.234375 
Q 38.140625 66.40625 31.78125 66.40625 
Q 25.390625 66.40625 21.84375 63.234375 
Q 18.3125 60.0625 18.3125 54.390625 
z
" id="DejaVuSans-56"/>
      </defs>
      <g transform="translate(552.379119 466.398437)scale(0.1 -0.1)">
       <use xlink:href="#DejaVuSans-48"/>
       <use x="63.623047" xlink:href="#DejaVuSans-46"/>
       <use x="95.410156" xlink:href="#DejaVuSans-56"/>
      </g>
     </g>
    </g>
    <g id="xtick_6">
     <g id="line2d_6">
      <g>
       <use style="stroke:#000000;stroke-width:0.8;" x="679.426136" xlink:href="#mb09454350c" y="451.8"/>
      </g>
     </g>
     <g id="text_6">
      <!-- 1.0 -->
      <defs>
       <path d="M 12.40625 8.296875 
L 28.515625 8.296875 
L 28.515625 63.921875 
L 10.984375 60.40625 
L 10.984375 69.390625 
L 28.421875 72.90625 
L 38.28125 72.90625 
L 38.28125 8.296875 
L 54.390625 8.296875 
L 54.390625 0 
L 12.40625 0 
z
" id="DejaVuSans-49"/>
      </defs>
      <g transform="translate(671.474574 466.398437)scale(0.1 -0.1)">
       <use xlink:href="#DejaVuSans-49"/>
       <use x="63.623047" xlink:href="#DejaVuSans-46"/>
       <use x="95.410156" xlink:href="#DejaVuSans-48"/>
      </g>
     </g>
    </g>
   </g>
   <g id="matplotlib.axis_2">
    <g id="ytick_1">
     <g id="line2d_7">
      <defs>
       <path d="M 0 0 
L -3.5 0 
" id="md7f2d35696" style="stroke:#000000;stroke-width:0.8;"/>
      </defs>
      <g>
       <use style="stroke:#000000;stroke-width:0.8;" x="54.175" xlink:href="#md7f2d35696" y="432.481818"/>
      </g>
     </g>
     <g id="text_7">
      <!-- 0.0 -->
      <g transform="translate(31.271875 436.281037)scale(0.1 -0.1)">
       <use xlink:href="#DejaVuSans-48"/>
       <use x="63.623047" xlink:href="#DejaVuSans-46"/>
       <use x="95.410156" xlink:href="#DejaVuSans-48"/>
      </g>
     </g>
    </g>
    <g id="ytick_2">
     <g id="line2d_8">
      <g>
       <use style="stroke:#000000;stroke-width:0.8;" x="54.175" xlink:href="#md7f2d35696" y="355.209091"/>
      </g>
     </g>
     <g id="text_8">
      <!-- 0.2 -->
      <g transform="translate(31.271875 359.00831)scale(0.1 -0.1)">
       <use xlink:href="#DejaVuSans-48"/>
       <use x="63.623047" xlink:href="#DejaVuSans-46"/>
       <use x="95.410156" xlink:href="#DejaVuSans-50"/>
      </g>
     </g>
    </g>
    <g id="ytick_3">
     <g id="line2d_9">
      <g>
       <use style="stroke:#000000;stroke-width:0.8;" x="54.175" xlink:href="#md7f2d35696" y="277.936364"/>
      </g>
     </g>
     <g id="text_9">
      <!-- 0.4 -->
      <g transform="translate(31.271875 281.735582)scale(0.1 -0.1)">
       <use xlink:href="#DejaVuSans-48"/>
       <use x="63.623047" xlink:href="#DejaVuSans-46"/>
       <use x="95.410156" xlink:href="#DejaVuSans-52"/>
      </g>
     </g>
    </g>
    <g id="ytick_4">
     <g id="line2d_10">
      <g>
       <use style="stroke:#000000;stroke-width:0.8;" x="54.175" xlink:href="#md7f2d35696" y="200.663636"/>
      </g>
     </g>
     <g id="text_10">
      <!-- 0.6 -->
      <g transform="translate(31.271875 204.462855)scale(0.1 -0.1)">
       <use xlink:href="#DejaVuSans-48"/>
       <use x="63.623047" xlink:href="#DejaVuSans-46"/>
       <use x="95.410156" xlink:href="#DejaVuSans-54"/>
      </g>
     </g>
    </g>
    <g id="ytick_5">
     <g id="line2d_11">
      <g>
       <use style="stroke:#000000;stroke-width:0.8;" x="54.175" xlink:href="#md7f2d35696" y="123.390909"/>
      </g>
     </g>
     <g id="text_11">
      <!-- 0.8 -->
      <g transform="translate(31.271875 127.190128)scale(0.1 -0.1)">
       <use xlink:href="#DejaVuSans-48"/>
       <use x="63.623047" xlink:href="#DejaVuSans-46"/>
       <use x="95.410156" xlink:href="#DejaVuSans-56"/>
      </g>
     </g>
    </g>
    <g id="ytick_6">
     <g id="line2d_12">
      <g>
       <use style="stroke:#000000;stroke-width:0.8;" x="54.175" xlink:href="#md7f2d35696" y="46.118182"/>
      </g>
     </g>
     <g id="text_12">
      <!-- 1.0 -->
      <g transform="translate(31.271875 49.917401)scale(0.1 -0.1)">
       <use xlink:href="#DejaVuSans-49"/>
       <use x="63.623047" xlink:href="#DejaVuSans-46"/>
       <use x="95.410156" xlink:href="#DejaVuSans-48"/>
      </g>
     </g>
    </g>
    <g id="text_13">
     <!-- Fraction of positives -->
     <defs>
      <path d="M 9.8125 72.90625 
L 51.703125 72.90625 
L 51.703125 64.59375 
L 19.671875 64.59375 
L 19.671875 43.109375 
L 48.578125 43.109375 
L 48.578125 34.8125 
L 19.671875 34.8125 
L 19.671875 0 
L 9.8125 0 
z
" id="DejaVuSans-70"/>
      <path d="M 41.109375 46.296875 
Q 39.59375 47.171875 37.8125 47.578125 
Q 36.03125 48 33.890625 48 
Q 26.265625 48 22.1875 43.046875 
Q 18.109375 38.09375 18.109375 28.8125 
L 18.109375 0 
L 9.078125 0 
L 9.078125 54.6875 
L 18.109375 54.6875 
L 18.109375 46.1875 
Q 20.953125 51.171875 25.484375 53.578125 
Q 30.03125 56 36.53125 56 
Q 37.453125 56 38.578125 55.875 
Q 39.703125 55.765625 41.0625 55.515625 
z
" id="DejaVuSans-114"/>
      <path d="M 34.28125 27.484375 
Q 23.390625 27.484375 19.1875 25 
Q 14.984375 22.515625 14.984375 16.5 
Q 14.984375 11.71875 18.140625 8.90625 
Q 21.296875 6.109375 26.703125 6.109375 
Q 34.1875 6.109375 38.703125 11.40625 
Q 43.21875 16.703125 43.21875 25.484375 
L 43.21875 27.484375 
z
M 52.203125 31.203125 
L 52.203125 0 
L 43.21875 0 
L 43.21875 8.296875 
Q 40.140625 3.328125 35.546875 0.953125 
Q 30.953125 -1.421875 24.3125 -1.421875 
Q 15.921875 -1.421875 10.953125 3.296875 
Q 6 8.015625 6 15.921875 
Q 6 25.140625 12.171875 29.828125 
Q 18.359375 34.515625 30.609375 34.515625 
L 43.21875 34.515625 
L 43.21875 35.40625 
Q 43.21875 41.609375 39.140625 45 
Q 35.0625 48.390625 27.6875 48.390625 
Q 23 48.390625 18.546875 47.265625 
Q 14.109375 46.140625 10.015625 43.890625 
L 10.015625 52.203125 
Q 14.9375 54.109375 19.578125 55.046875 
Q 24.21875 56 28.609375 56 
Q 40.484375 56 46.34375 49.84375 
Q 52.203125 43.703125 52.203125 31.203125 
z
" id="DejaVuSans-97"/>
      <path d="M 48.78125 52.59375 
L 48.78125 44.1875 
Q 44.96875 46.296875 41.140625 47.34375 
Q 37.3125 48.390625 33.40625 48.390625 
Q 24.65625 48.390625 19.8125 42.84375 
Q 14.984375 37.3125 14.984375 27.296875 
Q 14.984375 17.28125 19.8125 11.734375 
Q 24.65625 6.203125 33.40625 6.203125 
Q 37.3125 6.203125 41.140625 7.25 
Q 44.96875 8.296875 48.78125 10.40625 
L 48.78125 2.09375 
Q 45.015625 0.34375 40.984375 -0.53125 
Q 36.96875 -1.421875 32.421875 -1.421875 
Q 20.0625 -1.421875 12.78125 6.34375 
Q 5.515625 14.109375 5.515625 27.296875 
Q 5.515625 40.671875 12.859375 48.328125 
Q 20.21875 56 33.015625 56 
Q 37.15625 56 41.109375 55.140625 
Q 45.0625 54.296875 48.78125 52.59375 
z
" id="DejaVuSans-99"/>
      <path d="M 18.3125 70.21875 
L 18.3125 54.6875 
L 36.8125 54.6875 
L 36.8125 47.703125 
L 18.3125 47.703125 
L 18.3125 18.015625 
Q 18.3125 11.328125 20.140625 9.421875 
Q 21.96875 7.515625 27.59375 7.515625 
L 36.8125 7.515625 
L 36.8125 0 
L 27.59375 0 
Q 17.1875 0 13.234375 3.875 
Q 9.28125 7.765625 9.28125 18.015625 
L 9.28125 47.703125 
L 2.6875 47.703125 
L 2.6875 54.6875 
L 9.28125 54.6875 
L 9.28125 70.21875 
z
" id="DejaVuSans-116"/>
      <path d="M 9.421875 54.6875 
L 18.40625 54.6875 
L 18.40625 0 
L 9.421875 0 
z
M 9.421875 75.984375 
L 18.40625 75.984375 
L 18.40625 64.59375 
L 9.421875 64.59375 
z
" id="DejaVuSans-105"/>
      <path d="M 30.609375 48.390625 
Q 23.390625 48.390625 19.1875 42.75 
Q 14.984375 37.109375 14.984375 27.296875 
Q 14.984375 17.484375 19.15625 11.84375 
Q 23.34375 6.203125 30.609375 6.203125 
Q 37.796875 6.203125 41.984375 11.859375 
Q 46.1875 17.53125 46.1875 27.296875 
Q 46.1875 37.015625 41.984375 42.703125 
Q 37.796875 48.390625 30.609375 48.390625 
z
M 30.609375 56 
Q 42.328125 56 49.015625 48.375 
Q 55.71875 40.765625 55.71875 27.296875 
Q 55.71875 13.875 49.015625 6.21875 
Q 42.328125 -1.421875 30.609375 -1.421875 
Q 18.84375 -1.421875 12.171875 6.21875 
Q 5.515625 13.875 5.515625 27.296875 
Q 5.515625 40.765625 12.171875 48.375 
Q 18.84375 56 30.609375 56 
z
" id="DejaVuSans-111"/>
      <path d="M 54.890625 33.015625 
L 54.890625 0 
L 45.90625 0 
L 45.90625 32.71875 
Q 45.90625 40.484375 42.875 44.328125 
Q 39.84375 48.1875 33.796875 48.1875 
Q 26.515625 48.1875 22.3125 43.546875 
Q 18.109375 38.921875 18.109375 30.90625 
L 18.109375 0 
L 9.078125 0 
L 9.078125 54.6875 
L 18.109375 54.6875 
L 18.109375 46.1875 
Q 21.34375 51.125 25.703125 53.5625 
Q 30.078125 56 35.796875 56 
Q 45.21875 56 50.046875 50.171875 
Q 54.890625 44.34375 54.890625 33.015625 
z
" id="DejaVuSans-110"/>
      <path id="DejaVuSans-32"/>
      <path d="M 37.109375 75.984375 
L 37.109375 68.5 
L 28.515625 68.5 
Q 23.6875 68.5 21.796875 66.546875 
Q 19.921875 64.59375 19.921875 59.515625 
L 19.921875 54.6875 
L 34.71875 54.6875 
L 34.71875 47.703125 
L 19.921875 47.703125 
L 19.921875 0 
L 10.890625 0 
L 10.890625 47.703125 
L 2.296875 47.703125 
L 2.296875 54.6875 
L 10.890625 54.6875 
L 10.890625 58.5 
Q 10.890625 67.625 15.140625 71.796875 
Q 19.390625 75.984375 28.609375 75.984375 
z
" id="DejaVuSans-102"/>
      <path d="M 18.109375 8.203125 
L 18.109375 -20.796875 
L 9.078125 -20.796875 
L 9.078125 54.6875 
L 18.109375 54.6875 
L 18.109375 46.390625 
Q 20.953125 51.265625 25.265625 53.625 
Q 29.59375 56 35.59375 56 
Q 45.5625 56 51.78125 48.09375 
Q 58.015625 40.1875 58.015625 27.296875 
Q 58.015625 14.40625 51.78125 6.484375 
Q 45.5625 -1.421875 35.59375 -1.421875 
Q 29.59375 -1.421875 25.265625 0.953125 
Q 20.953125 3.328125 18.109375 8.203125 
z
M 48.6875 27.296875 
Q 48.6875 37.203125 44.609375 42.84375 
Q 40.53125 48.484375 33.40625 48.484375 
Q 26.265625 48.484375 22.1875 42.84375 
Q 18.109375 37.203125 18.109375 27.296875 
Q 18.109375 17.390625 22.1875 11.75 
Q 26.265625 6.109375 33.40625 6.109375 
Q 40.53125 6.109375 44.609375 11.75 
Q 48.6875 17.390625 48.6875 27.296875 
z
" id="DejaVuSans-112"/>
      <path d="M 44.28125 53.078125 
L 44.28125 44.578125 
Q 40.484375 46.53125 36.375 47.5 
Q 32.28125 48.484375 27.875 48.484375 
Q 21.1875 48.484375 17.84375 46.4375 
Q 14.5 44.390625 14.5 40.28125 
Q 14.5 37.15625 16.890625 35.375 
Q 19.28125 33.59375 26.515625 31.984375 
L 29.59375 31.296875 
Q 39.15625 29.25 43.1875 25.515625 
Q 47.21875 21.78125 47.21875 15.09375 
Q 47.21875 7.46875 41.1875 3.015625 
Q 35.15625 -1.421875 24.609375 -1.421875 
Q 20.21875 -1.421875 15.453125 -0.5625 
Q 10.6875 0.296875 5.421875 2 
L 5.421875 11.28125 
Q 10.40625 8.6875 15.234375 7.390625 
Q 20.0625 6.109375 24.8125 6.109375 
Q 31.15625 6.109375 34.5625 8.28125 
Q 37.984375 10.453125 37.984375 14.40625 
Q 37.984375 18.0625 35.515625 20.015625 
Q 33.0625 21.96875 24.703125 23.78125 
L 21.578125 24.515625 
Q 13.234375 26.265625 9.515625 29.90625 
Q 5.8125 33.546875 5.8125 39.890625 
Q 5.8125 47.609375 11.28125 51.796875 
Q 16.75 56 26.8125 56 
Q 31.78125 56 36.171875 55.265625 
Q 40.578125 54.546875 44.28125 53.078125 
z
" id="DejaVuSans-115"/>
      <path d="M 2.984375 54.6875 
L 12.5 54.6875 
L 29.59375 8.796875 
L 46.6875 54.6875 
L 56.203125 54.6875 
L 35.6875 0 
L 23.484375 0 
z
" id="DejaVuSans-118"/>
      <path d="M 56.203125 29.59375 
L 56.203125 25.203125 
L 14.890625 25.203125 
Q 15.484375 15.921875 20.484375 11.0625 
Q 25.484375 6.203125 34.421875 6.203125 
Q 39.59375 6.203125 44.453125 7.46875 
Q 49.3125 8.734375 54.109375 11.28125 
L 54.109375 2.78125 
Q 49.265625 0.734375 44.1875 -0.34375 
Q 39.109375 -1.421875 33.890625 -1.421875 
Q 20.796875 -1.421875 13.15625 6.1875 
Q 5.515625 13.8125 5.515625 26.8125 
Q 5.515625 40.234375 12.765625 48.109375 
Q 20.015625 56 32.328125 56 
Q 43.359375 56 49.78125 48.890625 
Q 56.203125 41.796875 56.203125 29.59375 
z
M 47.21875 32.234375 
Q 47.125 39.59375 43.09375 43.984375 
Q 39.0625 48.390625 32.421875 48.390625 
Q 24.90625 48.390625 20.390625 44.140625 
Q 15.875 39.890625 15.1875 32.171875 
z
" id="DejaVuSans-101"/>
     </defs>
     <g transform="translate(25.192187 289.83125)rotate(-90)scale(0.1 -0.1)">
      <use xlink:href="#DejaVuSans-70"/>
      <use x="57.410156" xlink:href="#DejaVuSans-114"/>
      <use x="98.523438" xlink:href="#DejaVuSans-97"/>
      <use x="159.802734" xlink:href="#DejaVuSans-99"/>
      <use x="214.783203" xlink:href="#DejaVuSans-116"/>
      <use x="253.992188" xlink:href="#DejaVuSans-105"/>
      <use x="281.775391" xlink:href="#DejaVuSans-111"/>
      <use x="342.957031" xlink:href="#DejaVuSans-110"/>
      <use x="406.335938" xlink:href="#DejaVuSans-32"/>
      <use x="438.123047" xlink:href="#DejaVuSans-111"/>
      <use x="499.304688" xlink:href="#DejaVuSans-102"/>
      <use x="534.509766" xlink:href="#DejaVuSans-32"/>
      <use x="566.296875" xlink:href="#DejaVuSans-112"/>
      <use x="629.773438" xlink:href="#DejaVuSans-111"/>
      <use x="690.955078" xlink:href="#DejaVuSans-115"/>
      <use x="743.054688" xlink:href="#DejaVuSans-105"/>
      <use x="770.837891" xlink:href="#DejaVuSans-116"/>
      <use x="810.046875" xlink:href="#DejaVuSans-105"/>
      <use x="837.830078" xlink:href="#DejaVuSans-118"/>
      <use x="897.009766" xlink:href="#DejaVuSans-101"/>
      <use x="958.533203" xlink:href="#DejaVuSans-115"/>
     </g>
    </g>
   </g>
   <g id="line2d_13">
    <path clip-path="url(#p31f9bccd3f)" d="M 83.948864 432.481818 
L 679.426136 46.118182 
" style="fill:none;stroke:#000000;stroke-dasharray:1.5,2.475;stroke-dashoffset:0;stroke-width:1.5;"/>
   </g>
   <g id="line2d_14">
    <path clip-path="url(#p31f9bccd3f)" d="M 83.948864 234.792424 
L 89.963786 238.771776 
L 95.978708 240.421628 
L 101.993629 242.060439 
L 108.008551 243.109322 
L 114.023473 244.42728 
L 120.038395 245.380909 
L 126.053317 246.334538 
L 132.068239 247.288167 
L 138.083161 248.241796 
L 144.098083 249.195426 
L 150.113005 250.149055 
L 156.127927 251.102684 
L 162.142849 252.056313 
L 168.157771 252.87501 
L 174.172693 249.505074 
L 180.187615 240.79036 
L 186.202537 233.643104 
L 192.217459 227.247043 
L 198.232381 213.191129 
L 204.247303 199.70363 
L 210.262225 186.248684 
L 216.277146 176.730017 
L 222.292068 168.381866 
L 228.30699 162.061188 
L 234.321912 157.814318 
L 240.336834 155.225973 
L 246.351756 155.7143 
L 252.366678 156.284463 
L 258.3816 156.562878 
L 264.396522 167.63042 
L 270.411444 179.022292 
L 276.426366 190.414163 
L 282.441288 202.277449 
L 288.45621 213.320439 
L 294.471132 218.465619 
L 300.486054 220.230958 
L 306.500976 219.169875 
L 312.515898 215.4887 
L 318.53082 211.807525 
L 324.545742 208.12635 
L 330.560663 204.516739 
L 336.575585 201.788584 
L 342.590507 199.521226 
L 348.605429 200.320378 
L 354.620351 202.316059 
L 360.635273 198.898563 
L 366.650195 198.878205 
L 372.665117 199.032451 
L 378.680039 200.311499 
L 384.694961 201.590546 
L 390.709883 200.747869 
L 396.724805 198.728994 
L 402.739727 193.676268 
L 408.754649 187.339704 
L 414.769571 182.519257 
L 420.784493 177.959363 
L 426.799415 173.355911 
L 432.814337 170.795849 
L 438.829258 168.235787 
L 444.84418 165.675725 
L 450.859102 163.115663 
L 456.874024 160.555601 
L 462.888946 161.671326 
L 468.903868 162.452088 
L 474.91879 160.759391 
L 480.933712 160.233886 
L 486.948634 163.010805 
L 492.963556 158.089673 
L 498.978478 154.064921 
L 504.9934 155.190597 
L 511.008322 152.499723 
L 517.023244 153.672015 
L 523.038166 152.693327 
L 529.053088 150.400691 
L 535.06801 148.21814 
L 541.082932 141.661055 
L 547.097854 138.265938 
L 553.112775 135.262638 
L 559.127697 132.559033 
L 565.142619 129.855428 
L 571.157541 127.151823 
L 577.172463 124.978058 
L 583.187385 125.094268 
L 589.202307 125.507426 
L 595.217229 128.169802 
L 601.232151 133.551943 
L 607.247073 137.970203 
L 613.261995 142.388464 
L 619.276917 146.806724 
L 625.291839 151.224984 
L 631.306761 155.643245 
L 637.321683 160.061505 
L 643.336605 164.479766 
L 649.351527 168.898026 
L 655.366449 173.316287 
L 661.381371 176.111302 
L 667.396292 178.095674 
L 673.411214 179.720564 
L 679.426136 181.345455 
" style="fill:none;stroke:#003f5c;stroke-linecap:square;stroke-width:1.5;"/>
   </g>
   <g id="line2d_15">
    <path clip-path="url(#p31f9bccd3f)" d="M 83.948864 294.034848 
L 89.963786 296.663803 
L 95.978708 298.919766 
L 101.993629 301.351783 
L 108.008551 303.441068 
L 114.023473 304.788426 
L 120.038395 305.585546 
L 126.053317 306.246778 
L 132.068239 306.90801 
L 138.083161 307.569241 
L 144.098083 308.230473 
L 150.113005 308.891704 
L 156.127927 309.552936 
L 162.142849 310.214167 
L 168.157771 309.754692 
L 174.172693 302.275999 
L 180.187615 290.568621 
L 186.202537 278.513634 
L 192.217459 267.973246 
L 198.232381 259.540596 
L 204.247303 255.645347 
L 210.262225 255.132971 
L 216.277146 254.620595 
L 222.292068 254.510587 
L 228.30699 257.225153 
L 234.321912 255.738773 
L 240.336834 253.390093 
L 246.351756 241.210552 
L 252.366678 230.133721 
L 258.3816 222.153052 
L 264.396522 213.803042 
L 270.411444 205.329711 
L 276.426366 196.856381 
L 282.441288 190.939899 
L 288.45621 187.420044 
L 294.471132 183.583835 
L 300.486054 184.041219 
L 306.500976 182.951532 
L 312.515898 183.140591 
L 318.53082 183.673169 
L 324.545742 184.205747 
L 330.560663 184.738325 
L 336.575585 185.270903 
L 342.590507 185.390421 
L 348.605429 182.414458 
L 354.620351 181.598842 
L 360.635273 180.669395 
L 366.650195 178.555923 
L 372.665117 176.442451 
L 378.680039 172.954258 
L 384.694961 163.577785 
L 390.709883 154.201311 
L 396.724805 143.88705 
L 402.739727 131.509826 
L 408.754649 119.863032 
L 414.769571 110.018142 
L 420.784493 99.26532 
L 426.799415 92.291151 
L 432.814337 91.179845 
L 438.829258 90.068539 
L 444.84418 88.957233 
L 450.859102 87.845927 
L 456.874024 86.734622 
L 462.888946 85.623316 
L 468.903868 83.696651 
L 474.91879 80.618913 
L 480.933712 79.230738 
L 486.948634 81.09884 
L 492.963556 84.426939 
L 498.978478 87.755037 
L 504.9934 91.083136 
L 511.008322 94.411234 
L 517.023244 97.739332 
L 523.038166 101.067431 
L 529.053088 102.293345 
L 535.06801 102.841317 
L 541.082932 101.760713 
L 547.097854 99.870254 
L 553.112775 97.979796 
L 559.127697 96.089337 
L 565.142619 94.198879 
L 571.157541 92.30842 
L 577.172463 90.417961 
L 583.187385 88.527503 
L 589.202307 86.637044 
L 595.217229 84.746586 
L 601.232151 82.856127 
L 607.247073 80.965668 
L 613.261995 79.07521 
L 619.276917 77.735739 
L 625.291839 78.005693 
L 631.306761 78.275647 
L 637.321683 78.545601 
L 643.336605 78.815555 
L 649.351527 79.085509 
L 655.366449 80.003769 
L 661.381371 81.191463 
L 667.396292 82.379157 
L 673.411214 83.566851 
L 679.426136 84.754545 
" style="fill:none;stroke:#58508d;stroke-linecap:square;stroke-width:1.5;"/>
   </g>
   <g id="line2d_16">
    <path clip-path="url(#p31f9bccd3f)" d="M 83.948864 333.322228 
L 89.963786 333.237751 
L 95.978708 332.902229 
L 101.993629 332.566708 
L 108.008551 332.231187 
L 114.023473 331.895666 
L 120.038395 331.560144 
L 126.053317 330.849584 
L 132.068239 328.788602 
L 138.083161 326.299231 
L 144.098083 323.80986 
L 150.113005 321.320489 
L 156.127927 318.831118 
L 162.142849 316.341747 
L 168.157771 313.852375 
L 174.172693 311.363004 
L 180.187615 308.873633 
L 186.202537 306.384262 
L 192.217459 303.894891 
L 198.232381 301.40552 
L 204.247303 298.916149 
L 210.262225 296.426778 
L 216.277146 293.937406 
L 222.292068 291.448035 
L 228.30699 288.958664 
L 234.321912 286.469293 
L 240.336834 283.979922 
L 246.351756 281.490551 
L 252.366678 279.00118 
L 258.3816 276.511809 
L 264.396522 274.022438 
L 270.411444 271.533066 
L 276.426366 269.043695 
L 282.441288 266.554324 
L 288.45621 264.064953 
L 294.471132 261.575582 
L 300.486054 259.086211 
L 306.500976 256.59684 
L 312.515898 254.107469 
L 318.53082 251.618098 
L 324.545742 249.128726 
L 330.560663 246.639355 
L 336.575585 244.149984 
L 342.590507 241.660613 
L 348.605429 239.171242 
L 354.620351 236.681871 
L 360.635273 234.1925 
L 366.650195 231.703129 
L 372.665117 229.213757 
L 378.680039 226.724386 
L 384.694961 224.235015 
L 390.709883 221.745644 
L 396.724805 219.256273 
L 402.739727 216.766902 
L 408.754649 214.277531 
L 414.769571 211.78816 
L 420.784493 209.298789 
L 426.799415 206.809417 
L 432.814337 204.320046 
L 438.829258 201.830675 
L 444.84418 199.341304 
L 450.859102 196.851933 
L 456.874024 194.362562 
L 462.888946 191.873191 
L 468.903868 189.38382 
L 474.91879 186.894448 
L 480.933712 184.405077 
L 486.948634 181.915706 
L 492.963556 179.426335 
L 498.978478 176.936964 
L 504.9934 174.447593 
L 511.008322 171.958222 
L 517.023244 169.468851 
L 523.038166 166.97948 
L 529.053088 164.490108 
L 535.06801 162.000737 
L 541.082932 159.511366 
L 547.097854 157.021995 
L 553.112775 154.532624 
L 559.127697 152.043253 
L 565.142619 149.553882 
L 571.157541 147.064511 
L 577.172463 144.57514 
L 583.187385 142.085768 
L 589.202307 139.596397 
L 595.217229 137.107026 
L 601.232151 134.617655 
L 607.247073 132.128284 
L 613.261995 129.638913 
L 619.276917 127.149542 
L 625.291839 124.660171 
L 631.306761 122.170799 
L 637.321683 119.681428 
L 643.336605 117.192057 
L 649.351527 114.702686 
L 655.366449 112.279547 
L 661.381371 110.050517 
L 667.396292 108.461464 
L 673.411214 107.415782 
L 679.426136 107.303628 
" style="fill:none;stroke:#bc5090;stroke-linecap:square;stroke-width:1.5;"/>
   </g>
   <g id="patch_3">
    <path d="M 54.175 451.8 
L 54.175 26.8 
" style="fill:none;stroke:#000000;stroke-linecap:square;stroke-linejoin:miter;stroke-width:0.8;"/>
   </g>
   <g id="patch_4">
    <path d="M 709.2 451.8 
L 709.2 26.8 
" style="fill:none;stroke:#000000;stroke-linecap:square;stroke-linejoin:miter;stroke-width:0.8;"/>
   </g>
   <g id="patch_5">
    <path d="M 54.175 451.8 
L 709.2 451.8 
" style="fill:none;stroke:#000000;stroke-linecap:square;stroke-linejoin:miter;stroke-width:0.8;"/>
   </g>
   <g id="patch_6">
    <path d="M 54.175 26.8 
L 709.2 26.8 
" style="fill:none;stroke:#000000;stroke-linecap:square;stroke-linejoin:miter;stroke-width:0.8;"/>
   </g>
   <g id="text_14">
    <!-- Calibration plots  (reliability curve) -->
    <defs>
     <path d="M 64.40625 67.28125 
L 64.40625 56.890625 
Q 59.421875 61.53125 53.78125 63.8125 
Q 48.140625 66.109375 41.796875 66.109375 
Q 29.296875 66.109375 22.65625 58.46875 
Q 16.015625 50.828125 16.015625 36.375 
Q 16.015625 21.96875 22.65625 14.328125 
Q 29.296875 6.6875 41.796875 6.6875 
Q 48.140625 6.6875 53.78125 8.984375 
Q 59.421875 11.28125 64.40625 15.921875 
L 64.40625 5.609375 
Q 59.234375 2.09375 53.4375 0.328125 
Q 47.65625 -1.421875 41.21875 -1.421875 
Q 24.65625 -1.421875 15.125 8.703125 
Q 5.609375 18.84375 5.609375 36.375 
Q 5.609375 53.953125 15.125 64.078125 
Q 24.65625 74.21875 41.21875 74.21875 
Q 47.75 74.21875 53.53125 72.484375 
Q 59.328125 70.75 64.40625 67.28125 
z
" id="DejaVuSans-67"/>
     <path d="M 9.421875 75.984375 
L 18.40625 75.984375 
L 18.40625 0 
L 9.421875 0 
z
" id="DejaVuSans-108"/>
     <path d="M 48.6875 27.296875 
Q 48.6875 37.203125 44.609375 42.84375 
Q 40.53125 48.484375 33.40625 48.484375 
Q 26.265625 48.484375 22.1875 42.84375 
Q 18.109375 37.203125 18.109375 27.296875 
Q 18.109375 17.390625 22.1875 11.75 
Q 26.265625 6.109375 33.40625 6.109375 
Q 40.53125 6.109375 44.609375 11.75 
Q 48.6875 17.390625 48.6875 27.296875 
z
M 18.109375 46.390625 
Q 20.953125 51.265625 25.265625 53.625 
Q 29.59375 56 35.59375 56 
Q 45.5625 56 51.78125 48.09375 
Q 58.015625 40.1875 58.015625 27.296875 
Q 58.015625 14.40625 51.78125 6.484375 
Q 45.5625 -1.421875 35.59375 -1.421875 
Q 29.59375 -1.421875 25.265625 0.953125 
Q 20.953125 3.328125 18.109375 8.203125 
L 18.109375 0 
L 9.078125 0 
L 9.078125 75.984375 
L 18.109375 75.984375 
z
" id="DejaVuSans-98"/>
     <path d="M 31 75.875 
Q 24.46875 64.65625 21.28125 53.65625 
Q 18.109375 42.671875 18.109375 31.390625 
Q 18.109375 20.125 21.3125 9.0625 
Q 24.515625 -2 31 -13.1875 
L 23.1875 -13.1875 
Q 15.875 -1.703125 12.234375 9.375 
Q 8.59375 20.453125 8.59375 31.390625 
Q 8.59375 42.28125 12.203125 53.3125 
Q 15.828125 64.359375 23.1875 75.875 
z
" id="DejaVuSans-40"/>
     <path d="M 32.171875 -5.078125 
Q 28.375 -14.84375 24.75 -17.8125 
Q 21.140625 -20.796875 15.09375 -20.796875 
L 7.90625 -20.796875 
L 7.90625 -13.28125 
L 13.1875 -13.28125 
Q 16.890625 -13.28125 18.9375 -11.515625 
Q 21 -9.765625 23.484375 -3.21875 
L 25.09375 0.875 
L 2.984375 54.6875 
L 12.5 54.6875 
L 29.59375 11.921875 
L 46.6875 54.6875 
L 56.203125 54.6875 
z
" id="DejaVuSans-121"/>
     <path d="M 8.5 21.578125 
L 8.5 54.6875 
L 17.484375 54.6875 
L 17.484375 21.921875 
Q 17.484375 14.15625 20.5 10.265625 
Q 23.53125 6.390625 29.59375 6.390625 
Q 36.859375 6.390625 41.078125 11.03125 
Q 45.3125 15.671875 45.3125 23.6875 
L 45.3125 54.6875 
L 54.296875 54.6875 
L 54.296875 0 
L 45.3125 0 
L 45.3125 8.40625 
Q 42.046875 3.421875 37.71875 1 
Q 33.40625 -1.421875 27.6875 -1.421875 
Q 18.265625 -1.421875 13.375 4.4375 
Q 8.5 10.296875 8.5 21.578125 
z
M 31.109375 56 
z
" id="DejaVuSans-117"/>
     <path d="M 8.015625 75.875 
L 15.828125 75.875 
Q 23.140625 64.359375 26.78125 53.3125 
Q 30.421875 42.28125 30.421875 31.390625 
Q 30.421875 20.453125 26.78125 9.375 
Q 23.140625 -1.703125 15.828125 -13.1875 
L 8.015625 -13.1875 
Q 14.5 -2 17.703125 9.0625 
Q 20.90625 20.125 20.90625 31.390625 
Q 20.90625 42.671875 17.703125 53.65625 
Q 14.5 64.65625 8.015625 75.875 
z
" id="DejaVuSans-41"/>
    </defs>
    <g transform="translate(277.415938 20.8)scale(0.12 -0.12)">
     <use xlink:href="#DejaVuSans-67"/>
     <use x="69.824219" xlink:href="#DejaVuSans-97"/>
     <use x="131.103516" xlink:href="#DejaVuSans-108"/>
     <use x="158.886719" xlink:href="#DejaVuSans-105"/>
     <use x="186.669922" xlink:href="#DejaVuSans-98"/>
     <use x="250.146484" xlink:href="#DejaVuSans-114"/>
     <use x="291.259766" xlink:href="#DejaVuSans-97"/>
     <use x="352.539062" xlink:href="#DejaVuSans-116"/>
     <use x="391.748047" xlink:href="#DejaVuSans-105"/>
     <use x="419.53125" xlink:href="#DejaVuSans-111"/>
     <use x="480.712891" xlink:href="#DejaVuSans-110"/>
     <use x="544.091797" xlink:href="#DejaVuSans-32"/>
     <use x="575.878906" xlink:href="#DejaVuSans-112"/>
     <use x="639.355469" xlink:href="#DejaVuSans-108"/>
     <use x="667.138672" xlink:href="#DejaVuSans-111"/>
     <use x="728.320312" xlink:href="#DejaVuSans-116"/>
     <use x="767.529297" xlink:href="#DejaVuSans-115"/>
     <use x="819.628906" xlink:href="#DejaVuSans-32"/>
     <use x="851.416016" xlink:href="#DejaVuSans-32"/>
     <use x="883.203125" xlink:href="#DejaVuSans-40"/>
     <use x="922.216797" xlink:href="#DejaVuSans-114"/>
     <use x="963.298828" xlink:href="#DejaVuSans-101"/>
     <use x="1024.822266" xlink:href="#DejaVuSans-108"/>
     <use x="1052.605469" xlink:href="#DejaVuSans-105"/>
     <use x="1080.388672" xlink:href="#DejaVuSans-97"/>
     <use x="1141.667969" xlink:href="#DejaVuSans-98"/>
     <use x="1205.144531" xlink:href="#DejaVuSans-105"/>
     <use x="1232.927734" xlink:href="#DejaVuSans-108"/>
     <use x="1260.710938" xlink:href="#DejaVuSans-105"/>
     <use x="1288.494141" xlink:href="#DejaVuSans-116"/>
     <use x="1327.703125" xlink:href="#DejaVuSans-121"/>
     <use x="1386.882812" xlink:href="#DejaVuSans-32"/>
     <use x="1418.669922" xlink:href="#DejaVuSans-99"/>
     <use x="1473.650391" xlink:href="#DejaVuSans-117"/>
     <use x="1537.029297" xlink:href="#DejaVuSans-114"/>
     <use x="1578.142578" xlink:href="#DejaVuSans-118"/>
     <use x="1637.322266" xlink:href="#DejaVuSans-101"/>
     <use x="1698.845703" xlink:href="#DejaVuSans-41"/>
    </g>
   </g>
   <g id="legend_1">
    <g id="patch_7">
     <path d="M 520.41875 446.8 
L 702.2 446.8 
Q 704.2 446.8 704.2 444.8 
L 704.2 387.0875 
Q 704.2 385.0875 702.2 385.0875 
L 520.41875 385.0875 
Q 518.41875 385.0875 518.41875 387.0875 
L 518.41875 444.8 
Q 518.41875 446.8 520.41875 446.8 
z
" style="fill:#ffffff;opacity:0.8;stroke:#cccccc;stroke-linejoin:miter;"/>
    </g>
    <g id="line2d_17">
     <path d="M 522.41875 393.185937 
L 542.41875 393.185937 
" style="fill:none;stroke:#000000;stroke-dasharray:1.5,2.475;stroke-dashoffset:0;stroke-width:1.5;"/>
    </g>
    <g id="line2d_18"/>
    <g id="text_15">
     <!-- Calibration parfaite -->
     <g transform="translate(550.41875 396.685937)scale(0.1 -0.1)">
      <use xlink:href="#DejaVuSans-67"/>
      <use x="69.824219" xlink:href="#DejaVuSans-97"/>
      <use x="131.103516" xlink:href="#DejaVuSans-108"/>
      <use x="158.886719" xlink:href="#DejaVuSans-105"/>
      <use x="186.669922" xlink:href="#DejaVuSans-98"/>
      <use x="250.146484" xlink:href="#DejaVuSans-114"/>
      <use x="291.259766" xlink:href="#DejaVuSans-97"/>
      <use x="352.539062" xlink:href="#DejaVuSans-116"/>
      <use x="391.748047" xlink:href="#DejaVuSans-105"/>
      <use x="419.53125" xlink:href="#DejaVuSans-111"/>
      <use x="480.712891" xlink:href="#DejaVuSans-110"/>
      <use x="544.091797" xlink:href="#DejaVuSans-32"/>
      <use x="575.878906" xlink:href="#DejaVuSans-112"/>
      <use x="639.355469" xlink:href="#DejaVuSans-97"/>
      <use x="700.634766" xlink:href="#DejaVuSans-114"/>
      <use x="741.748047" xlink:href="#DejaVuSans-102"/>
      <use x="776.953125" xlink:href="#DejaVuSans-97"/>
      <use x="838.232422" xlink:href="#DejaVuSans-105"/>
      <use x="866.015625" xlink:href="#DejaVuSans-116"/>
      <use x="905.224609" xlink:href="#DejaVuSans-101"/>
     </g>
    </g>
    <g id="line2d_19">
     <path d="M 522.41875 407.864062 
L 542.41875 407.864062 
" style="fill:none;stroke:#003f5c;stroke-linecap:square;stroke-width:1.5;"/>
    </g>
    <g id="line2d_20"/>
    <g id="text_16">
     <!-- PPrediction (Brier 0.270.06) -->
     <defs>
      <path d="M 19.671875 64.796875 
L 19.671875 37.40625 
L 32.078125 37.40625 
Q 38.96875 37.40625 42.71875 40.96875 
Q 46.484375 44.53125 46.484375 51.125 
Q 46.484375 57.671875 42.71875 61.234375 
Q 38.96875 64.796875 32.078125 64.796875 
z
M 9.8125 72.90625 
L 32.078125 72.90625 
Q 44.34375 72.90625 50.609375 67.359375 
Q 56.890625 61.8125 56.890625 51.125 
Q 56.890625 40.328125 50.609375 34.8125 
Q 44.34375 29.296875 32.078125 29.296875 
L 19.671875 29.296875 
L 19.671875 0 
L 9.8125 0 
z
" id="DejaVuSans-80"/>
      <path d="M 45.40625 46.390625 
L 45.40625 75.984375 
L 54.390625 75.984375 
L 54.390625 0 
L 45.40625 0 
L 45.40625 8.203125 
Q 42.578125 3.328125 38.25 0.953125 
Q 33.9375 -1.421875 27.875 -1.421875 
Q 17.96875 -1.421875 11.734375 6.484375 
Q 5.515625 14.40625 5.515625 27.296875 
Q 5.515625 40.1875 11.734375 48.09375 
Q 17.96875 56 27.875 56 
Q 33.9375 56 38.25 53.625 
Q 42.578125 51.265625 45.40625 46.390625 
z
M 14.796875 27.296875 
Q 14.796875 17.390625 18.875 11.75 
Q 22.953125 6.109375 30.078125 6.109375 
Q 37.203125 6.109375 41.296875 11.75 
Q 45.40625 17.390625 45.40625 27.296875 
Q 45.40625 37.203125 41.296875 42.84375 
Q 37.203125 48.484375 30.078125 48.484375 
Q 22.953125 48.484375 18.875 42.84375 
Q 14.796875 37.203125 14.796875 27.296875 
z
" id="DejaVuSans-100"/>
      <path d="M 19.671875 34.8125 
L 19.671875 8.109375 
L 35.5 8.109375 
Q 43.453125 8.109375 47.28125 11.40625 
Q 51.125 14.703125 51.125 21.484375 
Q 51.125 28.328125 47.28125 31.5625 
Q 43.453125 34.8125 35.5 34.8125 
z
M 19.671875 64.796875 
L 19.671875 42.828125 
L 34.28125 42.828125 
Q 41.5 42.828125 45.03125 45.53125 
Q 48.578125 48.25 48.578125 53.8125 
Q 48.578125 59.328125 45.03125 62.0625 
Q 41.5 64.796875 34.28125 64.796875 
z
M 9.8125 72.90625 
L 35.015625 72.90625 
Q 46.296875 72.90625 52.390625 68.21875 
Q 58.5 63.53125 58.5 54.890625 
Q 58.5 48.1875 55.375 44.234375 
Q 52.25 40.28125 46.1875 39.3125 
Q 53.46875 37.75 57.5 32.78125 
Q 61.53125 27.828125 61.53125 20.40625 
Q 61.53125 10.640625 54.890625 5.3125 
Q 48.25 0 35.984375 0 
L 9.8125 0 
z
" id="DejaVuSans-66"/>
      <path d="M 8.203125 72.90625 
L 55.078125 72.90625 
L 55.078125 68.703125 
L 28.609375 0 
L 18.3125 0 
L 43.21875 64.59375 
L 8.203125 64.59375 
z
" id="DejaVuSans-55"/>
      <path d="M 46 62.703125 
L 46 43.796875 
L 73.1875 43.796875 
L 73.1875 35.5 
L 46 35.5 
L 46 16.609375 
L 37.796875 16.609375 
L 37.796875 35.5 
L 10.59375 35.5 
L 10.59375 43.796875 
L 37.796875 43.796875 
L 37.796875 62.703125 
z
M 10.59375 8.296875 
L 73.1875 8.296875 
L 73.1875 0 
L 10.59375 0 
z
" id="DejaVuSans-177"/>
     </defs>
     <g transform="translate(550.41875 411.364062)scale(0.1 -0.1)">
      <use xlink:href="#DejaVuSans-80"/>
      <use x="60.302734" xlink:href="#DejaVuSans-80"/>
      <use x="120.589844" xlink:href="#DejaVuSans-114"/>
      <use x="161.671875" xlink:href="#DejaVuSans-101"/>
      <use x="223.195312" xlink:href="#DejaVuSans-100"/>
      <use x="286.671875" xlink:href="#DejaVuSans-105"/>
      <use x="314.455078" xlink:href="#DejaVuSans-99"/>
      <use x="369.435547" xlink:href="#DejaVuSans-116"/>
      <use x="408.644531" xlink:href="#DejaVuSans-105"/>
      <use x="436.427734" xlink:href="#DejaVuSans-111"/>
      <use x="497.609375" xlink:href="#DejaVuSans-110"/>
      <use x="560.988281" xlink:href="#DejaVuSans-32"/>
      <use x="592.775391" xlink:href="#DejaVuSans-40"/>
      <use x="631.789062" xlink:href="#DejaVuSans-66"/>
      <use x="700.392578" xlink:href="#DejaVuSans-114"/>
      <use x="741.505859" xlink:href="#DejaVuSans-105"/>
      <use x="769.289062" xlink:href="#DejaVuSans-101"/>
      <use x="830.8125" xlink:href="#DejaVuSans-114"/>
      <use x="871.925781" xlink:href="#DejaVuSans-32"/>
      <use x="903.712891" xlink:href="#DejaVuSans-48"/>
      <use x="967.335938" xlink:href="#DejaVuSans-46"/>
      <use x="999.123047" xlink:href="#DejaVuSans-50"/>
      <use x="1062.746094" xlink:href="#DejaVuSans-55"/>
      <use x="1126.369141" xlink:href="#DejaVuSans-177"/>
      <use x="1210.158203" xlink:href="#DejaVuSans-48"/>
      <use x="1273.78125" xlink:href="#DejaVuSans-46"/>
      <use x="1305.568359" xlink:href="#DejaVuSans-48"/>
      <use x="1369.191406" xlink:href="#DejaVuSans-54"/>
      <use x="1432.814453" xlink:href="#DejaVuSans-41"/>
     </g>
    </g>
    <g id="line2d_21">
     <path d="M 522.41875 422.542187 
L 542.41875 422.542187 
" style="fill:none;stroke:#58508d;stroke-linecap:square;stroke-width:1.5;"/>
    </g>
    <g id="line2d_22"/>
    <g id="text_17">
     <!-- DPrediction (Brier 0.230.06) -->
     <defs>
      <path d="M 19.671875 64.796875 
L 19.671875 8.109375 
L 31.59375 8.109375 
Q 46.6875 8.109375 53.6875 14.9375 
Q 60.6875 21.78125 60.6875 36.53125 
Q 60.6875 51.171875 53.6875 57.984375 
Q 46.6875 64.796875 31.59375 64.796875 
z
M 9.8125 72.90625 
L 30.078125 72.90625 
Q 51.265625 72.90625 61.171875 64.09375 
Q 71.09375 55.28125 71.09375 36.53125 
Q 71.09375 17.671875 61.125 8.828125 
Q 51.171875 0 30.078125 0 
L 9.8125 0 
z
" id="DejaVuSans-68"/>
      <path d="M 40.578125 39.3125 
Q 47.65625 37.796875 51.625 33 
Q 55.609375 28.21875 55.609375 21.1875 
Q 55.609375 10.40625 48.1875 4.484375 
Q 40.765625 -1.421875 27.09375 -1.421875 
Q 22.515625 -1.421875 17.65625 -0.515625 
Q 12.796875 0.390625 7.625 2.203125 
L 7.625 11.71875 
Q 11.71875 9.328125 16.59375 8.109375 
Q 21.484375 6.890625 26.8125 6.890625 
Q 36.078125 6.890625 40.9375 10.546875 
Q 45.796875 14.203125 45.796875 21.1875 
Q 45.796875 27.640625 41.28125 31.265625 
Q 36.765625 34.90625 28.71875 34.90625 
L 20.21875 34.90625 
L 20.21875 43.015625 
L 29.109375 43.015625 
Q 36.375 43.015625 40.234375 45.921875 
Q 44.09375 48.828125 44.09375 54.296875 
Q 44.09375 59.90625 40.109375 62.90625 
Q 36.140625 65.921875 28.71875 65.921875 
Q 24.65625 65.921875 20.015625 65.03125 
Q 15.375 64.15625 9.8125 62.3125 
L 9.8125 71.09375 
Q 15.4375 72.65625 20.34375 73.4375 
Q 25.25 74.21875 29.59375 74.21875 
Q 40.828125 74.21875 47.359375 69.109375 
Q 53.90625 64.015625 53.90625 55.328125 
Q 53.90625 49.265625 50.4375 45.09375 
Q 46.96875 40.921875 40.578125 39.3125 
z
" id="DejaVuSans-51"/>
     </defs>
     <g transform="translate(550.41875 426.042187)scale(0.1 -0.1)">
      <use xlink:href="#DejaVuSans-68"/>
      <use x="77.001953" xlink:href="#DejaVuSans-80"/>
      <use x="137.289062" xlink:href="#DejaVuSans-114"/>
      <use x="178.371094" xlink:href="#DejaVuSans-101"/>
      <use x="239.894531" xlink:href="#DejaVuSans-100"/>
      <use x="303.371094" xlink:href="#DejaVuSans-105"/>
      <use x="331.154297" xlink:href="#DejaVuSans-99"/>
      <use x="386.134766" xlink:href="#DejaVuSans-116"/>
      <use x="425.34375" xlink:href="#DejaVuSans-105"/>
      <use x="453.126953" xlink:href="#DejaVuSans-111"/>
      <use x="514.308594" xlink:href="#DejaVuSans-110"/>
      <use x="577.6875" xlink:href="#DejaVuSans-32"/>
      <use x="609.474609" xlink:href="#DejaVuSans-40"/>
      <use x="648.488281" xlink:href="#DejaVuSans-66"/>
      <use x="717.091797" xlink:href="#DejaVuSans-114"/>
      <use x="758.205078" xlink:href="#DejaVuSans-105"/>
      <use x="785.988281" xlink:href="#DejaVuSans-101"/>
      <use x="847.511719" xlink:href="#DejaVuSans-114"/>
      <use x="888.625" xlink:href="#DejaVuSans-32"/>
      <use x="920.412109" xlink:href="#DejaVuSans-48"/>
      <use x="984.035156" xlink:href="#DejaVuSans-46"/>
      <use x="1015.822266" xlink:href="#DejaVuSans-50"/>
      <use x="1079.445312" xlink:href="#DejaVuSans-51"/>
      <use x="1143.068359" xlink:href="#DejaVuSans-177"/>
      <use x="1226.857422" xlink:href="#DejaVuSans-48"/>
      <use x="1290.480469" xlink:href="#DejaVuSans-46"/>
      <use x="1322.267578" xlink:href="#DejaVuSans-48"/>
      <use x="1385.890625" xlink:href="#DejaVuSans-54"/>
      <use x="1449.513672" xlink:href="#DejaVuSans-41"/>
     </g>
    </g>
    <g id="line2d_23">
     <path d="M 522.41875 437.220312 
L 542.41875 437.220312 
" style="fill:none;stroke:#bc5090;stroke-linecap:square;stroke-width:1.5;"/>
    </g>
    <g id="line2d_24"/>
    <g id="text_18">
     <!-- MPrediction (Brier 0.180.11) -->
     <defs>
      <path d="M 9.8125 72.90625 
L 24.515625 72.90625 
L 43.109375 23.296875 
L 61.8125 72.90625 
L 76.515625 72.90625 
L 76.515625 0 
L 66.890625 0 
L 66.890625 64.015625 
L 48.09375 14.015625 
L 38.1875 14.015625 
L 19.390625 64.015625 
L 19.390625 0 
L 9.8125 0 
z
" id="DejaVuSans-77"/>
     </defs>
     <g transform="translate(550.41875 440.720312)scale(0.1 -0.1)">
      <use xlink:href="#DejaVuSans-77"/>
      <use x="86.279297" xlink:href="#DejaVuSans-80"/>
      <use x="146.566406" xlink:href="#DejaVuSans-114"/>
      <use x="187.648438" xlink:href="#DejaVuSans-101"/>
      <use x="249.171875" xlink:href="#DejaVuSans-100"/>
      <use x="312.648438" xlink:href="#DejaVuSans-105"/>
      <use x="340.431641" xlink:href="#DejaVuSans-99"/>
      <use x="395.412109" xlink:href="#DejaVuSans-116"/>
      <use x="434.621094" xlink:href="#DejaVuSans-105"/>
      <use x="462.404297" xlink:href="#DejaVuSans-111"/>
      <use x="523.585938" xlink:href="#DejaVuSans-110"/>
      <use x="586.964844" xlink:href="#DejaVuSans-32"/>
      <use x="618.751953" xlink:href="#DejaVuSans-40"/>
      <use x="657.765625" xlink:href="#DejaVuSans-66"/>
      <use x="726.369141" xlink:href="#DejaVuSans-114"/>
      <use x="767.482422" xlink:href="#DejaVuSans-105"/>
      <use x="795.265625" xlink:href="#DejaVuSans-101"/>
      <use x="856.789062" xlink:href="#DejaVuSans-114"/>
      <use x="897.902344" xlink:href="#DejaVuSans-32"/>
      <use x="929.689453" xlink:href="#DejaVuSans-48"/>
      <use x="993.3125" xlink:href="#DejaVuSans-46"/>
      <use x="1025.099609" xlink:href="#DejaVuSans-49"/>
      <use x="1088.722656" xlink:href="#DejaVuSans-56"/>
      <use x="1152.345703" xlink:href="#DejaVuSans-177"/>
      <use x="1236.134766" xlink:href="#DejaVuSans-48"/>
      <use x="1299.757812" xlink:href="#DejaVuSans-46"/>
      <use x="1331.544922" xlink:href="#DejaVuSans-49"/>
      <use x="1395.167969" xlink:href="#DejaVuSans-49"/>
      <use x="1458.791016" xlink:href="#DejaVuSans-41"/>
     </g>
    </g>
   </g>
  </g>
  <g id="axes_2">
   <g id="patch_8">
    <path d="M 54.175 678.2 
L 709.2 678.2 
L 709.2 479.6 
L 54.175 479.6 
z
" style="fill:#ffffff;"/>
   </g>
   <g id="patch_9">
    <path clip-path="url(#pb17327605c)" d="M 83.948864 678.2 
L 83.948864 642.735714 
L 143.496591 642.735714 
L 143.496591 678.2 
L 203.044318 678.2 
L 203.044318 654.557143 
L 262.592045 654.557143 
L 262.592045 642.735714 
L 322.139773 642.735714 
L 322.139773 607.271429 
L 381.6875 607.271429 
L 381.6875 642.735714 
L 441.235227 642.735714 
L 441.235227 666.378571 
L 500.782955 666.378571 
L 500.782955 654.557143 
L 560.330682 654.557143 
L 560.330682 678.2 
L 619.878409 678.2 
L 619.878409 654.557143 
L 679.426136 654.557143 
L 679.426136 678.2 
" style="fill:none;stroke:#003f5c;stroke-linejoin:miter;stroke-width:2;"/>
   </g>
   <g id="patch_10">
    <path clip-path="url(#pb17327605c)" d="M 83.948864 678.2 
L 83.948864 630.914286 
L 143.496591 630.914286 
L 143.496591 630.914286 
L 203.044318 630.914286 
L 203.044318 619.092857 
L 262.592045 619.092857 
L 262.592045 630.914286 
L 322.139773 630.914286 
L 322.139773 666.378571 
L 381.6875 666.378571 
L 381.6875 654.557143 
L 441.235227 654.557143 
L 441.235227 666.378571 
L 500.782955 666.378571 
L 500.782955 678.2 
L 560.330682 678.2 
L 560.330682 678.2 
L 619.878409 678.2 
L 619.878409 666.378571 
L 679.426136 666.378571 
L 679.426136 678.2 
" style="fill:none;stroke:#58508d;stroke-linejoin:miter;stroke-width:2;"/>
   </g>
   <g id="patch_11">
    <path clip-path="url(#pb17327605c)" d="M 83.948864 678.2 
L 83.948864 607.271429 
L 143.496591 607.271429 
L 143.496591 678.2 
L 203.044318 678.2 
L 203.044318 678.2 
L 262.592045 678.2 
L 262.592045 678.2 
L 322.139773 678.2 
L 322.139773 678.2 
L 381.6875 678.2 
L 381.6875 678.2 
L 441.235227 678.2 
L 441.235227 678.2 
L 500.782955 678.2 
L 500.782955 678.2 
L 560.330682 678.2 
L 560.330682 678.2 
L 619.878409 678.2 
L 619.878409 489.057143 
L 679.426136 489.057143 
L 679.426136 678.2 
" style="fill:none;stroke:#bc5090;stroke-linejoin:miter;stroke-width:2;"/>
   </g>
   <g id="matplotlib.axis_3">
    <g id="xtick_7">
     <g id="line2d_25">
      <g>
       <use style="stroke:#000000;stroke-width:0.8;" x="83.948864" xlink:href="#mb09454350c" y="678.2"/>
      </g>
     </g>
     <g id="text_19">
      <!-- 0.0 -->
      <g transform="translate(75.997301 692.798437)scale(0.1 -0.1)">
       <use xlink:href="#DejaVuSans-48"/>
       <use x="63.623047" xlink:href="#DejaVuSans-46"/>
       <use x="95.410156" xlink:href="#DejaVuSans-48"/>
      </g>
     </g>
    </g>
    <g id="xtick_8">
     <g id="line2d_26">
      <g>
       <use style="stroke:#000000;stroke-width:0.8;" x="203.044318" xlink:href="#mb09454350c" y="678.2"/>
      </g>
     </g>
     <g id="text_20">
      <!-- 0.2 -->
      <g transform="translate(195.092756 692.798437)scale(0.1 -0.1)">
       <use xlink:href="#DejaVuSans-48"/>
       <use x="63.623047" xlink:href="#DejaVuSans-46"/>
       <use x="95.410156" xlink:href="#DejaVuSans-50"/>
      </g>
     </g>
    </g>
    <g id="xtick_9">
     <g id="line2d_27">
      <g>
       <use style="stroke:#000000;stroke-width:0.8;" x="322.139773" xlink:href="#mb09454350c" y="678.2"/>
      </g>
     </g>
     <g id="text_21">
      <!-- 0.4 -->
      <g transform="translate(314.18821 692.798437)scale(0.1 -0.1)">
       <use xlink:href="#DejaVuSans-48"/>
       <use x="63.623047" xlink:href="#DejaVuSans-46"/>
       <use x="95.410156" xlink:href="#DejaVuSans-52"/>
      </g>
     </g>
    </g>
    <g id="xtick_10">
     <g id="line2d_28">
      <g>
       <use style="stroke:#000000;stroke-width:0.8;" x="441.235227" xlink:href="#mb09454350c" y="678.2"/>
      </g>
     </g>
     <g id="text_22">
      <!-- 0.6 -->
      <g transform="translate(433.283665 692.798437)scale(0.1 -0.1)">
       <use xlink:href="#DejaVuSans-48"/>
       <use x="63.623047" xlink:href="#DejaVuSans-46"/>
       <use x="95.410156" xlink:href="#DejaVuSans-54"/>
      </g>
     </g>
    </g>
    <g id="xtick_11">
     <g id="line2d_29">
      <g>
       <use style="stroke:#000000;stroke-width:0.8;" x="560.330682" xlink:href="#mb09454350c" y="678.2"/>
      </g>
     </g>
     <g id="text_23">
      <!-- 0.8 -->
      <g transform="translate(552.379119 692.798437)scale(0.1 -0.1)">
       <use xlink:href="#DejaVuSans-48"/>
       <use x="63.623047" xlink:href="#DejaVuSans-46"/>
       <use x="95.410156" xlink:href="#DejaVuSans-56"/>
      </g>
     </g>
    </g>
    <g id="xtick_12">
     <g id="line2d_30">
      <g>
       <use style="stroke:#000000;stroke-width:0.8;" x="679.426136" xlink:href="#mb09454350c" y="678.2"/>
      </g>
     </g>
     <g id="text_24">
      <!-- 1.0 -->
      <g transform="translate(671.474574 692.798437)scale(0.1 -0.1)">
       <use xlink:href="#DejaVuSans-49"/>
       <use x="63.623047" xlink:href="#DejaVuSans-46"/>
       <use x="95.410156" xlink:href="#DejaVuSans-48"/>
      </g>
     </g>
    </g>
    <g id="text_25">
     <!-- Mean predicted value -->
     <g transform="translate(327.4 706.476562)scale(0.1 -0.1)">
      <use xlink:href="#DejaVuSans-77"/>
      <use x="86.279297" xlink:href="#DejaVuSans-101"/>
      <use x="147.802734" xlink:href="#DejaVuSans-97"/>
      <use x="209.082031" xlink:href="#DejaVuSans-110"/>
      <use x="272.460938" xlink:href="#DejaVuSans-32"/>
      <use x="304.248047" xlink:href="#DejaVuSans-112"/>
      <use x="367.724609" xlink:href="#DejaVuSans-114"/>
      <use x="408.806641" xlink:href="#DejaVuSans-101"/>
      <use x="470.330078" xlink:href="#DejaVuSans-100"/>
      <use x="533.806641" xlink:href="#DejaVuSans-105"/>
      <use x="561.589844" xlink:href="#DejaVuSans-99"/>
      <use x="616.570312" xlink:href="#DejaVuSans-116"/>
      <use x="655.779297" xlink:href="#DejaVuSans-101"/>
      <use x="717.302734" xlink:href="#DejaVuSans-100"/>
      <use x="780.779297" xlink:href="#DejaVuSans-32"/>
      <use x="812.566406" xlink:href="#DejaVuSans-118"/>
      <use x="871.746094" xlink:href="#DejaVuSans-97"/>
      <use x="933.025391" xlink:href="#DejaVuSans-108"/>
      <use x="960.808594" xlink:href="#DejaVuSans-117"/>
      <use x="1024.1875" xlink:href="#DejaVuSans-101"/>
     </g>
    </g>
   </g>
   <g id="matplotlib.axis_4">
    <g id="ytick_7">
     <g id="line2d_31">
      <g>
       <use style="stroke:#000000;stroke-width:0.8;" x="54.175" xlink:href="#md7f2d35696" y="678.2"/>
      </g>
     </g>
     <g id="text_26">
      <!-- 0 -->
      <g transform="translate(40.8125 681.999219)scale(0.1 -0.1)">
       <use xlink:href="#DejaVuSans-48"/>
      </g>
     </g>
    </g>
    <g id="ytick_8">
     <g id="line2d_32">
      <g>
       <use style="stroke:#000000;stroke-width:0.8;" x="54.175" xlink:href="#md7f2d35696" y="654.557143"/>
      </g>
     </g>
     <g id="text_27">
      <!-- 2 -->
      <g transform="translate(40.8125 658.356362)scale(0.1 -0.1)">
       <use xlink:href="#DejaVuSans-50"/>
      </g>
     </g>
    </g>
    <g id="ytick_9">
     <g id="line2d_33">
      <g>
       <use style="stroke:#000000;stroke-width:0.8;" x="54.175" xlink:href="#md7f2d35696" y="630.914286"/>
      </g>
     </g>
     <g id="text_28">
      <!-- 4 -->
      <g transform="translate(40.8125 634.713504)scale(0.1 -0.1)">
       <use xlink:href="#DejaVuSans-52"/>
      </g>
     </g>
    </g>
    <g id="ytick_10">
     <g id="line2d_34">
      <g>
       <use style="stroke:#000000;stroke-width:0.8;" x="54.175" xlink:href="#md7f2d35696" y="607.271429"/>
      </g>
     </g>
     <g id="text_29">
      <!-- 6 -->
      <g transform="translate(40.8125 611.070647)scale(0.1 -0.1)">
       <use xlink:href="#DejaVuSans-54"/>
      </g>
     </g>
    </g>
    <g id="ytick_11">
     <g id="line2d_35">
      <g>
       <use style="stroke:#000000;stroke-width:0.8;" x="54.175" xlink:href="#md7f2d35696" y="583.628571"/>
      </g>
     </g>
     <g id="text_30">
      <!-- 8 -->
      <g transform="translate(40.8125 587.42779)scale(0.1 -0.1)">
       <use xlink:href="#DejaVuSans-56"/>
      </g>
     </g>
    </g>
    <g id="ytick_12">
     <g id="line2d_36">
      <g>
       <use style="stroke:#000000;stroke-width:0.8;" x="54.175" xlink:href="#md7f2d35696" y="559.985714"/>
      </g>
     </g>
     <g id="text_31">
      <!-- 10 -->
      <g transform="translate(34.45 563.784933)scale(0.1 -0.1)">
       <use xlink:href="#DejaVuSans-49"/>
       <use x="63.623047" xlink:href="#DejaVuSans-48"/>
      </g>
     </g>
    </g>
    <g id="ytick_13">
     <g id="line2d_37">
      <g>
       <use style="stroke:#000000;stroke-width:0.8;" x="54.175" xlink:href="#md7f2d35696" y="536.342857"/>
      </g>
     </g>
     <g id="text_32">
      <!-- 12 -->
      <g transform="translate(34.45 540.142076)scale(0.1 -0.1)">
       <use xlink:href="#DejaVuSans-49"/>
       <use x="63.623047" xlink:href="#DejaVuSans-50"/>
      </g>
     </g>
    </g>
    <g id="ytick_14">
     <g id="line2d_38">
      <g>
       <use style="stroke:#000000;stroke-width:0.8;" x="54.175" xlink:href="#md7f2d35696" y="512.7"/>
      </g>
     </g>
     <g id="text_33">
      <!-- 14 -->
      <g transform="translate(34.45 516.499219)scale(0.1 -0.1)">
       <use xlink:href="#DejaVuSans-49"/>
       <use x="63.623047" xlink:href="#DejaVuSans-52"/>
      </g>
     </g>
    </g>
    <g id="ytick_15">
     <g id="line2d_39">
      <g>
       <use style="stroke:#000000;stroke-width:0.8;" x="54.175" xlink:href="#md7f2d35696" y="489.057143"/>
      </g>
     </g>
     <g id="text_34">
      <!-- 16 -->
      <g transform="translate(34.45 492.856362)scale(0.1 -0.1)">
       <use xlink:href="#DejaVuSans-49"/>
       <use x="63.623047" xlink:href="#DejaVuSans-54"/>
      </g>
     </g>
    </g>
    <g id="text_35">
     <!-- Count -->
     <g transform="translate(28.370312 593.748437)rotate(-90)scale(0.1 -0.1)">
      <use xlink:href="#DejaVuSans-67"/>
      <use x="69.824219" xlink:href="#DejaVuSans-111"/>
      <use x="131.005859" xlink:href="#DejaVuSans-117"/>
      <use x="194.384766" xlink:href="#DejaVuSans-110"/>
      <use x="257.763672" xlink:href="#DejaVuSans-116"/>
     </g>
    </g>
   </g>
   <g id="patch_12">
    <path d="M 54.175 678.2 
L 54.175 479.6 
" style="fill:none;stroke:#000000;stroke-linecap:square;stroke-linejoin:miter;stroke-width:0.8;"/>
   </g>
   <g id="patch_13">
    <path d="M 709.2 678.2 
L 709.2 479.6 
" style="fill:none;stroke:#000000;stroke-linecap:square;stroke-linejoin:miter;stroke-width:0.8;"/>
   </g>
   <g id="patch_14">
    <path d="M 54.175 678.2 
L 709.2 678.2 
" style="fill:none;stroke:#000000;stroke-linecap:square;stroke-linejoin:miter;stroke-width:0.8;"/>
   </g>
   <g id="patch_15">
    <path d="M 54.175 479.6 
L 709.2 479.6 
" style="fill:none;stroke:#000000;stroke-linecap:square;stroke-linejoin:miter;stroke-width:0.8;"/>
   </g>
   <g id="legend_2">
    <g id="patch_16">
     <path d="M 283.454688 516.95625 
L 479.920313 516.95625 
Q 481.920313 516.95625 481.920313 514.95625 
L 481.920313 486.6 
Q 481.920313 484.6 479.920313 484.6 
L 283.454688 484.6 
Q 281.454688 484.6 281.454688 486.6 
L 281.454688 514.95625 
Q 281.454688 516.95625 283.454688 516.95625 
z
" style="fill:#ffffff;opacity:0.8;stroke:#cccccc;stroke-linejoin:miter;"/>
    </g>
    <g id="patch_17">
     <path d="M 285.454688 496.198437 
L 305.454688 496.198437 
L 305.454688 489.198437 
L 285.454688 489.198437 
z
" style="fill:none;stroke:#003f5c;stroke-linejoin:miter;stroke-width:2;"/>
    </g>
    <g id="text_36">
     <!-- PPrediction -->
     <g transform="translate(313.454688 496.198437)scale(0.1 -0.1)">
      <use xlink:href="#DejaVuSans-80"/>
      <use x="60.302734" xlink:href="#DejaVuSans-80"/>
      <use x="120.589844" xlink:href="#DejaVuSans-114"/>
      <use x="161.671875" xlink:href="#DejaVuSans-101"/>
      <use x="223.195312" xlink:href="#DejaVuSans-100"/>
      <use x="286.671875" xlink:href="#DejaVuSans-105"/>
      <use x="314.455078" xlink:href="#DejaVuSans-99"/>
      <use x="369.435547" xlink:href="#DejaVuSans-116"/>
      <use x="408.644531" xlink:href="#DejaVuSans-105"/>
      <use x="436.427734" xlink:href="#DejaVuSans-111"/>
      <use x="497.609375" xlink:href="#DejaVuSans-110"/>
     </g>
    </g>
    <g id="patch_18">
     <path d="M 285.454688 510.876562 
L 305.454688 510.876562 
L 305.454688 503.876562 
L 285.454688 503.876562 
z
" style="fill:none;stroke:#58508d;stroke-linejoin:miter;stroke-width:2;"/>
    </g>
    <g id="text_37">
     <!-- DPrediction -->
     <g transform="translate(313.454688 510.876562)scale(0.1 -0.1)">
      <use xlink:href="#DejaVuSans-68"/>
      <use x="77.001953" xlink:href="#DejaVuSans-80"/>
      <use x="137.289062" xlink:href="#DejaVuSans-114"/>
      <use x="178.371094" xlink:href="#DejaVuSans-101"/>
      <use x="239.894531" xlink:href="#DejaVuSans-100"/>
      <use x="303.371094" xlink:href="#DejaVuSans-105"/>
      <use x="331.154297" xlink:href="#DejaVuSans-99"/>
      <use x="386.134766" xlink:href="#DejaVuSans-116"/>
      <use x="425.34375" xlink:href="#DejaVuSans-105"/>
      <use x="453.126953" xlink:href="#DejaVuSans-111"/>
      <use x="514.308594" xlink:href="#DejaVuSans-110"/>
     </g>
    </g>
    <g id="patch_19">
     <path d="M 391.223438 496.198437 
L 411.223438 496.198437 
L 411.223438 489.198437 
L 391.223438 489.198437 
z
" style="fill:none;stroke:#bc5090;stroke-linejoin:miter;stroke-width:2;"/>
    </g>
    <g id="text_38">
     <!-- MPrediction -->
     <g transform="translate(419.223438 496.198437)scale(0.1 -0.1)">
      <use xlink:href="#DejaVuSans-77"/>
      <use x="86.279297" xlink:href="#DejaVuSans-80"/>
      <use x="146.566406" xlink:href="#DejaVuSans-114"/>
      <use x="187.648438" xlink:href="#DejaVuSans-101"/>
      <use x="249.171875" xlink:href="#DejaVuSans-100"/>
      <use x="312.648438" xlink:href="#DejaVuSans-105"/>
      <use x="340.431641" xlink:href="#DejaVuSans-99"/>
      <use x="395.412109" xlink:href="#DejaVuSans-116"/>
      <use x="434.621094" xlink:href="#DejaVuSans-105"/>
      <use x="462.404297" xlink:href="#DejaVuSans-111"/>
      <use x="523.585938" xlink:href="#DejaVuSans-110"/>
     </g>
    </g>
   </g>
  </g>
 </g>
 <defs>
  <clipPath id="p31f9bccd3f">
   <rect height="425" width="655.025" x="54.175" y="26.8"/>
  </clipPath>
  <clipPath id="pb17327605c">
   <rect height="198.6" width="655.025" x="54.175" y="479.6"/>
  </clipPath>
 </defs>
</svg>
