<?xml version="1.0" encoding="utf-8" standalone="no"?>
<!DOCTYPE svg PUBLIC "-//W3C//DTD SVG 1.1//EN"
  "http://www.w3.org/Graphics/SVG/1.1/DTD/svg11.dtd">
<!-- Created with matplotlib (https://matplotlib.org/) -->
<svg height="720pt" version="1.1" viewBox="0 0 720 720" width="720pt" xmlns="http://www.w3.org/2000/svg" xmlns:xlink="http://www.w3.org/1999/xlink">
 <defs>
  <style type="text/css">
*{stroke-linecap:butt;stroke-linejoin:round;}
  </style>
 </defs>
 <g id="figure_1">
  <g id="patch_1">
   <path d="M 0 720 
L 720 720 
L 720 0 
L 0 0 
z
" style="fill:#ffffff;"/>
  </g>
  <g id="axes_1">
   <g id="patch_2">
    <path d="M 47.675 451.8 
L 709.2 451.8 
L 709.2 26.8 
L 47.675 26.8 
z
" style="fill:#ffffff;"/>
   </g>
   <g id="PolyCollection_1">
    <defs>
     <path d="M 77.744318 -409.440586 
L 77.744318 -287.518182 
L 83.818928 -287.518182 
L 89.893538 -287.518182 
L 95.968147 -287.518182 
L 102.042757 -287.518182 
L 108.117367 -287.518182 
L 114.191977 -287.518182 
L 120.266586 -287.518182 
L 126.341196 -287.518182 
L 132.415806 -287.518182 
L 138.490416 -287.518182 
L 144.565025 -287.518182 
L 150.639635 -287.518182 
L 156.714245 -287.518182 
L 162.788854 -287.518182 
L 168.863464 -287.518182 
L 174.938074 -287.518182 
L 181.012684 -287.518182 
L 187.087293 -287.518182 
L 193.161903 -287.518182 
L 199.236513 -287.518182 
L 205.311123 -287.518182 
L 211.385732 -287.518182 
L 217.460342 -287.518182 
L 223.534952 -287.518182 
L 229.609562 -287.518182 
L 235.684171 -287.518182 
L 241.758781 -287.518182 
L 247.833391 -287.518182 
L 253.908 -287.518182 
L 259.98261 -287.518182 
L 266.05722 -287.518182 
L 272.13183 -290.480994 
L 278.206439 -294.383657 
L 284.281049 -298.28632 
L 290.355659 -302.188983 
L 296.430269 -306.208369 
L 302.504878 -310.164384 
L 308.579488 -315.136449 
L 314.654098 -319.521047 
L 320.728708 -322.98922 
L 326.803317 -325.550761 
L 332.877927 -327.235038 
L 338.952537 -328.692811 
L 345.027146 -331.799696 
L 351.101756 -335.056568 
L 357.176366 -337.838985 
L 363.250976 -342.31927 
L 369.325585 -348.206904 
L 375.400195 -353.312012 
L 381.474805 -363.035248 
L 387.549415 -372.063454 
L 393.624024 -378.963817 
L 399.698634 -384.657228 
L 405.773244 -388.84546 
L 411.847854 -394.775053 
L 417.922463 -405.534377 
L 423.997073 -415.707229 
L 430.071683 -426.610555 
L 436.146292 -435.67267 
L 442.220902 -446.617746 
L 448.295512 -453.84961 
L 454.370122 -456.855821 
L 460.444731 -460.19299 
L 466.519341 -463.356577 
L 472.593951 -468.050977 
L 478.668561 -479.575807 
L 484.74317 -489.933506 
L 490.81778 -498.425092 
L 496.89239 -504.570121 
L 502.967 -508.067837 
L 509.041609 -508.976021 
L 515.116219 -507.74111 
L 521.190829 -509.167178 
L 527.265438 -512.348805 
L 533.340048 -515.140806 
L 539.414658 -517.587846 
L 545.489268 -521.155005 
L 551.563877 -524.967877 
L 557.638487 -528.618302 
L 563.713097 -532.108098 
L 569.787707 -535.44018 
L 575.862316 -538.618468 
L 581.936926 -541.647749 
L 588.011536 -544.715606 
L 594.086146 -548.398423 
L 600.160755 -551.90687 
L 606.235365 -555.273779 
L 612.309975 -558.502289 
L 618.384584 -561.596222 
L 624.459194 -564.559977 
L 630.533804 -567.398426 
L 636.608414 -570.116803 
L 642.683023 -572.720594 
L 648.757633 -575.720937 
L 654.832243 -579.6236 
L 660.906853 -583.526263 
L 666.981462 -587.428926 
L 673.056072 -591.331589 
L 679.130682 -595.234252 
L 679.130682 -673.881818 
L 679.130682 -673.881818 
L 673.056072 -673.881818 
L 666.981462 -673.881818 
L 660.906853 -673.881818 
L 654.832243 -673.881818 
L 648.757633 -673.881818 
L 642.683023 -673.881818 
L 636.608414 -673.881818 
L 630.533804 -673.881818 
L 624.459194 -673.881818 
L 618.384584 -673.881818 
L 612.309975 -673.881818 
L 606.235365 -673.881818 
L 600.160755 -673.881818 
L 594.086146 -673.881818 
L 588.011536 -673.881818 
L 581.936926 -673.881818 
L 575.862316 -673.881818 
L 569.787707 -671.827588 
L 563.713097 -667.354345 
L 557.638487 -663.038814 
L 551.563877 -658.883913 
L 545.489268 -654.89146 
L 539.414658 -650.653293 
L 533.340048 -645.295007 
L 527.265438 -640.281681 
L 521.190829 -635.657982 
L 515.116219 -629.278725 
L 509.041609 -620.238488 
L 502.967 -613.341346 
L 496.89239 -609.033736 
L 490.81778 -607.373439 
L 484.74317 -608.059699 
L 478.668561 -610.612072 
L 472.593951 -614.331575 
L 466.519341 -611.22065 
L 460.444731 -606.578911 
L 454.370122 -602.110753 
L 448.295512 -597.311639 
L 442.220902 -596.738177 
L 436.146292 -599.877926 
L 430.071683 -601.134716 
L 423.997073 -604.232716 
L 417.922463 -606.600242 
L 411.847854 -609.55424 
L 405.773244 -607.678507 
L 399.698634 -604.061413 
L 393.624024 -601.949498 
L 387.549415 -601.044535 
L 381.474805 -602.267415 
L 375.400195 -604.185325 
L 369.325585 -601.485107 
L 363.250976 -599.567415 
L 357.176366 -596.242374 
L 351.101756 -591.219465 
L 345.027146 -586.671011 
L 338.952537 -581.97257 
L 332.877927 -575.625017 
L 326.803317 -569.503968 
L 320.728708 -564.260183 
L 314.654098 -559.923031 
L 308.579488 -556.502302 
L 302.504878 -553.669042 
L 296.430269 -549.81973 
L 290.355659 -546.033791 
L 284.281049 -542.131128 
L 278.206439 -538.228465 
L 272.13183 -534.325802 
L 266.05722 -530.423139 
L 259.98261 -526.520476 
L 253.908 -522.617813 
L 247.833391 -518.71515 
L 241.758781 -514.812487 
L 235.684171 -510.909824 
L 229.609562 -507.007161 
L 223.534952 -503.104498 
L 217.460342 -499.201835 
L 211.385732 -495.299172 
L 205.311123 -491.396509 
L 199.236513 -487.493846 
L 193.161903 -483.591183 
L 187.087293 -479.68852 
L 181.012684 -475.785857 
L 174.938074 -471.883194 
L 168.863464 -467.980531 
L 162.788854 -464.077868 
L 156.714245 -460.175205 
L 150.639635 -456.272542 
L 144.565025 -452.369879 
L 138.490416 -448.467216 
L 132.415806 -444.564553 
L 126.341196 -440.66189 
L 120.266586 -436.759227 
L 114.191977 -432.856564 
L 108.117367 -428.953901 
L 102.042757 -425.051238 
L 95.968147 -421.148575 
L 89.893538 -417.245912 
L 83.818928 -413.343249 
L 77.744318 -409.440586 
z
" id="mb555d448cb" style="stroke:#003f5c;stroke-opacity:0.2;"/>
    </defs>
    <g clip-path="url(#p58db0296b9)">
     <use style="fill:#003f5c;fill-opacity:0.2;stroke:#003f5c;stroke-opacity:0.2;" x="0" xlink:href="#mb555d448cb" y="720"/>
    </g>
   </g>
   <g id="PolyCollection_2">
    <defs>
     <path d="M 77.744318 -404.891189 
L 77.744318 -287.518182 
L 83.818928 -287.518182 
L 89.893538 -287.518182 
L 95.968147 -287.518182 
L 102.042757 -287.518182 
L 108.117367 -287.518182 
L 114.191977 -287.518182 
L 120.266586 -287.518182 
L 126.341196 -287.518182 
L 132.415806 -287.518182 
L 138.490416 -287.518182 
L 144.565025 -287.518182 
L 150.639635 -287.518182 
L 156.714245 -287.518182 
L 162.788854 -287.518182 
L 168.863464 -287.518182 
L 174.938074 -287.518182 
L 181.012684 -287.518182 
L 187.087293 -287.518182 
L 193.161903 -287.518182 
L 199.236513 -287.518182 
L 205.311123 -287.518182 
L 211.385732 -287.518182 
L 217.460342 -287.518182 
L 223.534952 -287.518182 
L 229.609562 -287.518182 
L 235.684171 -287.518182 
L 241.758781 -287.518182 
L 247.833391 -287.518182 
L 253.908 -287.518182 
L 259.98261 -287.518182 
L 266.05722 -291.127728 
L 272.13183 -295.030391 
L 278.206439 -298.933054 
L 284.281049 -302.835717 
L 290.355659 -306.73838 
L 296.430269 -310.641043 
L 302.504878 -314.543706 
L 308.579488 -318.446369 
L 314.654098 -322.349032 
L 320.728708 -326.251695 
L 326.803317 -330.154358 
L 332.877927 -334.057021 
L 338.952537 -337.959684 
L 345.027146 -341.862347 
L 351.101756 -346.102298 
L 357.176366 -352.520265 
L 363.250976 -359.030582 
L 369.325585 -367.38234 
L 375.400195 -379.772179 
L 381.474805 -391.163974 
L 387.549415 -401.294317 
L 393.624024 -409.870221 
L 399.698634 -416.610881 
L 405.773244 -421.312969 
L 411.847854 -424.058052 
L 417.922463 -425.625487 
L 423.997073 -432.565881 
L 430.071683 -436.991101 
L 436.146292 -440.472952 
L 442.220902 -441.270203 
L 448.295512 -442.104589 
L 454.370122 -441.429087 
L 460.444731 -439.368887 
L 466.519341 -439.082032 
L 472.593951 -441.777744 
L 478.668561 -444.286336 
L 484.74317 -445.734134 
L 490.81778 -446.899307 
L 496.89239 -447.286585 
L 502.967 -448.598008 
L 509.041609 -451.539531 
L 515.116219 -454.533065 
L 521.190829 -458.076628 
L 527.265438 -461.648914 
L 533.340048 -465.497033 
L 539.414658 -469.399696 
L 545.489268 -473.302359 
L 551.563877 -477.205022 
L 557.638487 -481.107685 
L 563.713097 -485.010348 
L 569.787707 -488.913011 
L 575.862316 -492.815673 
L 581.936926 -496.718336 
L 588.011536 -500.620999 
L 594.086146 -504.523662 
L 600.160755 -508.426325 
L 606.235365 -512.328988 
L 612.309975 -516.231651 
L 618.384584 -520.134314 
L 624.459194 -524.036977 
L 630.533804 -527.93964 
L 636.608414 -531.842303 
L 642.683023 -535.744966 
L 648.757633 -539.647629 
L 654.832243 -543.550292 
L 660.906853 -547.452955 
L 666.981462 -551.355618 
L 673.056072 -555.258281 
L 679.130682 -559.160944 
L 679.130682 -673.881818 
L 679.130682 -673.881818 
L 673.056072 -673.881818 
L 666.981462 -673.881818 
L 660.906853 -673.881818 
L 654.832243 -673.881818 
L 648.757633 -673.881818 
L 642.683023 -673.881818 
L 636.608414 -673.881818 
L 630.533804 -673.881818 
L 624.459194 -673.881818 
L 618.384584 -673.881818 
L 612.309975 -673.881818 
L 606.235365 -673.881818 
L 600.160755 -673.881818 
L 594.086146 -673.881818 
L 588.011536 -673.881818 
L 581.936926 -673.881818 
L 575.862316 -673.881818 
L 569.787707 -673.881818 
L 563.713097 -673.881818 
L 557.638487 -673.881818 
L 551.563877 -673.881818 
L 545.489268 -673.881818 
L 539.414658 -673.881818 
L 533.340048 -673.881818 
L 527.265438 -673.881818 
L 521.190829 -673.881818 
L 515.116219 -673.881818 
L 509.041609 -673.881818 
L 502.967 -672.811174 
L 496.89239 -666.317272 
L 490.81778 -658.899224 
L 484.74317 -652.259071 
L 478.668561 -645.901543 
L 472.593951 -640.604809 
L 466.519341 -635.495195 
L 460.444731 -627.403014 
L 454.370122 -617.537488 
L 448.295512 -609.05666 
L 442.220902 -602.085719 
L 436.146292 -595.077645 
L 430.071683 -590.75417 
L 423.997073 -587.374064 
L 417.922463 -586.509132 
L 411.847854 -580.271241 
L 405.773244 -575.210998 
L 399.698634 -572.10776 
L 393.624024 -571.043094 
L 387.549415 -571.813672 
L 381.474805 -574.138689 
L 375.400195 -577.725158 
L 369.325585 -582.309671 
L 363.250976 -582.856103 
L 357.176366 -581.561094 
L 351.101756 -580.173735 
L 345.027146 -576.60836 
L 338.952537 -572.705697 
L 332.877927 -568.803034 
L 326.803317 -564.900371 
L 320.728708 -560.997708 
L 314.654098 -557.095045 
L 308.579488 -553.192382 
L 302.504878 -549.289719 
L 296.430269 -545.387056 
L 290.355659 -541.484393 
L 284.281049 -537.58173 
L 278.206439 -533.679067 
L 272.13183 -529.776404 
L 266.05722 -525.873741 
L 259.98261 -521.971078 
L 253.908 -518.068415 
L 247.833391 -514.165752 
L 241.758781 -510.263089 
L 235.684171 -506.360426 
L 229.609562 -502.457763 
L 223.534952 -498.5551 
L 217.460342 -494.652437 
L 211.385732 -490.749774 
L 205.311123 -486.847111 
L 199.236513 -482.944448 
L 193.161903 -479.041786 
L 187.087293 -475.139123 
L 181.012684 -471.23646 
L 174.938074 -467.333797 
L 168.863464 -463.431134 
L 162.788854 -459.528471 
L 156.714245 -455.625808 
L 150.639635 -451.723145 
L 144.565025 -447.820482 
L 138.490416 -443.917819 
L 132.415806 -440.015156 
L 126.341196 -436.112493 
L 120.266586 -432.20983 
L 114.191977 -428.307167 
L 108.117367 -424.404504 
L 102.042757 -420.501841 
L 95.968147 -416.599178 
L 89.893538 -412.696515 
L 83.818928 -408.793852 
L 77.744318 -404.891189 
z
" id="md3b718ed10" style="stroke:#58508d;stroke-opacity:0.2;"/>
    </defs>
    <g clip-path="url(#p58db0296b9)">
     <use style="fill:#58508d;fill-opacity:0.2;stroke:#58508d;stroke-opacity:0.2;" x="0" xlink:href="#md3b718ed10" y="720"/>
    </g>
   </g>
   <g id="PolyCollection_3">
    <defs>
     <path d="M 77.744318 -375.928035 
L 77.744318 -287.518182 
L 83.818928 -287.518182 
L 89.893538 -287.518182 
L 95.968147 -287.518182 
L 102.042757 -287.518182 
L 108.117367 -287.518182 
L 114.191977 -287.518182 
L 120.266586 -287.518182 
L 126.341196 -287.518182 
L 132.415806 -287.518182 
L 138.490416 -287.518182 
L 144.565025 -287.518182 
L 150.639635 -287.518182 
L 156.714245 -287.518182 
L 162.788854 -287.518182 
L 168.863464 -287.518182 
L 174.938074 -287.518182 
L 181.012684 -287.518182 
L 187.087293 -287.518182 
L 193.161903 -287.518182 
L 199.236513 -287.518182 
L 205.311123 -287.518182 
L 211.385732 -287.518182 
L 217.460342 -288.869577 
L 223.534952 -292.77224 
L 229.609562 -296.674903 
L 235.684171 -300.570629 
L 241.758781 -304.406378 
L 247.833391 -308.141801 
L 253.908 -311.682206 
L 259.98261 -315.096221 
L 266.05722 -318.385902 
L 272.13183 -321.553766 
L 278.206439 -324.602741 
L 284.281049 -327.536112 
L 290.355659 -330.357466 
L 296.430269 -333.775477 
L 302.504878 -337.121 
L 308.579488 -340.683809 
L 314.654098 -344.364008 
L 320.728708 -347.820506 
L 326.803317 -350.902078 
L 332.877927 -353.618168 
L 338.952537 -356.078121 
L 345.027146 -360.769564 
L 351.101756 -365.051456 
L 357.176366 -368.924856 
L 363.250976 -372.390128 
L 369.325585 -375.452659 
L 375.400195 -378.122537 
L 381.474805 -384.813175 
L 387.549415 -391.198009 
L 393.624024 -396.780027 
L 399.698634 -400.944773 
L 405.773244 -404.042437 
L 411.847854 -406.67924 
L 417.922463 -408.828043 
L 423.997073 -413.665301 
L 430.071683 -417.714921 
L 436.146292 -421.559736 
L 442.220902 -426.130132 
L 448.295512 -432.018437 
L 454.370122 -437.748951 
L 460.444731 -443.31207 
L 466.519341 -448.698379 
L 472.593951 -453.898863 
L 478.668561 -459.380495 
L 484.74317 -465.269316 
L 490.81778 -472.634987 
L 496.89239 -480.021199 
L 502.967 -487.372932 
L 509.041609 -494.685083 
L 515.116219 -501.951571 
L 521.190829 -509.185782 
L 527.265438 -516.883442 
L 533.340048 -524.819946 
L 539.414658 -532.420984 
L 545.489268 -539.760337 
L 551.563877 -547.19867 
L 557.638487 -544.880128 
L 563.713097 -495.973617 
L 569.787707 -499.965035 
L 575.862316 -503.732065 
L 581.936926 -507.379149 
L 588.011536 -511.281812 
L 594.086146 -515.184475 
L 600.160755 -519.087138 
L 606.235365 -522.989801 
L 612.309975 -526.892464 
L 618.384584 -530.795127 
L 624.459194 -534.69779 
L 630.533804 -538.600453 
L 636.608414 -542.503116 
L 642.683023 -546.405779 
L 648.757633 -550.308442 
L 654.832243 -554.211105 
L 660.906853 -558.113768 
L 666.981462 -562.016431 
L 673.056072 -565.919094 
L 679.130682 -569.821757 
L 679.130682 -673.881818 
L 679.130682 -673.881818 
L 673.056072 -673.881818 
L 666.981462 -673.881818 
L 660.906853 -673.881818 
L 654.832243 -673.881818 
L 648.757633 -673.881818 
L 642.683023 -673.881818 
L 636.608414 -673.881818 
L 630.533804 -673.881818 
L 624.459194 -673.881818 
L 618.384584 -673.881818 
L 612.309975 -673.881818 
L 606.235365 -673.881818 
L 600.160755 -673.881818 
L 594.086146 -673.881818 
L 588.011536 -673.881818 
L 581.936926 -673.881818 
L 575.862316 -673.881818 
L 569.787707 -673.881818 
L 563.713097 -673.881818 
L 557.638487 -646.776989 
L 551.563877 -636.653121 
L 545.489268 -636.286128 
L 539.414658 -635.820154 
L 533.340048 -635.615867 
L 527.265438 -635.747044 
L 521.190829 -635.639379 
L 515.116219 -635.068263 
L 509.041609 -634.529425 
L 502.967 -634.036251 
L 496.89239 -633.582658 
L 490.81778 -633.163543 
L 484.74317 -632.723889 
L 478.668561 -630.807384 
L 472.593951 -628.48369 
L 466.519341 -625.878848 
L 460.444731 -623.459831 
L 454.370122 -621.217624 
L 448.295512 -619.142812 
L 442.220902 -617.22579 
L 436.146292 -613.990861 
L 430.071683 -610.03035 
L 423.997073 -606.274644 
L 417.922463 -603.306576 
L 411.847854 -597.650053 
L 405.773244 -592.48153 
L 399.698634 -587.773868 
L 393.624024 -584.133288 
L 387.549415 -581.90998 
L 381.474805 -580.489488 
L 375.400195 -579.3748 
L 369.325585 -574.239352 
L 363.250976 -569.496557 
L 357.176366 -565.156503 
L 351.101756 -561.224577 
L 345.027146 -557.701143 
L 338.952537 -554.58726 
L 332.877927 -549.241887 
L 326.803317 -544.152651 
L 320.728708 -539.428897 
L 314.654098 -535.080069 
L 308.579488 -530.954942 
L 302.504878 -526.712425 
L 296.430269 -522.252622 
L 290.355659 -517.865307 
L 284.281049 -512.881335 
L 278.206439 -508.009381 
L 272.13183 -503.25303 
L 266.05722 -498.615568 
L 259.98261 -494.099923 
L 253.908 -489.708611 
L 247.833391 -485.44369 
L 241.758781 -481.373787 
L 235.684171 -477.40421 
L 229.609562 -473.49461 
L 223.534952 -469.591947 
L 217.460342 -465.689284 
L 211.385732 -461.786621 
L 205.311123 -457.883958 
L 199.236513 -453.981295 
L 193.161903 -450.078632 
L 187.087293 -446.175969 
L 181.012684 -442.273306 
L 174.938074 -438.370643 
L 168.863464 -434.46798 
L 162.788854 -430.565317 
L 156.714245 -426.662654 
L 150.639635 -422.759991 
L 144.565025 -418.857328 
L 138.490416 -414.954665 
L 132.415806 -411.052002 
L 126.341196 -407.149339 
L 120.266586 -403.246676 
L 114.191977 -399.344013 
L 108.117367 -395.44135 
L 102.042757 -391.538687 
L 95.968147 -387.636024 
L 89.893538 -383.733361 
L 83.818928 -379.830698 
L 77.744318 -375.928035 
z
" id="mcec0621a97" style="stroke:#bc5090;stroke-opacity:0.2;"/>
    </defs>
    <g clip-path="url(#p58db0296b9)">
     <use style="fill:#bc5090;fill-opacity:0.2;stroke:#bc5090;stroke-opacity:0.2;" x="0" xlink:href="#mcec0621a97" y="720"/>
    </g>
   </g>
   <g id="matplotlib.axis_1">
    <g id="xtick_1">
     <g id="line2d_1">
      <defs>
       <path d="M 0 0 
L 0 3.5 
" id="me5ef27e805" style="stroke:#000000;stroke-width:0.8;"/>
      </defs>
      <g>
       <use style="stroke:#000000;stroke-width:0.8;" x="77.744318" xlink:href="#me5ef27e805" y="451.8"/>
      </g>
     </g>
     <g id="text_1">
      <!-- 0.0 -->
      <defs>
       <path d="M 31.78125 66.40625 
Q 24.171875 66.40625 20.328125 58.90625 
Q 16.5 51.421875 16.5 36.375 
Q 16.5 21.390625 20.328125 13.890625 
Q 24.171875 6.390625 31.78125 6.390625 
Q 39.453125 6.390625 43.28125 13.890625 
Q 47.125 21.390625 47.125 36.375 
Q 47.125 51.421875 43.28125 58.90625 
Q 39.453125 66.40625 31.78125 66.40625 
z
M 31.78125 74.21875 
Q 44.046875 74.21875 50.515625 64.515625 
Q 56.984375 54.828125 56.984375 36.375 
Q 56.984375 17.96875 50.515625 8.265625 
Q 44.046875 -1.421875 31.78125 -1.421875 
Q 19.53125 -1.421875 13.0625 8.265625 
Q 6.59375 17.96875 6.59375 36.375 
Q 6.59375 54.828125 13.0625 64.515625 
Q 19.53125 74.21875 31.78125 74.21875 
z
" id="DejaVuSans-48"/>
       <path d="M 10.6875 12.40625 
L 21 12.40625 
L 21 0 
L 10.6875 0 
z
" id="DejaVuSans-46"/>
      </defs>
      <g transform="translate(69.792756 466.398437)scale(0.1 -0.1)">
       <use xlink:href="#DejaVuSans-48"/>
       <use x="63.623047" xlink:href="#DejaVuSans-46"/>
       <use x="95.410156" xlink:href="#DejaVuSans-48"/>
      </g>
     </g>
    </g>
    <g id="xtick_2">
     <g id="line2d_2">
      <g>
       <use style="stroke:#000000;stroke-width:0.8;" x="198.021591" xlink:href="#me5ef27e805" y="451.8"/>
      </g>
     </g>
     <g id="text_2">
      <!-- 0.2 -->
      <defs>
       <path d="M 19.1875 8.296875 
L 53.609375 8.296875 
L 53.609375 0 
L 7.328125 0 
L 7.328125 8.296875 
Q 12.9375 14.109375 22.625 23.890625 
Q 32.328125 33.6875 34.8125 36.53125 
Q 39.546875 41.84375 41.421875 45.53125 
Q 43.3125 49.21875 43.3125 52.78125 
Q 43.3125 58.59375 39.234375 62.25 
Q 35.15625 65.921875 28.609375 65.921875 
Q 23.96875 65.921875 18.8125 64.3125 
Q 13.671875 62.703125 7.8125 59.421875 
L 7.8125 69.390625 
Q 13.765625 71.78125 18.9375 73 
Q 24.125 74.21875 28.421875 74.21875 
Q 39.75 74.21875 46.484375 68.546875 
Q 53.21875 62.890625 53.21875 53.421875 
Q 53.21875 48.921875 51.53125 44.890625 
Q 49.859375 40.875 45.40625 35.40625 
Q 44.1875 33.984375 37.640625 27.21875 
Q 31.109375 20.453125 19.1875 8.296875 
z
" id="DejaVuSans-50"/>
      </defs>
      <g transform="translate(190.070028 466.398437)scale(0.1 -0.1)">
       <use xlink:href="#DejaVuSans-48"/>
       <use x="63.623047" xlink:href="#DejaVuSans-46"/>
       <use x="95.410156" xlink:href="#DejaVuSans-50"/>
      </g>
     </g>
    </g>
    <g id="xtick_3">
     <g id="line2d_3">
      <g>
       <use style="stroke:#000000;stroke-width:0.8;" x="318.298864" xlink:href="#me5ef27e805" y="451.8"/>
      </g>
     </g>
     <g id="text_3">
      <!-- 0.4 -->
      <defs>
       <path d="M 37.796875 64.3125 
L 12.890625 25.390625 
L 37.796875 25.390625 
z
M 35.203125 72.90625 
L 47.609375 72.90625 
L 47.609375 25.390625 
L 58.015625 25.390625 
L 58.015625 17.1875 
L 47.609375 17.1875 
L 47.609375 0 
L 37.796875 0 
L 37.796875 17.1875 
L 4.890625 17.1875 
L 4.890625 26.703125 
z
" id="DejaVuSans-52"/>
      </defs>
      <g transform="translate(310.347301 466.398437)scale(0.1 -0.1)">
       <use xlink:href="#DejaVuSans-48"/>
       <use x="63.623047" xlink:href="#DejaVuSans-46"/>
       <use x="95.410156" xlink:href="#DejaVuSans-52"/>
      </g>
     </g>
    </g>
    <g id="xtick_4">
     <g id="line2d_4">
      <g>
       <use style="stroke:#000000;stroke-width:0.8;" x="438.576136" xlink:href="#me5ef27e805" y="451.8"/>
      </g>
     </g>
     <g id="text_4">
      <!-- 0.6 -->
      <defs>
       <path d="M 33.015625 40.375 
Q 26.375 40.375 22.484375 35.828125 
Q 18.609375 31.296875 18.609375 23.390625 
Q 18.609375 15.53125 22.484375 10.953125 
Q 26.375 6.390625 33.015625 6.390625 
Q 39.65625 6.390625 43.53125 10.953125 
Q 47.40625 15.53125 47.40625 23.390625 
Q 47.40625 31.296875 43.53125 35.828125 
Q 39.65625 40.375 33.015625 40.375 
z
M 52.59375 71.296875 
L 52.59375 62.3125 
Q 48.875 64.0625 45.09375 64.984375 
Q 41.3125 65.921875 37.59375 65.921875 
Q 27.828125 65.921875 22.671875 59.328125 
Q 17.53125 52.734375 16.796875 39.40625 
Q 19.671875 43.65625 24.015625 45.921875 
Q 28.375 48.1875 33.59375 48.1875 
Q 44.578125 48.1875 50.953125 41.515625 
Q 57.328125 34.859375 57.328125 23.390625 
Q 57.328125 12.15625 50.6875 5.359375 
Q 44.046875 -1.421875 33.015625 -1.421875 
Q 20.359375 -1.421875 13.671875 8.265625 
Q 6.984375 17.96875 6.984375 36.375 
Q 6.984375 53.65625 15.1875 63.9375 
Q 23.390625 74.21875 37.203125 74.21875 
Q 40.921875 74.21875 44.703125 73.484375 
Q 48.484375 72.75 52.59375 71.296875 
z
" id="DejaVuSans-54"/>
      </defs>
      <g transform="translate(430.624574 466.398437)scale(0.1 -0.1)">
       <use xlink:href="#DejaVuSans-48"/>
       <use x="63.623047" xlink:href="#DejaVuSans-46"/>
       <use x="95.410156" xlink:href="#DejaVuSans-54"/>
      </g>
     </g>
    </g>
    <g id="xtick_5">
     <g id="line2d_5">
      <g>
       <use style="stroke:#000000;stroke-width:0.8;" x="558.853409" xlink:href="#me5ef27e805" y="451.8"/>
      </g>
     </g>
     <g id="text_5">
      <!-- 0.8 -->
      <defs>
       <path d="M 31.78125 34.625 
Q 24.75 34.625 20.71875 30.859375 
Q 16.703125 27.09375 16.703125 20.515625 
Q 16.703125 13.921875 20.71875 10.15625 
Q 24.75 6.390625 31.78125 6.390625 
Q 38.8125 6.390625 42.859375 10.171875 
Q 46.921875 13.96875 46.921875 20.515625 
Q 46.921875 27.09375 42.890625 30.859375 
Q 38.875 34.625 31.78125 34.625 
z
M 21.921875 38.8125 
Q 15.578125 40.375 12.03125 44.71875 
Q 8.5 49.078125 8.5 55.328125 
Q 8.5 64.0625 14.71875 69.140625 
Q 20.953125 74.21875 31.78125 74.21875 
Q 42.671875 74.21875 48.875 69.140625 
Q 55.078125 64.0625 55.078125 55.328125 
Q 55.078125 49.078125 51.53125 44.71875 
Q 48 40.375 41.703125 38.8125 
Q 48.828125 37.15625 52.796875 32.3125 
Q 56.78125 27.484375 56.78125 20.515625 
Q 56.78125 9.90625 50.3125 4.234375 
Q 43.84375 -1.421875 31.78125 -1.421875 
Q 19.734375 -1.421875 13.25 4.234375 
Q 6.78125 9.90625 6.78125 20.515625 
Q 6.78125 27.484375 10.78125 32.3125 
Q 14.796875 37.15625 21.921875 38.8125 
z
M 18.3125 54.390625 
Q 18.3125 48.734375 21.84375 45.5625 
Q 25.390625 42.390625 31.78125 42.390625 
Q 38.140625 42.390625 41.71875 45.5625 
Q 45.3125 48.734375 45.3125 54.390625 
Q 45.3125 60.0625 41.71875 63.234375 
Q 38.140625 66.40625 31.78125 66.40625 
Q 25.390625 66.40625 21.84375 63.234375 
Q 18.3125 60.0625 18.3125 54.390625 
z
" id="DejaVuSans-56"/>
      </defs>
      <g transform="translate(550.901847 466.398437)scale(0.1 -0.1)">
       <use xlink:href="#DejaVuSans-48"/>
       <use x="63.623047" xlink:href="#DejaVuSans-46"/>
       <use x="95.410156" xlink:href="#DejaVuSans-56"/>
      </g>
     </g>
    </g>
    <g id="xtick_6">
     <g id="line2d_6">
      <g>
       <use style="stroke:#000000;stroke-width:0.8;" x="679.130682" xlink:href="#me5ef27e805" y="451.8"/>
      </g>
     </g>
     <g id="text_6">
      <!-- 1.0 -->
      <defs>
       <path d="M 12.40625 8.296875 
L 28.515625 8.296875 
L 28.515625 63.921875 
L 10.984375 60.40625 
L 10.984375 69.390625 
L 28.421875 72.90625 
L 38.28125 72.90625 
L 38.28125 8.296875 
L 54.390625 8.296875 
L 54.390625 0 
L 12.40625 0 
z
" id="DejaVuSans-49"/>
      </defs>
      <g transform="translate(671.179119 466.398437)scale(0.1 -0.1)">
       <use xlink:href="#DejaVuSans-49"/>
       <use x="63.623047" xlink:href="#DejaVuSans-46"/>
       <use x="95.410156" xlink:href="#DejaVuSans-48"/>
      </g>
     </g>
    </g>
   </g>
   <g id="matplotlib.axis_2">
    <g id="ytick_1">
     <g id="line2d_7">
      <defs>
       <path d="M 0 0 
L -3.5 0 
" id="m4f78fcd9e9" style="stroke:#000000;stroke-width:0.8;"/>
      </defs>
      <g>
       <use style="stroke:#000000;stroke-width:0.8;" x="47.675" xlink:href="#m4f78fcd9e9" y="432.481818"/>
      </g>
     </g>
     <g id="text_7">
      <!-- 0.0 -->
      <g transform="translate(24.771875 436.281037)scale(0.1 -0.1)">
       <use xlink:href="#DejaVuSans-48"/>
       <use x="63.623047" xlink:href="#DejaVuSans-46"/>
       <use x="95.410156" xlink:href="#DejaVuSans-48"/>
      </g>
     </g>
    </g>
    <g id="ytick_2">
     <g id="line2d_8">
      <g>
       <use style="stroke:#000000;stroke-width:0.8;" x="47.675" xlink:href="#m4f78fcd9e9" y="355.209091"/>
      </g>
     </g>
     <g id="text_8">
      <!-- 0.2 -->
      <g transform="translate(24.771875 359.00831)scale(0.1 -0.1)">
       <use xlink:href="#DejaVuSans-48"/>
       <use x="63.623047" xlink:href="#DejaVuSans-46"/>
       <use x="95.410156" xlink:href="#DejaVuSans-50"/>
      </g>
     </g>
    </g>
    <g id="ytick_3">
     <g id="line2d_9">
      <g>
       <use style="stroke:#000000;stroke-width:0.8;" x="47.675" xlink:href="#m4f78fcd9e9" y="277.936364"/>
      </g>
     </g>
     <g id="text_9">
      <!-- 0.4 -->
      <g transform="translate(24.771875 281.735582)scale(0.1 -0.1)">
       <use xlink:href="#DejaVuSans-48"/>
       <use x="63.623047" xlink:href="#DejaVuSans-46"/>
       <use x="95.410156" xlink:href="#DejaVuSans-52"/>
      </g>
     </g>
    </g>
    <g id="ytick_4">
     <g id="line2d_10">
      <g>
       <use style="stroke:#000000;stroke-width:0.8;" x="47.675" xlink:href="#m4f78fcd9e9" y="200.663636"/>
      </g>
     </g>
     <g id="text_10">
      <!-- 0.6 -->
      <g transform="translate(24.771875 204.462855)scale(0.1 -0.1)">
       <use xlink:href="#DejaVuSans-48"/>
       <use x="63.623047" xlink:href="#DejaVuSans-46"/>
       <use x="95.410156" xlink:href="#DejaVuSans-54"/>
      </g>
     </g>
    </g>
    <g id="ytick_5">
     <g id="line2d_11">
      <g>
       <use style="stroke:#000000;stroke-width:0.8;" x="47.675" xlink:href="#m4f78fcd9e9" y="123.390909"/>
      </g>
     </g>
     <g id="text_11">
      <!-- 0.8 -->
      <g transform="translate(24.771875 127.190128)scale(0.1 -0.1)">
       <use xlink:href="#DejaVuSans-48"/>
       <use x="63.623047" xlink:href="#DejaVuSans-46"/>
       <use x="95.410156" xlink:href="#DejaVuSans-56"/>
      </g>
     </g>
    </g>
    <g id="ytick_6">
     <g id="line2d_12">
      <g>
       <use style="stroke:#000000;stroke-width:0.8;" x="47.675" xlink:href="#m4f78fcd9e9" y="46.118182"/>
      </g>
     </g>
     <g id="text_12">
      <!-- 1.0 -->
      <g transform="translate(24.771875 49.917401)scale(0.1 -0.1)">
       <use xlink:href="#DejaVuSans-49"/>
       <use x="63.623047" xlink:href="#DejaVuSans-46"/>
       <use x="95.410156" xlink:href="#DejaVuSans-48"/>
      </g>
     </g>
    </g>
    <g id="text_13">
     <!-- Fraction of positives -->
     <defs>
      <path d="M 9.8125 72.90625 
L 51.703125 72.90625 
L 51.703125 64.59375 
L 19.671875 64.59375 
L 19.671875 43.109375 
L 48.578125 43.109375 
L 48.578125 34.8125 
L 19.671875 34.8125 
L 19.671875 0 
L 9.8125 0 
z
" id="DejaVuSans-70"/>
      <path d="M 41.109375 46.296875 
Q 39.59375 47.171875 37.8125 47.578125 
Q 36.03125 48 33.890625 48 
Q 26.265625 48 22.1875 43.046875 
Q 18.109375 38.09375 18.109375 28.8125 
L 18.109375 0 
L 9.078125 0 
L 9.078125 54.6875 
L 18.109375 54.6875 
L 18.109375 46.1875 
Q 20.953125 51.171875 25.484375 53.578125 
Q 30.03125 56 36.53125 56 
Q 37.453125 56 38.578125 55.875 
Q 39.703125 55.765625 41.0625 55.515625 
z
" id="DejaVuSans-114"/>
      <path d="M 34.28125 27.484375 
Q 23.390625 27.484375 19.1875 25 
Q 14.984375 22.515625 14.984375 16.5 
Q 14.984375 11.71875 18.140625 8.90625 
Q 21.296875 6.109375 26.703125 6.109375 
Q 34.1875 6.109375 38.703125 11.40625 
Q 43.21875 16.703125 43.21875 25.484375 
L 43.21875 27.484375 
z
M 52.203125 31.203125 
L 52.203125 0 
L 43.21875 0 
L 43.21875 8.296875 
Q 40.140625 3.328125 35.546875 0.953125 
Q 30.953125 -1.421875 24.3125 -1.421875 
Q 15.921875 -1.421875 10.953125 3.296875 
Q 6 8.015625 6 15.921875 
Q 6 25.140625 12.171875 29.828125 
Q 18.359375 34.515625 30.609375 34.515625 
L 43.21875 34.515625 
L 43.21875 35.40625 
Q 43.21875 41.609375 39.140625 45 
Q 35.0625 48.390625 27.6875 48.390625 
Q 23 48.390625 18.546875 47.265625 
Q 14.109375 46.140625 10.015625 43.890625 
L 10.015625 52.203125 
Q 14.9375 54.109375 19.578125 55.046875 
Q 24.21875 56 28.609375 56 
Q 40.484375 56 46.34375 49.84375 
Q 52.203125 43.703125 52.203125 31.203125 
z
" id="DejaVuSans-97"/>
      <path d="M 48.78125 52.59375 
L 48.78125 44.1875 
Q 44.96875 46.296875 41.140625 47.34375 
Q 37.3125 48.390625 33.40625 48.390625 
Q 24.65625 48.390625 19.8125 42.84375 
Q 14.984375 37.3125 14.984375 27.296875 
Q 14.984375 17.28125 19.8125 11.734375 
Q 24.65625 6.203125 33.40625 6.203125 
Q 37.3125 6.203125 41.140625 7.25 
Q 44.96875 8.296875 48.78125 10.40625 
L 48.78125 2.09375 
Q 45.015625 0.34375 40.984375 -0.53125 
Q 36.96875 -1.421875 32.421875 -1.421875 
Q 20.0625 -1.421875 12.78125 6.34375 
Q 5.515625 14.109375 5.515625 27.296875 
Q 5.515625 40.671875 12.859375 48.328125 
Q 20.21875 56 33.015625 56 
Q 37.15625 56 41.109375 55.140625 
Q 45.0625 54.296875 48.78125 52.59375 
z
" id="DejaVuSans-99"/>
      <path d="M 18.3125 70.21875 
L 18.3125 54.6875 
L 36.8125 54.6875 
L 36.8125 47.703125 
L 18.3125 47.703125 
L 18.3125 18.015625 
Q 18.3125 11.328125 20.140625 9.421875 
Q 21.96875 7.515625 27.59375 7.515625 
L 36.8125 7.515625 
L 36.8125 0 
L 27.59375 0 
Q 17.1875 0 13.234375 3.875 
Q 9.28125 7.765625 9.28125 18.015625 
L 9.28125 47.703125 
L 2.6875 47.703125 
L 2.6875 54.6875 
L 9.28125 54.6875 
L 9.28125 70.21875 
z
" id="DejaVuSans-116"/>
      <path d="M 9.421875 54.6875 
L 18.40625 54.6875 
L 18.40625 0 
L 9.421875 0 
z
M 9.421875 75.984375 
L 18.40625 75.984375 
L 18.40625 64.59375 
L 9.421875 64.59375 
z
" id="DejaVuSans-105"/>
      <path d="M 30.609375 48.390625 
Q 23.390625 48.390625 19.1875 42.75 
Q 14.984375 37.109375 14.984375 27.296875 
Q 14.984375 17.484375 19.15625 11.84375 
Q 23.34375 6.203125 30.609375 6.203125 
Q 37.796875 6.203125 41.984375 11.859375 
Q 46.1875 17.53125 46.1875 27.296875 
Q 46.1875 37.015625 41.984375 42.703125 
Q 37.796875 48.390625 30.609375 48.390625 
z
M 30.609375 56 
Q 42.328125 56 49.015625 48.375 
Q 55.71875 40.765625 55.71875 27.296875 
Q 55.71875 13.875 49.015625 6.21875 
Q 42.328125 -1.421875 30.609375 -1.421875 
Q 18.84375 -1.421875 12.171875 6.21875 
Q 5.515625 13.875 5.515625 27.296875 
Q 5.515625 40.765625 12.171875 48.375 
Q 18.84375 56 30.609375 56 
z
" id="DejaVuSans-111"/>
      <path d="M 54.890625 33.015625 
L 54.890625 0 
L 45.90625 0 
L 45.90625 32.71875 
Q 45.90625 40.484375 42.875 44.328125 
Q 39.84375 48.1875 33.796875 48.1875 
Q 26.515625 48.1875 22.3125 43.546875 
Q 18.109375 38.921875 18.109375 30.90625 
L 18.109375 0 
L 9.078125 0 
L 9.078125 54.6875 
L 18.109375 54.6875 
L 18.109375 46.1875 
Q 21.34375 51.125 25.703125 53.5625 
Q 30.078125 56 35.796875 56 
Q 45.21875 56 50.046875 50.171875 
Q 54.890625 44.34375 54.890625 33.015625 
z
" id="DejaVuSans-110"/>
      <path id="DejaVuSans-32"/>
      <path d="M 37.109375 75.984375 
L 37.109375 68.5 
L 28.515625 68.5 
Q 23.6875 68.5 21.796875 66.546875 
Q 19.921875 64.59375 19.921875 59.515625 
L 19.921875 54.6875 
L 34.71875 54.6875 
L 34.71875 47.703125 
L 19.921875 47.703125 
L 19.921875 0 
L 10.890625 0 
L 10.890625 47.703125 
L 2.296875 47.703125 
L 2.296875 54.6875 
L 10.890625 54.6875 
L 10.890625 58.5 
Q 10.890625 67.625 15.140625 71.796875 
Q 19.390625 75.984375 28.609375 75.984375 
z
" id="DejaVuSans-102"/>
      <path d="M 18.109375 8.203125 
L 18.109375 -20.796875 
L 9.078125 -20.796875 
L 9.078125 54.6875 
L 18.109375 54.6875 
L 18.109375 46.390625 
Q 20.953125 51.265625 25.265625 53.625 
Q 29.59375 56 35.59375 56 
Q 45.5625 56 51.78125 48.09375 
Q 58.015625 40.1875 58.015625 27.296875 
Q 58.015625 14.40625 51.78125 6.484375 
Q 45.5625 -1.421875 35.59375 -1.421875 
Q 29.59375 -1.421875 25.265625 0.953125 
Q 20.953125 3.328125 18.109375 8.203125 
z
M 48.6875 27.296875 
Q 48.6875 37.203125 44.609375 42.84375 
Q 40.53125 48.484375 33.40625 48.484375 
Q 26.265625 48.484375 22.1875 42.84375 
Q 18.109375 37.203125 18.109375 27.296875 
Q 18.109375 17.390625 22.1875 11.75 
Q 26.265625 6.109375 33.40625 6.109375 
Q 40.53125 6.109375 44.609375 11.75 
Q 48.6875 17.390625 48.6875 27.296875 
z
" id="DejaVuSans-112"/>
      <path d="M 44.28125 53.078125 
L 44.28125 44.578125 
Q 40.484375 46.53125 36.375 47.5 
Q 32.28125 48.484375 27.875 48.484375 
Q 21.1875 48.484375 17.84375 46.4375 
Q 14.5 44.390625 14.5 40.28125 
Q 14.5 37.15625 16.890625 35.375 
Q 19.28125 33.59375 26.515625 31.984375 
L 29.59375 31.296875 
Q 39.15625 29.25 43.1875 25.515625 
Q 47.21875 21.78125 47.21875 15.09375 
Q 47.21875 7.46875 41.1875 3.015625 
Q 35.15625 -1.421875 24.609375 -1.421875 
Q 20.21875 -1.421875 15.453125 -0.5625 
Q 10.6875 0.296875 5.421875 2 
L 5.421875 11.28125 
Q 10.40625 8.6875 15.234375 7.390625 
Q 20.0625 6.109375 24.8125 6.109375 
Q 31.15625 6.109375 34.5625 8.28125 
Q 37.984375 10.453125 37.984375 14.40625 
Q 37.984375 18.0625 35.515625 20.015625 
Q 33.0625 21.96875 24.703125 23.78125 
L 21.578125 24.515625 
Q 13.234375 26.265625 9.515625 29.90625 
Q 5.8125 33.546875 5.8125 39.890625 
Q 5.8125 47.609375 11.28125 51.796875 
Q 16.75 56 26.8125 56 
Q 31.78125 56 36.171875 55.265625 
Q 40.578125 54.546875 44.28125 53.078125 
z
" id="DejaVuSans-115"/>
      <path d="M 2.984375 54.6875 
L 12.5 54.6875 
L 29.59375 8.796875 
L 46.6875 54.6875 
L 56.203125 54.6875 
L 35.6875 0 
L 23.484375 0 
z
" id="DejaVuSans-118"/>
      <path d="M 56.203125 29.59375 
L 56.203125 25.203125 
L 14.890625 25.203125 
Q 15.484375 15.921875 20.484375 11.0625 
Q 25.484375 6.203125 34.421875 6.203125 
Q 39.59375 6.203125 44.453125 7.46875 
Q 49.3125 8.734375 54.109375 11.28125 
L 54.109375 2.78125 
Q 49.265625 0.734375 44.1875 -0.34375 
Q 39.109375 -1.421875 33.890625 -1.421875 
Q 20.796875 -1.421875 13.15625 6.1875 
Q 5.515625 13.8125 5.515625 26.8125 
Q 5.515625 40.234375 12.765625 48.109375 
Q 20.015625 56 32.328125 56 
Q 43.359375 56 49.78125 48.890625 
Q 56.203125 41.796875 56.203125 29.59375 
z
M 47.21875 32.234375 
Q 47.125 39.59375 43.09375 43.984375 
Q 39.0625 48.390625 32.421875 48.390625 
Q 24.90625 48.390625 20.390625 44.140625 
Q 15.875 39.890625 15.1875 32.171875 
z
" id="DejaVuSans-101"/>
     </defs>
     <g transform="translate(18.692187 289.83125)rotate(-90)scale(0.1 -0.1)">
      <use xlink:href="#DejaVuSans-70"/>
      <use x="57.410156" xlink:href="#DejaVuSans-114"/>
      <use x="98.523438" xlink:href="#DejaVuSans-97"/>
      <use x="159.802734" xlink:href="#DejaVuSans-99"/>
      <use x="214.783203" xlink:href="#DejaVuSans-116"/>
      <use x="253.992188" xlink:href="#DejaVuSans-105"/>
      <use x="281.775391" xlink:href="#DejaVuSans-111"/>
      <use x="342.957031" xlink:href="#DejaVuSans-110"/>
      <use x="406.335938" xlink:href="#DejaVuSans-32"/>
      <use x="438.123047" xlink:href="#DejaVuSans-111"/>
      <use x="499.304688" xlink:href="#DejaVuSans-102"/>
      <use x="534.509766" xlink:href="#DejaVuSans-32"/>
      <use x="566.296875" xlink:href="#DejaVuSans-112"/>
      <use x="629.773438" xlink:href="#DejaVuSans-111"/>
      <use x="690.955078" xlink:href="#DejaVuSans-115"/>
      <use x="743.054688" xlink:href="#DejaVuSans-105"/>
      <use x="770.837891" xlink:href="#DejaVuSans-116"/>
      <use x="810.046875" xlink:href="#DejaVuSans-105"/>
      <use x="837.830078" xlink:href="#DejaVuSans-118"/>
      <use x="897.009766" xlink:href="#DejaVuSans-101"/>
      <use x="958.533203" xlink:href="#DejaVuSans-115"/>
     </g>
    </g>
   </g>
   <g id="line2d_13">
    <path clip-path="url(#p58db0296b9)" d="M 77.744318 432.481818 
L 679.130682 46.118182 
" style="fill:none;stroke:#000000;stroke-dasharray:1.5,2.475;stroke-dashoffset:0;stroke-width:1.5;"/>
   </g>
   <g id="line2d_14">
    <path clip-path="url(#p58db0296b9)" d="M 77.744318 283.731818 
L 83.818928 283.731818 
L 89.893538 283.731818 
L 95.968147 283.731818 
L 102.042757 283.731818 
L 108.117367 283.731818 
L 114.191977 283.731818 
L 120.266586 283.731818 
L 126.341196 283.731818 
L 132.415806 283.731818 
L 138.490416 283.731818 
L 144.565025 283.731818 
L 150.639635 283.731818 
L 156.714245 283.731818 
L 162.788854 283.731818 
L 168.863464 283.731818 
L 174.938074 283.731818 
L 181.012684 283.731818 
L 187.087293 283.731818 
L 193.161903 283.731818 
L 199.236513 283.731818 
L 205.311123 283.731818 
L 211.385732 283.731818 
L 217.460342 283.731818 
L 223.534952 283.731818 
L 229.609562 283.731818 
L 235.684171 283.731818 
L 241.758781 283.731818 
L 247.833391 283.731818 
L 253.908 283.731818 
L 259.98261 283.731818 
L 266.05722 283.731818 
L 272.13183 283.731818 
L 278.206439 283.731818 
L 284.281049 283.731818 
L 290.355659 283.731818 
L 296.430269 282.839933 
L 302.504878 280.952727 
L 308.579488 281.342477 
L 314.654098 282.202823 
L 320.728708 283.063169 
L 326.803317 283.923515 
L 332.877927 284.783861 
L 338.952537 284.551138 
L 345.027146 280.050117 
L 351.101756 276.242406 
L 357.176366 272.477176 
L 363.250976 269.311994 
L 369.325585 266.632271 
L 375.400195 263.818924 
L 381.474805 256.473689 
L 387.549415 248.270401 
L 393.624024 240.067113 
L 399.698634 232.500991 
L 405.773244 226.897887 
L 411.847854 224.904375 
L 417.922463 226.141735 
L 423.997073 223.041077 
L 430.071683 217.625949 
L 436.146292 211.90408 
L 442.220902 202.975315 
L 448.295512 194.046551 
L 454.370122 185.117787 
L 460.444731 175.476628 
L 466.519341 166.664494 
L 472.593951 160.759624 
L 478.668561 154.119611 
L 484.74317 148.099678 
L 490.81778 142.106142 
L 496.89239 136.112607 
L 502.967 130.119072 
L 509.041609 124.125537 
L 515.116219 118.089719 
L 521.190829 113.347797 
L 527.265438 112.578838 
L 533.340048 112.500623 
L 539.414658 111.887972 
L 545.489268 113.107901 
L 551.563877 114.758143 
L 557.638487 116.408385 
L 563.713097 118.058628 
L 569.787707 119.70887 
L 575.862316 121.359112 
L 581.936926 123.009354 
L 588.011536 124.492219 
L 594.086146 125.390207 
L 600.160755 126.460225 
L 606.235365 127.530244 
L 612.309975 128.600263 
L 618.384584 129.670282 
L 624.459194 130.7403 
L 630.533804 131.810319 
L 636.608414 132.880338 
L 642.683023 133.950356 
L 648.757633 134.645324 
L 654.832243 134.645324 
L 660.906853 134.645324 
L 666.981462 134.645324 
L 673.056072 134.645324 
L 679.130682 134.645324 
" style="fill:none;stroke:#003f5c;stroke-linecap:square;stroke-width:1.5;"/>
   </g>
   <g id="line2d_15">
    <path clip-path="url(#p58db0296b9)" d="M 77.744318 225.240657 
L 83.818928 225.240657 
L 89.893538 225.240657 
L 95.968147 225.240657 
L 102.042757 225.240657 
L 108.117367 225.240657 
L 114.191977 225.240657 
L 120.266586 225.240657 
L 126.341196 225.240657 
L 132.415806 225.240657 
L 138.490416 225.240657 
L 144.565025 225.240657 
L 150.639635 225.240657 
L 156.714245 225.240657 
L 162.788854 225.240657 
L 168.863464 225.240657 
L 174.938074 225.240657 
L 181.012684 225.240657 
L 187.087293 225.240657 
L 193.161903 225.240657 
L 199.236513 225.240657 
L 205.311123 225.240657 
L 211.385732 225.240657 
L 217.460342 225.240657 
L 223.534952 225.240657 
L 229.609562 225.240657 
L 235.684171 225.240657 
L 241.758781 225.240657 
L 247.833391 225.240657 
L 253.908 225.240657 
L 259.98261 225.240657 
L 266.05722 225.240657 
L 272.13183 225.240657 
L 278.206439 225.240657 
L 284.281049 225.240657 
L 290.355659 225.240657 
L 296.430269 225.240657 
L 302.504878 225.240657 
L 308.579488 225.240657 
L 314.654098 225.240657 
L 320.728708 225.240657 
L 326.803317 225.240657 
L 332.877927 225.240657 
L 338.952537 225.240657 
L 345.027146 225.240657 
L 351.101756 224.721297 
L 357.176366 222.532397 
L 363.250976 220.707034 
L 369.325585 220.402178 
L 375.400195 223.091234 
L 381.474805 225.780289 
L 387.549415 228.469345 
L 393.624024 231.158401 
L 399.698634 233.847457 
L 405.773244 236.536512 
L 411.847854 239.591986 
L 417.922463 240.01134 
L 423.997073 234.530245 
L 430.071683 229.464849 
L 436.146292 222.944539 
L 442.220902 215.699348 
L 448.295512 209.988711 
L 454.370122 207.335371 
L 460.444731 204.742738 
L 466.519341 201.418609 
L 472.593951 196.596601 
L 478.668561 191.170644 
L 484.74317 185.68112 
L 490.81778 181.867543 
L 496.89239 178.053966 
L 502.967 175.597841 
L 509.041609 174.745419 
L 515.116219 174.075641 
L 521.190829 173.219709 
L 527.265438 172.176395 
L 533.340048 172.095483 
L 539.414658 172.095483 
L 545.489268 172.095483 
L 551.563877 172.095483 
L 557.638487 172.095483 
L 563.713097 172.095483 
L 569.787707 172.095483 
L 575.862316 172.095483 
L 581.936926 172.095483 
L 588.011536 172.095483 
L 594.086146 172.095483 
L 600.160755 172.095483 
L 606.235365 172.095483 
L 612.309975 172.095483 
L 618.384584 172.095483 
L 624.459194 172.095483 
L 630.533804 172.095483 
L 636.608414 172.095483 
L 642.683023 172.095483 
L 648.757633 172.095483 
L 654.832243 172.095483 
L 660.906853 172.095483 
L 666.981462 172.095483 
L 673.056072 172.095483 
L 679.130682 172.095483 
" style="fill:none;stroke:#58508d;stroke-linecap:square;stroke-width:1.5;"/>
   </g>
   <g id="line2d_16">
    <path clip-path="url(#p58db0296b9)" d="M 77.744318 300.474242 
L 83.818928 300.474242 
L 89.893538 300.474242 
L 95.968147 300.474242 
L 102.042757 300.474242 
L 108.117367 300.474242 
L 114.191977 300.474242 
L 120.266586 300.474242 
L 126.341196 300.474242 
L 132.415806 300.474242 
L 138.490416 300.474242 
L 144.565025 300.474242 
L 150.639635 300.474242 
L 156.714245 300.474242 
L 162.788854 300.474242 
L 168.863464 300.474242 
L 174.938074 300.474242 
L 181.012684 300.474242 
L 187.087293 300.474242 
L 193.161903 300.474242 
L 199.236513 300.474242 
L 205.311123 300.474242 
L 211.385732 300.474242 
L 217.460342 300.474242 
L 223.534952 300.474242 
L 229.609562 300.474242 
L 235.684171 300.63057 
L 241.758781 301.373281 
L 247.833391 301.864947 
L 253.908 301.838249 
L 259.98261 301.811551 
L 266.05722 301.784853 
L 272.13183 301.758155 
L 278.206439 301.731457 
L 284.281049 301.704758 
L 290.355659 301.67806 
L 296.430269 300.804449 
L 302.504878 299.76953 
L 308.579488 299.463205 
L 314.654098 299.533571 
L 320.728708 299.790762 
L 326.803317 300.047953 
L 332.877927 300.305144 
L 338.952537 300.622991 
L 345.027146 299.651485 
L 351.101756 297.582089 
L 357.176366 295.512694 
L 363.250976 293.443298 
L 369.325585 291.373902 
L 375.400195 289.304507 
L 381.474805 286.21779 
L 387.549415 282.859059 
L 393.624024 279.500328 
L 399.698634 276.897326 
L 405.773244 274.977132 
L 411.847854 273.01113 
L 417.922463 270.81596 
L 423.997073 265.373959 
L 430.071683 259.174405 
L 436.146292 252.974852 
L 442.220902 246.288729 
L 448.295512 238.825927 
L 454.370122 231.363125 
L 460.444731 223.900323 
L 466.519341 216.437521 
L 472.593951 208.974718 
L 478.668561 200.964628 
L 484.74317 192.369203 
L 490.81778 184.926287 
L 496.89239 177.521668 
L 502.967 170.117048 
L 509.041609 162.712429 
L 515.116219 155.307809 
L 521.190829 147.937974 
L 527.265438 141.367998 
L 533.340048 135.825179 
L 539.414658 130.544946 
L 545.489268 125.271617 
L 551.563877 119.369689 
L 557.638487 127.67889 
L 563.713097 143.008084 
L 569.787707 140.300717 
L 575.862316 139.053863 
L 581.936926 138.116572 
L 588.011536 138.116572 
L 594.086146 138.116572 
L 600.160755 138.116572 
L 606.235365 138.116572 
L 612.309975 138.116572 
L 618.384584 138.116572 
L 624.459194 138.116572 
L 630.533804 138.116572 
L 636.608414 138.116572 
L 642.683023 138.116572 
L 648.757633 138.116572 
L 654.832243 138.116572 
L 660.906853 138.116572 
L 666.981462 138.116572 
L 673.056072 138.116572 
L 679.130682 138.116572 
" style="fill:none;stroke:#bc5090;stroke-linecap:square;stroke-width:1.5;"/>
   </g>
   <g id="patch_3">
    <path d="M 47.675 451.8 
L 47.675 26.8 
" style="fill:none;stroke:#000000;stroke-linecap:square;stroke-linejoin:miter;stroke-width:0.8;"/>
   </g>
   <g id="patch_4">
    <path d="M 709.2 451.8 
L 709.2 26.8 
" style="fill:none;stroke:#000000;stroke-linecap:square;stroke-linejoin:miter;stroke-width:0.8;"/>
   </g>
   <g id="patch_5">
    <path d="M 47.675 451.8 
L 709.2 451.8 
" style="fill:none;stroke:#000000;stroke-linecap:square;stroke-linejoin:miter;stroke-width:0.8;"/>
   </g>
   <g id="patch_6">
    <path d="M 47.675 26.8 
L 709.2 26.8 
" style="fill:none;stroke:#000000;stroke-linecap:square;stroke-linejoin:miter;stroke-width:0.8;"/>
   </g>
   <g id="text_14">
    <!-- Calibration plots  (reliability curve) -->
    <defs>
     <path d="M 64.40625 67.28125 
L 64.40625 56.890625 
Q 59.421875 61.53125 53.78125 63.8125 
Q 48.140625 66.109375 41.796875 66.109375 
Q 29.296875 66.109375 22.65625 58.46875 
Q 16.015625 50.828125 16.015625 36.375 
Q 16.015625 21.96875 22.65625 14.328125 
Q 29.296875 6.6875 41.796875 6.6875 
Q 48.140625 6.6875 53.78125 8.984375 
Q 59.421875 11.28125 64.40625 15.921875 
L 64.40625 5.609375 
Q 59.234375 2.09375 53.4375 0.328125 
Q 47.65625 -1.421875 41.21875 -1.421875 
Q 24.65625 -1.421875 15.125 8.703125 
Q 5.609375 18.84375 5.609375 36.375 
Q 5.609375 53.953125 15.125 64.078125 
Q 24.65625 74.21875 41.21875 74.21875 
Q 47.75 74.21875 53.53125 72.484375 
Q 59.328125 70.75 64.40625 67.28125 
z
" id="DejaVuSans-67"/>
     <path d="M 9.421875 75.984375 
L 18.40625 75.984375 
L 18.40625 0 
L 9.421875 0 
z
" id="DejaVuSans-108"/>
     <path d="M 48.6875 27.296875 
Q 48.6875 37.203125 44.609375 42.84375 
Q 40.53125 48.484375 33.40625 48.484375 
Q 26.265625 48.484375 22.1875 42.84375 
Q 18.109375 37.203125 18.109375 27.296875 
Q 18.109375 17.390625 22.1875 11.75 
Q 26.265625 6.109375 33.40625 6.109375 
Q 40.53125 6.109375 44.609375 11.75 
Q 48.6875 17.390625 48.6875 27.296875 
z
M 18.109375 46.390625 
Q 20.953125 51.265625 25.265625 53.625 
Q 29.59375 56 35.59375 56 
Q 45.5625 56 51.78125 48.09375 
Q 58.015625 40.1875 58.015625 27.296875 
Q 58.015625 14.40625 51.78125 6.484375 
Q 45.5625 -1.421875 35.59375 -1.421875 
Q 29.59375 -1.421875 25.265625 0.953125 
Q 20.953125 3.328125 18.109375 8.203125 
L 18.109375 0 
L 9.078125 0 
L 9.078125 75.984375 
L 18.109375 75.984375 
z
" id="DejaVuSans-98"/>
     <path d="M 31 75.875 
Q 24.46875 64.65625 21.28125 53.65625 
Q 18.109375 42.671875 18.109375 31.390625 
Q 18.109375 20.125 21.3125 9.0625 
Q 24.515625 -2 31 -13.1875 
L 23.1875 -13.1875 
Q 15.875 -1.703125 12.234375 9.375 
Q 8.59375 20.453125 8.59375 31.390625 
Q 8.59375 42.28125 12.203125 53.3125 
Q 15.828125 64.359375 23.1875 75.875 
z
" id="DejaVuSans-40"/>
     <path d="M 32.171875 -5.078125 
Q 28.375 -14.84375 24.75 -17.8125 
Q 21.140625 -20.796875 15.09375 -20.796875 
L 7.90625 -20.796875 
L 7.90625 -13.28125 
L 13.1875 -13.28125 
Q 16.890625 -13.28125 18.9375 -11.515625 
Q 21 -9.765625 23.484375 -3.21875 
L 25.09375 0.875 
L 2.984375 54.6875 
L 12.5 54.6875 
L 29.59375 11.921875 
L 46.6875 54.6875 
L 56.203125 54.6875 
z
" id="DejaVuSans-121"/>
     <path d="M 8.5 21.578125 
L 8.5 54.6875 
L 17.484375 54.6875 
L 17.484375 21.921875 
Q 17.484375 14.15625 20.5 10.265625 
Q 23.53125 6.390625 29.59375 6.390625 
Q 36.859375 6.390625 41.078125 11.03125 
Q 45.3125 15.671875 45.3125 23.6875 
L 45.3125 54.6875 
L 54.296875 54.6875 
L 54.296875 0 
L 45.3125 0 
L 45.3125 8.40625 
Q 42.046875 3.421875 37.71875 1 
Q 33.40625 -1.421875 27.6875 -1.421875 
Q 18.265625 -1.421875 13.375 4.4375 
Q 8.5 10.296875 8.5 21.578125 
z
M 31.109375 56 
z
" id="DejaVuSans-117"/>
     <path d="M 8.015625 75.875 
L 15.828125 75.875 
Q 23.140625 64.359375 26.78125 53.3125 
Q 30.421875 42.28125 30.421875 31.390625 
Q 30.421875 20.453125 26.78125 9.375 
Q 23.140625 -1.703125 15.828125 -13.1875 
L 8.015625 -13.1875 
Q 14.5 -2 17.703125 9.0625 
Q 20.90625 20.125 20.90625 31.390625 
Q 20.90625 42.671875 17.703125 53.65625 
Q 14.5 64.65625 8.015625 75.875 
z
" id="DejaVuSans-41"/>
    </defs>
    <g transform="translate(274.165938 20.8)scale(0.12 -0.12)">
     <use xlink:href="#DejaVuSans-67"/>
     <use x="69.824219" xlink:href="#DejaVuSans-97"/>
     <use x="131.103516" xlink:href="#DejaVuSans-108"/>
     <use x="158.886719" xlink:href="#DejaVuSans-105"/>
     <use x="186.669922" xlink:href="#DejaVuSans-98"/>
     <use x="250.146484" xlink:href="#DejaVuSans-114"/>
     <use x="291.259766" xlink:href="#DejaVuSans-97"/>
     <use x="352.539062" xlink:href="#DejaVuSans-116"/>
     <use x="391.748047" xlink:href="#DejaVuSans-105"/>
     <use x="419.53125" xlink:href="#DejaVuSans-111"/>
     <use x="480.712891" xlink:href="#DejaVuSans-110"/>
     <use x="544.091797" xlink:href="#DejaVuSans-32"/>
     <use x="575.878906" xlink:href="#DejaVuSans-112"/>
     <use x="639.355469" xlink:href="#DejaVuSans-108"/>
     <use x="667.138672" xlink:href="#DejaVuSans-111"/>
     <use x="728.320312" xlink:href="#DejaVuSans-116"/>
     <use x="767.529297" xlink:href="#DejaVuSans-115"/>
     <use x="819.628906" xlink:href="#DejaVuSans-32"/>
     <use x="851.416016" xlink:href="#DejaVuSans-32"/>
     <use x="883.203125" xlink:href="#DejaVuSans-40"/>
     <use x="922.216797" xlink:href="#DejaVuSans-114"/>
     <use x="963.298828" xlink:href="#DejaVuSans-101"/>
     <use x="1024.822266" xlink:href="#DejaVuSans-108"/>
     <use x="1052.605469" xlink:href="#DejaVuSans-105"/>
     <use x="1080.388672" xlink:href="#DejaVuSans-97"/>
     <use x="1141.667969" xlink:href="#DejaVuSans-98"/>
     <use x="1205.144531" xlink:href="#DejaVuSans-105"/>
     <use x="1232.927734" xlink:href="#DejaVuSans-108"/>
     <use x="1260.710938" xlink:href="#DejaVuSans-105"/>
     <use x="1288.494141" xlink:href="#DejaVuSans-116"/>
     <use x="1327.703125" xlink:href="#DejaVuSans-121"/>
     <use x="1386.882812" xlink:href="#DejaVuSans-32"/>
     <use x="1418.669922" xlink:href="#DejaVuSans-99"/>
     <use x="1473.650391" xlink:href="#DejaVuSans-117"/>
     <use x="1537.029297" xlink:href="#DejaVuSans-114"/>
     <use x="1578.142578" xlink:href="#DejaVuSans-118"/>
     <use x="1637.322266" xlink:href="#DejaVuSans-101"/>
     <use x="1698.845703" xlink:href="#DejaVuSans-41"/>
    </g>
   </g>
   <g id="legend_1">
    <g id="patch_7">
     <path d="M 520.41875 446.8 
L 702.2 446.8 
Q 704.2 446.8 704.2 444.8 
L 704.2 387.0875 
Q 704.2 385.0875 702.2 385.0875 
L 520.41875 385.0875 
Q 518.41875 385.0875 518.41875 387.0875 
L 518.41875 444.8 
Q 518.41875 446.8 520.41875 446.8 
z
" style="fill:#ffffff;opacity:0.8;stroke:#cccccc;stroke-linejoin:miter;"/>
    </g>
    <g id="line2d_17">
     <path d="M 522.41875 393.185937 
L 542.41875 393.185937 
" style="fill:none;stroke:#000000;stroke-dasharray:1.5,2.475;stroke-dashoffset:0;stroke-width:1.5;"/>
    </g>
    <g id="line2d_18"/>
    <g id="text_15">
     <!-- Calibration parfaite -->
     <g transform="translate(550.41875 396.685937)scale(0.1 -0.1)">
      <use xlink:href="#DejaVuSans-67"/>
      <use x="69.824219" xlink:href="#DejaVuSans-97"/>
      <use x="131.103516" xlink:href="#DejaVuSans-108"/>
      <use x="158.886719" xlink:href="#DejaVuSans-105"/>
      <use x="186.669922" xlink:href="#DejaVuSans-98"/>
      <use x="250.146484" xlink:href="#DejaVuSans-114"/>
      <use x="291.259766" xlink:href="#DejaVuSans-97"/>
      <use x="352.539062" xlink:href="#DejaVuSans-116"/>
      <use x="391.748047" xlink:href="#DejaVuSans-105"/>
      <use x="419.53125" xlink:href="#DejaVuSans-111"/>
      <use x="480.712891" xlink:href="#DejaVuSans-110"/>
      <use x="544.091797" xlink:href="#DejaVuSans-32"/>
      <use x="575.878906" xlink:href="#DejaVuSans-112"/>
      <use x="639.355469" xlink:href="#DejaVuSans-97"/>
      <use x="700.634766" xlink:href="#DejaVuSans-114"/>
      <use x="741.748047" xlink:href="#DejaVuSans-102"/>
      <use x="776.953125" xlink:href="#DejaVuSans-97"/>
      <use x="838.232422" xlink:href="#DejaVuSans-105"/>
      <use x="866.015625" xlink:href="#DejaVuSans-116"/>
      <use x="905.224609" xlink:href="#DejaVuSans-101"/>
     </g>
    </g>
    <g id="line2d_19">
     <path d="M 522.41875 407.864062 
L 542.41875 407.864062 
" style="fill:none;stroke:#003f5c;stroke-linecap:square;stroke-width:1.5;"/>
    </g>
    <g id="line2d_20"/>
    <g id="text_16">
     <!-- PPrediction (Brier 0.230.02) -->
     <defs>
      <path d="M 19.671875 64.796875 
L 19.671875 37.40625 
L 32.078125 37.40625 
Q 38.96875 37.40625 42.71875 40.96875 
Q 46.484375 44.53125 46.484375 51.125 
Q 46.484375 57.671875 42.71875 61.234375 
Q 38.96875 64.796875 32.078125 64.796875 
z
M 9.8125 72.90625 
L 32.078125 72.90625 
Q 44.34375 72.90625 50.609375 67.359375 
Q 56.890625 61.8125 56.890625 51.125 
Q 56.890625 40.328125 50.609375 34.8125 
Q 44.34375 29.296875 32.078125 29.296875 
L 19.671875 29.296875 
L 19.671875 0 
L 9.8125 0 
z
" id="DejaVuSans-80"/>
      <path d="M 45.40625 46.390625 
L 45.40625 75.984375 
L 54.390625 75.984375 
L 54.390625 0 
L 45.40625 0 
L 45.40625 8.203125 
Q 42.578125 3.328125 38.25 0.953125 
Q 33.9375 -1.421875 27.875 -1.421875 
Q 17.96875 -1.421875 11.734375 6.484375 
Q 5.515625 14.40625 5.515625 27.296875 
Q 5.515625 40.1875 11.734375 48.09375 
Q 17.96875 56 27.875 56 
Q 33.9375 56 38.25 53.625 
Q 42.578125 51.265625 45.40625 46.390625 
z
M 14.796875 27.296875 
Q 14.796875 17.390625 18.875 11.75 
Q 22.953125 6.109375 30.078125 6.109375 
Q 37.203125 6.109375 41.296875 11.75 
Q 45.40625 17.390625 45.40625 27.296875 
Q 45.40625 37.203125 41.296875 42.84375 
Q 37.203125 48.484375 30.078125 48.484375 
Q 22.953125 48.484375 18.875 42.84375 
Q 14.796875 37.203125 14.796875 27.296875 
z
" id="DejaVuSans-100"/>
      <path d="M 19.671875 34.8125 
L 19.671875 8.109375 
L 35.5 8.109375 
Q 43.453125 8.109375 47.28125 11.40625 
Q 51.125 14.703125 51.125 21.484375 
Q 51.125 28.328125 47.28125 31.5625 
Q 43.453125 34.8125 35.5 34.8125 
z
M 19.671875 64.796875 
L 19.671875 42.828125 
L 34.28125 42.828125 
Q 41.5 42.828125 45.03125 45.53125 
Q 48.578125 48.25 48.578125 53.8125 
Q 48.578125 59.328125 45.03125 62.0625 
Q 41.5 64.796875 34.28125 64.796875 
z
M 9.8125 72.90625 
L 35.015625 72.90625 
Q 46.296875 72.90625 52.390625 68.21875 
Q 58.5 63.53125 58.5 54.890625 
Q 58.5 48.1875 55.375 44.234375 
Q 52.25 40.28125 46.1875 39.3125 
Q 53.46875 37.75 57.5 32.78125 
Q 61.53125 27.828125 61.53125 20.40625 
Q 61.53125 10.640625 54.890625 5.3125 
Q 48.25 0 35.984375 0 
L 9.8125 0 
z
" id="DejaVuSans-66"/>
      <path d="M 40.578125 39.3125 
Q 47.65625 37.796875 51.625 33 
Q 55.609375 28.21875 55.609375 21.1875 
Q 55.609375 10.40625 48.1875 4.484375 
Q 40.765625 -1.421875 27.09375 -1.421875 
Q 22.515625 -1.421875 17.65625 -0.515625 
Q 12.796875 0.390625 7.625 2.203125 
L 7.625 11.71875 
Q 11.71875 9.328125 16.59375 8.109375 
Q 21.484375 6.890625 26.8125 6.890625 
Q 36.078125 6.890625 40.9375 10.546875 
Q 45.796875 14.203125 45.796875 21.1875 
Q 45.796875 27.640625 41.28125 31.265625 
Q 36.765625 34.90625 28.71875 34.90625 
L 20.21875 34.90625 
L 20.21875 43.015625 
L 29.109375 43.015625 
Q 36.375 43.015625 40.234375 45.921875 
Q 44.09375 48.828125 44.09375 54.296875 
Q 44.09375 59.90625 40.109375 62.90625 
Q 36.140625 65.921875 28.71875 65.921875 
Q 24.65625 65.921875 20.015625 65.03125 
Q 15.375 64.15625 9.8125 62.3125 
L 9.8125 71.09375 
Q 15.4375 72.65625 20.34375 73.4375 
Q 25.25 74.21875 29.59375 74.21875 
Q 40.828125 74.21875 47.359375 69.109375 
Q 53.90625 64.015625 53.90625 55.328125 
Q 53.90625 49.265625 50.4375 45.09375 
Q 46.96875 40.921875 40.578125 39.3125 
z
" id="DejaVuSans-51"/>
      <path d="M 46 62.703125 
L 46 43.796875 
L 73.1875 43.796875 
L 73.1875 35.5 
L 46 35.5 
L 46 16.609375 
L 37.796875 16.609375 
L 37.796875 35.5 
L 10.59375 35.5 
L 10.59375 43.796875 
L 37.796875 43.796875 
L 37.796875 62.703125 
z
M 10.59375 8.296875 
L 73.1875 8.296875 
L 73.1875 0 
L 10.59375 0 
z
" id="DejaVuSans-177"/>
     </defs>
     <g transform="translate(550.41875 411.364062)scale(0.1 -0.1)">
      <use xlink:href="#DejaVuSans-80"/>
      <use x="60.302734" xlink:href="#DejaVuSans-80"/>
      <use x="120.589844" xlink:href="#DejaVuSans-114"/>
      <use x="161.671875" xlink:href="#DejaVuSans-101"/>
      <use x="223.195312" xlink:href="#DejaVuSans-100"/>
      <use x="286.671875" xlink:href="#DejaVuSans-105"/>
      <use x="314.455078" xlink:href="#DejaVuSans-99"/>
      <use x="369.435547" xlink:href="#DejaVuSans-116"/>
      <use x="408.644531" xlink:href="#DejaVuSans-105"/>
      <use x="436.427734" xlink:href="#DejaVuSans-111"/>
      <use x="497.609375" xlink:href="#DejaVuSans-110"/>
      <use x="560.988281" xlink:href="#DejaVuSans-32"/>
      <use x="592.775391" xlink:href="#DejaVuSans-40"/>
      <use x="631.789062" xlink:href="#DejaVuSans-66"/>
      <use x="700.392578" xlink:href="#DejaVuSans-114"/>
      <use x="741.505859" xlink:href="#DejaVuSans-105"/>
      <use x="769.289062" xlink:href="#DejaVuSans-101"/>
      <use x="830.8125" xlink:href="#DejaVuSans-114"/>
      <use x="871.925781" xlink:href="#DejaVuSans-32"/>
      <use x="903.712891" xlink:href="#DejaVuSans-48"/>
      <use x="967.335938" xlink:href="#DejaVuSans-46"/>
      <use x="999.123047" xlink:href="#DejaVuSans-50"/>
      <use x="1062.746094" xlink:href="#DejaVuSans-51"/>
      <use x="1126.369141" xlink:href="#DejaVuSans-177"/>
      <use x="1210.158203" xlink:href="#DejaVuSans-48"/>
      <use x="1273.78125" xlink:href="#DejaVuSans-46"/>
      <use x="1305.568359" xlink:href="#DejaVuSans-48"/>
      <use x="1369.191406" xlink:href="#DejaVuSans-50"/>
      <use x="1432.814453" xlink:href="#DejaVuSans-41"/>
     </g>
    </g>
    <g id="line2d_21">
     <path d="M 522.41875 422.542187 
L 542.41875 422.542187 
" style="fill:none;stroke:#58508d;stroke-linecap:square;stroke-width:1.5;"/>
    </g>
    <g id="line2d_22"/>
    <g id="text_17">
     <!-- DPrediction (Brier 0.230.03) -->
     <defs>
      <path d="M 19.671875 64.796875 
L 19.671875 8.109375 
L 31.59375 8.109375 
Q 46.6875 8.109375 53.6875 14.9375 
Q 60.6875 21.78125 60.6875 36.53125 
Q 60.6875 51.171875 53.6875 57.984375 
Q 46.6875 64.796875 31.59375 64.796875 
z
M 9.8125 72.90625 
L 30.078125 72.90625 
Q 51.265625 72.90625 61.171875 64.09375 
Q 71.09375 55.28125 71.09375 36.53125 
Q 71.09375 17.671875 61.125 8.828125 
Q 51.171875 0 30.078125 0 
L 9.8125 0 
z
" id="DejaVuSans-68"/>
     </defs>
     <g transform="translate(550.41875 426.042187)scale(0.1 -0.1)">
      <use xlink:href="#DejaVuSans-68"/>
      <use x="77.001953" xlink:href="#DejaVuSans-80"/>
      <use x="137.289062" xlink:href="#DejaVuSans-114"/>
      <use x="178.371094" xlink:href="#DejaVuSans-101"/>
      <use x="239.894531" xlink:href="#DejaVuSans-100"/>
      <use x="303.371094" xlink:href="#DejaVuSans-105"/>
      <use x="331.154297" xlink:href="#DejaVuSans-99"/>
      <use x="386.134766" xlink:href="#DejaVuSans-116"/>
      <use x="425.34375" xlink:href="#DejaVuSans-105"/>
      <use x="453.126953" xlink:href="#DejaVuSans-111"/>
      <use x="514.308594" xlink:href="#DejaVuSans-110"/>
      <use x="577.6875" xlink:href="#DejaVuSans-32"/>
      <use x="609.474609" xlink:href="#DejaVuSans-40"/>
      <use x="648.488281" xlink:href="#DejaVuSans-66"/>
      <use x="717.091797" xlink:href="#DejaVuSans-114"/>
      <use x="758.205078" xlink:href="#DejaVuSans-105"/>
      <use x="785.988281" xlink:href="#DejaVuSans-101"/>
      <use x="847.511719" xlink:href="#DejaVuSans-114"/>
      <use x="888.625" xlink:href="#DejaVuSans-32"/>
      <use x="920.412109" xlink:href="#DejaVuSans-48"/>
      <use x="984.035156" xlink:href="#DejaVuSans-46"/>
      <use x="1015.822266" xlink:href="#DejaVuSans-50"/>
      <use x="1079.445312" xlink:href="#DejaVuSans-51"/>
      <use x="1143.068359" xlink:href="#DejaVuSans-177"/>
      <use x="1226.857422" xlink:href="#DejaVuSans-48"/>
      <use x="1290.480469" xlink:href="#DejaVuSans-46"/>
      <use x="1322.267578" xlink:href="#DejaVuSans-48"/>
      <use x="1385.890625" xlink:href="#DejaVuSans-51"/>
      <use x="1449.513672" xlink:href="#DejaVuSans-41"/>
     </g>
    </g>
    <g id="line2d_23">
     <path d="M 522.41875 437.220312 
L 542.41875 437.220312 
" style="fill:none;stroke:#bc5090;stroke-linecap:square;stroke-width:1.5;"/>
    </g>
    <g id="line2d_24"/>
    <g id="text_18">
     <!-- MPrediction (Brier 0.200.02) -->
     <defs>
      <path d="M 9.8125 72.90625 
L 24.515625 72.90625 
L 43.109375 23.296875 
L 61.8125 72.90625 
L 76.515625 72.90625 
L 76.515625 0 
L 66.890625 0 
L 66.890625 64.015625 
L 48.09375 14.015625 
L 38.1875 14.015625 
L 19.390625 64.015625 
L 19.390625 0 
L 9.8125 0 
z
" id="DejaVuSans-77"/>
     </defs>
     <g transform="translate(550.41875 440.720312)scale(0.1 -0.1)">
      <use xlink:href="#DejaVuSans-77"/>
      <use x="86.279297" xlink:href="#DejaVuSans-80"/>
      <use x="146.566406" xlink:href="#DejaVuSans-114"/>
      <use x="187.648438" xlink:href="#DejaVuSans-101"/>
      <use x="249.171875" xlink:href="#DejaVuSans-100"/>
      <use x="312.648438" xlink:href="#DejaVuSans-105"/>
      <use x="340.431641" xlink:href="#DejaVuSans-99"/>
      <use x="395.412109" xlink:href="#DejaVuSans-116"/>
      <use x="434.621094" xlink:href="#DejaVuSans-105"/>
      <use x="462.404297" xlink:href="#DejaVuSans-111"/>
      <use x="523.585938" xlink:href="#DejaVuSans-110"/>
      <use x="586.964844" xlink:href="#DejaVuSans-32"/>
      <use x="618.751953" xlink:href="#DejaVuSans-40"/>
      <use x="657.765625" xlink:href="#DejaVuSans-66"/>
      <use x="726.369141" xlink:href="#DejaVuSans-114"/>
      <use x="767.482422" xlink:href="#DejaVuSans-105"/>
      <use x="795.265625" xlink:href="#DejaVuSans-101"/>
      <use x="856.789062" xlink:href="#DejaVuSans-114"/>
      <use x="897.902344" xlink:href="#DejaVuSans-32"/>
      <use x="929.689453" xlink:href="#DejaVuSans-48"/>
      <use x="993.3125" xlink:href="#DejaVuSans-46"/>
      <use x="1025.099609" xlink:href="#DejaVuSans-50"/>
      <use x="1088.722656" xlink:href="#DejaVuSans-48"/>
      <use x="1152.345703" xlink:href="#DejaVuSans-177"/>
      <use x="1236.134766" xlink:href="#DejaVuSans-48"/>
      <use x="1299.757812" xlink:href="#DejaVuSans-46"/>
      <use x="1331.544922" xlink:href="#DejaVuSans-48"/>
      <use x="1395.167969" xlink:href="#DejaVuSans-50"/>
      <use x="1458.791016" xlink:href="#DejaVuSans-41"/>
     </g>
    </g>
   </g>
  </g>
  <g id="axes_2">
   <g id="patch_8">
    <path d="M 47.675 678.2 
L 709.2 678.2 
L 709.2 479.6 
L 47.675 479.6 
z
" style="fill:#ffffff;"/>
   </g>
   <g id="patch_9">
    <path clip-path="url(#p368004be58)" d="M 77.744318 678.2 
L 77.744318 678.2 
L 137.882955 678.2 
L 137.882955 678.2 
L 198.021591 678.2 
L 198.021591 678.2 
L 258.160227 678.2 
L 258.160227 678.2 
L 318.298864 678.2 
L 318.298864 658.290226 
L 378.4375 658.290226 
L 378.4375 568.696241 
L 438.576136 568.696241 
L 438.576136 608.515789 
L 498.714773 608.515789 
L 498.714773 658.290226 
L 558.853409 658.290226 
L 558.853409 678.2 
L 618.992045 678.2 
L 618.992045 678.2 
L 679.130682 678.2 
L 679.130682 678.2 
" style="fill:none;stroke:#003f5c;stroke-linejoin:miter;stroke-width:2;"/>
   </g>
   <g id="patch_10">
    <path clip-path="url(#p368004be58)" d="M 77.744318 678.2 
L 77.744318 678.2 
L 137.882955 678.2 
L 137.882955 678.2 
L 198.021591 678.2 
L 198.021591 678.2 
L 258.160227 678.2 
L 258.160227 678.2 
L 318.298864 678.2 
L 318.298864 678.2 
L 378.4375 678.2 
L 378.4375 648.335338 
L 438.576136 648.335338 
L 438.576136 489.057143 
L 498.714773 489.057143 
L 498.714773 678.2 
L 558.853409 678.2 
L 558.853409 678.2 
L 618.992045 678.2 
L 618.992045 678.2 
L 679.130682 678.2 
L 679.130682 678.2 
" style="fill:none;stroke:#58508d;stroke-linejoin:miter;stroke-width:2;"/>
   </g>
   <g id="patch_11">
    <path clip-path="url(#p368004be58)" d="M 77.744318 678.2 
L 77.744318 678.2 
L 137.882955 678.2 
L 137.882955 678.2 
L 198.021591 678.2 
L 198.021591 678.2 
L 258.160227 678.2 
L 258.160227 558.741353 
L 318.298864 558.741353 
L 318.298864 678.2 
L 378.4375 678.2 
L 378.4375 638.380451 
L 438.576136 638.380451 
L 438.576136 678.2 
L 498.714773 678.2 
L 498.714773 618.470677 
L 558.853409 618.470677 
L 558.853409 678.2 
L 618.992045 678.2 
L 618.992045 678.2 
L 679.130682 678.2 
L 679.130682 678.2 
" style="fill:none;stroke:#bc5090;stroke-linejoin:miter;stroke-width:2;"/>
   </g>
   <g id="matplotlib.axis_3">
    <g id="xtick_7">
     <g id="line2d_25">
      <g>
       <use style="stroke:#000000;stroke-width:0.8;" x="77.744318" xlink:href="#me5ef27e805" y="678.2"/>
      </g>
     </g>
     <g id="text_19">
      <!-- 0.0 -->
      <g transform="translate(69.792756 692.798437)scale(0.1 -0.1)">
       <use xlink:href="#DejaVuSans-48"/>
       <use x="63.623047" xlink:href="#DejaVuSans-46"/>
       <use x="95.410156" xlink:href="#DejaVuSans-48"/>
      </g>
     </g>
    </g>
    <g id="xtick_8">
     <g id="line2d_26">
      <g>
       <use style="stroke:#000000;stroke-width:0.8;" x="198.021591" xlink:href="#me5ef27e805" y="678.2"/>
      </g>
     </g>
     <g id="text_20">
      <!-- 0.2 -->
      <g transform="translate(190.070028 692.798437)scale(0.1 -0.1)">
       <use xlink:href="#DejaVuSans-48"/>
       <use x="63.623047" xlink:href="#DejaVuSans-46"/>
       <use x="95.410156" xlink:href="#DejaVuSans-50"/>
      </g>
     </g>
    </g>
    <g id="xtick_9">
     <g id="line2d_27">
      <g>
       <use style="stroke:#000000;stroke-width:0.8;" x="318.298864" xlink:href="#me5ef27e805" y="678.2"/>
      </g>
     </g>
     <g id="text_21">
      <!-- 0.4 -->
      <g transform="translate(310.347301 692.798437)scale(0.1 -0.1)">
       <use xlink:href="#DejaVuSans-48"/>
       <use x="63.623047" xlink:href="#DejaVuSans-46"/>
       <use x="95.410156" xlink:href="#DejaVuSans-52"/>
      </g>
     </g>
    </g>
    <g id="xtick_10">
     <g id="line2d_28">
      <g>
       <use style="stroke:#000000;stroke-width:0.8;" x="438.576136" xlink:href="#me5ef27e805" y="678.2"/>
      </g>
     </g>
     <g id="text_22">
      <!-- 0.6 -->
      <g transform="translate(430.624574 692.798437)scale(0.1 -0.1)">
       <use xlink:href="#DejaVuSans-48"/>
       <use x="63.623047" xlink:href="#DejaVuSans-46"/>
       <use x="95.410156" xlink:href="#DejaVuSans-54"/>
      </g>
     </g>
    </g>
    <g id="xtick_11">
     <g id="line2d_29">
      <g>
       <use style="stroke:#000000;stroke-width:0.8;" x="558.853409" xlink:href="#me5ef27e805" y="678.2"/>
      </g>
     </g>
     <g id="text_23">
      <!-- 0.8 -->
      <g transform="translate(550.901847 692.798437)scale(0.1 -0.1)">
       <use xlink:href="#DejaVuSans-48"/>
       <use x="63.623047" xlink:href="#DejaVuSans-46"/>
       <use x="95.410156" xlink:href="#DejaVuSans-56"/>
      </g>
     </g>
    </g>
    <g id="xtick_12">
     <g id="line2d_30">
      <g>
       <use style="stroke:#000000;stroke-width:0.8;" x="679.130682" xlink:href="#me5ef27e805" y="678.2"/>
      </g>
     </g>
     <g id="text_24">
      <!-- 1.0 -->
      <g transform="translate(671.179119 692.798437)scale(0.1 -0.1)">
       <use xlink:href="#DejaVuSans-49"/>
       <use x="63.623047" xlink:href="#DejaVuSans-46"/>
       <use x="95.410156" xlink:href="#DejaVuSans-48"/>
      </g>
     </g>
    </g>
    <g id="text_25">
     <!-- Mean predicted value -->
     <g transform="translate(324.15 706.476562)scale(0.1 -0.1)">
      <use xlink:href="#DejaVuSans-77"/>
      <use x="86.279297" xlink:href="#DejaVuSans-101"/>
      <use x="147.802734" xlink:href="#DejaVuSans-97"/>
      <use x="209.082031" xlink:href="#DejaVuSans-110"/>
      <use x="272.460938" xlink:href="#DejaVuSans-32"/>
      <use x="304.248047" xlink:href="#DejaVuSans-112"/>
      <use x="367.724609" xlink:href="#DejaVuSans-114"/>
      <use x="408.806641" xlink:href="#DejaVuSans-101"/>
      <use x="470.330078" xlink:href="#DejaVuSans-100"/>
      <use x="533.806641" xlink:href="#DejaVuSans-105"/>
      <use x="561.589844" xlink:href="#DejaVuSans-99"/>
      <use x="616.570312" xlink:href="#DejaVuSans-116"/>
      <use x="655.779297" xlink:href="#DejaVuSans-101"/>
      <use x="717.302734" xlink:href="#DejaVuSans-100"/>
      <use x="780.779297" xlink:href="#DejaVuSans-32"/>
      <use x="812.566406" xlink:href="#DejaVuSans-118"/>
      <use x="871.746094" xlink:href="#DejaVuSans-97"/>
      <use x="933.025391" xlink:href="#DejaVuSans-108"/>
      <use x="960.808594" xlink:href="#DejaVuSans-117"/>
      <use x="1024.1875" xlink:href="#DejaVuSans-101"/>
     </g>
    </g>
   </g>
   <g id="matplotlib.axis_4">
    <g id="ytick_7">
     <g id="line2d_31">
      <g>
       <use style="stroke:#000000;stroke-width:0.8;" x="47.675" xlink:href="#m4f78fcd9e9" y="678.2"/>
      </g>
     </g>
     <g id="text_26">
      <!-- 0.0 -->
      <g transform="translate(24.771875 681.999219)scale(0.1 -0.1)">
       <use xlink:href="#DejaVuSans-48"/>
       <use x="63.623047" xlink:href="#DejaVuSans-46"/>
       <use x="95.410156" xlink:href="#DejaVuSans-48"/>
      </g>
     </g>
    </g>
    <g id="ytick_8">
     <g id="line2d_32">
      <g>
       <use style="stroke:#000000;stroke-width:0.8;" x="47.675" xlink:href="#m4f78fcd9e9" y="653.312782"/>
      </g>
     </g>
     <g id="text_27">
      <!-- 2.5 -->
      <defs>
       <path d="M 10.796875 72.90625 
L 49.515625 72.90625 
L 49.515625 64.59375 
L 19.828125 64.59375 
L 19.828125 46.734375 
Q 21.96875 47.46875 24.109375 47.828125 
Q 26.265625 48.1875 28.421875 48.1875 
Q 40.625 48.1875 47.75 41.5 
Q 54.890625 34.8125 54.890625 23.390625 
Q 54.890625 11.625 47.5625 5.09375 
Q 40.234375 -1.421875 26.90625 -1.421875 
Q 22.3125 -1.421875 17.546875 -0.640625 
Q 12.796875 0.140625 7.71875 1.703125 
L 7.71875 11.625 
Q 12.109375 9.234375 16.796875 8.0625 
Q 21.484375 6.890625 26.703125 6.890625 
Q 35.15625 6.890625 40.078125 11.328125 
Q 45.015625 15.765625 45.015625 23.390625 
Q 45.015625 31 40.078125 35.4375 
Q 35.15625 39.890625 26.703125 39.890625 
Q 22.75 39.890625 18.8125 39.015625 
Q 14.890625 38.140625 10.796875 36.28125 
z
" id="DejaVuSans-53"/>
      </defs>
      <g transform="translate(24.771875 657.112001)scale(0.1 -0.1)">
       <use xlink:href="#DejaVuSans-50"/>
       <use x="63.623047" xlink:href="#DejaVuSans-46"/>
       <use x="95.410156" xlink:href="#DejaVuSans-53"/>
      </g>
     </g>
    </g>
    <g id="ytick_9">
     <g id="line2d_33">
      <g>
       <use style="stroke:#000000;stroke-width:0.8;" x="47.675" xlink:href="#m4f78fcd9e9" y="628.425564"/>
      </g>
     </g>
     <g id="text_28">
      <!-- 5.0 -->
      <g transform="translate(24.771875 632.224783)scale(0.1 -0.1)">
       <use xlink:href="#DejaVuSans-53"/>
       <use x="63.623047" xlink:href="#DejaVuSans-46"/>
       <use x="95.410156" xlink:href="#DejaVuSans-48"/>
      </g>
     </g>
    </g>
    <g id="ytick_10">
     <g id="line2d_34">
      <g>
       <use style="stroke:#000000;stroke-width:0.8;" x="47.675" xlink:href="#m4f78fcd9e9" y="603.538346"/>
      </g>
     </g>
     <g id="text_29">
      <!-- 7.5 -->
      <defs>
       <path d="M 8.203125 72.90625 
L 55.078125 72.90625 
L 55.078125 68.703125 
L 28.609375 0 
L 18.3125 0 
L 43.21875 64.59375 
L 8.203125 64.59375 
z
" id="DejaVuSans-55"/>
      </defs>
      <g transform="translate(24.771875 607.337565)scale(0.1 -0.1)">
       <use xlink:href="#DejaVuSans-55"/>
       <use x="63.623047" xlink:href="#DejaVuSans-46"/>
       <use x="95.410156" xlink:href="#DejaVuSans-53"/>
      </g>
     </g>
    </g>
    <g id="ytick_11">
     <g id="line2d_35">
      <g>
       <use style="stroke:#000000;stroke-width:0.8;" x="47.675" xlink:href="#m4f78fcd9e9" y="578.651128"/>
      </g>
     </g>
     <g id="text_30">
      <!-- 10.0 -->
      <g transform="translate(18.409375 582.450347)scale(0.1 -0.1)">
       <use xlink:href="#DejaVuSans-49"/>
       <use x="63.623047" xlink:href="#DejaVuSans-48"/>
       <use x="127.246094" xlink:href="#DejaVuSans-46"/>
       <use x="159.033203" xlink:href="#DejaVuSans-48"/>
      </g>
     </g>
    </g>
    <g id="ytick_12">
     <g id="line2d_36">
      <g>
       <use style="stroke:#000000;stroke-width:0.8;" x="47.675" xlink:href="#m4f78fcd9e9" y="553.76391"/>
      </g>
     </g>
     <g id="text_31">
      <!-- 12.5 -->
      <g transform="translate(18.409375 557.563129)scale(0.1 -0.1)">
       <use xlink:href="#DejaVuSans-49"/>
       <use x="63.623047" xlink:href="#DejaVuSans-50"/>
       <use x="127.246094" xlink:href="#DejaVuSans-46"/>
       <use x="159.033203" xlink:href="#DejaVuSans-53"/>
      </g>
     </g>
    </g>
    <g id="ytick_13">
     <g id="line2d_37">
      <g>
       <use style="stroke:#000000;stroke-width:0.8;" x="47.675" xlink:href="#m4f78fcd9e9" y="528.876692"/>
      </g>
     </g>
     <g id="text_32">
      <!-- 15.0 -->
      <g transform="translate(18.409375 532.67591)scale(0.1 -0.1)">
       <use xlink:href="#DejaVuSans-49"/>
       <use x="63.623047" xlink:href="#DejaVuSans-53"/>
       <use x="127.246094" xlink:href="#DejaVuSans-46"/>
       <use x="159.033203" xlink:href="#DejaVuSans-48"/>
      </g>
     </g>
    </g>
    <g id="ytick_14">
     <g id="line2d_38">
      <g>
       <use style="stroke:#000000;stroke-width:0.8;" x="47.675" xlink:href="#m4f78fcd9e9" y="503.989474"/>
      </g>
     </g>
     <g id="text_33">
      <!-- 17.5 -->
      <g transform="translate(18.409375 507.788692)scale(0.1 -0.1)">
       <use xlink:href="#DejaVuSans-49"/>
       <use x="63.623047" xlink:href="#DejaVuSans-55"/>
       <use x="127.246094" xlink:href="#DejaVuSans-46"/>
       <use x="159.033203" xlink:href="#DejaVuSans-53"/>
      </g>
     </g>
    </g>
    <g id="text_34">
     <!-- Count -->
     <g transform="translate(12.329687 593.748437)rotate(-90)scale(0.1 -0.1)">
      <use xlink:href="#DejaVuSans-67"/>
      <use x="69.824219" xlink:href="#DejaVuSans-111"/>
      <use x="131.005859" xlink:href="#DejaVuSans-117"/>
      <use x="194.384766" xlink:href="#DejaVuSans-110"/>
      <use x="257.763672" xlink:href="#DejaVuSans-116"/>
     </g>
    </g>
   </g>
   <g id="patch_12">
    <path d="M 47.675 678.2 
L 47.675 479.6 
" style="fill:none;stroke:#000000;stroke-linecap:square;stroke-linejoin:miter;stroke-width:0.8;"/>
   </g>
   <g id="patch_13">
    <path d="M 709.2 678.2 
L 709.2 479.6 
" style="fill:none;stroke:#000000;stroke-linecap:square;stroke-linejoin:miter;stroke-width:0.8;"/>
   </g>
   <g id="patch_14">
    <path d="M 47.675 678.2 
L 709.2 678.2 
" style="fill:none;stroke:#000000;stroke-linecap:square;stroke-linejoin:miter;stroke-width:0.8;"/>
   </g>
   <g id="patch_15">
    <path d="M 47.675 479.6 
L 709.2 479.6 
" style="fill:none;stroke:#000000;stroke-linecap:square;stroke-linejoin:miter;stroke-width:0.8;"/>
   </g>
   <g id="legend_2">
    <g id="patch_16">
     <path d="M 280.204688 516.95625 
L 476.670313 516.95625 
Q 478.670313 516.95625 478.670313 514.95625 
L 478.670313 486.6 
Q 478.670313 484.6 476.670313 484.6 
L 280.204688 484.6 
Q 278.204688 484.6 278.204688 486.6 
L 278.204688 514.95625 
Q 278.204688 516.95625 280.204688 516.95625 
z
" style="fill:#ffffff;opacity:0.8;stroke:#cccccc;stroke-linejoin:miter;"/>
    </g>
    <g id="patch_17">
     <path d="M 282.204688 496.198437 
L 302.204688 496.198437 
L 302.204688 489.198437 
L 282.204688 489.198437 
z
" style="fill:none;stroke:#003f5c;stroke-linejoin:miter;stroke-width:2;"/>
    </g>
    <g id="text_35">
     <!-- PPrediction -->
     <g transform="translate(310.204688 496.198437)scale(0.1 -0.1)">
      <use xlink:href="#DejaVuSans-80"/>
      <use x="60.302734" xlink:href="#DejaVuSans-80"/>
      <use x="120.589844" xlink:href="#DejaVuSans-114"/>
      <use x="161.671875" xlink:href="#DejaVuSans-101"/>
      <use x="223.195312" xlink:href="#DejaVuSans-100"/>
      <use x="286.671875" xlink:href="#DejaVuSans-105"/>
      <use x="314.455078" xlink:href="#DejaVuSans-99"/>
      <use x="369.435547" xlink:href="#DejaVuSans-116"/>
      <use x="408.644531" xlink:href="#DejaVuSans-105"/>
      <use x="436.427734" xlink:href="#DejaVuSans-111"/>
      <use x="497.609375" xlink:href="#DejaVuSans-110"/>
     </g>
    </g>
    <g id="patch_18">
     <path d="M 282.204688 510.876562 
L 302.204688 510.876562 
L 302.204688 503.876562 
L 282.204688 503.876562 
z
" style="fill:none;stroke:#58508d;stroke-linejoin:miter;stroke-width:2;"/>
    </g>
    <g id="text_36">
     <!-- DPrediction -->
     <g transform="translate(310.204688 510.876562)scale(0.1 -0.1)">
      <use xlink:href="#DejaVuSans-68"/>
      <use x="77.001953" xlink:href="#DejaVuSans-80"/>
      <use x="137.289062" xlink:href="#DejaVuSans-114"/>
      <use x="178.371094" xlink:href="#DejaVuSans-101"/>
      <use x="239.894531" xlink:href="#DejaVuSans-100"/>
      <use x="303.371094" xlink:href="#DejaVuSans-105"/>
      <use x="331.154297" xlink:href="#DejaVuSans-99"/>
      <use x="386.134766" xlink:href="#DejaVuSans-116"/>
      <use x="425.34375" xlink:href="#DejaVuSans-105"/>
      <use x="453.126953" xlink:href="#DejaVuSans-111"/>
      <use x="514.308594" xlink:href="#DejaVuSans-110"/>
     </g>
    </g>
    <g id="patch_19">
     <path d="M 387.973438 496.198437 
L 407.973438 496.198437 
L 407.973438 489.198437 
L 387.973438 489.198437 
z
" style="fill:none;stroke:#bc5090;stroke-linejoin:miter;stroke-width:2;"/>
    </g>
    <g id="text_37">
     <!-- MPrediction -->
     <g transform="translate(415.973438 496.198437)scale(0.1 -0.1)">
      <use xlink:href="#DejaVuSans-77"/>
      <use x="86.279297" xlink:href="#DejaVuSans-80"/>
      <use x="146.566406" xlink:href="#DejaVuSans-114"/>
      <use x="187.648438" xlink:href="#DejaVuSans-101"/>
      <use x="249.171875" xlink:href="#DejaVuSans-100"/>
      <use x="312.648438" xlink:href="#DejaVuSans-105"/>
      <use x="340.431641" xlink:href="#DejaVuSans-99"/>
      <use x="395.412109" xlink:href="#DejaVuSans-116"/>
      <use x="434.621094" xlink:href="#DejaVuSans-105"/>
      <use x="462.404297" xlink:href="#DejaVuSans-111"/>
      <use x="523.585938" xlink:href="#DejaVuSans-110"/>
     </g>
    </g>
   </g>
  </g>
 </g>
 <defs>
  <clipPath id="p58db0296b9">
   <rect height="425" width="661.525" x="47.675" y="26.8"/>
  </clipPath>
  <clipPath id="p368004be58">
   <rect height="198.6" width="661.525" x="47.675" y="479.6"/>
  </clipPath>
 </defs>
</svg>
