<?xml version="1.0" encoding="utf-8" standalone="no"?>
<!DOCTYPE svg PUBLIC "-//W3C//DTD SVG 1.1//EN"
  "http://www.w3.org/Graphics/SVG/1.1/DTD/svg11.dtd">
<!-- Created with matplotlib (https://matplotlib.org/) -->
<svg height="720pt" version="1.1" viewBox="0 0 720 720" width="720pt" xmlns="http://www.w3.org/2000/svg" xmlns:xlink="http://www.w3.org/1999/xlink">
 <defs>
  <style type="text/css">
*{stroke-linecap:butt;stroke-linejoin:round;}
  </style>
 </defs>
 <g id="figure_1">
  <g id="patch_1">
   <path d="M 0 720 
L 720 720 
L 720 0 
L 0 0 
z
" style="fill:#ffffff;"/>
  </g>
  <g id="axes_1">
   <g id="patch_2">
    <path d="M 47.675 451.8 
L 709.2 451.8 
L 709.2 26.8 
L 47.675 26.8 
z
" style="fill:#ffffff;"/>
   </g>
   <g id="PolyCollection_1">
    <defs>
     <path d="M 77.744318 -453.230952 
L 77.744318 -287.518182 
L 83.818928 -287.518182 
L 89.893538 -287.518182 
L 95.968147 -287.518182 
L 102.042757 -287.518182 
L 108.117367 -287.518182 
L 114.191977 -287.518182 
L 120.266586 -287.518182 
L 126.341196 -287.518182 
L 132.415806 -287.518182 
L 138.490416 -287.518182 
L 144.565025 -287.518182 
L 150.639635 -287.518182 
L 156.714245 -287.518182 
L 162.788854 -287.518182 
L 168.863464 -287.518182 
L 174.938074 -287.518182 
L 181.012684 -287.518182 
L 187.087293 -287.518182 
L 193.161903 -287.518182 
L 199.236513 -287.518182 
L 205.311123 -287.518182 
L 211.385732 -287.518182 
L 217.460342 -287.518182 
L 223.534952 -287.518182 
L 229.609562 -287.518182 
L 235.684171 -287.518182 
L 241.758781 -287.518182 
L 247.833391 -287.518182 
L 253.908 -288.960655 
L 259.98261 -296.985114 
L 266.05722 -304.175381 
L 272.13183 -310.763904 
L 278.206439 -315.736029 
L 284.281049 -327.188078 
L 290.355659 -335.866505 
L 296.430269 -341.860113 
L 302.504878 -343.695054 
L 308.579488 -341.156922 
L 314.654098 -335.049892 
L 320.728708 -326.283766 
L 326.803317 -315.622509 
L 332.877927 -310.155367 
L 338.952537 -309.482686 
L 345.027146 -313.116856 
L 351.101756 -324.399135 
L 357.176366 -336.753613 
L 363.250976 -351.610226 
L 369.325585 -365.171167 
L 375.400195 -377.032691 
L 381.474805 -386.770667 
L 387.549415 -393.982639 
L 393.624024 -398.395797 
L 399.698634 -399.967762 
L 405.773244 -399.493941 
L 411.847854 -401.511385 
L 417.922463 -404.016001 
L 423.997073 -411.004301 
L 430.071683 -417.661104 
L 436.146292 -426.725533 
L 442.220902 -433.623279 
L 448.295512 -439.362987 
L 454.370122 -442.797129 
L 460.444731 -443.222295 
L 466.519341 -442.890103 
L 472.593951 -441.94774 
L 478.668561 -439.698121 
L 484.74317 -437.730524 
L 490.81778 -433.952636 
L 496.89239 -436.043154 
L 502.967 -437.885991 
L 509.041609 -434.285177 
L 515.116219 -426.816377 
L 521.190829 -425.770167 
L 527.265438 -422.055865 
L 533.340048 -434.429645 
L 539.414658 -448.081309 
L 545.489268 -459.248307 
L 551.563877 -466.545091 
L 557.638487 -469.658931 
L 563.713097 -478.737105 
L 569.787707 -490.959507 
L 575.862316 -501.445227 
L 581.936926 -509.624454 
L 588.011536 -516.598372 
L 594.086146 -523.79886 
L 600.160755 -530.463497 
L 606.235365 -536.474951 
L 612.309975 -541.786866 
L 618.384584 -546.365814 
L 624.459194 -550.195002 
L 630.533804 -553.276278 
L 636.608414 -555.629909 
L 642.683023 -557.292178 
L 648.757633 -558.055817 
L 654.832243 -557.964539 
L 660.906853 -557.612181 
L 666.981462 -557.585275 
L 673.056072 -557.239848 
L 679.130682 -556.506309 
L 679.130682 -673.881818 
L 679.130682 -673.881818 
L 673.056072 -673.881818 
L 666.981462 -673.881818 
L 660.906853 -673.881818 
L 654.832243 -673.881818 
L 648.757633 -673.881818 
L 642.683023 -673.881818 
L 636.608414 -673.881818 
L 630.533804 -673.881818 
L 624.459194 -673.881818 
L 618.384584 -673.881818 
L 612.309975 -673.881818 
L 606.235365 -673.881818 
L 600.160755 -673.881818 
L 594.086146 -673.881818 
L 588.011536 -673.881818 
L 581.936926 -673.881818 
L 575.862316 -673.881818 
L 569.787707 -673.881818 
L 563.713097 -673.881818 
L 557.638487 -673.881818 
L 551.563877 -673.881818 
L 545.489268 -673.881818 
L 539.414658 -673.881818 
L 533.340048 -673.881818 
L 527.265438 -673.881818 
L 521.190829 -673.881818 
L 515.116219 -673.881818 
L 509.041609 -673.881818 
L 502.967 -673.881818 
L 496.89239 -673.881818 
L 490.81778 -671.845895 
L 484.74317 -660.262681 
L 478.668561 -650.489758 
L 472.593951 -640.434812 
L 466.519341 -631.687124 
L 460.444731 -623.549606 
L 454.370122 -616.169446 
L 448.295512 -611.798262 
L 442.220902 -609.732644 
L 436.146292 -608.825064 
L 430.071683 -610.084167 
L 423.997073 -608.935644 
L 417.922463 -608.118618 
L 411.847854 -602.817908 
L 405.773244 -597.030026 
L 399.698634 -588.750879 
L 393.624024 -582.517518 
L 387.549415 -579.12535 
L 381.474805 -578.531996 
L 375.400195 -580.464646 
L 369.325585 -584.520844 
L 363.250976 -590.276459 
L 357.176366 -597.327746 
L 351.101756 -601.876898 
L 345.027146 -605.353851 
L 338.952537 -601.182695 
L 332.877927 -592.704688 
L 326.803317 -579.43222 
L 320.728708 -560.965637 
L 314.654098 -544.394185 
L 308.579488 -530.48183 
L 302.504878 -520.138371 
L 296.430269 -514.167986 
L 290.355659 -512.356269 
L 284.281049 -513.229369 
L 278.206439 -516.876093 
L 272.13183 -514.042891 
L 266.05722 -512.826089 
L 259.98261 -512.211029 
L 253.908 -512.430162 
L 247.833391 -512.774289 
L 241.758781 -513.115699 
L 235.684171 -511.376334 
L 229.609562 -509.058222 
L 223.534952 -507.272577 
L 217.460342 -506.832991 
L 211.385732 -509.439685 
L 205.311123 -510.884842 
L 199.236513 -509.342461 
L 193.161903 -509.843913 
L 187.087293 -507.074257 
L 181.012684 -503.114064 
L 174.938074 -499.903487 
L 168.863464 -495.145457 
L 162.788854 -488.308388 
L 156.714245 -481.996591 
L 150.639635 -476.236826 
L 144.565025 -469.576872 
L 138.490416 -461.919278 
L 132.415806 -453.293876 
L 126.341196 -447.737522 
L 120.266586 -445.366913 
L 114.191977 -446.073744 
L 108.117367 -449.559747 
L 102.042757 -453.01638 
L 95.968147 -453.691313 
L 89.893538 -454.419285 
L 83.818928 -453.688123 
L 77.744318 -453.230952 
z
" id="m80bdea6dd4" style="stroke:#003f5c;stroke-opacity:0.2;"/>
    </defs>
    <g clip-path="url(#p9fb2c04053)">
     <use style="fill:#003f5c;fill-opacity:0.2;stroke:#003f5c;stroke-opacity:0.2;" x="0" xlink:href="#m80bdea6dd4" y="720"/>
    </g>
   </g>
   <g id="PolyCollection_2">
    <defs>
     <path d="M 77.744318 -374.45 
L 77.744318 -287.518182 
L 83.818928 -287.518182 
L 89.893538 -287.518182 
L 95.968147 -287.518182 
L 102.042757 -287.518182 
L 108.117367 -287.518182 
L 114.191977 -287.518182 
L 120.266586 -287.518182 
L 126.341196 -287.518182 
L 132.415806 -287.518182 
L 138.490416 -287.518182 
L 144.565025 -287.518182 
L 150.639635 -287.518182 
L 156.714245 -287.518182 
L 162.788854 -287.518182 
L 168.863464 -287.518182 
L 174.938074 -287.518182 
L 181.012684 -287.518182 
L 187.087293 -287.518182 
L 193.161903 -299.587492 
L 199.236513 -315.563274 
L 205.311123 -326.496959 
L 211.385732 -324.729495 
L 217.460342 -310.39876 
L 223.534952 -300.604823 
L 229.609562 -299.690925 
L 235.684171 -297.321569 
L 241.758781 -299.999371 
L 247.833391 -310.981899 
L 253.908 -321.152114 
L 259.98261 -330.304146 
L 266.05722 -338.20951 
L 272.13183 -344.646903 
L 278.206439 -349.449154 
L 284.281049 -353.826563 
L 290.355659 -356.967823 
L 296.430269 -358.463873 
L 302.504878 -360.01565 
L 308.579488 -369.978607 
L 314.654098 -381.399384 
L 320.728708 -388.37282 
L 326.803317 -390.179986 
L 332.877927 -386.955656 
L 338.952537 -384.288407 
L 345.027146 -386.789847 
L 351.101756 -389.441388 
L 357.176366 -393.830584 
L 363.250976 -397.311535 
L 369.325585 -397.039305 
L 375.400195 -392.872215 
L 381.474805 -386.060986 
L 387.549415 -377.769311 
L 393.624024 -371.918456 
L 399.698634 -370.180138 
L 405.773244 -376.044169 
L 411.847854 -383.161016 
L 417.922463 -390.763765 
L 423.997073 -397.500061 
L 430.071683 -403.251072 
L 436.146292 -407.967033 
L 442.220902 -411.624992 
L 448.295512 -414.666069 
L 454.370122 -416.75107 
L 460.444731 -417.738544 
L 466.519341 -418.74681 
L 472.593951 -425.016949 
L 478.668561 -430.796496 
L 484.74317 -435.477668 
L 490.81778 -439.037933 
L 496.89239 -444.241617 
L 502.967 -446.18533 
L 509.041609 -444.913815 
L 515.116219 -440.817325 
L 521.190829 -435.26737 
L 527.265438 -430.618706 
L 533.340048 -428.866358 
L 539.414658 -432.196171 
L 545.489268 -445.333445 
L 551.563877 -457.207452 
L 557.638487 -467.501818 
L 563.713097 -475.971553 
L 569.787707 -482.410253 
L 575.862316 -489.212745 
L 581.936926 -496.742994 
L 588.011536 -506.251782 
L 594.086146 -516.664502 
L 600.160755 -526.248633 
L 606.235365 -535.208676 
L 612.309975 -544.749518 
L 618.384584 -553.160663 
L 624.459194 -558.617485 
L 630.533804 -560.95123 
L 636.608414 -560.332197 
L 642.683023 -557.18882 
L 648.757633 -552.041239 
L 654.832243 -545.370407 
L 660.906853 -537.563478 
L 666.981462 -529.106534 
L 673.056072 -524.689816 
L 679.130682 -521.361949 
L 679.130682 -673.881818 
L 679.130682 -673.881818 
L 673.056072 -673.881818 
L 666.981462 -673.881818 
L 660.906853 -673.881818 
L 654.832243 -673.881818 
L 648.757633 -673.881818 
L 642.683023 -673.881818 
L 636.608414 -673.881818 
L 630.533804 -673.881818 
L 624.459194 -673.881818 
L 618.384584 -673.881818 
L 612.309975 -673.881818 
L 606.235365 -673.881818 
L 600.160755 -673.881818 
L 594.086146 -673.881818 
L 588.011536 -673.881818 
L 581.936926 -673.881818 
L 575.862316 -673.881818 
L 569.787707 -673.881818 
L 563.713097 -673.881818 
L 557.638487 -673.881818 
L 551.563877 -673.881818 
L 545.489268 -673.881818 
L 539.414658 -673.881818 
L 533.340048 -673.881818 
L 527.265438 -673.881818 
L 521.190829 -673.881818 
L 515.116219 -673.881818 
L 509.041609 -673.881818 
L 502.967 -673.881818 
L 496.89239 -669.362239 
L 490.81778 -666.760598 
L 484.74317 -662.515537 
L 478.668561 -659.391383 
L 472.593951 -657.365604 
L 466.519341 -655.830417 
L 460.444731 -649.033357 
L 454.370122 -642.215505 
L 448.295512 -636.49518 
L 442.220902 -631.73093 
L 436.146292 -627.583564 
L 430.071683 -624.494199 
L 423.997073 -622.439884 
L 417.922463 -621.370854 
L 411.847854 -621.168277 
L 405.773244 -620.479798 
L 399.698634 -618.538503 
L 393.624024 -608.994859 
L 387.549415 -595.338678 
L 381.474805 -579.241677 
L 375.400195 -564.625122 
L 369.325585 -552.652706 
L 363.250976 -544.57515 
L 357.176366 -540.250775 
L 351.101756 -536.834645 
L 345.027146 -531.68086 
L 338.952537 -526.376974 
L 332.877927 -515.904399 
L 326.803317 -504.874743 
L 320.728708 -498.876583 
L 314.654098 -498.044693 
L 308.579488 -501.660144 
L 302.504878 -503.817775 
L 296.430269 -497.564226 
L 290.355659 -491.25495 
L 284.281049 -486.590884 
L 278.206439 -483.162967 
L 272.13183 -480.159892 
L 266.05722 -478.791959 
L 259.98261 -478.891997 
L 253.908 -480.238703 
L 247.833391 -482.603592 
L 241.758781 -485.780794 
L 235.684171 -480.65327 
L 229.609562 -470.478588 
L 223.534952 -461.759364 
L 217.460342 -444.160101 
L 211.385732 -422.02404 
L 205.311123 -412.45125 
L 199.236513 -415.579609 
L 193.161903 -423.750065 
L 187.087293 -438.629908 
L 181.012684 -451.256334 
L 174.938074 -454.774242 
L 168.863464 -448.606611 
L 162.788854 -446.287497 
L 156.714245 -447.340356 
L 150.639635 -436.425706 
L 144.565025 -419.612216 
L 138.490416 -400.159603 
L 132.415806 -382.633787 
L 126.341196 -368.638669 
L 120.266586 -360.574477 
L 114.191977 -359.975063 
L 108.117367 -363.686729 
L 102.042757 -369.969773 
L 95.968147 -376.119472 
L 89.893538 -377.255376 
L 83.818928 -376.361255 
L 77.744318 -374.45 
z
" id="m0e6d423096" style="stroke:#58508d;stroke-opacity:0.2;"/>
    </defs>
    <g clip-path="url(#p9fb2c04053)">
     <use style="fill:#58508d;fill-opacity:0.2;stroke:#58508d;stroke-opacity:0.2;" x="0" xlink:href="#m0e6d423096" y="720"/>
    </g>
   </g>
   <g id="PolyCollection_3">
    <defs>
     <path d="M 77.744318 -346.088971 
L 77.744318 -287.518182 
L 83.818928 -287.518182 
L 89.893538 -287.518182 
L 95.968147 -287.518182 
L 102.042757 -287.518182 
L 108.117367 -287.518182 
L 114.191977 -287.518182 
L 120.266586 -287.518182 
L 126.341196 -287.518182 
L 132.415806 -287.518182 
L 138.490416 -287.518182 
L 144.565025 -287.518182 
L 150.639635 -287.518182 
L 156.714245 -287.518182 
L 162.788854 -288.427489 
L 168.863464 -292.93162 
L 174.938074 -297.430684 
L 181.012684 -301.924508 
L 187.087293 -306.412911 
L 193.161903 -310.895704 
L 199.236513 -315.372694 
L 205.311123 -319.843679 
L 211.385732 -324.30845 
L 217.460342 -328.766791 
L 223.534952 -333.218479 
L 229.609562 -337.663282 
L 235.684171 -342.100963 
L 241.758781 -346.531274 
L 247.833391 -350.95396 
L 253.908 -355.36876 
L 259.98261 -359.775403 
L 266.05722 -364.173611 
L 272.13183 -368.563097 
L 278.206439 -372.943569 
L 284.281049 -377.314724 
L 290.355659 -381.676254 
L 296.430269 -386.027844 
L 302.504878 -390.369172 
L 308.579488 -394.699908 
L 314.654098 -399.019719 
L 320.728708 -403.328266 
L 326.803317 -407.625204 
L 332.877927 -411.910187 
L 338.952537 -416.182864 
L 345.027146 -420.442882 
L 351.101756 -424.68989 
L 357.176366 -428.923534 
L 363.250976 -433.143463 
L 369.325585 -437.34933 
L 375.400195 -441.540789 
L 381.474805 -445.717505 
L 387.549415 -449.879145 
L 393.624024 -454.025388 
L 399.698634 -458.155924 
L 405.773244 -462.270455 
L 411.847854 -466.368695 
L 417.922463 -470.450377 
L 423.997073 -474.51525 
L 430.071683 -478.563082 
L 436.146292 -482.593663 
L 442.220902 -486.606803 
L 448.295512 -490.602337 
L 454.370122 -494.580125 
L 460.444731 -498.540052 
L 466.519341 -502.48203 
L 472.593951 -506.405998 
L 478.668561 -510.311923 
L 484.74317 -514.199799 
L 490.81778 -518.06965 
L 496.89239 -521.921527 
L 502.967 -525.755507 
L 509.041609 -529.571697 
L 515.116219 -533.370228 
L 521.190829 -537.151255 
L 527.265438 -540.91496 
L 533.340048 -544.661546 
L 539.414658 -548.391236 
L 545.489268 -552.104275 
L 551.563877 -555.800926 
L 557.638487 -559.481466 
L 563.713097 -563.14619 
L 569.787707 -566.795403 
L 575.862316 -570.429424 
L 581.936926 -574.04858 
L 588.011536 -577.653207 
L 594.086146 -581.243645 
L 600.160755 -584.820243 
L 606.235365 -588.38335 
L 612.309975 -591.933319 
L 618.384584 -595.470502 
L 624.459194 -598.995252 
L 630.533804 -602.50792 
L 636.608414 -606.008854 
L 642.683023 -609.4984 
L 648.757633 -612.976899 
L 654.832243 -616.400873 
L 660.906853 -619.780043 
L 666.981462 -623.303457 
L 673.056072 -626.935672 
L 679.130682 -630.828173 
L 679.130682 -673.881818 
L 679.130682 -673.881818 
L 673.056072 -673.881818 
L 666.981462 -673.881818 
L 660.906853 -673.881818 
L 654.832243 -673.881818 
L 648.757633 -673.881818 
L 642.683023 -673.881818 
L 636.608414 -673.881818 
L 630.533804 -673.881818 
L 624.459194 -673.881818 
L 618.384584 -673.881818 
L 612.309975 -669.971732 
L 606.235365 -665.716374 
L 600.160755 -661.474155 
L 594.086146 -657.245427 
L 588.011536 -653.03054 
L 581.936926 -648.82984 
L 575.862316 -644.64367 
L 569.787707 -640.472365 
L 563.713097 -636.316253 
L 557.638487 -632.17565 
L 551.563877 -628.050865 
L 545.489268 -623.942189 
L 539.414658 -619.849903 
L 533.340048 -615.774267 
L 527.265438 -611.715526 
L 521.190829 -607.673905 
L 515.116219 -603.649607 
L 509.041609 -599.642811 
L 502.967 -595.653675 
L 496.89239 -591.68233 
L 490.81778 -587.728881 
L 484.74317 -583.793406 
L 478.668561 -579.875956 
L 472.593951 -575.976555 
L 466.519341 -572.095197 
L 460.444731 -568.231848 
L 454.370122 -564.386449 
L 448.295512 -560.558912 
L 442.220902 -556.74912 
L 436.146292 -552.956934 
L 430.071683 -549.182189 
L 423.997073 -545.424695 
L 417.922463 -541.684242 
L 411.847854 -537.960598 
L 405.773244 -534.253512 
L 399.698634 -530.562717 
L 393.624024 -526.887927 
L 387.549415 -523.228844 
L 381.474805 -519.585158 
L 375.400195 -515.956548 
L 369.325585 -512.342681 
L 363.250976 -508.743222 
L 357.176366 -505.157825 
L 351.101756 -501.586143 
L 345.027146 -498.027825 
L 338.952537 -494.482517 
L 332.877927 -490.949868 
L 326.803317 -487.429525 
L 320.728708 -483.921137 
L 314.654098 -480.424358 
L 308.579488 -476.938843 
L 302.504878 -473.464254 
L 296.430269 -470.000255 
L 290.355659 -466.546519 
L 284.281049 -463.102723 
L 278.206439 -459.668553 
L 272.13183 -456.243698 
L 266.05722 -452.827859 
L 259.98261 -449.42074 
L 253.908 -446.022057 
L 247.833391 -442.631531 
L 241.758781 -439.248892 
L 235.684171 -435.873876 
L 229.609562 -432.506231 
L 223.534952 -429.145709 
L 217.460342 -425.792071 
L 211.385732 -422.445086 
L 205.311123 -419.104531 
L 199.236513 -415.770189 
L 193.161903 -412.441853 
L 187.087293 -409.11932 
L 181.012684 -405.802397 
L 174.938074 -402.490895 
L 168.863464 -399.184634 
L 162.788854 -395.883438 
L 156.714245 -392.587141 
L 150.639635 -389.295579 
L 144.565025 -386.008596 
L 138.490416 -382.726042 
L 132.415806 -379.447772 
L 126.341196 -376.260738 
L 120.266586 -372.887852 
L 114.191977 -369.004638 
L 108.117367 -365.22428 
L 102.042757 -361.490276 
L 95.968147 -357.677745 
L 89.893538 -353.812109 
L 83.818928 -349.991634 
L 77.744318 -346.088971 
z
" id="ma70c9fa6a0" style="stroke:#bc5090;stroke-opacity:0.2;"/>
    </defs>
    <g clip-path="url(#p9fb2c04053)">
     <use style="fill:#bc5090;fill-opacity:0.2;stroke:#bc5090;stroke-opacity:0.2;" x="0" xlink:href="#ma70c9fa6a0" y="720"/>
    </g>
   </g>
   <g id="matplotlib.axis_1">
    <g id="xtick_1">
     <g id="line2d_1">
      <defs>
       <path d="M 0 0 
L 0 3.5 
" id="m44c6dc0928" style="stroke:#000000;stroke-width:0.8;"/>
      </defs>
      <g>
       <use style="stroke:#000000;stroke-width:0.8;" x="77.744318" xlink:href="#m44c6dc0928" y="451.8"/>
      </g>
     </g>
     <g id="text_1">
      <!-- 0.0 -->
      <defs>
       <path d="M 31.78125 66.40625 
Q 24.171875 66.40625 20.328125 58.90625 
Q 16.5 51.421875 16.5 36.375 
Q 16.5 21.390625 20.328125 13.890625 
Q 24.171875 6.390625 31.78125 6.390625 
Q 39.453125 6.390625 43.28125 13.890625 
Q 47.125 21.390625 47.125 36.375 
Q 47.125 51.421875 43.28125 58.90625 
Q 39.453125 66.40625 31.78125 66.40625 
z
M 31.78125 74.21875 
Q 44.046875 74.21875 50.515625 64.515625 
Q 56.984375 54.828125 56.984375 36.375 
Q 56.984375 17.96875 50.515625 8.265625 
Q 44.046875 -1.421875 31.78125 -1.421875 
Q 19.53125 -1.421875 13.0625 8.265625 
Q 6.59375 17.96875 6.59375 36.375 
Q 6.59375 54.828125 13.0625 64.515625 
Q 19.53125 74.21875 31.78125 74.21875 
z
" id="DejaVuSans-48"/>
       <path d="M 10.6875 12.40625 
L 21 12.40625 
L 21 0 
L 10.6875 0 
z
" id="DejaVuSans-46"/>
      </defs>
      <g transform="translate(69.792756 466.398437)scale(0.1 -0.1)">
       <use xlink:href="#DejaVuSans-48"/>
       <use x="63.623047" xlink:href="#DejaVuSans-46"/>
       <use x="95.410156" xlink:href="#DejaVuSans-48"/>
      </g>
     </g>
    </g>
    <g id="xtick_2">
     <g id="line2d_2">
      <g>
       <use style="stroke:#000000;stroke-width:0.8;" x="198.021591" xlink:href="#m44c6dc0928" y="451.8"/>
      </g>
     </g>
     <g id="text_2">
      <!-- 0.2 -->
      <defs>
       <path d="M 19.1875 8.296875 
L 53.609375 8.296875 
L 53.609375 0 
L 7.328125 0 
L 7.328125 8.296875 
Q 12.9375 14.109375 22.625 23.890625 
Q 32.328125 33.6875 34.8125 36.53125 
Q 39.546875 41.84375 41.421875 45.53125 
Q 43.3125 49.21875 43.3125 52.78125 
Q 43.3125 58.59375 39.234375 62.25 
Q 35.15625 65.921875 28.609375 65.921875 
Q 23.96875 65.921875 18.8125 64.3125 
Q 13.671875 62.703125 7.8125 59.421875 
L 7.8125 69.390625 
Q 13.765625 71.78125 18.9375 73 
Q 24.125 74.21875 28.421875 74.21875 
Q 39.75 74.21875 46.484375 68.546875 
Q 53.21875 62.890625 53.21875 53.421875 
Q 53.21875 48.921875 51.53125 44.890625 
Q 49.859375 40.875 45.40625 35.40625 
Q 44.1875 33.984375 37.640625 27.21875 
Q 31.109375 20.453125 19.1875 8.296875 
z
" id="DejaVuSans-50"/>
      </defs>
      <g transform="translate(190.070028 466.398437)scale(0.1 -0.1)">
       <use xlink:href="#DejaVuSans-48"/>
       <use x="63.623047" xlink:href="#DejaVuSans-46"/>
       <use x="95.410156" xlink:href="#DejaVuSans-50"/>
      </g>
     </g>
    </g>
    <g id="xtick_3">
     <g id="line2d_3">
      <g>
       <use style="stroke:#000000;stroke-width:0.8;" x="318.298864" xlink:href="#m44c6dc0928" y="451.8"/>
      </g>
     </g>
     <g id="text_3">
      <!-- 0.4 -->
      <defs>
       <path d="M 37.796875 64.3125 
L 12.890625 25.390625 
L 37.796875 25.390625 
z
M 35.203125 72.90625 
L 47.609375 72.90625 
L 47.609375 25.390625 
L 58.015625 25.390625 
L 58.015625 17.1875 
L 47.609375 17.1875 
L 47.609375 0 
L 37.796875 0 
L 37.796875 17.1875 
L 4.890625 17.1875 
L 4.890625 26.703125 
z
" id="DejaVuSans-52"/>
      </defs>
      <g transform="translate(310.347301 466.398437)scale(0.1 -0.1)">
       <use xlink:href="#DejaVuSans-48"/>
       <use x="63.623047" xlink:href="#DejaVuSans-46"/>
       <use x="95.410156" xlink:href="#DejaVuSans-52"/>
      </g>
     </g>
    </g>
    <g id="xtick_4">
     <g id="line2d_4">
      <g>
       <use style="stroke:#000000;stroke-width:0.8;" x="438.576136" xlink:href="#m44c6dc0928" y="451.8"/>
      </g>
     </g>
     <g id="text_4">
      <!-- 0.6 -->
      <defs>
       <path d="M 33.015625 40.375 
Q 26.375 40.375 22.484375 35.828125 
Q 18.609375 31.296875 18.609375 23.390625 
Q 18.609375 15.53125 22.484375 10.953125 
Q 26.375 6.390625 33.015625 6.390625 
Q 39.65625 6.390625 43.53125 10.953125 
Q 47.40625 15.53125 47.40625 23.390625 
Q 47.40625 31.296875 43.53125 35.828125 
Q 39.65625 40.375 33.015625 40.375 
z
M 52.59375 71.296875 
L 52.59375 62.3125 
Q 48.875 64.0625 45.09375 64.984375 
Q 41.3125 65.921875 37.59375 65.921875 
Q 27.828125 65.921875 22.671875 59.328125 
Q 17.53125 52.734375 16.796875 39.40625 
Q 19.671875 43.65625 24.015625 45.921875 
Q 28.375 48.1875 33.59375 48.1875 
Q 44.578125 48.1875 50.953125 41.515625 
Q 57.328125 34.859375 57.328125 23.390625 
Q 57.328125 12.15625 50.6875 5.359375 
Q 44.046875 -1.421875 33.015625 -1.421875 
Q 20.359375 -1.421875 13.671875 8.265625 
Q 6.984375 17.96875 6.984375 36.375 
Q 6.984375 53.65625 15.1875 63.9375 
Q 23.390625 74.21875 37.203125 74.21875 
Q 40.921875 74.21875 44.703125 73.484375 
Q 48.484375 72.75 52.59375 71.296875 
z
" id="DejaVuSans-54"/>
      </defs>
      <g transform="translate(430.624574 466.398437)scale(0.1 -0.1)">
       <use xlink:href="#DejaVuSans-48"/>
       <use x="63.623047" xlink:href="#DejaVuSans-46"/>
       <use x="95.410156" xlink:href="#DejaVuSans-54"/>
      </g>
     </g>
    </g>
    <g id="xtick_5">
     <g id="line2d_5">
      <g>
       <use style="stroke:#000000;stroke-width:0.8;" x="558.853409" xlink:href="#m44c6dc0928" y="451.8"/>
      </g>
     </g>
     <g id="text_5">
      <!-- 0.8 -->
      <defs>
       <path d="M 31.78125 34.625 
Q 24.75 34.625 20.71875 30.859375 
Q 16.703125 27.09375 16.703125 20.515625 
Q 16.703125 13.921875 20.71875 10.15625 
Q 24.75 6.390625 31.78125 6.390625 
Q 38.8125 6.390625 42.859375 10.171875 
Q 46.921875 13.96875 46.921875 20.515625 
Q 46.921875 27.09375 42.890625 30.859375 
Q 38.875 34.625 31.78125 34.625 
z
M 21.921875 38.8125 
Q 15.578125 40.375 12.03125 44.71875 
Q 8.5 49.078125 8.5 55.328125 
Q 8.5 64.0625 14.71875 69.140625 
Q 20.953125 74.21875 31.78125 74.21875 
Q 42.671875 74.21875 48.875 69.140625 
Q 55.078125 64.0625 55.078125 55.328125 
Q 55.078125 49.078125 51.53125 44.71875 
Q 48 40.375 41.703125 38.8125 
Q 48.828125 37.15625 52.796875 32.3125 
Q 56.78125 27.484375 56.78125 20.515625 
Q 56.78125 9.90625 50.3125 4.234375 
Q 43.84375 -1.421875 31.78125 -1.421875 
Q 19.734375 -1.421875 13.25 4.234375 
Q 6.78125 9.90625 6.78125 20.515625 
Q 6.78125 27.484375 10.78125 32.3125 
Q 14.796875 37.15625 21.921875 38.8125 
z
M 18.3125 54.390625 
Q 18.3125 48.734375 21.84375 45.5625 
Q 25.390625 42.390625 31.78125 42.390625 
Q 38.140625 42.390625 41.71875 45.5625 
Q 45.3125 48.734375 45.3125 54.390625 
Q 45.3125 60.0625 41.71875 63.234375 
Q 38.140625 66.40625 31.78125 66.40625 
Q 25.390625 66.40625 21.84375 63.234375 
Q 18.3125 60.0625 18.3125 54.390625 
z
" id="DejaVuSans-56"/>
      </defs>
      <g transform="translate(550.901847 466.398437)scale(0.1 -0.1)">
       <use xlink:href="#DejaVuSans-48"/>
       <use x="63.623047" xlink:href="#DejaVuSans-46"/>
       <use x="95.410156" xlink:href="#DejaVuSans-56"/>
      </g>
     </g>
    </g>
    <g id="xtick_6">
     <g id="line2d_6">
      <g>
       <use style="stroke:#000000;stroke-width:0.8;" x="679.130682" xlink:href="#m44c6dc0928" y="451.8"/>
      </g>
     </g>
     <g id="text_6">
      <!-- 1.0 -->
      <defs>
       <path d="M 12.40625 8.296875 
L 28.515625 8.296875 
L 28.515625 63.921875 
L 10.984375 60.40625 
L 10.984375 69.390625 
L 28.421875 72.90625 
L 38.28125 72.90625 
L 38.28125 8.296875 
L 54.390625 8.296875 
L 54.390625 0 
L 12.40625 0 
z
" id="DejaVuSans-49"/>
      </defs>
      <g transform="translate(671.179119 466.398437)scale(0.1 -0.1)">
       <use xlink:href="#DejaVuSans-49"/>
       <use x="63.623047" xlink:href="#DejaVuSans-46"/>
       <use x="95.410156" xlink:href="#DejaVuSans-48"/>
      </g>
     </g>
    </g>
   </g>
   <g id="matplotlib.axis_2">
    <g id="ytick_1">
     <g id="line2d_7">
      <defs>
       <path d="M 0 0 
L -3.5 0 
" id="m32a5894383" style="stroke:#000000;stroke-width:0.8;"/>
      </defs>
      <g>
       <use style="stroke:#000000;stroke-width:0.8;" x="47.675" xlink:href="#m32a5894383" y="432.481818"/>
      </g>
     </g>
     <g id="text_7">
      <!-- 0.0 -->
      <g transform="translate(24.771875 436.281037)scale(0.1 -0.1)">
       <use xlink:href="#DejaVuSans-48"/>
       <use x="63.623047" xlink:href="#DejaVuSans-46"/>
       <use x="95.410156" xlink:href="#DejaVuSans-48"/>
      </g>
     </g>
    </g>
    <g id="ytick_2">
     <g id="line2d_8">
      <g>
       <use style="stroke:#000000;stroke-width:0.8;" x="47.675" xlink:href="#m32a5894383" y="355.209091"/>
      </g>
     </g>
     <g id="text_8">
      <!-- 0.2 -->
      <g transform="translate(24.771875 359.00831)scale(0.1 -0.1)">
       <use xlink:href="#DejaVuSans-48"/>
       <use x="63.623047" xlink:href="#DejaVuSans-46"/>
       <use x="95.410156" xlink:href="#DejaVuSans-50"/>
      </g>
     </g>
    </g>
    <g id="ytick_3">
     <g id="line2d_9">
      <g>
       <use style="stroke:#000000;stroke-width:0.8;" x="47.675" xlink:href="#m32a5894383" y="277.936364"/>
      </g>
     </g>
     <g id="text_9">
      <!-- 0.4 -->
      <g transform="translate(24.771875 281.735582)scale(0.1 -0.1)">
       <use xlink:href="#DejaVuSans-48"/>
       <use x="63.623047" xlink:href="#DejaVuSans-46"/>
       <use x="95.410156" xlink:href="#DejaVuSans-52"/>
      </g>
     </g>
    </g>
    <g id="ytick_4">
     <g id="line2d_10">
      <g>
       <use style="stroke:#000000;stroke-width:0.8;" x="47.675" xlink:href="#m32a5894383" y="200.663636"/>
      </g>
     </g>
     <g id="text_10">
      <!-- 0.6 -->
      <g transform="translate(24.771875 204.462855)scale(0.1 -0.1)">
       <use xlink:href="#DejaVuSans-48"/>
       <use x="63.623047" xlink:href="#DejaVuSans-46"/>
       <use x="95.410156" xlink:href="#DejaVuSans-54"/>
      </g>
     </g>
    </g>
    <g id="ytick_5">
     <g id="line2d_11">
      <g>
       <use style="stroke:#000000;stroke-width:0.8;" x="47.675" xlink:href="#m32a5894383" y="123.390909"/>
      </g>
     </g>
     <g id="text_11">
      <!-- 0.8 -->
      <g transform="translate(24.771875 127.190128)scale(0.1 -0.1)">
       <use xlink:href="#DejaVuSans-48"/>
       <use x="63.623047" xlink:href="#DejaVuSans-46"/>
       <use x="95.410156" xlink:href="#DejaVuSans-56"/>
      </g>
     </g>
    </g>
    <g id="ytick_6">
     <g id="line2d_12">
      <g>
       <use style="stroke:#000000;stroke-width:0.8;" x="47.675" xlink:href="#m32a5894383" y="46.118182"/>
      </g>
     </g>
     <g id="text_12">
      <!-- 1.0 -->
      <g transform="translate(24.771875 49.917401)scale(0.1 -0.1)">
       <use xlink:href="#DejaVuSans-49"/>
       <use x="63.623047" xlink:href="#DejaVuSans-46"/>
       <use x="95.410156" xlink:href="#DejaVuSans-48"/>
      </g>
     </g>
    </g>
    <g id="text_13">
     <!-- Fraction of positives -->
     <defs>
      <path d="M 9.8125 72.90625 
L 51.703125 72.90625 
L 51.703125 64.59375 
L 19.671875 64.59375 
L 19.671875 43.109375 
L 48.578125 43.109375 
L 48.578125 34.8125 
L 19.671875 34.8125 
L 19.671875 0 
L 9.8125 0 
z
" id="DejaVuSans-70"/>
      <path d="M 41.109375 46.296875 
Q 39.59375 47.171875 37.8125 47.578125 
Q 36.03125 48 33.890625 48 
Q 26.265625 48 22.1875 43.046875 
Q 18.109375 38.09375 18.109375 28.8125 
L 18.109375 0 
L 9.078125 0 
L 9.078125 54.6875 
L 18.109375 54.6875 
L 18.109375 46.1875 
Q 20.953125 51.171875 25.484375 53.578125 
Q 30.03125 56 36.53125 56 
Q 37.453125 56 38.578125 55.875 
Q 39.703125 55.765625 41.0625 55.515625 
z
" id="DejaVuSans-114"/>
      <path d="M 34.28125 27.484375 
Q 23.390625 27.484375 19.1875 25 
Q 14.984375 22.515625 14.984375 16.5 
Q 14.984375 11.71875 18.140625 8.90625 
Q 21.296875 6.109375 26.703125 6.109375 
Q 34.1875 6.109375 38.703125 11.40625 
Q 43.21875 16.703125 43.21875 25.484375 
L 43.21875 27.484375 
z
M 52.203125 31.203125 
L 52.203125 0 
L 43.21875 0 
L 43.21875 8.296875 
Q 40.140625 3.328125 35.546875 0.953125 
Q 30.953125 -1.421875 24.3125 -1.421875 
Q 15.921875 -1.421875 10.953125 3.296875 
Q 6 8.015625 6 15.921875 
Q 6 25.140625 12.171875 29.828125 
Q 18.359375 34.515625 30.609375 34.515625 
L 43.21875 34.515625 
L 43.21875 35.40625 
Q 43.21875 41.609375 39.140625 45 
Q 35.0625 48.390625 27.6875 48.390625 
Q 23 48.390625 18.546875 47.265625 
Q 14.109375 46.140625 10.015625 43.890625 
L 10.015625 52.203125 
Q 14.9375 54.109375 19.578125 55.046875 
Q 24.21875 56 28.609375 56 
Q 40.484375 56 46.34375 49.84375 
Q 52.203125 43.703125 52.203125 31.203125 
z
" id="DejaVuSans-97"/>
      <path d="M 48.78125 52.59375 
L 48.78125 44.1875 
Q 44.96875 46.296875 41.140625 47.34375 
Q 37.3125 48.390625 33.40625 48.390625 
Q 24.65625 48.390625 19.8125 42.84375 
Q 14.984375 37.3125 14.984375 27.296875 
Q 14.984375 17.28125 19.8125 11.734375 
Q 24.65625 6.203125 33.40625 6.203125 
Q 37.3125 6.203125 41.140625 7.25 
Q 44.96875 8.296875 48.78125 10.40625 
L 48.78125 2.09375 
Q 45.015625 0.34375 40.984375 -0.53125 
Q 36.96875 -1.421875 32.421875 -1.421875 
Q 20.0625 -1.421875 12.78125 6.34375 
Q 5.515625 14.109375 5.515625 27.296875 
Q 5.515625 40.671875 12.859375 48.328125 
Q 20.21875 56 33.015625 56 
Q 37.15625 56 41.109375 55.140625 
Q 45.0625 54.296875 48.78125 52.59375 
z
" id="DejaVuSans-99"/>
      <path d="M 18.3125 70.21875 
L 18.3125 54.6875 
L 36.8125 54.6875 
L 36.8125 47.703125 
L 18.3125 47.703125 
L 18.3125 18.015625 
Q 18.3125 11.328125 20.140625 9.421875 
Q 21.96875 7.515625 27.59375 7.515625 
L 36.8125 7.515625 
L 36.8125 0 
L 27.59375 0 
Q 17.1875 0 13.234375 3.875 
Q 9.28125 7.765625 9.28125 18.015625 
L 9.28125 47.703125 
L 2.6875 47.703125 
L 2.6875 54.6875 
L 9.28125 54.6875 
L 9.28125 70.21875 
z
" id="DejaVuSans-116"/>
      <path d="M 9.421875 54.6875 
L 18.40625 54.6875 
L 18.40625 0 
L 9.421875 0 
z
M 9.421875 75.984375 
L 18.40625 75.984375 
L 18.40625 64.59375 
L 9.421875 64.59375 
z
" id="DejaVuSans-105"/>
      <path d="M 30.609375 48.390625 
Q 23.390625 48.390625 19.1875 42.75 
Q 14.984375 37.109375 14.984375 27.296875 
Q 14.984375 17.484375 19.15625 11.84375 
Q 23.34375 6.203125 30.609375 6.203125 
Q 37.796875 6.203125 41.984375 11.859375 
Q 46.1875 17.53125 46.1875 27.296875 
Q 46.1875 37.015625 41.984375 42.703125 
Q 37.796875 48.390625 30.609375 48.390625 
z
M 30.609375 56 
Q 42.328125 56 49.015625 48.375 
Q 55.71875 40.765625 55.71875 27.296875 
Q 55.71875 13.875 49.015625 6.21875 
Q 42.328125 -1.421875 30.609375 -1.421875 
Q 18.84375 -1.421875 12.171875 6.21875 
Q 5.515625 13.875 5.515625 27.296875 
Q 5.515625 40.765625 12.171875 48.375 
Q 18.84375 56 30.609375 56 
z
" id="DejaVuSans-111"/>
      <path d="M 54.890625 33.015625 
L 54.890625 0 
L 45.90625 0 
L 45.90625 32.71875 
Q 45.90625 40.484375 42.875 44.328125 
Q 39.84375 48.1875 33.796875 48.1875 
Q 26.515625 48.1875 22.3125 43.546875 
Q 18.109375 38.921875 18.109375 30.90625 
L 18.109375 0 
L 9.078125 0 
L 9.078125 54.6875 
L 18.109375 54.6875 
L 18.109375 46.1875 
Q 21.34375 51.125 25.703125 53.5625 
Q 30.078125 56 35.796875 56 
Q 45.21875 56 50.046875 50.171875 
Q 54.890625 44.34375 54.890625 33.015625 
z
" id="DejaVuSans-110"/>
      <path id="DejaVuSans-32"/>
      <path d="M 37.109375 75.984375 
L 37.109375 68.5 
L 28.515625 68.5 
Q 23.6875 68.5 21.796875 66.546875 
Q 19.921875 64.59375 19.921875 59.515625 
L 19.921875 54.6875 
L 34.71875 54.6875 
L 34.71875 47.703125 
L 19.921875 47.703125 
L 19.921875 0 
L 10.890625 0 
L 10.890625 47.703125 
L 2.296875 47.703125 
L 2.296875 54.6875 
L 10.890625 54.6875 
L 10.890625 58.5 
Q 10.890625 67.625 15.140625 71.796875 
Q 19.390625 75.984375 28.609375 75.984375 
z
" id="DejaVuSans-102"/>
      <path d="M 18.109375 8.203125 
L 18.109375 -20.796875 
L 9.078125 -20.796875 
L 9.078125 54.6875 
L 18.109375 54.6875 
L 18.109375 46.390625 
Q 20.953125 51.265625 25.265625 53.625 
Q 29.59375 56 35.59375 56 
Q 45.5625 56 51.78125 48.09375 
Q 58.015625 40.1875 58.015625 27.296875 
Q 58.015625 14.40625 51.78125 6.484375 
Q 45.5625 -1.421875 35.59375 -1.421875 
Q 29.59375 -1.421875 25.265625 0.953125 
Q 20.953125 3.328125 18.109375 8.203125 
z
M 48.6875 27.296875 
Q 48.6875 37.203125 44.609375 42.84375 
Q 40.53125 48.484375 33.40625 48.484375 
Q 26.265625 48.484375 22.1875 42.84375 
Q 18.109375 37.203125 18.109375 27.296875 
Q 18.109375 17.390625 22.1875 11.75 
Q 26.265625 6.109375 33.40625 6.109375 
Q 40.53125 6.109375 44.609375 11.75 
Q 48.6875 17.390625 48.6875 27.296875 
z
" id="DejaVuSans-112"/>
      <path d="M 44.28125 53.078125 
L 44.28125 44.578125 
Q 40.484375 46.53125 36.375 47.5 
Q 32.28125 48.484375 27.875 48.484375 
Q 21.1875 48.484375 17.84375 46.4375 
Q 14.5 44.390625 14.5 40.28125 
Q 14.5 37.15625 16.890625 35.375 
Q 19.28125 33.59375 26.515625 31.984375 
L 29.59375 31.296875 
Q 39.15625 29.25 43.1875 25.515625 
Q 47.21875 21.78125 47.21875 15.09375 
Q 47.21875 7.46875 41.1875 3.015625 
Q 35.15625 -1.421875 24.609375 -1.421875 
Q 20.21875 -1.421875 15.453125 -0.5625 
Q 10.6875 0.296875 5.421875 2 
L 5.421875 11.28125 
Q 10.40625 8.6875 15.234375 7.390625 
Q 20.0625 6.109375 24.8125 6.109375 
Q 31.15625 6.109375 34.5625 8.28125 
Q 37.984375 10.453125 37.984375 14.40625 
Q 37.984375 18.0625 35.515625 20.015625 
Q 33.0625 21.96875 24.703125 23.78125 
L 21.578125 24.515625 
Q 13.234375 26.265625 9.515625 29.90625 
Q 5.8125 33.546875 5.8125 39.890625 
Q 5.8125 47.609375 11.28125 51.796875 
Q 16.75 56 26.8125 56 
Q 31.78125 56 36.171875 55.265625 
Q 40.578125 54.546875 44.28125 53.078125 
z
" id="DejaVuSans-115"/>
      <path d="M 2.984375 54.6875 
L 12.5 54.6875 
L 29.59375 8.796875 
L 46.6875 54.6875 
L 56.203125 54.6875 
L 35.6875 0 
L 23.484375 0 
z
" id="DejaVuSans-118"/>
      <path d="M 56.203125 29.59375 
L 56.203125 25.203125 
L 14.890625 25.203125 
Q 15.484375 15.921875 20.484375 11.0625 
Q 25.484375 6.203125 34.421875 6.203125 
Q 39.59375 6.203125 44.453125 7.46875 
Q 49.3125 8.734375 54.109375 11.28125 
L 54.109375 2.78125 
Q 49.265625 0.734375 44.1875 -0.34375 
Q 39.109375 -1.421875 33.890625 -1.421875 
Q 20.796875 -1.421875 13.15625 6.1875 
Q 5.515625 13.8125 5.515625 26.8125 
Q 5.515625 40.234375 12.765625 48.109375 
Q 20.015625 56 32.328125 56 
Q 43.359375 56 49.78125 48.890625 
Q 56.203125 41.796875 56.203125 29.59375 
z
M 47.21875 32.234375 
Q 47.125 39.59375 43.09375 43.984375 
Q 39.0625 48.390625 32.421875 48.390625 
Q 24.90625 48.390625 20.390625 44.140625 
Q 15.875 39.890625 15.1875 32.171875 
z
" id="DejaVuSans-101"/>
     </defs>
     <g transform="translate(18.692187 289.83125)rotate(-90)scale(0.1 -0.1)">
      <use xlink:href="#DejaVuSans-70"/>
      <use x="57.410156" xlink:href="#DejaVuSans-114"/>
      <use x="98.523438" xlink:href="#DejaVuSans-97"/>
      <use x="159.802734" xlink:href="#DejaVuSans-99"/>
      <use x="214.783203" xlink:href="#DejaVuSans-116"/>
      <use x="253.992188" xlink:href="#DejaVuSans-105"/>
      <use x="281.775391" xlink:href="#DejaVuSans-111"/>
      <use x="342.957031" xlink:href="#DejaVuSans-110"/>
      <use x="406.335938" xlink:href="#DejaVuSans-32"/>
      <use x="438.123047" xlink:href="#DejaVuSans-111"/>
      <use x="499.304688" xlink:href="#DejaVuSans-102"/>
      <use x="534.509766" xlink:href="#DejaVuSans-32"/>
      <use x="566.296875" xlink:href="#DejaVuSans-112"/>
      <use x="629.773438" xlink:href="#DejaVuSans-111"/>
      <use x="690.955078" xlink:href="#DejaVuSans-115"/>
      <use x="743.054688" xlink:href="#DejaVuSans-105"/>
      <use x="770.837891" xlink:href="#DejaVuSans-116"/>
      <use x="810.046875" xlink:href="#DejaVuSans-105"/>
      <use x="837.830078" xlink:href="#DejaVuSans-118"/>
      <use x="897.009766" xlink:href="#DejaVuSans-101"/>
      <use x="958.533203" xlink:href="#DejaVuSans-115"/>
     </g>
    </g>
   </g>
   <g id="line2d_13">
    <path clip-path="url(#p9fb2c04053)" d="M 77.744318 432.481818 
L 679.130682 46.118182 
" style="fill:none;stroke:#000000;stroke-dasharray:1.5,2.475;stroke-dashoffset:0;stroke-width:1.5;"/>
   </g>
   <g id="line2d_14">
    <path clip-path="url(#p9fb2c04053)" d="M 77.744318 300.474242 
L 83.818928 295.984056 
L 89.893538 291.49387 
L 95.968147 285.012627 
L 102.042757 278.229717 
L 108.117367 275.86039 
L 114.191977 275.968135 
L 120.266586 276.075881 
L 126.341196 276.183627 
L 132.415806 276.291372 
L 138.490416 276.399118 
L 144.565025 273.459907 
L 150.639635 268.623305 
L 156.714245 260.252918 
L 162.788854 251.88253 
L 168.863464 243.512143 
L 174.938074 237.874094 
L 181.012684 234.141975 
L 187.087293 230.907525 
L 193.161903 229.625416 
L 199.236513 232.499904 
L 205.311123 235.374392 
L 211.385732 234.510386 
L 217.460342 230.941891 
L 223.534952 229.983157 
L 229.609562 224.996851 
L 235.684171 214.178847 
L 241.758781 202.344237 
L 247.833391 188.533463 
L 253.908 176.560351 
L 259.98261 167.846841 
L 266.05722 162.668582 
L 272.13183 161.174864 
L 278.206439 162.657954 
L 284.281049 174.147672 
L 290.355659 183.112488 
L 296.430269 188.966154 
L 302.504878 196.231262 
L 308.579488 203.496369 
L 314.654098 210.761477 
L 320.728708 218.026585 
L 326.803317 225.291693 
L 332.877927 228.153502 
L 338.952537 232.917002 
L 345.027146 232.525894 
L 351.101756 227.727205 
L 357.176366 222.664104 
L 363.250976 216.595446 
L 369.325585 210.597992 
L 375.400195 204.600537 
L 381.474805 198.603082 
L 387.549415 192.605627 
L 393.624024 186.608173 
L 399.698634 180.06366 
L 405.773244 173.579542 
L 411.847854 172.144424 
L 417.922463 173.896439 
L 423.997073 171.450295 
L 430.071683 170.032635 
L 436.146292 172.153912 
L 442.220902 174.275188 
L 448.295512 177.242019 
L 454.370122 180.357791 
L 460.444731 182.571757 
L 466.519341 183.6528 
L 472.593951 184.081246 
L 478.668561 184.509692 
L 484.74317 181.316832 
L 490.81778 177.931805 
L 496.89239 177.292505 
L 502.967 180.760349 
L 509.041609 184.228194 
L 515.116219 188.20498 
L 521.190829 190.620407 
L 527.265438 192.412157 
L 533.340048 192.060053 
L 539.414658 196.240969 
L 545.489268 201.000601 
L 551.563877 205.760233 
L 557.638487 210.519864 
L 563.713097 209.848872 
L 569.787707 206.611361 
L 575.862316 204.416121 
L 581.936926 200.400694 
L 588.011536 196.385267 
L 594.086146 189.650372 
L 600.160755 182.770048 
L 606.235365 175.889725 
L 612.309975 169.009401 
L 618.384584 162.129078 
L 624.459194 155.248754 
L 630.533804 148.36843 
L 636.608414 141.488107 
L 642.683023 134.607783 
L 648.757633 128.284846 
L 654.832243 122.59947 
L 660.906853 117.245915 
L 666.981462 113.208492 
L 673.056072 110.250458 
L 679.130682 107.292424 
" style="fill:none;stroke:#003f5c;stroke-linecap:square;stroke-width:1.5;"/>
   </g>
   <g id="line2d_15">
    <path clip-path="url(#p9fb2c04053)" d="M 77.744318 364.868182 
L 83.818928 363.055895 
L 89.893538 362.103285 
L 95.968147 360.62094 
L 102.042757 355.474613 
L 108.117367 350.519772 
L 114.191977 344.352631 
L 120.266586 336.933468 
L 126.341196 329.514305 
L 132.415806 322.095142 
L 138.490416 314.67598 
L 144.565025 307.256817 
L 150.639635 297.030613 
L 156.714245 288.809744 
L 162.788854 289.153856 
L 168.863464 290.615549 
L 174.938074 292.412774 
L 181.012684 302.976948 
L 187.087293 315.032962 
L 193.161903 321.752955 
L 199.236513 325.993719 
L 205.311123 324.96681 
L 211.385732 321.994604 
L 217.460342 316.833916 
L 223.534952 309.960987 
L 229.609562 298.382835 
L 235.684171 286.158365 
L 241.758781 275.999178 
L 247.833391 269.557583 
L 253.908 263.115988 
L 259.98261 256.674393 
L 266.05722 250.232798 
L 272.13183 243.791203 
L 278.206439 237.349608 
L 284.281049 231.392123 
L 290.355659 225.126626 
L 296.430269 218.493265 
L 302.504878 210.233752 
L 308.579488 202.294095 
L 314.654098 191.258369 
L 320.728708 180.222643 
L 326.803317 169.186917 
L 332.877927 159.412387 
L 338.952537 155.130192 
L 345.027146 154.105959 
L 351.101756 152.9736 
L 357.176366 154.89382 
L 363.250976 156.565403 
L 369.325585 158.760281 
L 375.400195 162.967117 
L 381.474805 167.173954 
L 387.549415 170.771601 
L 393.624024 174.010031 
L 399.698634 177.130983 
L 405.773244 174.861696 
L 411.847854 169.575763 
L 417.922463 165.571438 
L 423.997073 161.787788 
L 430.071683 158.004139 
L 436.146292 154.220489 
L 442.220902 150.436839 
L 448.295512 147.143868 
L 454.370122 144.015526 
L 460.444731 142.722789 
L 466.519341 142.817201 
L 472.593951 140.469672 
L 478.668561 138.315638 
L 484.74317 136.161604 
L 490.81778 134.00757 
L 496.89239 136.796113 
L 502.967 139.740449 
L 509.041609 142.684784 
L 515.116219 145.62912 
L 521.190829 149.689929 
L 527.265438 153.081399 
L 533.340048 158.610747 
L 539.414658 158.115596 
L 545.489268 151.955864 
L 551.563877 145.888873 
L 557.638487 139.821882 
L 563.713097 133.754891 
L 569.787707 127.687901 
L 575.862316 121.247987 
L 581.936926 114.556065 
L 588.011536 110.846041 
L 594.086146 110.065602 
L 600.160755 109.285163 
L 606.235365 109.054273 
L 612.309975 111.734182 
L 618.384584 116.231978 
L 624.459194 120.729775 
L 630.533804 125.227571 
L 636.608414 129.725367 
L 642.683023 134.223163 
L 648.757633 138.72096 
L 654.832243 143.218756 
L 660.906853 147.716552 
L 666.981462 151.912507 
L 673.056072 154.118866 
L 679.130682 155.587879 
" style="fill:none;stroke:#58508d;stroke-linecap:square;stroke-width:1.5;"/>
   </g>
   <g id="line2d_16">
    <path clip-path="url(#p9fb2c04053)" d="M 77.744318 306.618149 
L 83.818928 306.618149 
L 89.893538 306.453224 
L 95.968147 306.061231 
L 102.042757 305.533318 
L 108.117367 304.709851 
L 114.191977 303.848738 
L 120.266586 302.808825 
L 126.341196 301.214495 
L 132.415806 299.240686 
L 138.490416 297.230869 
L 144.565025 295.221053 
L 150.639635 293.211236 
L 156.714245 291.20142 
L 162.788854 289.191603 
L 168.863464 287.181787 
L 174.938074 285.171971 
L 181.012684 283.162154 
L 187.087293 281.152338 
L 193.161903 279.142521 
L 199.236513 277.132705 
L 205.311123 275.122888 
L 211.385732 273.113072 
L 217.460342 271.103255 
L 223.534952 269.093439 
L 229.609562 267.083623 
L 235.684171 265.073806 
L 241.758781 263.06399 
L 247.833391 261.054173 
L 253.908 259.044357 
L 259.98261 257.03454 
L 266.05722 255.024724 
L 272.13183 253.014907 
L 278.206439 251.005091 
L 284.281049 248.995275 
L 290.355659 246.985458 
L 296.430269 244.975642 
L 302.504878 242.965825 
L 308.579488 240.956009 
L 314.654098 238.946192 
L 320.728708 236.936376 
L 326.803317 234.926559 
L 332.877927 232.916743 
L 338.952537 230.906927 
L 345.027146 228.89711 
L 351.101756 226.887294 
L 357.176366 224.877477 
L 363.250976 222.867661 
L 369.325585 220.857844 
L 375.400195 218.848028 
L 381.474805 216.838211 
L 387.549415 214.828395 
L 393.624024 212.818579 
L 399.698634 210.808762 
L 405.773244 208.798946 
L 411.847854 206.789129 
L 417.922463 204.779313 
L 423.997073 202.769496 
L 430.071683 200.75968 
L 436.146292 198.749863 
L 442.220902 196.740047 
L 448.295512 194.730231 
L 454.370122 192.720414 
L 460.444731 190.710598 
L 466.519341 188.700781 
L 472.593951 186.690965 
L 478.668561 184.681148 
L 484.74317 182.671332 
L 490.81778 180.661515 
L 496.89239 178.651699 
L 502.967 176.641883 
L 509.041609 174.632066 
L 515.116219 172.62225 
L 521.190829 170.612433 
L 527.265438 168.602617 
L 533.340048 166.5928 
L 539.414658 164.582984 
L 545.489268 162.573167 
L 551.563877 160.563351 
L 557.638487 158.553535 
L 563.713097 156.543718 
L 569.787707 154.533902 
L 575.862316 152.524085 
L 581.936926 150.514269 
L 588.011536 148.504452 
L 594.086146 146.494636 
L 600.160755 144.484819 
L 606.235365 142.475003 
L 612.309975 140.465187 
L 618.384584 138.45537 
L 624.459194 136.445554 
L 630.533804 134.435737 
L 636.608414 132.425921 
L 642.683023 130.416104 
L 648.757633 128.406288 
L 654.832243 126.458056 
L 660.906853 124.747501 
L 666.981462 123.671211 
L 673.056072 123.017841 
L 679.130682 122.852546 
" style="fill:none;stroke:#bc5090;stroke-linecap:square;stroke-width:1.5;"/>
   </g>
   <g id="patch_3">
    <path d="M 47.675 451.8 
L 47.675 26.8 
" style="fill:none;stroke:#000000;stroke-linecap:square;stroke-linejoin:miter;stroke-width:0.8;"/>
   </g>
   <g id="patch_4">
    <path d="M 709.2 451.8 
L 709.2 26.8 
" style="fill:none;stroke:#000000;stroke-linecap:square;stroke-linejoin:miter;stroke-width:0.8;"/>
   </g>
   <g id="patch_5">
    <path d="M 47.675 451.8 
L 709.2 451.8 
" style="fill:none;stroke:#000000;stroke-linecap:square;stroke-linejoin:miter;stroke-width:0.8;"/>
   </g>
   <g id="patch_6">
    <path d="M 47.675 26.8 
L 709.2 26.8 
" style="fill:none;stroke:#000000;stroke-linecap:square;stroke-linejoin:miter;stroke-width:0.8;"/>
   </g>
   <g id="text_14">
    <!-- Calibration plots  (reliability curve) -->
    <defs>
     <path d="M 64.40625 67.28125 
L 64.40625 56.890625 
Q 59.421875 61.53125 53.78125 63.8125 
Q 48.140625 66.109375 41.796875 66.109375 
Q 29.296875 66.109375 22.65625 58.46875 
Q 16.015625 50.828125 16.015625 36.375 
Q 16.015625 21.96875 22.65625 14.328125 
Q 29.296875 6.6875 41.796875 6.6875 
Q 48.140625 6.6875 53.78125 8.984375 
Q 59.421875 11.28125 64.40625 15.921875 
L 64.40625 5.609375 
Q 59.234375 2.09375 53.4375 0.328125 
Q 47.65625 -1.421875 41.21875 -1.421875 
Q 24.65625 -1.421875 15.125 8.703125 
Q 5.609375 18.84375 5.609375 36.375 
Q 5.609375 53.953125 15.125 64.078125 
Q 24.65625 74.21875 41.21875 74.21875 
Q 47.75 74.21875 53.53125 72.484375 
Q 59.328125 70.75 64.40625 67.28125 
z
" id="DejaVuSans-67"/>
     <path d="M 9.421875 75.984375 
L 18.40625 75.984375 
L 18.40625 0 
L 9.421875 0 
z
" id="DejaVuSans-108"/>
     <path d="M 48.6875 27.296875 
Q 48.6875 37.203125 44.609375 42.84375 
Q 40.53125 48.484375 33.40625 48.484375 
Q 26.265625 48.484375 22.1875 42.84375 
Q 18.109375 37.203125 18.109375 27.296875 
Q 18.109375 17.390625 22.1875 11.75 
Q 26.265625 6.109375 33.40625 6.109375 
Q 40.53125 6.109375 44.609375 11.75 
Q 48.6875 17.390625 48.6875 27.296875 
z
M 18.109375 46.390625 
Q 20.953125 51.265625 25.265625 53.625 
Q 29.59375 56 35.59375 56 
Q 45.5625 56 51.78125 48.09375 
Q 58.015625 40.1875 58.015625 27.296875 
Q 58.015625 14.40625 51.78125 6.484375 
Q 45.5625 -1.421875 35.59375 -1.421875 
Q 29.59375 -1.421875 25.265625 0.953125 
Q 20.953125 3.328125 18.109375 8.203125 
L 18.109375 0 
L 9.078125 0 
L 9.078125 75.984375 
L 18.109375 75.984375 
z
" id="DejaVuSans-98"/>
     <path d="M 31 75.875 
Q 24.46875 64.65625 21.28125 53.65625 
Q 18.109375 42.671875 18.109375 31.390625 
Q 18.109375 20.125 21.3125 9.0625 
Q 24.515625 -2 31 -13.1875 
L 23.1875 -13.1875 
Q 15.875 -1.703125 12.234375 9.375 
Q 8.59375 20.453125 8.59375 31.390625 
Q 8.59375 42.28125 12.203125 53.3125 
Q 15.828125 64.359375 23.1875 75.875 
z
" id="DejaVuSans-40"/>
     <path d="M 32.171875 -5.078125 
Q 28.375 -14.84375 24.75 -17.8125 
Q 21.140625 -20.796875 15.09375 -20.796875 
L 7.90625 -20.796875 
L 7.90625 -13.28125 
L 13.1875 -13.28125 
Q 16.890625 -13.28125 18.9375 -11.515625 
Q 21 -9.765625 23.484375 -3.21875 
L 25.09375 0.875 
L 2.984375 54.6875 
L 12.5 54.6875 
L 29.59375 11.921875 
L 46.6875 54.6875 
L 56.203125 54.6875 
z
" id="DejaVuSans-121"/>
     <path d="M 8.5 21.578125 
L 8.5 54.6875 
L 17.484375 54.6875 
L 17.484375 21.921875 
Q 17.484375 14.15625 20.5 10.265625 
Q 23.53125 6.390625 29.59375 6.390625 
Q 36.859375 6.390625 41.078125 11.03125 
Q 45.3125 15.671875 45.3125 23.6875 
L 45.3125 54.6875 
L 54.296875 54.6875 
L 54.296875 0 
L 45.3125 0 
L 45.3125 8.40625 
Q 42.046875 3.421875 37.71875 1 
Q 33.40625 -1.421875 27.6875 -1.421875 
Q 18.265625 -1.421875 13.375 4.4375 
Q 8.5 10.296875 8.5 21.578125 
z
M 31.109375 56 
z
" id="DejaVuSans-117"/>
     <path d="M 8.015625 75.875 
L 15.828125 75.875 
Q 23.140625 64.359375 26.78125 53.3125 
Q 30.421875 42.28125 30.421875 31.390625 
Q 30.421875 20.453125 26.78125 9.375 
Q 23.140625 -1.703125 15.828125 -13.1875 
L 8.015625 -13.1875 
Q 14.5 -2 17.703125 9.0625 
Q 20.90625 20.125 20.90625 31.390625 
Q 20.90625 42.671875 17.703125 53.65625 
Q 14.5 64.65625 8.015625 75.875 
z
" id="DejaVuSans-41"/>
    </defs>
    <g transform="translate(274.165938 20.8)scale(0.12 -0.12)">
     <use xlink:href="#DejaVuSans-67"/>
     <use x="69.824219" xlink:href="#DejaVuSans-97"/>
     <use x="131.103516" xlink:href="#DejaVuSans-108"/>
     <use x="158.886719" xlink:href="#DejaVuSans-105"/>
     <use x="186.669922" xlink:href="#DejaVuSans-98"/>
     <use x="250.146484" xlink:href="#DejaVuSans-114"/>
     <use x="291.259766" xlink:href="#DejaVuSans-97"/>
     <use x="352.539062" xlink:href="#DejaVuSans-116"/>
     <use x="391.748047" xlink:href="#DejaVuSans-105"/>
     <use x="419.53125" xlink:href="#DejaVuSans-111"/>
     <use x="480.712891" xlink:href="#DejaVuSans-110"/>
     <use x="544.091797" xlink:href="#DejaVuSans-32"/>
     <use x="575.878906" xlink:href="#DejaVuSans-112"/>
     <use x="639.355469" xlink:href="#DejaVuSans-108"/>
     <use x="667.138672" xlink:href="#DejaVuSans-111"/>
     <use x="728.320312" xlink:href="#DejaVuSans-116"/>
     <use x="767.529297" xlink:href="#DejaVuSans-115"/>
     <use x="819.628906" xlink:href="#DejaVuSans-32"/>
     <use x="851.416016" xlink:href="#DejaVuSans-32"/>
     <use x="883.203125" xlink:href="#DejaVuSans-40"/>
     <use x="922.216797" xlink:href="#DejaVuSans-114"/>
     <use x="963.298828" xlink:href="#DejaVuSans-101"/>
     <use x="1024.822266" xlink:href="#DejaVuSans-108"/>
     <use x="1052.605469" xlink:href="#DejaVuSans-105"/>
     <use x="1080.388672" xlink:href="#DejaVuSans-97"/>
     <use x="1141.667969" xlink:href="#DejaVuSans-98"/>
     <use x="1205.144531" xlink:href="#DejaVuSans-105"/>
     <use x="1232.927734" xlink:href="#DejaVuSans-108"/>
     <use x="1260.710938" xlink:href="#DejaVuSans-105"/>
     <use x="1288.494141" xlink:href="#DejaVuSans-116"/>
     <use x="1327.703125" xlink:href="#DejaVuSans-121"/>
     <use x="1386.882812" xlink:href="#DejaVuSans-32"/>
     <use x="1418.669922" xlink:href="#DejaVuSans-99"/>
     <use x="1473.650391" xlink:href="#DejaVuSans-117"/>
     <use x="1537.029297" xlink:href="#DejaVuSans-114"/>
     <use x="1578.142578" xlink:href="#DejaVuSans-118"/>
     <use x="1637.322266" xlink:href="#DejaVuSans-101"/>
     <use x="1698.845703" xlink:href="#DejaVuSans-41"/>
    </g>
   </g>
   <g id="legend_1">
    <g id="patch_7">
     <path d="M 520.41875 446.8 
L 702.2 446.8 
Q 704.2 446.8 704.2 444.8 
L 704.2 387.0875 
Q 704.2 385.0875 702.2 385.0875 
L 520.41875 385.0875 
Q 518.41875 385.0875 518.41875 387.0875 
L 518.41875 444.8 
Q 518.41875 446.8 520.41875 446.8 
z
" style="fill:#ffffff;opacity:0.8;stroke:#cccccc;stroke-linejoin:miter;"/>
    </g>
    <g id="line2d_17">
     <path d="M 522.41875 393.185937 
L 542.41875 393.185937 
" style="fill:none;stroke:#000000;stroke-dasharray:1.5,2.475;stroke-dashoffset:0;stroke-width:1.5;"/>
    </g>
    <g id="line2d_18"/>
    <g id="text_15">
     <!-- Calibration parfaite -->
     <g transform="translate(550.41875 396.685937)scale(0.1 -0.1)">
      <use xlink:href="#DejaVuSans-67"/>
      <use x="69.824219" xlink:href="#DejaVuSans-97"/>
      <use x="131.103516" xlink:href="#DejaVuSans-108"/>
      <use x="158.886719" xlink:href="#DejaVuSans-105"/>
      <use x="186.669922" xlink:href="#DejaVuSans-98"/>
      <use x="250.146484" xlink:href="#DejaVuSans-114"/>
      <use x="291.259766" xlink:href="#DejaVuSans-97"/>
      <use x="352.539062" xlink:href="#DejaVuSans-116"/>
      <use x="391.748047" xlink:href="#DejaVuSans-105"/>
      <use x="419.53125" xlink:href="#DejaVuSans-111"/>
      <use x="480.712891" xlink:href="#DejaVuSans-110"/>
      <use x="544.091797" xlink:href="#DejaVuSans-32"/>
      <use x="575.878906" xlink:href="#DejaVuSans-112"/>
      <use x="639.355469" xlink:href="#DejaVuSans-97"/>
      <use x="700.634766" xlink:href="#DejaVuSans-114"/>
      <use x="741.748047" xlink:href="#DejaVuSans-102"/>
      <use x="776.953125" xlink:href="#DejaVuSans-97"/>
      <use x="838.232422" xlink:href="#DejaVuSans-105"/>
      <use x="866.015625" xlink:href="#DejaVuSans-116"/>
      <use x="905.224609" xlink:href="#DejaVuSans-101"/>
     </g>
    </g>
    <g id="line2d_19">
     <path d="M 522.41875 407.864062 
L 542.41875 407.864062 
" style="fill:none;stroke:#003f5c;stroke-linecap:square;stroke-width:1.5;"/>
    </g>
    <g id="line2d_20"/>
    <g id="text_16">
     <!-- PPrediction (Brier 0.270.08) -->
     <defs>
      <path d="M 19.671875 64.796875 
L 19.671875 37.40625 
L 32.078125 37.40625 
Q 38.96875 37.40625 42.71875 40.96875 
Q 46.484375 44.53125 46.484375 51.125 
Q 46.484375 57.671875 42.71875 61.234375 
Q 38.96875 64.796875 32.078125 64.796875 
z
M 9.8125 72.90625 
L 32.078125 72.90625 
Q 44.34375 72.90625 50.609375 67.359375 
Q 56.890625 61.8125 56.890625 51.125 
Q 56.890625 40.328125 50.609375 34.8125 
Q 44.34375 29.296875 32.078125 29.296875 
L 19.671875 29.296875 
L 19.671875 0 
L 9.8125 0 
z
" id="DejaVuSans-80"/>
      <path d="M 45.40625 46.390625 
L 45.40625 75.984375 
L 54.390625 75.984375 
L 54.390625 0 
L 45.40625 0 
L 45.40625 8.203125 
Q 42.578125 3.328125 38.25 0.953125 
Q 33.9375 -1.421875 27.875 -1.421875 
Q 17.96875 -1.421875 11.734375 6.484375 
Q 5.515625 14.40625 5.515625 27.296875 
Q 5.515625 40.1875 11.734375 48.09375 
Q 17.96875 56 27.875 56 
Q 33.9375 56 38.25 53.625 
Q 42.578125 51.265625 45.40625 46.390625 
z
M 14.796875 27.296875 
Q 14.796875 17.390625 18.875 11.75 
Q 22.953125 6.109375 30.078125 6.109375 
Q 37.203125 6.109375 41.296875 11.75 
Q 45.40625 17.390625 45.40625 27.296875 
Q 45.40625 37.203125 41.296875 42.84375 
Q 37.203125 48.484375 30.078125 48.484375 
Q 22.953125 48.484375 18.875 42.84375 
Q 14.796875 37.203125 14.796875 27.296875 
z
" id="DejaVuSans-100"/>
      <path d="M 19.671875 34.8125 
L 19.671875 8.109375 
L 35.5 8.109375 
Q 43.453125 8.109375 47.28125 11.40625 
Q 51.125 14.703125 51.125 21.484375 
Q 51.125 28.328125 47.28125 31.5625 
Q 43.453125 34.8125 35.5 34.8125 
z
M 19.671875 64.796875 
L 19.671875 42.828125 
L 34.28125 42.828125 
Q 41.5 42.828125 45.03125 45.53125 
Q 48.578125 48.25 48.578125 53.8125 
Q 48.578125 59.328125 45.03125 62.0625 
Q 41.5 64.796875 34.28125 64.796875 
z
M 9.8125 72.90625 
L 35.015625 72.90625 
Q 46.296875 72.90625 52.390625 68.21875 
Q 58.5 63.53125 58.5 54.890625 
Q 58.5 48.1875 55.375 44.234375 
Q 52.25 40.28125 46.1875 39.3125 
Q 53.46875 37.75 57.5 32.78125 
Q 61.53125 27.828125 61.53125 20.40625 
Q 61.53125 10.640625 54.890625 5.3125 
Q 48.25 0 35.984375 0 
L 9.8125 0 
z
" id="DejaVuSans-66"/>
      <path d="M 8.203125 72.90625 
L 55.078125 72.90625 
L 55.078125 68.703125 
L 28.609375 0 
L 18.3125 0 
L 43.21875 64.59375 
L 8.203125 64.59375 
z
" id="DejaVuSans-55"/>
      <path d="M 46 62.703125 
L 46 43.796875 
L 73.1875 43.796875 
L 73.1875 35.5 
L 46 35.5 
L 46 16.609375 
L 37.796875 16.609375 
L 37.796875 35.5 
L 10.59375 35.5 
L 10.59375 43.796875 
L 37.796875 43.796875 
L 37.796875 62.703125 
z
M 10.59375 8.296875 
L 73.1875 8.296875 
L 73.1875 0 
L 10.59375 0 
z
" id="DejaVuSans-177"/>
     </defs>
     <g transform="translate(550.41875 411.364062)scale(0.1 -0.1)">
      <use xlink:href="#DejaVuSans-80"/>
      <use x="60.302734" xlink:href="#DejaVuSans-80"/>
      <use x="120.589844" xlink:href="#DejaVuSans-114"/>
      <use x="161.671875" xlink:href="#DejaVuSans-101"/>
      <use x="223.195312" xlink:href="#DejaVuSans-100"/>
      <use x="286.671875" xlink:href="#DejaVuSans-105"/>
      <use x="314.455078" xlink:href="#DejaVuSans-99"/>
      <use x="369.435547" xlink:href="#DejaVuSans-116"/>
      <use x="408.644531" xlink:href="#DejaVuSans-105"/>
      <use x="436.427734" xlink:href="#DejaVuSans-111"/>
      <use x="497.609375" xlink:href="#DejaVuSans-110"/>
      <use x="560.988281" xlink:href="#DejaVuSans-32"/>
      <use x="592.775391" xlink:href="#DejaVuSans-40"/>
      <use x="631.789062" xlink:href="#DejaVuSans-66"/>
      <use x="700.392578" xlink:href="#DejaVuSans-114"/>
      <use x="741.505859" xlink:href="#DejaVuSans-105"/>
      <use x="769.289062" xlink:href="#DejaVuSans-101"/>
      <use x="830.8125" xlink:href="#DejaVuSans-114"/>
      <use x="871.925781" xlink:href="#DejaVuSans-32"/>
      <use x="903.712891" xlink:href="#DejaVuSans-48"/>
      <use x="967.335938" xlink:href="#DejaVuSans-46"/>
      <use x="999.123047" xlink:href="#DejaVuSans-50"/>
      <use x="1062.746094" xlink:href="#DejaVuSans-55"/>
      <use x="1126.369141" xlink:href="#DejaVuSans-177"/>
      <use x="1210.158203" xlink:href="#DejaVuSans-48"/>
      <use x="1273.78125" xlink:href="#DejaVuSans-46"/>
      <use x="1305.568359" xlink:href="#DejaVuSans-48"/>
      <use x="1369.191406" xlink:href="#DejaVuSans-56"/>
      <use x="1432.814453" xlink:href="#DejaVuSans-41"/>
     </g>
    </g>
    <g id="line2d_21">
     <path d="M 522.41875 422.542187 
L 542.41875 422.542187 
" style="fill:none;stroke:#58508d;stroke-linecap:square;stroke-width:1.5;"/>
    </g>
    <g id="line2d_22"/>
    <g id="text_17">
     <!-- DPrediction (Brier 0.230.04) -->
     <defs>
      <path d="M 19.671875 64.796875 
L 19.671875 8.109375 
L 31.59375 8.109375 
Q 46.6875 8.109375 53.6875 14.9375 
Q 60.6875 21.78125 60.6875 36.53125 
Q 60.6875 51.171875 53.6875 57.984375 
Q 46.6875 64.796875 31.59375 64.796875 
z
M 9.8125 72.90625 
L 30.078125 72.90625 
Q 51.265625 72.90625 61.171875 64.09375 
Q 71.09375 55.28125 71.09375 36.53125 
Q 71.09375 17.671875 61.125 8.828125 
Q 51.171875 0 30.078125 0 
L 9.8125 0 
z
" id="DejaVuSans-68"/>
      <path d="M 40.578125 39.3125 
Q 47.65625 37.796875 51.625 33 
Q 55.609375 28.21875 55.609375 21.1875 
Q 55.609375 10.40625 48.1875 4.484375 
Q 40.765625 -1.421875 27.09375 -1.421875 
Q 22.515625 -1.421875 17.65625 -0.515625 
Q 12.796875 0.390625 7.625 2.203125 
L 7.625 11.71875 
Q 11.71875 9.328125 16.59375 8.109375 
Q 21.484375 6.890625 26.8125 6.890625 
Q 36.078125 6.890625 40.9375 10.546875 
Q 45.796875 14.203125 45.796875 21.1875 
Q 45.796875 27.640625 41.28125 31.265625 
Q 36.765625 34.90625 28.71875 34.90625 
L 20.21875 34.90625 
L 20.21875 43.015625 
L 29.109375 43.015625 
Q 36.375 43.015625 40.234375 45.921875 
Q 44.09375 48.828125 44.09375 54.296875 
Q 44.09375 59.90625 40.109375 62.90625 
Q 36.140625 65.921875 28.71875 65.921875 
Q 24.65625 65.921875 20.015625 65.03125 
Q 15.375 64.15625 9.8125 62.3125 
L 9.8125 71.09375 
Q 15.4375 72.65625 20.34375 73.4375 
Q 25.25 74.21875 29.59375 74.21875 
Q 40.828125 74.21875 47.359375 69.109375 
Q 53.90625 64.015625 53.90625 55.328125 
Q 53.90625 49.265625 50.4375 45.09375 
Q 46.96875 40.921875 40.578125 39.3125 
z
" id="DejaVuSans-51"/>
     </defs>
     <g transform="translate(550.41875 426.042187)scale(0.1 -0.1)">
      <use xlink:href="#DejaVuSans-68"/>
      <use x="77.001953" xlink:href="#DejaVuSans-80"/>
      <use x="137.289062" xlink:href="#DejaVuSans-114"/>
      <use x="178.371094" xlink:href="#DejaVuSans-101"/>
      <use x="239.894531" xlink:href="#DejaVuSans-100"/>
      <use x="303.371094" xlink:href="#DejaVuSans-105"/>
      <use x="331.154297" xlink:href="#DejaVuSans-99"/>
      <use x="386.134766" xlink:href="#DejaVuSans-116"/>
      <use x="425.34375" xlink:href="#DejaVuSans-105"/>
      <use x="453.126953" xlink:href="#DejaVuSans-111"/>
      <use x="514.308594" xlink:href="#DejaVuSans-110"/>
      <use x="577.6875" xlink:href="#DejaVuSans-32"/>
      <use x="609.474609" xlink:href="#DejaVuSans-40"/>
      <use x="648.488281" xlink:href="#DejaVuSans-66"/>
      <use x="717.091797" xlink:href="#DejaVuSans-114"/>
      <use x="758.205078" xlink:href="#DejaVuSans-105"/>
      <use x="785.988281" xlink:href="#DejaVuSans-101"/>
      <use x="847.511719" xlink:href="#DejaVuSans-114"/>
      <use x="888.625" xlink:href="#DejaVuSans-32"/>
      <use x="920.412109" xlink:href="#DejaVuSans-48"/>
      <use x="984.035156" xlink:href="#DejaVuSans-46"/>
      <use x="1015.822266" xlink:href="#DejaVuSans-50"/>
      <use x="1079.445312" xlink:href="#DejaVuSans-51"/>
      <use x="1143.068359" xlink:href="#DejaVuSans-177"/>
      <use x="1226.857422" xlink:href="#DejaVuSans-48"/>
      <use x="1290.480469" xlink:href="#DejaVuSans-46"/>
      <use x="1322.267578" xlink:href="#DejaVuSans-48"/>
      <use x="1385.890625" xlink:href="#DejaVuSans-52"/>
      <use x="1449.513672" xlink:href="#DejaVuSans-41"/>
     </g>
    </g>
    <g id="line2d_23">
     <path d="M 522.41875 437.220312 
L 542.41875 437.220312 
" style="fill:none;stroke:#bc5090;stroke-linecap:square;stroke-width:1.5;"/>
    </g>
    <g id="line2d_24"/>
    <g id="text_18">
     <!-- MPrediction (Brier 0.240.09) -->
     <defs>
      <path d="M 9.8125 72.90625 
L 24.515625 72.90625 
L 43.109375 23.296875 
L 61.8125 72.90625 
L 76.515625 72.90625 
L 76.515625 0 
L 66.890625 0 
L 66.890625 64.015625 
L 48.09375 14.015625 
L 38.1875 14.015625 
L 19.390625 64.015625 
L 19.390625 0 
L 9.8125 0 
z
" id="DejaVuSans-77"/>
      <path d="M 10.984375 1.515625 
L 10.984375 10.5 
Q 14.703125 8.734375 18.5 7.8125 
Q 22.3125 6.890625 25.984375 6.890625 
Q 35.75 6.890625 40.890625 13.453125 
Q 46.046875 20.015625 46.78125 33.40625 
Q 43.953125 29.203125 39.59375 26.953125 
Q 35.25 24.703125 29.984375 24.703125 
Q 19.046875 24.703125 12.671875 31.3125 
Q 6.296875 37.9375 6.296875 49.421875 
Q 6.296875 60.640625 12.9375 67.421875 
Q 19.578125 74.21875 30.609375 74.21875 
Q 43.265625 74.21875 49.921875 64.515625 
Q 56.59375 54.828125 56.59375 36.375 
Q 56.59375 19.140625 48.40625 8.859375 
Q 40.234375 -1.421875 26.421875 -1.421875 
Q 22.703125 -1.421875 18.890625 -0.6875 
Q 15.09375 0.046875 10.984375 1.515625 
z
M 30.609375 32.421875 
Q 37.25 32.421875 41.125 36.953125 
Q 45.015625 41.5 45.015625 49.421875 
Q 45.015625 57.28125 41.125 61.84375 
Q 37.25 66.40625 30.609375 66.40625 
Q 23.96875 66.40625 20.09375 61.84375 
Q 16.21875 57.28125 16.21875 49.421875 
Q 16.21875 41.5 20.09375 36.953125 
Q 23.96875 32.421875 30.609375 32.421875 
z
" id="DejaVuSans-57"/>
     </defs>
     <g transform="translate(550.41875 440.720312)scale(0.1 -0.1)">
      <use xlink:href="#DejaVuSans-77"/>
      <use x="86.279297" xlink:href="#DejaVuSans-80"/>
      <use x="146.566406" xlink:href="#DejaVuSans-114"/>
      <use x="187.648438" xlink:href="#DejaVuSans-101"/>
      <use x="249.171875" xlink:href="#DejaVuSans-100"/>
      <use x="312.648438" xlink:href="#DejaVuSans-105"/>
      <use x="340.431641" xlink:href="#DejaVuSans-99"/>
      <use x="395.412109" xlink:href="#DejaVuSans-116"/>
      <use x="434.621094" xlink:href="#DejaVuSans-105"/>
      <use x="462.404297" xlink:href="#DejaVuSans-111"/>
      <use x="523.585938" xlink:href="#DejaVuSans-110"/>
      <use x="586.964844" xlink:href="#DejaVuSans-32"/>
      <use x="618.751953" xlink:href="#DejaVuSans-40"/>
      <use x="657.765625" xlink:href="#DejaVuSans-66"/>
      <use x="726.369141" xlink:href="#DejaVuSans-114"/>
      <use x="767.482422" xlink:href="#DejaVuSans-105"/>
      <use x="795.265625" xlink:href="#DejaVuSans-101"/>
      <use x="856.789062" xlink:href="#DejaVuSans-114"/>
      <use x="897.902344" xlink:href="#DejaVuSans-32"/>
      <use x="929.689453" xlink:href="#DejaVuSans-48"/>
      <use x="993.3125" xlink:href="#DejaVuSans-46"/>
      <use x="1025.099609" xlink:href="#DejaVuSans-50"/>
      <use x="1088.722656" xlink:href="#DejaVuSans-52"/>
      <use x="1152.345703" xlink:href="#DejaVuSans-177"/>
      <use x="1236.134766" xlink:href="#DejaVuSans-48"/>
      <use x="1299.757812" xlink:href="#DejaVuSans-46"/>
      <use x="1331.544922" xlink:href="#DejaVuSans-48"/>
      <use x="1395.167969" xlink:href="#DejaVuSans-57"/>
      <use x="1458.791016" xlink:href="#DejaVuSans-41"/>
     </g>
    </g>
   </g>
  </g>
  <g id="axes_2">
   <g id="patch_8">
    <path d="M 47.675 678.2 
L 709.2 678.2 
L 709.2 479.6 
L 47.675 479.6 
z
" style="fill:#ffffff;"/>
   </g>
   <g id="patch_9">
    <path clip-path="url(#p29ba417dc9)" d="M 77.744318 678.2 
L 77.744318 661.005195 
L 137.882955 661.005195 
L 137.882955 678.2 
L 198.021591 678.2 
L 198.021591 661.005195 
L 258.160227 661.005195 
L 258.160227 592.225974 
L 318.298864 592.225974 
L 318.298864 661.005195 
L 378.4375 661.005195 
L 378.4375 609.420779 
L 438.576136 609.420779 
L 438.576136 626.615584 
L 498.714773 626.615584 
L 498.714773 592.225974 
L 558.853409 592.225974 
L 558.853409 661.005195 
L 618.992045 661.005195 
L 618.992045 661.005195 
L 679.130682 661.005195 
L 679.130682 678.2 
" style="fill:none;stroke:#003f5c;stroke-linejoin:miter;stroke-width:2;"/>
   </g>
   <g id="patch_10">
    <path clip-path="url(#p29ba417dc9)" d="M 77.744318 678.2 
L 77.744318 661.005195 
L 137.882955 661.005195 
L 137.882955 678.2 
L 198.021591 678.2 
L 198.021591 678.2 
L 258.160227 678.2 
L 258.160227 678.2 
L 318.298864 678.2 
L 318.298864 592.225974 
L 378.4375 592.225974 
L 378.4375 609.420779 
L 438.576136 609.420779 
L 438.576136 575.031169 
L 498.714773 575.031169 
L 498.714773 661.005195 
L 558.853409 661.005195 
L 558.853409 643.81039 
L 618.992045 643.81039 
L 618.992045 626.615584 
L 679.130682 626.615584 
L 679.130682 678.2 
" style="fill:none;stroke:#58508d;stroke-linejoin:miter;stroke-width:2;"/>
   </g>
   <g id="patch_11">
    <path clip-path="url(#p29ba417dc9)" d="M 77.744318 678.2 
L 77.744318 489.057143 
L 137.882955 489.057143 
L 137.882955 678.2 
L 198.021591 678.2 
L 198.021591 678.2 
L 258.160227 678.2 
L 258.160227 678.2 
L 318.298864 678.2 
L 318.298864 678.2 
L 378.4375 678.2 
L 378.4375 678.2 
L 438.576136 678.2 
L 438.576136 678.2 
L 498.714773 678.2 
L 498.714773 678.2 
L 558.853409 678.2 
L 558.853409 678.2 
L 618.992045 678.2 
L 618.992045 489.057143 
L 679.130682 489.057143 
L 679.130682 678.2 
" style="fill:none;stroke:#bc5090;stroke-linejoin:miter;stroke-width:2;"/>
   </g>
   <g id="matplotlib.axis_3">
    <g id="xtick_7">
     <g id="line2d_25">
      <g>
       <use style="stroke:#000000;stroke-width:0.8;" x="77.744318" xlink:href="#m44c6dc0928" y="678.2"/>
      </g>
     </g>
     <g id="text_19">
      <!-- 0.0 -->
      <g transform="translate(69.792756 692.798437)scale(0.1 -0.1)">
       <use xlink:href="#DejaVuSans-48"/>
       <use x="63.623047" xlink:href="#DejaVuSans-46"/>
       <use x="95.410156" xlink:href="#DejaVuSans-48"/>
      </g>
     </g>
    </g>
    <g id="xtick_8">
     <g id="line2d_26">
      <g>
       <use style="stroke:#000000;stroke-width:0.8;" x="198.021591" xlink:href="#m44c6dc0928" y="678.2"/>
      </g>
     </g>
     <g id="text_20">
      <!-- 0.2 -->
      <g transform="translate(190.070028 692.798437)scale(0.1 -0.1)">
       <use xlink:href="#DejaVuSans-48"/>
       <use x="63.623047" xlink:href="#DejaVuSans-46"/>
       <use x="95.410156" xlink:href="#DejaVuSans-50"/>
      </g>
     </g>
    </g>
    <g id="xtick_9">
     <g id="line2d_27">
      <g>
       <use style="stroke:#000000;stroke-width:0.8;" x="318.298864" xlink:href="#m44c6dc0928" y="678.2"/>
      </g>
     </g>
     <g id="text_21">
      <!-- 0.4 -->
      <g transform="translate(310.347301 692.798437)scale(0.1 -0.1)">
       <use xlink:href="#DejaVuSans-48"/>
       <use x="63.623047" xlink:href="#DejaVuSans-46"/>
       <use x="95.410156" xlink:href="#DejaVuSans-52"/>
      </g>
     </g>
    </g>
    <g id="xtick_10">
     <g id="line2d_28">
      <g>
       <use style="stroke:#000000;stroke-width:0.8;" x="438.576136" xlink:href="#m44c6dc0928" y="678.2"/>
      </g>
     </g>
     <g id="text_22">
      <!-- 0.6 -->
      <g transform="translate(430.624574 692.798437)scale(0.1 -0.1)">
       <use xlink:href="#DejaVuSans-48"/>
       <use x="63.623047" xlink:href="#DejaVuSans-46"/>
       <use x="95.410156" xlink:href="#DejaVuSans-54"/>
      </g>
     </g>
    </g>
    <g id="xtick_11">
     <g id="line2d_29">
      <g>
       <use style="stroke:#000000;stroke-width:0.8;" x="558.853409" xlink:href="#m44c6dc0928" y="678.2"/>
      </g>
     </g>
     <g id="text_23">
      <!-- 0.8 -->
      <g transform="translate(550.901847 692.798437)scale(0.1 -0.1)">
       <use xlink:href="#DejaVuSans-48"/>
       <use x="63.623047" xlink:href="#DejaVuSans-46"/>
       <use x="95.410156" xlink:href="#DejaVuSans-56"/>
      </g>
     </g>
    </g>
    <g id="xtick_12">
     <g id="line2d_30">
      <g>
       <use style="stroke:#000000;stroke-width:0.8;" x="679.130682" xlink:href="#m44c6dc0928" y="678.2"/>
      </g>
     </g>
     <g id="text_24">
      <!-- 1.0 -->
      <g transform="translate(671.179119 692.798437)scale(0.1 -0.1)">
       <use xlink:href="#DejaVuSans-49"/>
       <use x="63.623047" xlink:href="#DejaVuSans-46"/>
       <use x="95.410156" xlink:href="#DejaVuSans-48"/>
      </g>
     </g>
    </g>
    <g id="text_25">
     <!-- Mean predicted value -->
     <g transform="translate(324.15 706.476562)scale(0.1 -0.1)">
      <use xlink:href="#DejaVuSans-77"/>
      <use x="86.279297" xlink:href="#DejaVuSans-101"/>
      <use x="147.802734" xlink:href="#DejaVuSans-97"/>
      <use x="209.082031" xlink:href="#DejaVuSans-110"/>
      <use x="272.460938" xlink:href="#DejaVuSans-32"/>
      <use x="304.248047" xlink:href="#DejaVuSans-112"/>
      <use x="367.724609" xlink:href="#DejaVuSans-114"/>
      <use x="408.806641" xlink:href="#DejaVuSans-101"/>
      <use x="470.330078" xlink:href="#DejaVuSans-100"/>
      <use x="533.806641" xlink:href="#DejaVuSans-105"/>
      <use x="561.589844" xlink:href="#DejaVuSans-99"/>
      <use x="616.570312" xlink:href="#DejaVuSans-116"/>
      <use x="655.779297" xlink:href="#DejaVuSans-101"/>
      <use x="717.302734" xlink:href="#DejaVuSans-100"/>
      <use x="780.779297" xlink:href="#DejaVuSans-32"/>
      <use x="812.566406" xlink:href="#DejaVuSans-118"/>
      <use x="871.746094" xlink:href="#DejaVuSans-97"/>
      <use x="933.025391" xlink:href="#DejaVuSans-108"/>
      <use x="960.808594" xlink:href="#DejaVuSans-117"/>
      <use x="1024.1875" xlink:href="#DejaVuSans-101"/>
     </g>
    </g>
   </g>
   <g id="matplotlib.axis_4">
    <g id="ytick_7">
     <g id="line2d_31">
      <g>
       <use style="stroke:#000000;stroke-width:0.8;" x="47.675" xlink:href="#m32a5894383" y="678.2"/>
      </g>
     </g>
     <g id="text_26">
      <!-- 0 -->
      <g transform="translate(34.3125 681.999219)scale(0.1 -0.1)">
       <use xlink:href="#DejaVuSans-48"/>
      </g>
     </g>
    </g>
    <g id="ytick_8">
     <g id="line2d_32">
      <g>
       <use style="stroke:#000000;stroke-width:0.8;" x="47.675" xlink:href="#m32a5894383" y="643.81039"/>
      </g>
     </g>
     <g id="text_27">
      <!-- 2 -->
      <g transform="translate(34.3125 647.609608)scale(0.1 -0.1)">
       <use xlink:href="#DejaVuSans-50"/>
      </g>
     </g>
    </g>
    <g id="ytick_9">
     <g id="line2d_33">
      <g>
       <use style="stroke:#000000;stroke-width:0.8;" x="47.675" xlink:href="#m32a5894383" y="609.420779"/>
      </g>
     </g>
     <g id="text_28">
      <!-- 4 -->
      <g transform="translate(34.3125 613.219998)scale(0.1 -0.1)">
       <use xlink:href="#DejaVuSans-52"/>
      </g>
     </g>
    </g>
    <g id="ytick_10">
     <g id="line2d_34">
      <g>
       <use style="stroke:#000000;stroke-width:0.8;" x="47.675" xlink:href="#m32a5894383" y="575.031169"/>
      </g>
     </g>
     <g id="text_29">
      <!-- 6 -->
      <g transform="translate(34.3125 578.830388)scale(0.1 -0.1)">
       <use xlink:href="#DejaVuSans-54"/>
      </g>
     </g>
    </g>
    <g id="ytick_11">
     <g id="line2d_35">
      <g>
       <use style="stroke:#000000;stroke-width:0.8;" x="47.675" xlink:href="#m32a5894383" y="540.641558"/>
      </g>
     </g>
     <g id="text_30">
      <!-- 8 -->
      <g transform="translate(34.3125 544.440777)scale(0.1 -0.1)">
       <use xlink:href="#DejaVuSans-56"/>
      </g>
     </g>
    </g>
    <g id="ytick_12">
     <g id="line2d_36">
      <g>
       <use style="stroke:#000000;stroke-width:0.8;" x="47.675" xlink:href="#m32a5894383" y="506.251948"/>
      </g>
     </g>
     <g id="text_31">
      <!-- 10 -->
      <g transform="translate(27.95 510.051167)scale(0.1 -0.1)">
       <use xlink:href="#DejaVuSans-49"/>
       <use x="63.623047" xlink:href="#DejaVuSans-48"/>
      </g>
     </g>
    </g>
    <g id="text_32">
     <!-- Count -->
     <g transform="translate(21.870312 593.748437)rotate(-90)scale(0.1 -0.1)">
      <use xlink:href="#DejaVuSans-67"/>
      <use x="69.824219" xlink:href="#DejaVuSans-111"/>
      <use x="131.005859" xlink:href="#DejaVuSans-117"/>
      <use x="194.384766" xlink:href="#DejaVuSans-110"/>
      <use x="257.763672" xlink:href="#DejaVuSans-116"/>
     </g>
    </g>
   </g>
   <g id="patch_12">
    <path d="M 47.675 678.2 
L 47.675 479.6 
" style="fill:none;stroke:#000000;stroke-linecap:square;stroke-linejoin:miter;stroke-width:0.8;"/>
   </g>
   <g id="patch_13">
    <path d="M 709.2 678.2 
L 709.2 479.6 
" style="fill:none;stroke:#000000;stroke-linecap:square;stroke-linejoin:miter;stroke-width:0.8;"/>
   </g>
   <g id="patch_14">
    <path d="M 47.675 678.2 
L 709.2 678.2 
" style="fill:none;stroke:#000000;stroke-linecap:square;stroke-linejoin:miter;stroke-width:0.8;"/>
   </g>
   <g id="patch_15">
    <path d="M 47.675 479.6 
L 709.2 479.6 
" style="fill:none;stroke:#000000;stroke-linecap:square;stroke-linejoin:miter;stroke-width:0.8;"/>
   </g>
   <g id="legend_2">
    <g id="patch_16">
     <path d="M 280.204688 516.95625 
L 476.670313 516.95625 
Q 478.670313 516.95625 478.670313 514.95625 
L 478.670313 486.6 
Q 478.670313 484.6 476.670313 484.6 
L 280.204688 484.6 
Q 278.204688 484.6 278.204688 486.6 
L 278.204688 514.95625 
Q 278.204688 516.95625 280.204688 516.95625 
z
" style="fill:#ffffff;opacity:0.8;stroke:#cccccc;stroke-linejoin:miter;"/>
    </g>
    <g id="patch_17">
     <path d="M 282.204688 496.198437 
L 302.204688 496.198437 
L 302.204688 489.198437 
L 282.204688 489.198437 
z
" style="fill:none;stroke:#003f5c;stroke-linejoin:miter;stroke-width:2;"/>
    </g>
    <g id="text_33">
     <!-- PPrediction -->
     <g transform="translate(310.204688 496.198437)scale(0.1 -0.1)">
      <use xlink:href="#DejaVuSans-80"/>
      <use x="60.302734" xlink:href="#DejaVuSans-80"/>
      <use x="120.589844" xlink:href="#DejaVuSans-114"/>
      <use x="161.671875" xlink:href="#DejaVuSans-101"/>
      <use x="223.195312" xlink:href="#DejaVuSans-100"/>
      <use x="286.671875" xlink:href="#DejaVuSans-105"/>
      <use x="314.455078" xlink:href="#DejaVuSans-99"/>
      <use x="369.435547" xlink:href="#DejaVuSans-116"/>
      <use x="408.644531" xlink:href="#DejaVuSans-105"/>
      <use x="436.427734" xlink:href="#DejaVuSans-111"/>
      <use x="497.609375" xlink:href="#DejaVuSans-110"/>
     </g>
    </g>
    <g id="patch_18">
     <path d="M 282.204688 510.876562 
L 302.204688 510.876562 
L 302.204688 503.876562 
L 282.204688 503.876562 
z
" style="fill:none;stroke:#58508d;stroke-linejoin:miter;stroke-width:2;"/>
    </g>
    <g id="text_34">
     <!-- DPrediction -->
     <g transform="translate(310.204688 510.876562)scale(0.1 -0.1)">
      <use xlink:href="#DejaVuSans-68"/>
      <use x="77.001953" xlink:href="#DejaVuSans-80"/>
      <use x="137.289062" xlink:href="#DejaVuSans-114"/>
      <use x="178.371094" xlink:href="#DejaVuSans-101"/>
      <use x="239.894531" xlink:href="#DejaVuSans-100"/>
      <use x="303.371094" xlink:href="#DejaVuSans-105"/>
      <use x="331.154297" xlink:href="#DejaVuSans-99"/>
      <use x="386.134766" xlink:href="#DejaVuSans-116"/>
      <use x="425.34375" xlink:href="#DejaVuSans-105"/>
      <use x="453.126953" xlink:href="#DejaVuSans-111"/>
      <use x="514.308594" xlink:href="#DejaVuSans-110"/>
     </g>
    </g>
    <g id="patch_19">
     <path d="M 387.973438 496.198437 
L 407.973438 496.198437 
L 407.973438 489.198437 
L 387.973438 489.198437 
z
" style="fill:none;stroke:#bc5090;stroke-linejoin:miter;stroke-width:2;"/>
    </g>
    <g id="text_35">
     <!-- MPrediction -->
     <g transform="translate(415.973438 496.198437)scale(0.1 -0.1)">
      <use xlink:href="#DejaVuSans-77"/>
      <use x="86.279297" xlink:href="#DejaVuSans-80"/>
      <use x="146.566406" xlink:href="#DejaVuSans-114"/>
      <use x="187.648438" xlink:href="#DejaVuSans-101"/>
      <use x="249.171875" xlink:href="#DejaVuSans-100"/>
      <use x="312.648438" xlink:href="#DejaVuSans-105"/>
      <use x="340.431641" xlink:href="#DejaVuSans-99"/>
      <use x="395.412109" xlink:href="#DejaVuSans-116"/>
      <use x="434.621094" xlink:href="#DejaVuSans-105"/>
      <use x="462.404297" xlink:href="#DejaVuSans-111"/>
      <use x="523.585938" xlink:href="#DejaVuSans-110"/>
     </g>
    </g>
   </g>
  </g>
 </g>
 <defs>
  <clipPath id="p9fb2c04053">
   <rect height="425" width="661.525" x="47.675" y="26.8"/>
  </clipPath>
  <clipPath id="p29ba417dc9">
   <rect height="198.6" width="661.525" x="47.675" y="479.6"/>
  </clipPath>
 </defs>
</svg>
